<?xml version="1.0" encoding="UTF-8"?><svg id="Warstwa_1" xmlns="http://www.w3.org/2000/svg" viewBox="0 0 60.76 155.11"><path d="M60.2,63.54c.15-1.04-.76-2.23-1.47-2.55-9.82-4.37-19.77-5.35-30.72-5.23,9.97-2.94,20.45-1.8,30.21,1.66l1.58.19c.35.04.77-.87.96-1.27l-.43-10.51c-11.07-4.23-22.32-5.27-33.75-3.67,10.19-4.02,20.8-3.8,31.09-1.21.36.09,1.08.35,1.22.14l.91-1.34c-1.2-7.34-3.03-14.16-6.15-20.85-2.47-4.85-5.29-9.15-9.27-12.8-8.86-8.13-21.96-8.16-30.81.12C3.19,15.93-.6,32.62.07,46.82l.26,5.59c.33,7.02,2.34,13.57,5.51,19.79,9.1,17.86,4.02,30.25,5.33,32.55.28.48,1.46.94,2.15,1.03l32.93,4.33c.96.13,2.37-.69,2.52-1.58,1.42-8.57,3.55-16.55,6.37-24.74,2.3-6.66,4.01-12.98,5.06-20.24Z"/><path d="M43.05,147.3c3.27-4.26,5.01-9,5.44-13.98l1.31-15.35c.06-.71-1.08-2.04-1.82-2.14l-36.85-4.92c-1.22-.16-2.38.96-2.57,2.08-1.93,11.83-4.99,26.03,3.32,35.44s23.49,8.84,31.16-1.14Z"/></svg>