<?xml version="1.0" encoding="UTF-8"?><svg xmlns="http://www.w3.org/2000/svg" viewBox="0 0 900 199"><g id="drzewko"><path d="M0,190.43v-14.61c1.88-.48,4.18.77,4.43,2.69l1.39-.62-2.01-1.76c-.5-.44-2.82-1.42-3.82-1.06v-14.43c.95-.08,1.65-1.01,2.46-1.78,1.18-1.12,2.89-1.86,2.64-3.91l-1.17,2.14-2.31,1.84c-.5.4-1.1.82-1.62.82v-9.5c1.96-.36,1.75-1.78,3.36-3.03-1.57-.05-1.62,2.02-3.36,2.46v-6.29s2.28-.48,2.28-.48l3.44-4.62c1.16-1.56,2.24-3.08,2.2-5.07l-.69,1.11c-.15.24-.77.32-1.26.43l1.11.52c-.54.69-1.39.43-2.04,0-1.65.68-3.35,1.19-5.04.98v-3.77s3.39-.76,3.39-.76l3.02-.93c.48-.15,1.62.3,2.12.49l-.07,1.37c.47-1.15.77-2.47,1.4-3.29.99-1.26,1.5-2.28,1.47-3.91-.05-2.12.34-4.19,1.18-6.11.69-1.57.81-3.24.58-4.93-.49-3.68.34-7.09.93-10.75.11-1.54-.66-3.37-.66-4.89,0-3.22-.65-5.64-2.42-8.3s-3.15-5.47-5.6-4.4c.65.57,1.29,1.06,1.44,1.52.24.72-.52,1.51-1.21,1.56l.49.7c.12.17-.09.84-.3.83l-1.03-.05-.38,1.16c-.09.27-.87.5-1.14.38-.62-.27-1.15-1.14-1.34-1.68l-.6,1.18c-.15.3-.98.36-1.27.18v-3.76s.55-1.41.55-1.41l2.1-.77c-.77-.72-1.68-.94-2.65-.85v-3.27s3.87.66,3.87.66c.14.02.51.44.61.55s.48-.52.44-.61l-2.02-1.34-1.67.12c0-.64.16-1.25-.08-1.41L0,78.96v-3.47s3.95,1.91,3.95,1.91c-.12-.49-.46-.96-.86-1.45l-.16-.93c-.05-.26-1.87-.98-1.58-1.51l.5-.92c-.25-.34-.58-.83-.66-1.11-.09-.34.86-.76,1.16-.58.15.09.6.42.71.32l.62-.59c.35,1.06.68,1.65,1.25,2.58.37.6.42,1.84,1.4,1.89-.35-1.16-.75-2.6-.46-3.63.13-.46,1.54-.67,1.94-.42s.69,1,.85,1.59c.35-.01,1-.01,1.3.1.79.31-.15,1.72-.02,2.46.72-.1,1.48-.21,1.7.13s.08,1.27,0,1.68c.24.37.68.96.71,1.34s-.53,1.13-.85,1.31l-.96-.5c-.59,1.53.43,1.87,1.42,2.58,1.56,1.12,3.02,2.54,4.4,3.85l.74,1.14.28-4.22c.13-2-.1-3.66-.53-5.58-.53-2.34-.91-4.36-2.29-6.45-.69-1.05-.91-3.15-1.89-4.09l-6.64-4.9c-1.08-.8-2.13-1.08-3.58-.4l1.47.83c-.19.26-.71.79-.97.75s-.61-.32-.95-.56l-.74-.54c-.16-.12.08-.63.19-.92L0,59.48v-3.48s3.34.44,3.34.44l-1.4-1.5-.54.78c-.16.22-.85.07-1.01-.15s-.13-1.03.15-1.04l1.29-.03c-.08-.77-.97-1.24-1.83-1.6v-3.19s2.32.91,2.32.91l.7.26c.21.08.15-.78,0-.98L0,45.69v-9.21s.74,1.4.74,1.4l1.38,2.61c1.16.66,1.48,1.76,1.63,3.02,1.08,1.05,2.52,2.23,2.68,3.72.09.91.26,1.67.87,2.17l-.07-1.3.66.27c.09.04.32-.3.33-.4l.34-2.19c1.33-1.1.03-3.04,2.18-3.35l-.15,2.7.55.03c-.36-1.22.3-2.34,1.59-2.17-.49,1.5-1.65,3.28-1.68,4.74l-.07,2.69c.99,3.36,2.63,6.42,4.76,9.24,1.81.81,2.8,2.26,3.17,4.25.89.74,1.85,1.36,2.72,2.24s2.04,4.21,2.23,3.37l.13-.62,2.08-5.65.49-2.64c.35-1.87,2.65-5.47.25-10.66.16-1.37-.43-2.49-1.42-3.41-.49-1.53-1.4-2.75-2.93-3.31l-.57,1.57c.4.46.77.99.73,1.36-.03.32-.67.98-.96.84l-1.24-.57c-.04.64-.1,1.72-.33,2.23-.2.46-1.27.87-1.8.65-.71-.3-.94-1.43-.72-2.45-.1,0-.68-.07-.51-.05-.89,1.4-2.79,1.92-3.58.87-.46-.62-.11-1.54.54-1.98l-.89-.93c-.19-.2.26-1.04.44-1.25.48-.54,1.46-.81,2.12-.7l.71-1.62-.79-.59c-.3-.22-.6.85-3.06-.05-.74-.27-1.48-.5-1.65-1.25-.12-.52.44-1.32.88-1.71-.88-.52-1.22-1.6-.58-2.34.44-.51,1.54-.45,2.19-.2.22-.33.76-.87,1.08-.78.26.08.72.5.86.74l1.09,1.76.42.41c.67.66-.94-2.19-.32-3.24.28-.48.99-1.05,1.4-.99.35.05.88.61,1.17.88l1.25.14c.31.03.72.9.71,1.21l-.02,1.9c0,.21.5.89.61.71l.41-.71c.33-.57.9-1.12,1.58-1.05.48.04,1.17.77,1.24,1.32.05.42-.43,1.03-.7,1.52l.13,1.2c.03.26-.64.51-1.02.69.25,1.14,1.48,1.72,2.61,1.45l1.25,1.64c.06.08.48.24.56.29s.02-.27,0-.41l-.53-7.37c-.06-.84-.48-2.36-.8-3.06-1.51-2.34-1.58-4.53-3.47-6.25l-2.82-1.36c-1.35-.65-2.22,1.54-3.41.21.5-.12,1.38-.64,1.2-.95-.73-1.3-2.87-1.91-4.05-1.56-.22.06-.82.63-.66.76l.66.54c.32.26.54,1.15.44,1.65-.09.43-.83.77-1.42.72-.38-.24-.47-.17-.2.14.08.54.09,1.48-.21,1.77-.27.27-.89.29-1.4.41-.41.21-1.04.56-1.41.66-.5.13-1.97-2.3-.34-4.51-2.04-.12-1.22,2.55-3.53,2.95l-.74-.99c-.47.46-1.5.76-2.08.51-.45-.19-.95-1.1-.78-1.63.14-.43.62-1.03,1-1.52-.12-.1-.73-.67-.88-.91-.28-.45.66-1.68,1.21-1.72.47-.03,1.31.13,1.78.19l2.44-1.29-2.45-.93-1.21-.76c-.41-.25-1.11-.66-1.21-1.04s.36-1.17.54-1.49c-.23-.51-.52-1.34-.43-1.78.08-.38.98-.92,1.37-.83.73.16,1.53.59,2.21,1.04.22.64.47.31.46-.13-.4-1.01.33-1.91,1.15-1.75.5.1,1.08.72,1.46,1.26l.97,1.4c.26-.37,1.33-.85,1.84-.71.48.13.67,1.1.72,1.59.51.16,1.34.63,1.36,1.12.09,1.61-1.53,1.93-.98,2.8.12.2.59.52.84.57l2.38.49.61-.59s.3.76,2.08,1.31l2.22.68-1.79-5.62-4.17-2.3,1.09-1.15,2.32,1.76c.09.07.47.2.49.11s.05-.32.04-.42l-.16-1.5c-.09-.82-1.01-1.68-1.73-1.7-.12.56-.78,1.36-1.17,1.19-.35-.15-.98-.53-1.37-.76-.77-.07-1.65-.18-2.06-.74-.33-.46-.14-1.65.37-1.8l1.62-.47c.1-.03.47-.4.38-.45l-.52-.33-2.23-.18c-.32-.03-1.12-.64-1-.93l.47-1.21c-.4-.68-.47-1.84.14-2.24.74-.49,1.64-.09,2.23.4.32-.09,1-.32,1.18-.12l.62.71,1.32,1.46c.71-1.35-1.33-2.82-.49-4.45.13-.25.74-.59.91-.44l.66.58c.02-.46.14-1.39.4-1.75s1.18-.83,1.62-.72c.59.14,1.34.84,1.28,1.3l-.23,1.79.9-.24c.15-.04.43.52.4.66-.33,1.62-1.92,2.26-1.82,2.64l.24.96c1.75-1.82,4.01-3.2,5.31-2.05.53.47.24,1.39-.08,2.04.04.34.29,1.25-.02,1.4-.26.12-.9.28-1.18.31l-1.54.21.54.53c.93-.25,1.66.42,1.58,1.14-.1.9-1.79,1.9-2.5,2.04-.35.07-.96-.49-1.4-.86l-1.21,1.26,1.05,3.57h.54c.51-1.56,1.17-2.65,2.54-3.41.18,1.13-.41,1.6-.84,2.45s-.72,2.59-.76,3.53l1.51,3.11c.66,1.35,1.53,2.19,2.43,3.38l2.42,3.16.63-1.97-.26-3.72.95.07c.14.01.3-.44.37-.57.58-1.16.16-2.46-.84-2.88-.22.36-1,1.01-1.37.86-.59-.24-1.42-1.37-1.79-2.26-.11-.27.47-.9.75-.97l.79-.21c.1-.03-.15-.32-.24-.35-.41-.11-1.38-.55-1.49-.96-.18-.68.28-3.16,1.69-3.42.82-.15,1.44.46,1.63,1.28.41.1.86.18.99.43l.74,1.43.42-1.85c-1.57-1.3-.44-3.93.9-4.62.32-.17,1.02.36,1.32.74.4-.48,1.1-1.2,1.9-1.37.52-.11,1.59.56,1.5,1.03l-.35,1.87c-.48.22-.23.11.09-.04l.75.09c.45.05.25,2.5-2.21,3.27l-.32,1.33,3.09-1.36c.48-.21,1.67-.18,2.13.04s1.2,1.19.96,1.64c-.45.85-.7,1.44-.98,2.4-.27.91-1.73.11-3.12.09-.18,0-.16.57,0,.64.48.19,1.42.8,1.39,1.43-.03.5-.45,1.28-.92,1.52-.4.2-1.28-.12-1.71-.33-.38.47-1.24,1.03-1.83.66-.5-.32-.69-.87-.9-1.79l-.3.04c-1.48,1.01-2.12,3.12-1.6,4.7l2.67-2.47c.41,1.18-.34,1.89-1.19,2.57-2.05,1.63-2.27,5.67-1.83,7.02l1.1,3.42.41,3.81c.14,1.29.51,2.37.79,3.65l.66,3.11,2.64-2.52c-.45-.62-.88-1.4-.68-1.7l.68-1.04c-.03-.65.12-1.44.48-1.7.44-.31,1.31-.18,1.61.21.16.69.35.53.33,0,.29-1.29,1.61-2.62,2.95-3.27.19.77.15,1.64.04,2.23l1.74.06c.05.99.32,1.5.64,2-.09,1.39-1.77,1.45-2.97,2.07,1.32.3,2.77,1.06,2.29,2.32-.15.38-.81,1.02-1.16,1.15s-1.11-.27-1.41-.51c0,.73-.34,1.43-1.18,1.56-1.19.18-1.43-2.56-2.32-1.78-.67.59-2.39,4.72-2.51,5.54-.24,1.69-.2,3.29-.26,4.86l-.14,3.83.06,4.27.08.64c.02.13.36-.25.45-.35l2.93-3.4c2.45-2.85,3.99-6.17,5.71-9.51,1.17-2.27,2.99-4.06,4.41-6.18,1.11-1.65,1.27-3.88,1.75-5.8l-1.06-1.4c-.11.85-.13,1.35-.42,1.65-.25.26-1.47.1-1.67-.21s-.26-.75-.34-1.19c-.53-.05-1.29-.18-1.55-.38s-.24-1.02.04-1.2l1.01-.65c-.17-.09-.54-1.11-.31-1.44.46-.66,1.64-.56,2.5-.28l-1.83-2.02c-.83.36-1.41.36-2.28.26.04.36-.03,1.38-.34,1.64s-1.21.34-1.62.19c-.38-.15-.61-.86-.73-1.22-.5.34-1.25.72-1.71.74-.38.02-1.09-.56-1.21-.96-.57-1.83,2.27-2.8,2.15-2.9l-.4-.35c-.87.25-2.13.3-2.89-.18-.24-.15-.47-.86-.34-1.09l.46-.79c-.3-.51-.68-1.15-.74-1.56s.66-1.23,1.07-1.34c1.27-.33,2.63.3,3.28,1.23l.31.44c.39.55-.51-1.56-.3-2.12.23-.62,1.6-.93,2.15-.55.42.29.77,1.15.97,1.9l.64-.9c.17-.23,1.11.11,1.28.35.34.48.45,1.47.46,2.1.33.19,1.16.67,1.12,1.07l-.17,1.78,2.06,1.06c-.25-2.41-2.35-3.85-.58-5.15.21-.15.89-.11,1.05.07l.68.78-.22-3.53c-.03-.45-.59-1.46-.76-1.6-.36.58-.8,1.05-1.25,1.18-.39.11-.97-.72-1.32-.89-.81-.41-3.15-1.03-2.71-2.67.11-.4.9-.87,1.31-1.01l.58-.2c.34-.12-2.18-.74-2.31-2.35-.07-.92.41-1.97,1.51-2.19l2.4.94,1.52,1.88-.02-2.16c-1.49-.85-1.83-2.93-1-4.15.14-.2.68-.48.85-.37l.87.55c.2-.76.51-1.6,1.03-1.96.59-.41,1.82-.16,2.18.41.27.43.3,1.3.28,2l1.17-.51c.23-.1.79.55.82.79.34,2.43-2.42,3.16-1.81,5.28l1.73-1.76c1.01-1.02,2.8-1.88,3.44-.98.3.43.18,1.32.11,1.98-.05.51.17,1.42-.12,1.75-.99,1.16-2.47.37-2.85,1.42l2.07.09c.39.02.65,1.22.37,1.48l-1.17,1.08c-.34.32-.77,1.33-1.26,1.38s-1.26-.39-1.65-.69c-.83.44-1.12,1.41-.88,2.21l-.29,2.45,1.58-1.67,1.2,1.23c.24.24.44,1.18.2,1.42l-.98.98.18,2.21c1.42-.67,2-1.65,2.23-3.07l.31-1.84c.08-.48.3-1.29.67-1.51.35-.2,1.12-.11,1.63.02.11-1.23,1.66-2.48,2.85-1.87.44.27.37,1.53.24,2.14-.11.46.02.39.22,0,.67-.96,1.57-1.35,2.79-1.39.86-.03,1.78.61,1.9,1.41.11.74-.27,1.41-1.05,2.02l.56,1.02c-1.16,2.83-3.24.43-4.45,1.62l2.26.92c1.24.51,1.02,1.74.47,2.42-.73.9-1.7.74-2.46,0-.32.6-.6,1.14-.92,1.19-1.14.19-2.16-.74-2.1-1l.29-1.21c-1.72-.07-3.15.96-3.86,2.49l2.08-.18c.34.12.98.89.86,1.23-.11.29-.72.7-.99.84l1.02,1.29c.93-.32,2.56-1.1,3.74-1.34,2.66-.54,4.92-1.09,7.1-2.8,1.33-1.04,1.93-2.75,2.52-4.33,1.53-4.12-1.37-4.31-2.8-8.75.22-.61.74-.73.54.05.82,1.43,1.67,2.55,2.91,3.79.55-.89.73-1.99.57-3.04l-.4-2.53c-.09-.59-1.16-1.4-1.52-.92-.44.58-.77,1.08-1.34,1.28-.41.14-1.13-.56-1.39-.97-.84.07-1.66-.07-1.97-.79-.36-.82.12-1.68.85-2.02l1.39-.65c-1.48-.69-3.69-.13-3.71-.97l-.04-1.47c-.02-.63-.15-1.72.31-2.01,1.19-.73,3.52-.09,4.95,1.72.31-2.57-2.28-2.8-1.84-4.86.09-.43.75-1.1,1.18-1.1.15,0,.67.65.69.5l.12-.8c.15-.96.93-1.66,1.83-1.61s1.35.92,1.24,1.8l1.46-.22c1.26,2.47-1.55,3.35-.72,4.93l1.84-2.58c.25-.36,1.21-.66,1.61-.68,1.26-.06.63,1.27,1.08,2.92s-2.67,1.62-2.65,2.72c.55-.14,1.31-.26,1.63,0s.61,1.28.39,1.62-.81.61-1.34.88c.2.6-.04,1.62-.56,1.73-.68.14-1.27-.13-1.81-.61-.57,2.06-.41,4.06.55,6.24l2.95-3.28c-.43-.55-.76-.94-.82-1.24-.07-.36.52-2.2,1.24-2.58.29-.15.99.19,1.22.43l.4.42c.32.33-.5-1.59.38-2.5.34-.35,1.34-.25,1.84-.21.42-.42,1.09-1.02,1.53-1s1.12.47,1.25.83c.4,1.14-1.1,1.59.02,2.97-.46.51-1.38.98-2.29,1.38l.37.55c1.06-.52,2.97-.27,3.03,1.04.05,1.16-1.63,1.49-2.44,1.24.31.46.63,1.38.34,1.73-.74.9-1.95.6-2.65.05-.4.46-1.23.94-1.67.56-.54-.47-.59-.93-.49-1.87-2.85.13-3.58,3.77-4.18,6.67l-.9,4.32c1.71-.58,3.42-1.24,5.14-1.5,1.12-.17,1.91-.36,2.87-.79,3.27-1.46,4.75-2.29,6.87-5.23l.51-.71c.26-.36-1.82-.34-1.98-1.72-.06-.48.6-1.11,1.13-1.35l-.67-1.16,1.12-2.23,1.54,1.63.59,1.43,1.77-5.39-.91-1.31c-.73.64-1.27.91-1.99.77-.49-.09-1.07-1.01-1.05-1.47l.93-.73-1.93-.25c-1.16-.15-.08-1.72-.29-3.11.75-1.07,2.45-.48,3.34.44l.53-.26c-.69-1.31-2.95-2-1.8-3.86.2-.32,1.06-.36,1.31-.24,0-.67.49-1.49,1.01-1.63.81-.23,1.79.21,1.99.79l.23.66c.04.11.19-.17.31-.4.1-.21.57-.64.79-.57s.61.46.71.72c.83,2.27-1.27,2.62-.86,4.09.99-.29,1.49-.92,1.82-1.75l1.63-.82c.4-.2,1.41-.3,1.75-.01.95.81-.16,2.3.15,2.63.1.11.63.5.65.63.15.96-1.65,2.13-2.87,1.51l-.29.7c-.09.21,1.72-.51,2.18.81.21.59-.02,1.42-.42,1.83-.29.3-1.27.25-1.78.13-.19.52-.66,1.29-1.26,1.35-.74.08-1.19-.4-1.52-1.35-.4.17-1.11.51-1.31.89-.17.33-.19,1.47-.14,1.54l1.75-1.13c-.37.92-.7,1.07-1.33,1.71-.89.9-1.04,2.63-1.16,3.88l-.07.64c0,.08.1.06.16,0l.53-.47c3.39-2.1,4.24-4.31,4.98-4.74.09-.05.34-.06.33.04l-.08.93.54-.02,4.18-1.54,2.9-2c.02-.11.1-.5.06-.29l-.98-.32c-.18-.06-.23-.77-.16-.95.13-.31.75-.85,1.06-.8l1.04.15c-.13-.9.28-1.8.87-2,.43-.15,1.05.13,1.6.41-.13-.86.37-2.14,1.46-1.82l-.35,1.56.75.99c.15.2-.59.66-.81.82-.3.2-.43,1.04-.27,1.32l2.68-2.11,2.35-2.05c.35-.31.56-1.45.41-1.76-1.01.2-1.67.03-2-.68-.3-.64.2-1.33.7-1.64-.44-.51-.83-1.66-.33-2.12.94-.88,2.33-.38,2.65.61l.17.5c.03.09.47-.3.45-.39l-.51-2.17c-.14-.6,1.11-1.85,1.73-1.86l3.58-.05c.24,1.52-.17,2.48-1.09,3.67.74.21,1.54-.16,1.75-.82.89-1.12,2.33-1.32,3.35-.43.96-.23,1.8.26,1.89,1.15.07.72-.56,1.39-1.21,1.71l.6,1.08c.32.58-1.73,1.8-3.31,1.19-.73-.29-1.12-.81-2.52-.3-.63.23,1.33.48,1.86,1.38.19.33.17,1.28-.13,1.5l-1.52,1.1c-.33.24-1.22-.42-1.53-.64-.41.51-1.48.75-1.95.35-.32-.27-.28-.97-.27-1.74-2.18.84-3.31,2.5-4.13,4.58l5.26-.81,3.34-.73c.37-1.16,1.97-1.94,3.12-1.74.25.04.59.65.65.98.01.53.16.63.2-.03.39-.84,1.45-1.45,2.37-1.79l1.38,1.51,4.1-1.12,1.42-1.81c-.79-.66-.92-1.54-.56-2.26.21-.43,1.19-.69,1.58-.4l.55.41c.17.13-.39-1.69,1.38-2.37.52-.2,1.58-.1,1.96.56.5.88.02,1.69-.43,2.81.81-.22,1.94-.68,2.52-1.08.48-1.22,1.38-2.05,2.7-1.71l.54,1.01c1.01-.96,2.64-.98,3.39.02.3.4,0,1.56-.39,1.76l-1.48.77c.29.26.67,1.11.4,1.46-.8,1.06-2.5.79-3.35.24-.48-.12-1.69.2-1.99.34l2.39,1.29c.43.23,1.02.88,1.09,1.38.06.46-.63,1.01-1.08,1.28-2.49,1.5-3.39-1.26-4.51-1.1-.26.04-.5.83-.46,1.09l1.12,1.93-.82,1.81-.14-1.2c-.19-1.7-1.75-.9-2.58-2.56-.33-.67-.36-1.3.03-2.09-1.32-.59-2.55-.26-3.82.16l-3.34,1.12c-.58-.3-.58-.3-.01.01.34.35.78,1.37.48,1.69-.96,1.01-1.99,1.03-3.49,1.44l2.58.79c1.65-1.74,5.34-.4,5.89.87.33.76,0,1.49-.52,2.19,1.15.37,1.59,1.56,1,2.65-.29.53-1.5,1.01-2.18.85-.57-.14-1.32-.65-1.95-1.09.24.82.32,1.7-.23,2.2-.41.37-1.44.34-1.88,0l-2.01-1.57-.17-1.98c-1.25-.12-1.74-.42-2.77-1.37-.18,1.06.36,1.8,1.34,2.57.06,3.03-1.82,4.31-2.33,3.73l-1.08-1.22c-.38.39-1.46.71-2.03.38-.43-.25-.97-1.29-.83-1.77l.61-2.04c-.75.3-1.42.55-1.94.47-.77-.12-1.16-2.52-.76-3.26.18-.33.89-.6,1.56-.84-.49-1.03-1.91-1.73-3.27-1.64l-5.26.35c1.1.44,1.75.99,1.97,1.74.16.14.9.48.8.68s-.38.66-.56.8l-.87.7c-.32.25-1.73-1.11-1.81-.64l-.18,1.09-2.53-1.31,1.14-1.7c-3.03-.69-5.74,2.12-8.52,2.81-1.52.38-2.32.87-3.42,1.84l-4.54,3.99.44.45c1.52.08,3.13.04,4.47.65,1.46.67,3.29,1.53,4.58.19-.82-.13-1.62-.76-1.57-1.4.04-.44.64-1.01.98-1.46l.76-1.02c.18-.24,1.05,0,1.09.32l.17,1.31c-.11.02.16-.03.27-.06l-.23-1.94c-.06-.52.59-1.4,1.07-1.51,1.16-.26,2.81.58,2.82,1.17,0,.27-.06.95.01,1.21.19.7-.08,1.2-.86,2.11l1.92-.34c.24-.71.57-1.57,1.02-1.76.4-.17,1.32-.1,1.77-.08.27-.29,1.07-.92,1.41-.74l1.26.69,1.63.7c.37.16.2,1.47-.18,1.61l-1.59.6c.19.21.58.79.49,1.09-.08.25-.67.72-.93.75l-2,.22c-.16.02-.44.41-.53.55-.06.09.37.22.49.24l2.55.39c1.35-1.14,2.76-1.32,4.45-.74.56.19,1.26.94,1.15,1.53-.08.43-.83,1-1.21,1.18.82.33,1.7.75,2.06,1.2s.44,1.73.08,2.12c-1.65,1.81-3.24,1.38-5.2.2.51.8.94,1.55.72,2.34-.16.57-1,1.12-1.65,1.09-1.07-.07-1.62-.56-1.94-1.32-.51.1-1.27.16-1.59-.04-1.23-.78.11-2.52-1.68-3.37-.34.15-.87.51-1.1.35l-1.24-.87c.02-.16,0,.06-.04.35.46,2.25,2.51,2.65,2.29,3.99-.06.35-.6.72-1.04,1,.58.94.27,2.11-.58,2.85-.35.31-1.44.38-1.76.04-.29-.32-.66-.96-.95-1.46l-1.19.92c-.22.17-1.09-.14-1.24-.38-.41-.64-.82-2.15-.62-2.81.59-.72.92-1.49.21-2.32-.27,1.01-1.11,1.97-2.2,2.3-.32.1-1.29-.23-1.28-.56l.03-1.4c-.19-.15-1.08-.5-1.03-.84l.2-1.35c.06-.43.43-1.42.83-1.55.35-.12,1.04-.16,1.55-.2.71-.57.09-1.78-.92-2.07l-3.37-.96c-2.09.33-4.64.45-6.54,1.23l-6.68,3.92-4.84,1.64,1.86,1.43,1.9.34c-.22-1.31.38-2.03,1.29-2.34.34-.11,1.28-.22,1.43.09l.73,1.45c.59-1.32,1.64-1.57,2.59-1.25,1.07.35,1.35,1.25,1.21,2.48-.08.7-.63,1.13-1.26,1.3l-2.04.57,1.75.74c1.91-.88,4.68.25,4.66,1.18,0,.39-.57.94-.93,1.22.88.42,1.58,1.13,1.49,1.95s-.78,1.58-1.83,1.63c-.48.02-1.19-.31-1.74-.59-.17-.35-.17-.36.12.25l-.85,1.42c-.04.07-.83.13-1.13-.1l-1.47-1.11c-.35-.26-.47-1.28-.45-1.71l.03-.45-1.4-1.06c-.05-.04-.39-.05-.51-.04.26.56.83,1.87.45,2.31s-1.02,1.02-1.12,1.43c-.19.81-.79,1.25-1.52,1.2-.48-.03-.93-.93-1.01-1.46l-1.35.14c-1.1-1.82.27-2.24.89-3.26.16-.25-1.59.63-2.07.01s-.43-2.53.15-3.05c.27-.24.97-.31,1.75-.39l-.33-1.81c-2.69-1.27-5.56-1.21-8.19.18l-8.54,4.51,2.09,1.1c1.6.84,2.95.77,4.76.54l2.1.33c-.59.85-1.6.94-3.24.99,1.4,1.22,2.7,2.23,4.27,3.15.17-.7.37-1.37.71-1.47l1.79-.58c.34-.11,1.18-.37,1.21-.06l.09,1.32c.74-.88,1.68-1,2.52-.47.68.42.81,2.01-.18,2.26-1.13.28-2.31.43-3.38.85l3.54.04,4.11.24c4.89.68,9.69-.71,14.07-2.91l7.85-3.94c.72-.36,1.79-.69,2.63-.63.26.02.2.8-.06.92l-3.34,1.5c-1.7.76-3.34,1.37-4.97,2.31-4.92,2.85-10.4,4.63-16.18,4.21-2.7-.2-5.81.18-7.81.85h4.03s-2.09.96-2.09.96l4.66-.09,3.29.02,3.96-.55-1.12-.51c2.41-1.77,3.35.37,5.46-.68l-1.34-.36c1.92-1.46,4.39-1.13,6.5-2.86l3.09-.7-.33-.44c-.74.43-.87.18-.64-.28l3.83-1.41c1.88-.69,3.61-1.47,4.48-3.36.59-.46,1.91-1.14,2.51-1.26,2.98,1.16,8.44,1.12,11.51.35l3.81-1.53c1.4-.56,2.33-1.12,3.47-2.05,1.89-1.54,3.85-3.01,5.39-4.93l.38-2.11c-.99.23-1.59-.46-1.7-1.25s.79-1.27,1.39-1.34c-.27-.63-.55-1.4-.5-1.84.04-.39.99-1.07,1.33-.88.24.13.72.76.82.89,0-.71.21-1.61.71-2,.33-.26,1.25-.15,1.54.23.26.34.25,1.22.24,1.61.42.09,1.25.51,1.3.9s-.42,1.09-.76,1.28l-1.17.65,1.32.3,1.94-1.35,3.65-2.14c.79-.47,1.55-1.16,2.03-1.98l1.64-2.82-1.39.09c-.43.03-.99-1.42.05-3.58.18-.38,1.23-.32,1.71-.1-.25-1.21,0-2.56,1.16-3.02.31-.12,1.34-.07,1.37.25l.15,1.39,1-.56c.2-.11,1-.02,1,.21v1.03c0,.88-.6,1.73-1.42,2.16l1.04,1.26,1.3-1.82c1.32-1.05,2.39-2.12,3-3.61l-1.86-1.23c-.65-.43-1.26-.78-1.16-1.76.04-.38.41-1.07.69-1.22.23-.12.8-.06,1.03.06l.55.28c.65.34-1.11-1.38-.83-2.66.13-.6,1.05-1.31,1.69-1.29,1.96.07,1.57,3.61,1.96,2.98l.36-.59c-.22-.88-.55-2.5-.46-3.54.07-.9,2.28-1.6,2.76-.96.67.88.44,1.97.77,1.54l.36-.46c.74-.97,2.35-1.53,3.26-.47.8.94.14,2.28-.68,2.98l1.18.45c.23.09.09.9-.09,1.14-.57.78-1.94,1.31-3.06,1l-.81,1.45,2.81-.55c.48-.09,1.41.04,1.81.28.45.27.74,1.34.43,1.7-.43.51-.55.84-.66,1.43-.23,1.2-2.07,1.5-2.8.64-.14-.17-.55-.43-.7-.34s-.71.44-.45.28l1.01,1.22c.39.47-1.17,2.01-1.82,1.62l-1.09-.66c-.51.46-1.31.78-1.92.43s-.64-.97-.37-1.89c-.47-.02-1.7.16-2.02.58l-2.05,2.72-1.77,2.47,4.07-1.21c1.93-.57,2.86-2.5,3.51-1.85l.96.94,8.82-.83c1.52-.14,3.25-1.46,4.33-2.4l1.66-1.45c.08-.07.73-.01.67.07l-.33.44-.73.99c1.17.29,2.46-.16,3.03-1.15-.93-.74-1.25-1.65-.9-2.75.12-.38.89-.92,1.27-.84.32.07.83.57.96.87l.27.59c.05.11.46-.06.43-.17l-.17-.72c-.12-.51-.07-1.67.17-2.15.14-.27,1.02-.76,1.25-.57l.96.77c.12-1.33,1.03-1.97,2.4-1.94.52.01,1.55.49,1.74,1.02.15.41-.21,1.21-.19,1.67.03.7.09,1.48-.33,1.76l-1.74,1.17c1.7,1.23,2.9-1.15,4.75-.5.34.12.56.75.71,1.21.55-.23,1.55-.02,1.95.57.18.26.36,1.12.16,1.34-.62.69-1.54.74-1.34.92l.4.35c.19.17.42.75.32.99s-.62.63-.89.69l-2.25.53c-1.26.29-2.54-.97-2.59-2.31l-1.75-.08c.62.71,1.58,1.59,1.42,2.39-.24,1.22-3.51.75-3.67.41l-.63-1.3c-.41.42-1.12.78-1.57.62-.54-.19-1.21-1.05-.94-1.38.3-.36.7-.72.51-.78-2.1-.62-4.35.49-6.47,1.85l4.11,1.21c1.68.49,3.03,1.34,4.73.27,1.12.07,1.93.19,2.43,1.17,1.67.31,3.62,1.32,5.33,1.12,1.84-.23,4.18-.88,5.88-.66.24.03.83-.22.95-.39s-.02-.55-.19-.95c-.25-.57.08-1.61.76-1.78.43-.1,1.01.32,1.45.7.01-.44.03-1.49.33-1.79.45-.44,2.91-1.41,3.51-.79.8.83.36,2-.38,3.04,1.54.43,1.27-2.06,4.36-.95.49.18,1.51.23,1.91.53.42.32.55,1.66.18,2.03-.71.73-1.52.89-2.41.98l1.57.91c.72.42,1.07,1.56.51,2.25-.43.53-1.18.54-2.01.58l-1.51.08c-.28.01-.57-.54-.84-.83l-1.6-1.7c-.07-.08-.8.22-.69.22.67.67,1.08,1.33.85,2.12-.16.52-1.16,1.05-1.71,1.01l-.59-.05c-.1,0,.26.33.35.38l1.23.8c1.16.75,2.29.56,3.55.66l1.94.15c-.55.67-2.48.65-1.88,1.08l.48.35c1.07.78,2.46,1.42,3.59,1.6.31-.76.7-1.33,1.15-1.57.78-.43,1.77.38,1.85.67.01.05.3-1.43,1.52-1.87.39-.14,1.27.23,1.37.63.02.09-.06.57-.14.61.91-.39,1.31-.62,2.31-.47.47.07,1.1,1.12.8,1.48l-.55.65c-.09.11.65.34.68.47.15.54-.82,1.41-1.48,1.44l-1.58.07c-.02.2,0,.54.05.57.64.34,1.29.81,1.65.71,1.18-.32,2.97-.47,3.89.48.26.26.66,1.1.39,1.29l-1.07.77c.98.24,2.01,1.44,1.38,2.56-.58,1.04-2.08,1.03-2.99.19-.24-.32-.39-.39-.23.12-.29.46-.6.88-.86.86-.21-.02-.71-.18-.93-.3-.9-.48-.98-1.49-.94-2.55-.32-.44-1.41-1.09-1.77-1.11,1.14,1.94.41,4.45-.76,4.77-.45.12-1.31-.52-1.5-.95l-.4-.9c-.08-.19-.92.3-1.13.18-.78-.43-1-2.32-.15-3.36-.07-.52-.23-.67-.45-.16-.51.19-1.29.14-1.51-.18-1.37-2.01,1.8-2.55.21-3.53l-5.2-3.23c-2.33-1.44-4.58-2.46-7.14-3.41.66,1.86,2.04,3.02,3.52,3.58.44-.42,1.16-.71,1.5-.57l1.76.74c.29.12,1.11.59.92.83l-.89,1.19c.77.07,1.76.11,2.26.59.68.64.66,2.93.16,3.09-.75.24-1.85-.28-2.74-.75.04,1.19,2.69,2.56,1.91,3.32l-1.02.99c.08.86-.53,1.89-1.26,1.96-1.37.13-1.81-1.87-1.91-1.81s-.55.33-.7.34c-.77.06-1.61-1.48-.91-2.55.37-.56.52-1.38.36-2.1-.82.86-1.28,1.43-2.44,1.44-.49,0-1.22-.93-1.15-1.4.06-.4.48-1,.86-1.45-.48-.3-.88-1.05-.54-1.65.39-.68.85-.95,1.77-.94.12-.31.06-1.49-.27-1.86l-2.68-2.96c-.1-.11-.66-.2-.61-.08l.26.7c.08.2.07.83-.16.83h-.9c-.46.02.26-2.24-1.43-3.08s-3.55-1.35-5.41-1.79l.16,1.77-3.39-.05c.48,1.64,3.61-.12,4.91,2.67.15.32-.06,1.38-.38,1.42l-1.4.17c.63.61,1.17,1.4.96,2.22-.16.61-.9,1.29-1.58,1.31-1.77.07-1.87-2.63-2.6-2.29l-1.32.61c-.51.23-1.47.58-1.92.41-.4-.15-.88-.97-1.13-1.37l-.94-.68c-.55-.4,1.05-1.79.88-3.25-.74.59-1.21,1.01-1.64,1.14-.36.11-1.29-.21-1.58-.5-.6-.59.08-1.49.1-1.99l.06-1.99c-2.01-1.1-3.14-3.37-5.85-2.93l-4.92.8-2.1-.04c.85.49,1.33,1.02,1.07,1.67-.42,1.08-2.36.83-1.93,1.12.94.65,1.56.54,2.67.17,2.04-.68,1.7.6,3.73,1.19.38.11,1.07.89.93,1.25-.12.31-.55.68-1,1.09.8.46,1.54,1.38,1.01,2.32-.28.5-1.3,1.13-1.79.94l-1.9-.74c-.11.56-.41,1.4-.82,1.47-.37.06-1.23-.14-1.52-.36-.97-.75-1.39-1.75-1.2-3.02l-2.29-1.32,1.24,2.66-1.22.87c.08.66-.25,1.47-.82,1.61-.43.1-1.12-.34-1.65-.57-.38-.17-1.26-.12-1.49-.46s-.31-1.18-.16-1.51l.48-1.05c-.65.17-1.38.33-1.88.24-.66-.12-.77-2.51-.23-2.72l1.08-.42c-.09-1.07-1.12-1.98-2.6-1.79s-3.19,1.09-4.57,1.87l1.37.81-4.66.26.11-.94c-.93.67-1.16,1.13-.86,2.09l-1.43.9c-.47-.06-.68.04.01.5l-3.37,2.31c-1.32.91-2.38,2.17-3.49,3.37l2.51.02c1.05-.49,1.6-.31,2.35.42.61.12,1.96,0,2.39-.13-.54-.65-1-1.34-.85-1.74.47-1.19,1.86-2.15,2.56-1.84.34.15.73.81.98,1.3.11-.61.52-1.56,1.07-1.81,1.36-.62,3.31.78,3.26,1.12l-.19,1.07c-.08.44-.26,1.04-.55,1.26l-1.52,1.17c1.02.18,1.76.19,2.47-.1l3.33-1.37c.4-.16,1.48.25,1.74.57.22.27.28.87.2,1.38-.61.33-.45.44.05.29.67.2,1.3.41,1.7.69.77.55.18,3.44-.97,3.52-.8.06-1.51-.1-2.43-.26.65.55,1.01,1.59.39,2.18-.94.88-4.33-.19-4.64-2.51l-1.59-.44c-.11-.03-.45-.12-.44-.01l.07.65c.14,1.33,2.08,1.65,1.75,2.77-.09.31-.52.64-.89.94.46.9.13,1.99-.81,2.2-.81.18-1.58-.32-1.96-1.23-.25.17-1.01.76-1.35.76-.51,0-1.28-.85-1.37-1.34-.24-1.44.87-2.41.45-2.61l-.4-.19c-.43.75-1.19,1.16-2.18.8s-.83-3.23-.54-3.34l1.54-.62c-.05-.25-.46-1.02-.77-1.31s-1.36-.16-1.86-.2c-6.64-.65-7.28,3.29-12.72,5.38,1.94.79,3.89,1.39,5.18,2.72,3.06,3.19,9.79,4.88,13.02,3.38,1.84-.86,3.99-1.72,6.08-.54-1.85.54-3.36.73-4.64,1.57l2.65.89c1.01.34,2.86-1.81,3.39-1.06l.63.91,2.61-.12c1.04-.05,2.2-.35,2.33-1.34-.44-.32-.95-1.19-.79-1.54s.78-.79,1.18-1.09c-.04-.88.24-1.82,1.19-2.03.29-.07,1.17.01,1.28.27l.41,1.01c.18.75.2,1.25.24,2.37l1.44-2.25c-.06-.47-.22-1.49.1-1.69l1.2-.76c.71-.45,2.11-.7,2.68.07.68.93-.01,2.05-.5,3.13.9-.55,1.75-1.18,2.48-1.33.95-.2,1.92.41,2.69,1.03.46.38.55,1.87-.02,2.2l-1.65.98,1.02.68c.22.15-.12,1.01-.33,1.17-2.39,1.86-4.54-1.54-5.89-.12l2.11,1.01.82,2c-.26,1.25-2.16,1.95-3.2,1.18l-1.52-1.62c.14.89.24,1.37.2,1.83-.03.37-1.06.85-1.32.59l-1.06-1.08c-.75.28-1.58.16-1.89-.62-.25-.61.14-1.36.84-2.07-2.3-1.21-4.85-.97-7.42.31l5.01,2.97c3.16,1.87,4.33,1.11,5.37,1.96.18.14.21.82.02.96l-.51.37c-.07.05.33.23.42.25l5.96,1.42c.45.07,1.4-.7,1.44-.99-1.02-.82-.91-1.59-.22-2.32.36-.38,1.29-.17,1.82.29l-.25-1.73c-.09-.59,2.32-2.04,3.3-1.31,1.05.79.83,2.18.02,3.35l1.63-.52c.07-1.05,1-1.87,1.97-2.08.4-.09,1.13.47,1.24.69.68-.22,1.45-.3,2-.1.43.15,1.06,1.26.81,1.67-.42.7-1.27,1.33-1.78,1.62.46.22,1.11.75,1.11,1.13,0,.32-.47.89-.8,1.07-2.08,1.12-3.5-1.62-4.75-.44,1.33.72,2.55,1.36,2.27,2.41-.05.2-.65.7-.84.64l-3.21-.91c-.33-.16-.43-.26-.42-.2l.13.82,2.9.91c1.25.39,3,.31,4.27.41l1.23-.95v1.14c1.19.2,2.82-.27,3.36-1.11-.73-.77-1.04-1.33-.79-2.1.15-.47,1.19-1.05,1.6-.81.2.12.52.68.69.97l.39-.43c.23-.26-.95-1.6-.43-2.36.46-.67,2.39-1.85,3.17-1.49,1.6.76.12,3.87.79,3.2.07-.07.45-.42.48-.52.65-2.21,4.15-2.34,5.19-1.77.43.24.76,1.37.42,1.83-.26.36-.83.81-1.24,1.13l1.16.59c.26.14-.2,1.11-.46,1.29-1.21.82-2.36-.07-3.81.27-.74.17,1.88.43,2.24,1.71-.61,1.31-2.22,1.33-3.52.73.23,1.49,1.52,1.32,2.58.91,1.26-.49,3.27,1.16,4.26.39.35-.27.83-1.08,1.2-1.05l1.37.12c.17-.52.67-1.38,1.12-1.42s1.33.36,1.77.41c.58.06,1.84-.11,2.11.37.97,1.69-2.35,2.79-1.82,2.86,1.73.21,3.15-.89,4.37.11.27.22.61.76.48.97l-.45.74c.76.36,1.49,1.2,1.31,1.86-.24.88-1.3,1.16-2.21.93-.42.35-1.11.96-1.57.85-1.66-.43-1.46-2.14-3.21-2.49l.79,1.85c.32.76-.63,1.8-1.35,1.84-.83.05-1.49-.56-1.72-1.61l-1.29.19c-.36-.1-1.02-.86-1.05-1.29s.28-1.26.51-1.82l-1.79-1.5c-.42-.36-1.58-.66-2.08-.74l-2.07-.35c-.24-.04-.88.12-1.04.19-.35.28-.65.54-.37.3.93.33,1.5.61,1.8,1.04.23.34.04,1.35-.12,1.73l.8,1.51-1.39-.9c-.22-.14-.89.2-1.34.19-.66-.01-1.38-1.33-1.69-1.96-.22.48-.61,1.21-.97,1.31-.77.22-2.23-1.41-1.88-2.9.29-.44.61-.91.18-.27l-2.18-1.31c-1.34-.81-3.42-.66-4.81-.38l.47.84c.08.13-.25.46-.4.44-1.13-.18-1.61-1.54-3.46-2.3-.57.2-.75.34-.64.41l.97.7c.16.12.01.66.01.86l.5,1.22c-.14.3-.97,1.11-1.39,1l-2.04-.53c.47,1.65,1.99,2.46,3.71,1.98.9-.25,1.34.45,1.89.96.59.55,1.57.88,1.46,1.97-.08.81-.95,1.11-1.87,1.09-.48-.25-.37-.18.14.1.39.58.67,1.11.81,1.82.23,1.14-.38,2.28-1.68,2.33-1.01.04-2.04-.89-2.67-1.65-.26.77-.83,1.53-1.39,1.51-1.52-.06-.88-1.16-2.31-2.47-.85-.78.47-2.01.39-2.68l-.69-2.47-.74-.36c-.13-.06-.21.64-.14.79.69,1.49-.87,3.42-1.15,3.34l-1.2-.31c-.69.35-1.64.53-2.13.03-.55-.58-.66-1.63-.28-2.24l.95-1.52c-.91.12-1.65.15-2.08-.24s.35-3,.99-3.43c.33-.22,1.08-.15,1.64-.05l-.09-2.1-4.15-4.52c-.88-.95-3.02-1.79-4.05-2.44-.27-.17-1.13.63-.89.66.52.01,1.2.04,1.56.18s.66.85.85,1.44c.11.35-.21,1.11-.53,1.26-.38.17-1.01.04-1.63-.21-.26-.34-.67.11-.47.43l2.19,1.38c.36.23.69,1.15.52,1.48-.15.28-.72.5-1.11.57-.52-.27-.61-.31-.18-.09.2.82.21,1.44-.14,2.09-.24.44-1.34.74-1.83.39-.4-.28-.85-1.01-1.1-1.48-.31.3-1.26.65-1.54.4-1.33-1.21.25-3.66.14-3.89s-.38-.84-.37-.81c-.67,1.03-1.2,1.65-1.98,1.74s-1.82-.42-1.99-1.28c-.09-.48.71-1.37,1.1-1.66-.39-.18-1.15-.64-1.21-1.02s.31-1.13.64-1.33,1.09-.09,1.65.01c1.37-1.99-1.25-5.54-3.97-5.77l1.24,2.82,1.66,1.96-.26.03-2.14-1.45c-2.25-6.09-7.74-4.09-9.76-4.53l-5.22-1.15c1.42,1.95,2.25,3.72,2.72,6.03.19.97.91,1.82,1.61,2.61l-1.01-.07c.4,2.09,1.62,4.15,2.86,4.17.52,0,.24-1.74,1.77-1.8.51-.02.97.56,1.24,1.2.73-.67,1.73-.77,2.27-.1.36.44.36,1.79-.2,2.01l-2.1.86c1.46.82,2.66-.22,4.61.31.29.08.88.82.73,1.05l-.61.89c.54.29,1.31.84,1.49,1.29.17.4-.08,1.35-.43,1.6-.42.3-1.14.31-1.83.21l-.76.82c-1.34.29-2.42-.63-2.61-2.05l-1.97-.18,1.61,2.09-.17,1.04c-.04.26,2.24.06,2.29,1.95l2.19.25c.33.04,1.13.7,1,1l-.49,1.15,1,1.46c.21.31-.26,1.4-.66,1.46-.67.1-2.15.07-2.78,0l-1.18-1.74-.57.43,1,1.96c.2.4.33,1.41-.04,1.65-.58.37-.96.9-1.15,1.52-.36,1.15-1.87,1.2-2.63.54-.5-.43-.75-1.49-.72-2.3-.57.32-1.27.69-1.67.72-.34.03-.75-.76-.74-1.1s.48-.88.81-.97l1.1-.28c.23-.06.06-.95,0-.82-.6.37-1.1.68-1.48.76s-1.28-.41-1.27-.8c.05-1.11.62-3.04,1.54-3.61,1.38-.85-.07-1.43.13-3.82l-1.4.23c.23,2.4-.96,4.49-1.62,4.23l-1.23-.48c-.49.92-1.57,1.33-2.46.77-.78-.49-.8-1.56-.31-2.41-.48-.49-.82-1.2-.49-1.73.44-.71.89-.92,1.79-1.13l1.5-1.99c-1.79.7-2.34.86-3.81-.06-.49-.3-.47-1.59.09-2.13.37-.36,1.21-.56,1.82-.65l-.47-.89c-.1-.2.27-.64.54-.88.4-.35,1.38-.43,1.95-.18.42.18.81.7,1.32,1.3.34-.78,1.1-2.36.86-3.17l-.92-3.1c-.08,0-.61-.01-.56-.01-.24,1.17-.32,1.69-1.09,2.53-.09-.72.03-1.34.15-2.12l.66-4.17-4.53-5.93-.59,3.04c-.04.21.11.86.3.86l.87-.02c.34,0,1.05.22,1.2.51.12.24,0,.9-.07,1.03-.57.27-.85.4-.48.23.85.31,1.46.54,1.85.88.3.26.35,1.36-.01,1.52-.12.05-.56.25-.56.24-.01.06.94,1.32.14,1.93s-2.38.07-3.04-1.48c-.06-.15-.47-.35-.53-.2l-.24.62c1.45,1.8,1.3,4.21.27,4.47-.33.08-.98-.26-1.38-.52-.04.63-.44,1.54-.98,1.79-.76.36-1.71.19-2.18-.47-.29-.41-.32-1.35-.24-1.95l-1.35-.35c-.57-1.45.2-2.88,1.7-3.53.54-.24.48-1.87-.08-1.68-.75.73-2,1.34-2.67.99-.18-.1-.4-.8-.6-.81l-.9-.04c-.54-.02-1.08-1.26-.72-1.79s1.18-.85,1.84-1.03c-.34-.26-1.09-1.09-.82-1.33l1.1-1-2.69-1.66c-.15-.09-.42-.48-.45-.35l-.17.61c-.04.14-.33.48-.4.36l-.38-.63c-.23-2.96-2.63-5.28-5.61-4.9-2.67-.48-4.94.41-7.25,1.5l-4.62,2.19,3.73,2.32c.87.54,1.62,1.65,2.86,1.13-.48-.73-.38-1.58.19-1.88.38-.21,1.21.04,1.61.18.4-.2,1.28-.54,1.76-.44.38.08.87.85.77,1.23s-.51.99-.79,1.32c-.46.24-.64.33-.53.28l.86.06c1.08.08,2.36-2.2,4.03-.49l-.26,1.32c.99-.04,1.75.39,1.87,1.09.14.8-2.22,2.44-2.63,2.26-.32-.15-.9-.61-1.17-.85l-1.56.81,1.24,1.19c2.21-.1,4.2,2.47,3.78,3.38-.23.51-1.23.61-1.91.56.98.9,1.02,2.72-.17,3.48s-2.49-.24-2.86-1.36c-.53.41-1.27.89-1.67.81-.65-.14-2.32-2.89-1.03-4.23l-.37-1.82s-.3.01-.65.02c-.98,1.11-.17,2.21-1.02,2.89-.26.21-1.11-.06-1.42.05l-1.27.46c-.55.2-1.73-1.83-1.31-2.41l1.07-1.51-1.47.08c-.33.02-.78-.97-.58-1.24l.79-1.07c.05-.33,0-1.16.34-1.21l1.71-.26c.36-.1.25-1.58-.14-1.94s-1.41-.33-1.86-.56c-.65-.33-1.49-.92-2.24-1.05l-3.07-.5c-1.98.56-3.74,1.79-5.66,2.41l-3.5,1.12-4.91,1c.73.83,1.85,1.72,2.33,2.71.82,1.72,1.82,3.36,3.85,3.72-.01-1.01.39-1.68,1.29-1.86.53-.11,1.34.17,1.69.62-.31.71-.16.71.18.34.73-.29,1.41-.41,1.97-.17.46.2,1.05.99.92,1.43-.17.61-.71,1.35-1.21,1.44l-1.77.3.4.49c1.54.73,2.4-.3,4.52.57.28.12.83.76.69,1.02l-.51.91c.67.45,1.39,1.22,1.38,1.77-.01.63-.55,1.4-1.02,1.53-.63.18-1.56-.17-1.95-.49-.07.24-.44.95-.72,1-.99.2-2.76-.54-2.35-2.05l-2.14-.71.99,2.34-.34.76,1.37,1.42c1.27-.27,2.79.28,2.85,1.65-.51.27-.76.63-.17.55.62.15,1.43.44,1.59.78.13.27.44,2.99.08,3.46-.28.37-1.46.49-1.83.21l-2.04-1.51c.18.82.43,1.55.78,2.13.6.98-.39,1.33-.63,1.92-.48,1.18-.96,2.19-2.28,2.18-1.14,0-1.92-1.21-1.77-2.46l-1.35.62c-.26.12-.93-.35-1.06-.6-.61-1.18-.02-2.53.87-3.41l-1.54.54c-.26.09-.83-.33-.98-.66-.54-1.22,1.08-2.36,1.46-3.22l.86-2.51c.19-.55-.29-1.81-.12-2.5l-1.8,1.13c-.24,2.09-1.89,3.11-2.19,2.82l-.72-.71c-.58.63-1.61.95-2.28.52-.75-.48-.7-1.51-.51-2.33-.18-.39-.53-1.13-.42-1.49s.83-.75,1.19-.9l1.43-.6-2.03-.36c-.38-.07-.89-1.01-.64-1.31l.92-1.06c.51-.59.84-1.38,1.38-1.56.85-.29,1.76-.2,2.04.75l.55.18,1.03-2.33c-.1-1.04-1.09-2.36-2.02-2.81l-.28,2.5c-1.05-1.28-.16-3-1.31-3.86-.89-.66-2.13-1.35-3.26-1.66-.99-.28-3.02-.41-3.99-.1l-3.48,1.13c-.84.27-1.87,1.08-2.7,1.53l-5.56,3c3.25,1.28,3.54,4.67,6,4.82-.01-1.11.31-1.74,1.11-1.91.47-.1,1.15.43,1.47.79.5-.14,1.55-.21,1.85.19.24.33.21,1.26.03,1.63-.48,1.05-.92,1.23-2.31,1.21l.39.37c.93.37,1.55.36,2.3-.27l2.35.1c.33.01,1.2.78,1.01,1.06l-.62.91c.67.32,1.44.74,1.68,1.2s-.03,1.64-.38,1.85l-1.51.29c-.81.52-1.67.59-2.29-.27-.29-.41-1.13-.89-1.43-.93l.57,2.26c.57.39,2.27,1.04,2.54,1.78l.73,2c.13.37-.59,1.26-.94,1.11l-1.3-.53c.41.85.67,1.94.29,2.63-.49.9-1.46,1.33-2.41,1.01-.78-.27-1.34-1.33-1.43-2.22-.42.27-1.08.68-1.49.73-.35.04-.75-.84-.94-1.16-.72-1.25-.42-2.6.69-3.45l-.32-2.4c-1.7.23-1.33,3.11-2.36,2.75l-1.1-.38c-.34.25-.82.58-1.13.67-.25.07-.84-.35-1.01-.58-.85-1.18-.54-2.9,1.08-3.69l-1.97-.62c-.27-1.91,2.3-3.8,2.71-3.6l1.19.58c.31-1.02.56-2.24-.1-3.09-.6-.78-1.59-1.16-2.52-1.37-1.7-1.52-3.63-2.12-5.97-1.39-1.54.48-3.46.86-4.93,1.65-2.09,1.12-3.87,3.08-5.42,4.74-.3.9-.69,1.67-1.07,2.48l-2.58,5.43c1.78-.47,4.1-.31,3.51-.87l-.92-.88,1.7-1.97c.18-.21.82-.7,1.06-.56l.85.51c.39-.37.83-.75,1.14-.95.26-.16,1.17.31,1.26.63.18.62-.35,1.7-.86,2.42.58-.13,1.64-.49,2.01-.83l1.17-1.09c.28-.26,1.45.04,1.4.43l-.11.82c-.03.22,1.84-.46,2.61.66.3.44.11,1.52-.32,1.72l-.85.4c-.12.06.16.65.07.76-.24.32-1.07.66-1.49.63-.39-.03-.92-.41-1.48-.86l-1.24.62.95,1.21c1.38-.04,2.68.82,3.02,2.17l-1.03.95c.74.43,1.12,1.66.62,2.45s-1.5.7-2.34.25c-.34-.1-.91-.09-1.05-.33l-.61-1.12-.81,1.58c-.15.3-1.09.22-1.29-.05s-.39-1.07-.35-1.4l.66-2.61-.5-.06-.75,2.06c-.21.58-1.49.66-1.77.16s-.12-1.22.28-1.82c-.69.07-1.47-.31-1.38-1.05.11-.94.35-1.3,1.58-1.5-.14-.2-.64-.77-.92-.97-.55-.41-5.85,2.92-6,6.83-.08,2-.01,3.7-.95,5.46s-.95,3.75-.78,5.77c.16,1.84-.28,3.89.01,5.65.41,2.43.67,4.34-.03,6.79-.46,1.6,1.06,3.37.68,6.35-.14,1.13.12,2.24.28,3.37.6,4.32,1.6,8.26,3.71,12.14.32.59.35,2.1.74,2.63l2.45,3.25c.42-1.11.94-1.99,1.96-2.08.79-.07,1.64.64,2.09,1.36l.49-.59c.22-.26-1.05-.81-.41-2.03.23-.44,1.09-.62,1.64-.51.13-1.01.65-1.78,1.57-2.07.77-.24,2.06-.04,2.34.78s.37,1.02,1.25,1.32c.48.17.13,1.42-.28,1.7-.11.08.15.49.24.39l.41-.47c.24-.28,1.06-.53,1.33-.23.22.23.23.96.38,1.24l.72,1.35.94-.75c.21-.17.86.28,1.09.44.38-.55,1.19-1.55,1.87-1.96.37-.22,1.56,0,1.85.32s.44.92.62,1.56c1.49-1.09,2.93-.58,3.94.78.39-.74,1.22-1.5,2.08-1.5.69,0,1.69.74,2.34,1.23.5-.45,1.26-1.09,1.75-1.14,1.11-.12,2.73.93,2.63,1.21l-.24.71.79-.09c.16-.02-.24-.75-.15-.88.35-.56,1.8-.73,2.5-.28l1.07.08c.25.02.48.59.67,1.05l.76.14-.49-1.26,1.88.87c.2.09.59.48.72.31.1-.13.37-.57.22-.62l-.76-.27-9.73-3.15-4.16-1.27-4.05-1.56-4.36-1.37-6.84-2.12-4.68-1.36-6.4-1.68-3.37-.91c-.9-.24-1.57-.32-2.25-1.2l3.24.37c-1.41-.99-3.61-.64-3.27-1.85.2-.7,1.94.18,5.11-.57l4.38-1.04,3.64-.78c2.74-.59,5.41-1.82,8.26-1.91,2.29-.07,8.4,3.25,12.61,3.76,2.09.25,4.3-1.24,6.32-1.27,1.48-.02,2.73-.06,4.05-.54,1.27-.67,2.58-.66,4.01-.21l10.1-3.2c1.5-.47,3.15-.86,4.63-.47l3.22.85,6.04,2.27c1.53.58,3.31,1.54,4.91,1.52s2.48.25,3.81.91c3.1,1.54,6.53,2.24,9.92,2.99,1.6.35,3.18,1.04,4.78,1.15,2.28.15,4.56-.87,6.8-.85,1.28,0,2.42.11,3.64-.18l7.26-1.71c1.17-.28,2.77-.88,3.95-.68,2.65.44,4.99,1.45,7.54,2.12,1.49.39,3.08.58,4.49,1.27,2.72,1.34,5.45,1.63,8.29,2.46l4.61,1.36,7,1.38,5.49,1.19c-.47.06-1.32.13-1.68.08l-7.22-1.15c-3.42-.55-6.68-1.57-9.98-2.54l-6.48-1.91-5.32-1.57c-1.86-.55-3.79-1.31-5.75-1.41-2.89-.14-5.51.99-8.28,1.47l-5.31.92c-2.45.43-4.89.38-7.04,1.13l5.97,1.52-.02.39-5.76-1.11c-2.27-.44-4.37-.49-6.67-.18l-10.89,1.49-4.27.65-14.25,2.01-11.68,1.42,4.82,1.21c1.31.33,2.75,1.15,3.98.31.09-.26.27-.91.5-.88l1.21.18c.36-.6,1.11-1.24,1.87-1.15.8.09,1.47.67,2.04,1.15.49-.06,1.4.06,1.6.45.27.53.17,1.07-.35,1.37-.78.02-.58.21-.11.29.47-.11,1.03-.3,1.22-.13l.65.57,2.23.37c.91-1.1,2.5-2.17,3.52-1.9.65.18,1.31.84,1.66,1.39l1.68,1.01c.52.31,1.5.27,2.03.03-.45-.9-.25-1.76.5-2.21.46-.29,1.36,0,2.05.33-.22-.54-.46-1.31-.32-1.72.12-.35,1.07-.59,1.41-.83,1-.7,2.26-1.1,3.41-.13.3.26.89.96.74,1.32l-.54,1.31c.74-.62,1.56-.73,2.21-.05.44.46.53,1.29.4,2.08.7-.5,1.67-.52,2.33.2l1.3-.58c-.18-.55-.31-1.33,0-1.46l1.11-.52c.41-.19.86-1.14,1.28-1.22,1.17-.22,2.72.74,2.76.97l.18,1.14c.28-.1,1.25-.22,1.35.13l.4,1.39.53-1.54c.1-.28,1.06-.33,1.28-.33-.56-.37-1.08-1.06-1.12-1.78-.03-.67.52-1.51,1.19-1.75.47-.17,1.37.18,1.89.44-.35-.61-.55-1.59-.16-2.11s2.94-1.85,3.32-1.9c.68-.09,2.9,1.21,3.14,1.78.2.47,0,1.22-.23,2.02-.42.24-.02,0,.26-.15,1.08-.58,2.2-.13,2.56.96.29.86-.07,1.91-.9,2.43-.04.02.27.45.37.36l.49-.45c.29-.27,1.22-.49,1.58-.26.33.22.59.89.7,1.24l1.54-.89c-.28-.39-.66-1.43-.56-2.13.12-.82.85-1.65,1.44-1.78.74-.17,1.72.22,2.38.65-.19-.76-.38-1.88-.25-2.54.11-.58.98-1.57,1.56-1.48l1.09.16c.1.02.47-2.04,2.7-1.81,1.03.11,1.51.68,2.3,1.29.58.44,1.6.84,1.62,1.74.02.56-.39,1.42-.74,2.03.7-.1,1.93-.04,2.31.53.44.66.43,1.81.03,2.45-.88,1.4-2.53.96-2.54,1.92,1.52.11,3.48-1.36,3.88-.45l.61,1.37c.14.31.7.86.58,1.16l-.51,1.25c1.36-.39.17-2.06,1.62-2.39-.6-.42-.94-1.33-.51-1.96.55-.8,1.43-.9,2.29-.46-.36-.95-.05-1.83.87-2.29,1-.5,2.24-.66,3.19-.05.73.47.87,1.29.54,2.13,1.08-.28,1.95.56,1.94,1.48-.01.65-.69,1.27-1.35,1.87.91-.28,2.1-.67,2.68-.19.66.54.67,1.56.92,2.65.29-.67.4-1.28.72-1.55.39-.33,1.45-.11,1.94.01l-.76-.94c-.19-.24.36-1.11.67-1.12l1.4-.09c-.06-.32-.05-1.13.29-1.36,1.52-1.05,3.27-.35,3.43.06l.61,1.58c.35.16,1.4.54,1.44.95s-.28,1.15-.49,1.71c.73-.29,1.47-.55,2.18-.54.59,0,1.07.96,1.1,1.66l1.62.28c-.07-.33-.23-.81-.02-.94l1-.63.95-1.19c.44-.56,2.56.02,2.55.8l-.02,1.04c.27.18.8.53.74.77l-.21,1,1.06-.89c.21-.18,1.02-.12,1.03.16l.07,1.21,2.19.66c1.2.36,2.45.17,3.7.95l-26.67-.53c1.62.84,3.41.62,5.16,1.01-2.67.68-4.98-.64-7.41-.8l-10.7-.68c1.81,1.24,3.64.18,5.44,1.07l-5.27-.22-5.26-.48-2.98-.29c-.11-.01-.53.17-.64.2-1.71.57,7.67.57,9.93,1.49l-11.95-.38-7.89-.2-7.41-.4c5.08-.84,11.12.35,16.03-.72l-15.07-.31c-1.99-.04-4.04.96-6.05,1l-4.03.09c1.99-.79,4.75-.16,7.28-1.17l-7.26.15-13.06.72c1.23-.98,2.83-.07,3.89-1.23l-8.05.68c-.19.02-.01-.6.16-.87.25-.07-.82-.1-.83.12l-.04.84-6.39.22c.12.29.19.4.33.44l.77.18c-1.4.36-2.87-.53-4.26.81l2.93-.25c.46.37.51.41.11.09l-1.34.42.96.63,2.72-.77c-.74.45-1.36.81-1.87,1.6l3.44-1.3-1.72,1.6c1.31-.47,2.13-.98,3.44-.78l-2.17,1.16c1.21-.12,1.79-.17,2.5.2.72-1.02,1.96-1.99,3.62-2.02l-.56,1.32-.28.44c-.36.57,1.72-1.39,2.87-1l-1.47,1.07c-.08.06-.06.62.04.58l.59-.25c.13-.05.43.18.39.31l-.16.6,1.63-.75c.14.1.23.73.08.62l-1.04.29c-.14.04,0,.52.12.51l.65-.07c1.17-.13,2.01-.51,3.2-1.04l2.19,1.16-1.76.74c.8.18,1.2.29,1.47.52l3.23.9c.17-.13.64-.44.86-.31l.95.53-.72-1.45c.18-.12.7-.29.85-.16l.53.48.5.25c.07.04-.08-.24-.11-.34l-.47-1.69,1.71.73.64-1.16c.13-.24,1.12-.11,1.11.16l-.06,1.33,1.37-.29-.83,1.57c.84-.44,1.98-.29,2.52.43l-2.19.48,2.32.78s.39.37.43.41c-.72.74-.12.75.25.51l.73-.24c.13-.04.21.43.24.58l1.61.02-1.83-1.81c1.9-.22,2.07,1.09,3.21,2.46-.21-1.47-.76-2.56-1.42-4.08,1.39.91,2.22,1.95,3,3.48.51-2.09-.48-3.57-1.7-5.58,2.32.67,3.21,3.02,3.45,5.18.79-2.5,2.58-4.41,4.87-5.53-1.32,2.06-2.39,3.74-3.02,6.02,1.83-1.65,3.65-3,6.26-2.87-1.92,1.11-3.47,2.14-4.47,4.1,2.06-1.02,4.08-2.07,6.32-.93-1.94.22-3.45.72-4.58,1.97.89-.24,1.76-.45,1.84-.23-1.6,1.2-1.45,2.57-2.17,2.09-.64-.82-1.72-1.33-2.58-.83l1.78.42-.97.97c.94-.2,1.4-.22,2.52-.02.56-1.36,2.12-2.84,3.66-1.69-1.06.13-1.83.45-2.43,1.21l2.73.73,1.91.51-.39-.71c-.06-.1.47-.26.56-.19l.41.35c1.03.89,1.83,1.54,3.2,2-.54-1.63-1.33-2.65-2.64-3.73.93-.03,2.01.43,2.63,1.09l2.52,2.69c-.28-2.06-.92-3.72-2.03-5.55,2.25.84,3.59,2.46,4.58,4.49.22-2.86-.14-5.27-1.12-8.11,2.31,1.36,3.13,3.95,3.78,6.89,1.32-3.36,3.25-6.67,6.63-8.52-1.79,3.23-3.47,6.08-3.8,9.74,1.9-2.91,4.53-5.14,7.85-5.55-2.21,2.18-4.19,3.92-5.31,6.61,2.89-1.88,6.01-3.43,9.41-3.02-3.03,1.44-5.87,2.47-7.58,5.03,2.41-1.01,4.4-2.13,6.63-1.64-1.77.57-3.23,1.34-4.19,2.68,3.07-.76,5.96-1.95,8.88-.85-3.27.62-6.08,1.3-8.68,3.32h4.96c.37,0,1.21.54,1.42.82l-3.71.23,2.3,1.62-4.55-.91c-.65-.13-1.41.99-1.8,1.37-.58.56-1.35,1.15-1.26,1.91l2.09-1.56c.39-.29,1.79.6,1.87.78-.74.77-1.15,1.21-1.5,1.88l2.01-1.36-.12,1.61,3.11-3.34,2.12-1.54c1.33-.96,2.74-1.55,4.19-1.19-2.82.51-3.99,1.98-4.67,4.78,2.13-2.03,4.86-3.5,7.71-2.38-2.62.29-4.64.97-5.64,3.16,1.42-.3,2.67-.36,4.13-.09l-3.57,1.35.57.79c-.7.7-1.65.84-2.44.44-1.32.52-2.52.79-4.04.89-.32.46-.64,1.6-.81,2.31l-3.19,2.13c-.13.08-.58.13-.58,0,0-.08.04-.44.1-.51l1.83-2.28c-2.53.87-3.63,4.78-4.2,2.46l-1.59,1.69c-.58.61-1.1,1.12-1.63,1.9-.35.52-1.68,1.07-2.27.9-.36-.1-.76-.47-.99-.39l-1.22.44c.2-.84,1.01-1.05,2.01-1.35-1.46-1.03-3.83,1.87-3.68.98.02-.12.1-.67.17-.8l1.76-3.09c-2.3,1-2.79,1.92-3.72,4.11l-1.06-3.08-.41,1.44-1.57-.09c.93.44,1.84,1.13,1.78,1.68l-2.1.17,1.43,1.74c-3,.15-4.94,1.09-6.93,2.88l2.05-.19c1.32-.89,2.8-1.58,4.57-1.28-1.82.81-3.12,1.52-4.31,2.85l2.18-.08c1.56-.06,2.2-3.16,3.88-2.75l-2.22,2.59c3.93-.41,2.91-4.1,5.48-4.17.26-.35,1.01-.86,1.39-.72.29.11.77.72.75,1.04l-2.43,2.21c-.84.76-1.41,1.98-1.48,2.93,1.23.44,1.86-.36,2.38-1.2l1.16-1.43c.1-.12.43-.23.38-.09-.04.11.05.56.14.75.58-1.42,1.34-2.07,2.85-1.81l2.84.49.02-.48-2.45-.52c-.08-.22-.03-.7.13-.81l.78-.55c.07.02-.23-.06-.37-.09l-.79-.19,2.4-1.34,1.48.6-1.07-1.22c.34-.23,1.21-.78,1.55-.68.6.19,1.57,1.01,2.01,1.42l.86.14c.16.03.06.73-.05.79-.32.13-.75.27-.67.45l.3.64c.56-.48,1.11-.75,1.88-1.02l2.91-1.02c-.96-.3-1.87.27-2.77.67-.46.16-1.2-.93-1.09-1.41.12-.52,1.02-.94,1.5-1.05l1.9-.46-2.22-.46-2.18.87c.11-1.91,1.36-3.39,3.12-3.72l1.56.48c-.49-.82-1.06-.93-1.92-1.1.57-1.42,2.13-2.21,3.54-1.81.29-.27.75-.68.98-.58l1.04.43-.62.81c.4.04.97.07,1.06.29l.32.71,1.42-1.39h-1.31s.6-1.54.6-1.54c.13-.35.69-.82,1.2-1.34l-.04,1.05,1.4-.24c1.47-1.46,3.11-3.05,5.25-3.09-1.55,1.22-2.77,2.26-3.85,3.49l1.89-.64c-1.57,1.74-3.05,2.75-3.75,4.77,1.08-.8,1.5-1.39,2.81-1.46l-.91,1.51c1.68-1.11,3.24-.9,5.24-.29-.44-1.05-1.81-2.14-2.8-1.94s-1.69.53-2.22-.46c2.39-1.14,4.35-.16,6.36,1.23-.61-1.69-1.5-3.01-2.76-4.32,2.33.14,3.35,1.95,4.72,3.55.02-2.22-.85-3.88-1.82-6.09,2.02.99,3.13,2.82,3.75,4.95l.54-2.84.33-4.04c1.34,2.09,1.4,4.43,1.45,6.91,1.57-2.77,3.28-5.1,6.19-6.23-1.65,2.43-3.05,4.61-4.21,7.19l2.78-1.62c1.71-1,3.95-1.47,5.8-.47-2.66.75-4.72,1.76-6.51,3.51,1.09-.22,1.77-.31,2.78-.13l-1.96,1.63c2.16-.66,4.21-1.42,5.99.21-1.56.02-2.74-.8-3.93.47,1.88.33,3.43.27,4.99,1.15l-5.24-.16c-2.34-.07-4.63-.39-6.67.86l4.41-.32-.16.41-3.64,1.16.16.19,2.72-.42-1.15,1.67,1.8-.9c.74-.37,1.56-.67,2.26-.58l-2.17,1.49c1.3-.22,1.45-.39,2.96-.98l-.78,2.05c1.79-1.55,3.53-2.84,5.74-3.75,1.64-.68,3.12-1.36,5.06-.59l-2.42.97c-2.32.93-4.47,2.11-5.96,4.15l2.53-.63,6.4-.83c.57-.07,1.31-.03,1.91.15-1.73.62-3.15.98-4.5,2.19l2.88.37,3.13-1.88c1.23-.74,2.57-1.63,4.08-1.08-2.05,1.07-3.84,1.94-5.1,3.51,2.98-.52,5.27-.77,7.78-.08l-4.4.13c-.73.02-1.97.59-2.85.98l8.44.45c-1.56.59-3.01,1.56-4.42,1.63l-5.06.26c-.23.01-.88-.16-.85-.36l.12-.82c-1.22.78-2.41,1.35-3.75.86l1.95-1.07-3.84.66c-.73.13-1.19.17-1.78-.22l-1.99.23,1.71-1.55c-2.51.64-4.26,1.21-6.71,1.21l1.63-1.24c-1.65.27-2.94.67-4.33,1.68l4.38.37c-1.38.98-2.74.52-4.1.51l-4.12-.02,3.05-1.92-6.09,1.65c.4-1.37,1.61-1.44,2.59-2.23-2.79.28-4.56,2.82-5.81,1.72l1.98-2.04-3.69,2.19c-.23.14-1.28-.05-1.16-.26l.58-.99-2.81.43c-1.51.23-3.07.78-4.39,1.28l.21.26,4.58-1.21c.13-.04.75.1.71.2s-.17.54-.29.57l-2.44.67c2.2.45,4.06-.51,6.04.72l-5.45.42-7.32.15,2.88-1.5c-2.66-.02-4.9,2.32-7.38,1.23l4.19-2.06c-3.4-.11-6.54,2.72-8.55,1.42l4.17-2.61c-2.1-.09-4.37,2.63-7.07,2.58l2.8-2.52c-.45.1-1.03.33-1.55.64l-2.36,1.45c-.42.26-1.45.25-2.16.16l1.23-1.17-4.23,1.71,4.91.59c-1.11.95-2.3.57-3.54.65l-4.52.29,2.65-2.41-4.63.24-.06-.49c-.01-.09-.52.03-.64.08l-4.67,2.07c.46-1.24,1.3-1.87,2.15-2.77-.02-.23-.82-.59-1-.42l-.86.76c-1.18.68-2.68,1.28-4.22,1.76.14-.96.89-1.4,1.75-1.88-.08-.02-.62-.32-.54-.5l.5-1.11-1.69,1.55c-.97.88-2.54,1.4-3.96,1.54.59-.85.96-1.11,1.67-1.71l-2.5.74c-.88.17-1.93.42-2.47.77l.24.31c.53-.23,1.58-.53,2.13-.44.21.03.36.91.16,1l-1.11.5c-1.2.54-2.13,1.36-3.6.68l2.17-1.56-.1-.24-3.66,1.69c-.62.28-1.91.2-2.87.26.51-.73,1.33-1.15,2.16-1.57l2.87-1.43c-.89.03-1.5.24-2.28.53l-4.98,1.82c-.8-.16-1.72-.14-2.94.09l4.39-2.55-.16-.26-5.27,2.38c.54-1.24.6-2.44.07-3.57.04,1.88-.64,3.32-2.15,4.05-.44-1.14-.71-1.78-1.34-2.72l.31,2.46-.6.22c-.61-1.01-1.86-1.29-2.81-.96l.91,1.03c.15.17-.23.57-.39.7l.13.12c1.12-.39,2.45-.39,3.68.21-.94.8-3.25.61-3.88.12l-.15-.28c-.93.46-1.98.77-3.13.78l1.04-1.37c-1.33-.14-2.36.33-3.24,1.42l-5.37-.03c.95-1.34,2.07-.94,3.18-1.31l2.43-.79c.99-.32,1.79-.36,3.01-.27-2.48-2.25-4.49-1.5-4.14-1.18l.58.54c.13.12-.55.42-.62.25l-.27-.71c-1.18-.35-2.6.16-3.68.81l-1.91,1.14.44-1.45-2.47,2.06c.08-.8.39-1.27.9-2.31l-1.45,1.27-1.36,1.32-.58-1.56-1.51,1.83-.83-2.83-2.67-.37c2.19-.79,3.36.71,4.81.33-.03-1.16-.76-1.62-1.86-2.25,1.47-.58,2.18.58,2.97,1.87.4-1.19.27-2.72-.2-3.71l-1.24.06,1.92-.79,1.03,3.31.81-3.05c.54-2.03,2.22-3.26,4.25-3.39,1.27-2.5,3.22-4.16,5.57-5.43,1.34-.94,2.54-2.04,4.27-2.09l-3.68,2.35c-1.55.99-3.2,1.8-4.13,3.56,1.82-.57,3.55-1.46,5.28-1.19,3.38.53,5.54,2.87,7.42,5.53l-.46-3.8c1.53,1.33,2.16,2.33,3.29,3.77.15-3.64-1.2-7.06-3.9-9.6,2.89.3,5.53,3.93,6.49,6.77l2.35-9.05c.26-1,.81-1.78,1.47-2.7l-.25,3.05.36,6.24-.14,3.21-.19,3.23,1.16-2.67-.72-2.28,2.26-4.44c.47-.92,1.4-1.68,2.07-2.47l3.3-3.89c-.69,2.71-1.67,4.69-1.8,7.14,1.4-.78,1.26-2.11,1.79-3.1l1.48-2.75-.16,3.75c1.19-2.19,1.68-4.95,1.77-7.4.78,1.6.19,3.07.36,5.01.75-1.87.85-3.55.98-5.74l.88,3.72.18-3.93,1.29,2.11c-.17-2.33-1.82-3.52-2.91-5.59l2.19,1.59-1.32-2.12,1.55.59c-.92-1.21-1.88-1.53-3.57-1.79-.07-.14-.11-.19.3-.64l-3.21-1.57,3.09.48c-1.54-.97-3.09-1.55-4.76-2.08l1.34-.29-3.17-1.09-4.2-1.44h2.15s-7.9-2.35-7.9-2.35l-8.11-1.65h3.4s-7.69-1.79-7.69-1.79l-13.08-2.69c-4.02-.83-12.8-2.09-12.75-4.42.03-1.67,4.46-2.53,7.34-2.96l3.06-.45,2.86-.56,2.33-.31,3.27-.69-5.74-.39c-2.96-.2-5.81.4-8.8-.18l4.82-.48-3.82-.42-1.48-.56-5.6-.95-6.52-1.29c.29-.41.89-.94,1.17-.83l1.19.51,2.21-.57c-.63-.49-.97-.55-1.61-.64l-7.51-1.06h-3.66s-4.39.35-4.39.35l6.24,1.75,11.44,3.73c.45.15,1.28,1.1.97,1.42-.59.61-1.57.98-2.33,1.19l-7.67,2.11c-.83.23-2.07,1.38-1.88,2.2.28,1.26,1.59,1.89,2.62,2.26l9.29,3.37-.52-1.02,3.42,1.74,10.06,2.87c5.07,1.45,14.14,4.1,14.24,9.23.03,1.61-1.7,2.85-2.85,3.52l-.21.82-7.27,2.17,2.78.28-3.17.77-9.15,1.7,2.74.6-4.59.46-5.29.68,4.88.56-10.7.56,3.44.89-7.42.3-8.86,1.39,5.65.63c-5.84.51-11.37.53-16.84,2.04l5.34.27-.07.38-8.31.8-6.09,1.03,4.85.58-7.55.92-5.36,1.42c2.48.18,4.55-.29,7.12.26-.94.34-1.85.29-2.85.44l-2.74.4-5.51,1-4.93,1.42c2.4.11,4.38-.39,6.71.13-4.17.68-7.81,1.03-11.58,2.19,1.46.39,2.4.32,4.04.42-2.21,1.58-4.46-.02-6.97,1.27l1.35.9-1.73.23c-1.05.14-1.84.51-3.06.06,1.71-1.45,3.39-2.38,5.44-3.46l-2.73-.5c-1.05-.19-1.77.15-2.72.58-.68.31-1.51.6-1.79,1.08.84-.21,1.74-.58,2.1-.32l1.42,1.03-3.67,1.61c-1.03.45-2.4.3-3.74.09l1.63-1.37-3.06,1.26c-.91.37-2.14.33-3.21-.16l3.49-1.61-5.56.86c.83-1.03,1.37-1.3,2.3-2.01-2.23.23-3.6,2.12-4.69,1.56l1.51-1.79-2.93,1.54.24-1.28-1.96,1.98-.37-1.06c-.26.56-.87,1.51-1.42,1.91-1.51-.03-3.06-1.09-3.32-2.82,1.41.3,2.32,1.09,3.52,2.11l-2.3-5.77c2,.47,2.38,2.12,2.97,3.54.12-1.35.69-2.64,1.75-2.94l-.56,2.34,1.18-.66c.93-.47,1.86-1.07,1.43-2.52.83.02,1.71.88,1.89,1.79.82-.87,1.38-1.31,2.33-1.8.43-.18.4-.29-.05-.26-1.04.37-2.04.72-2.92.09l2.88-1.34-4.4.68,1.06-1.93-1.39.84-2.57.97c.39-.83.81-1.11,1.75-1.81-2.19-.95-2.64,1.44-3.89.84l.85-2.78-1.54,1.59-.5-1.89c-1.39.69-1.8,1.93-1.33,3.76l-1.85-.71-.36-1.55c-.84,1.63-1.74,2.85-3.46,3.9l1.15-2.75-2.24.87c.21-1.79,1.06-2.58,1.93-4.17l-4.01,3.85-.1-1.3-1.4,1.84c-.38-1.34.18-1.93.69-3.39-.39.28-.8.89-1.12,1.42l-1.55,2.5-.26-2.24-1.35.49ZM20.33,8.9l-.43-2.94c-.12,1.86-.12,3.99,0,5.53l.37.46c.09-.94.18-2.15.05-3.05ZM126.99,13.79c-1.45.05-2.55.26-4,.58,1.29.46,2.75.73,4-.58ZM53.71,21.06l-.1-3.37-.25.16.05,5.51c1.14-.62.32-1.65.3-2.3ZM183.22,25.87c-.87-1.08-1.76-1.75-3.07-1.9l1.33,1.62c.27.28,1.36.31,1.74.27ZM204.22,29.42c-.18-.6-.31-1.03-.29-.96-.71.12-1.37-.08-1.68-.55-.23-.34.07-1.05.4-1.68-2.65-.97-6.02.25-5.52.44l.63.24c2.07.8,4.33,2.09,6.46,2.51ZM53.78,42.44c1.16-.78.81-1.73.79-2.65l-.13-6.58-.39-3.48c-.11,2.16-.05,4.18-.03,6.31l.02,2.31-.27,4.09ZM80.79,34.29l4.41-.79c.62-.86,1.34-1.68,2.24-2.33l-2.26.73-4.8,1.38c.96.26.78.43.41,1ZM32.32,54.16c.68-1.74,0-3.42.76-4.41l.71,1.65c.58-1.85.44-3.32.08-5.06l-.53-2.53-.65-4.29-.44-2.89c-.5,2.55.84,6.41.08,6.01-.13-.07-.59-.4-.6-.54l-.3-3.46c-.14,1.09-.31,2.49-.18,3.72l.49,4.5c.18,1.7.5,3.02.26,4.72-.09.69.1,1.69.33,2.58ZM62.38,43.73l4-2.17,3.52-1.63c.6-.28,1.15-.58,1.63-.97l-2.46.78c-.78-.38-.98-.39-2.1-.59l2.73-1.29-.45-.1c-.87.25-2.19.75-3.22.87-2.4.27-4.31,1.39-6.17,2.76l-2.44,1.8,3.36-1.06-2.93,2.38c1.96-.68,3.24-2.32,5.38-2l-.85,1.22ZM58.01,39.89l-1.22-1.66c-.38.73-.74,1.67-.97,2.81l2.19-1.15ZM134.88,40.92c-.2-.29.24-.94.54-1.48l-4.54,2.97,2.71-1,1.01.33c.18.06.4-.63.28-.8ZM19.52,42.3l3.17-.12-2.74-2.14-.4.11,1.73,1.51-1.76.64ZM125.75,44.85c.11-.22.45-.62.64-.69l2.51-.89c-2.2.25-4.18,1.06-6.32,1.09l-7.23.11,5.46.33c1.69.1,3.48-.23,4.95.05ZM72.04,54.4c-1.04-1.42-.52-2.11.33-2.84.27-.23.88-.69,1.18-.56l1.21.51c-.64-2.32-2.53-3.76-5.03-4.22l1.08,2.53c-1.74-.05-2.17-.96-2.76-2.13-.88-1.74-4.98-2.1-7.33-.9-1.83.93-3.45,1.97-4.68,3.7s-2.36,3.71-2.98,5.76l-1.27,4.18c1.99-1.02,4.38-2.13,6.75-2.23,2.06-.08,4.23.4,6.21-.28,2.61-.9,4.97-2.29,7.31-3.53ZM35.78,72.3c2.44-2.28,2.88-4.79,5.31-6.41.72-1.41,1.75-2.58,3.44-3.18l-1.92,2.73c-1.53,2.17-3.78,1.88-4.37,7.03,1.32-2.24,2.28-4.75,4.71-5.95l-.05,1.42c1.31-2.54,2.28-4.71,4.06-6.95.41.27.52.83.63,1.57.7-.97,1.89-2.23,2.44-3.4l3.18-6.63c.7-1.47,1.68-2.61,2.62-3.92l-2.99,2.5,1.61-2.64c-.98.58-2.15,2.14-2.68,3.01-.05.08-.49.31-.56.37s.02-.27.01-.36l-.09-.6c-1.23,2.38-1.27,4.83-2.89,7.56l.46-3.9-1.42,3.61-1.02,1.99-1.38,2.38-.25-1.64c-1.69,2.52-4.09,4.28-5.97,6.6l-3.88,4.79c-.91,1.12-1.41,3.25-2.15,4.66-1.1,2.1-1.59,4.52-1.95,6.67l1.39-2.59c-.47-1.4.85-2.32,1.18-3.16.8-1.99.83-3.99,2.5-5.56ZM130.79,55.58c.45-.52,1-1.15,1.35-1.09s.85.42,1.34.77c.74-2.89-.14-3.77-2.31-4.9-2.48-1.3-5.1-2.29-8.01-1.76,1.47,1.02,2.14,2.07,2.58,3.47l1.47,1.75c1.11,1.32,2.45-.32,3.57,1.77ZM31.12,53.6c.93-1.8.51-3.63-.29-5.11l.29,5.11ZM28.41,83.8c.05-.32.23-1,.21-1.25l-.13-2.02c-.08-1.2.15-2.04.44-3.19l.59-2.32c-.04-1.46.45-2.74,1.23-3.91.12-1.57.51-3,.96-4.48l1.58-5.24c.88,1.28-.74,2.81-.19,4.57.49-1.26,1.11-2.35,1.33-3.41l.73-3.63c.37-1.85.09-3.92-.11-5.72l-1.11,2.5c-.49,1.11-.36,3.03-.79,4.26-.71,2.02-1.24,3.72-1.72,5.83-.13.58-.73,1.45-1.07,1.92-.49,3.56-1.77,6.52-2.11,10.51l-.5,5.85c-1.09.85-1.36,1.97-1.27,3.33l-.37,2.77c-.02.12.08.71.15.64l.44-.39c.13-1.73-.31-3.58,1-5.35l-.1,3.01.17.17.68-4.45ZM5.85,57.76l2.96,1c-.91-1.79-1.64-2.99-2.65-4.52l-1.46.83c1.03.95,1.55,1.51,1.15,2.69ZM57.55,62.64l3.66-.93,3.33-.74c2.13-.47,4.41-.78,6.32-1.76l4.16-2.14c-1.72-.03-2.8.8-4.58.91,2.21-1.44,4.28-2.45,6.4-3.57-1.37.15-2.47.49-3.47,1.03-3.4,1.82-6.76,3.35-10.5,4.57-3.17-.87-6.19-.26-9.02,1.16-2.37,1.02-4.45,2.4-5.87,4.48,1.83-.88,3.1-1.5,4.91-1.9l-1.89,2.3,4.1-2.24c.57-.31,1.84-1.02,2.46-1.18ZM19.49,69.4l-1-3.17c2.19,1.17,1.81,3.69,3.01,5.64l1.07,1.74.73-1.4c-.77-1.91-1.81-4.22-3.3-5.64-1-.96-2.14-1.63-2.45-2.99-.35-1.52-1.65-1.91-2.6-2.91-1.5-1.59-2.47-3.73-3.68-5.49l-.17,2.06,2.37,2.5c.1.1.25.69.29.83s-.43.02-.57,0l-.58-.05c1.47,1.26,2.56,2.48,3.09,4.48.17-1.11-.34-2.01-1.09-3.55,1.97.55,3.03,2.66,3.09,5.09l1.78,2.85ZM162.05,60.2l-3.85-2.17c.46,1.1,1.06,2.04,1.83,2.75l2.01-.58ZM176.68,64.46l-3.71-.18,4.02,1.38-.32-1.2ZM176.98,67.61l-6.41-3c.86,1.82,2.43,3.38,4.14,4.2.55-.72,1.07-.94,2.27-1.2ZM94.93,73.28c-.19-2.78-1.18-5.47-2.76-7.78l2.76,7.78ZM146.87,77.55c-.59-3.7-1.63-6.9-3.09-9.99l3.09,9.99ZM40.34,159.06c-1.57-.84-2.27-2.12-2.14-3.75-.76-1.2-1.02-2.54-1.02-3.9-1.36-2.58-2.51-6.31-2.84-9.28-.09-.78-.45-2.09-.33-2.75l.58-3.2c.23.44.21.83.12,1.32l2.03,5.15,1.23,2.92-.31-2.65,2.35,2.01c.65.55,1.03,2.4,1.22,3.26-1.02-.5-1.04-1.5-1.4-2.69-.49,1.18.02,2.31.99,3.12l.8,1.51c1.23.32,2.03,1.14,2.18,2.41.33,2.93,4.7,1.5,4.75,4.26l-1.34-.78c-.16.92.07,2.06.87,2.48l-.49-1.54,3.1,1.65-2.62-.06,2.47.74c2.92.88,2.16,4.73,5.45,5.4,1.17.24,1.78,1.02,2.13,2.17l1.74.68-2.23-2.9c-2.48.16-4.75-3.54-5.4-5.98-.21-.79-.87-1.95-.1-2.67.33-.31,1.34.61,1.51.95,1.17-.14,2.19-.15,3.42.25l-1.45,1.17,1.62.24,2.55,1.12-1.94.32,3.65,1.18,3.33,4.06c-.81.04-1.4-.36-1.91-1.13-.48.81-.6,2.21.46,2.9l-.33-1.8c.39.25.85.58,1.18.9l1.65,1.6-2.02-.1,1.3.82c1.79,1.13-.24,1.58,0,4.05-.46,1.19-.95,2.42.15,3.52l1.25.43,3.31,2.51-.09,1.72c.78-.02,1.81-.03,2.03.32l.89,1.36c.15-.36-.05-1.32-.39-1.47l-1.49-.67c-.18-1.1-.65-1.83-1.32-2.6-.74-.84-1.28-1.63-2.23-2.17-.33-.19-.86-.58-.77-.84l.41-1.21.57-3.58,1.07-.46c-.03,1.18,1.85,1.47,2.76,1.48.26,0,.06.78-.17.76l-1-.12c.69,1.26,1.89-.12,4.14,2.04.52.5,2.11-.18,2.81-.35l3.05,1.56c.49.25.77,1.35.83,1.9,1.55-.9,2.88.44,4.07,1l2.42,1.14,1.74.98-1.56-2.2c2.02.26,2.86,1.14,4.67,2.15l-.69-1.14c2.27-.74,3.26,2.18,5.15-.06l2.27.21-2.28-1.6-.32.88-2.8-1.44c-.35.1-1.24.27-1.43.05s-.23-.6-.3-.96c-.4.1-1.02.27-1.2.08l-.63-.66c-.07-.08-.65.01-.59.09l.37.46,2.39,2c-.23.21-1.14.47-1.34.25l-.7-.79-2.51.11c-1.2.05-2.55-1.11-3.64-1.5-1.45-.52-2-1.04-2.67-2.42s-2.94-2.34-4.46-2.19-2.09-.17-3.1-1.15l-2.68-1.46c-1.66-1.75-1.34-3.81-3.68-4.63-1.57-.55-2.32-1.55-2.81-3.03-.84-2.52-3.1-3.56-4.31-5.86l2.87,1.49c-.35-1.23-1.31-1.73-2.63-2.29.84-.81,1.58.35,2.12.48,1.37.35,2.17.64,2.99,1.79.53.73,1.45,1.8,2.15,2.29l1.94,1.34-2.38-.21,2.4,1.73-1.51.16,1.47,1.48c.97-.2,2.87-.36,3.55.33l1.77,1.78,1.54,1.41c.84-1.6,2.4-1.27,4.07-1.23-1.48-1-3.05-.34-3.86-1.12,1.67-1,4.69-.27,4.47,1.38l1.82,1.06c-.87.33-.7.73-.08.8l4.29.86.94,1.8c2.71.4,5.55,1.14,7.48,3.08.34,1.14,1.09,2.82,2.96,2.41-1.51-.37-2.38-1.48-2.18-3.13l2.93.62c.24.05,1.09-.06,1.07.14l-.09.73c1.91-.47,2.15,1.91,4.49.67l2.75.58.19-.33-5.01-1.39-3.49-1.63c-2.77-1.29-2.6,1.17-4.69-.41l-3.03-2.29c-.94-.71-2.07-2.54-3.35-2.73l-3.58-.56-1.31-2.75c-1.13-2.38-5.11-.8-7.79-1.33l-2.02-2.05-2.42-.14c-3.42-1.08-6.04-3.62-6.85-7.19-2.65-2.48-6.03-4.9-9.33-3.44-.72-.7-1.32-1.55-1.56-2.21l1.08-.38-3.67-3.25c-.77-.69-1.88-2.5-2.4-3.41-.4-1.58-.44-2.97-1.78-4.11l-.64-2.52-1.68-3.92-.6-4.93c-.24-1.97-.39-3.5-.38-5.52.01-2.34-1.81-4.62-1.48-6.16l.6,1.52.58-2.9c.14-.7-.18-1.83-.55-2.56l-.54,1.29c-.69-1.02-.79-2.16-.2-3.43l.56,1.43c.58-1.85.4-3.76.15-5.82l-.34-2.87c-.26-2.14,1.35-3.86,1.91-5.8.28-1.12.12-2.68.01-3.72-.37,1.67-.94,2.77-1.4,4.24l-.98,3.14c-.84,2.68-.64,5.9-.89,8.48l-.09.97c-.01.1-.2.06-.53,0l-.03-4.7c-.02-3.33.8-5.95,2.3-8.88.59-1.15.22-3.24,1.06-4.35,1.32-1.74,1.89-3.48,2.68-5.45l2.11-5.31,1-2.78c.38-1.06,1.74-1.92,2.68-2.91-2.81-.06-2.72,3.15-4.81,3.87l1.42-2.12c1.05-1.93,2.51-3.25,4.72-3.91-.07-.51-.36-.7-.54-.33l-3.36,1.31-1.33,1.08c.19-.64.54-1.04,1-1.38l3.53-2.6-2.95,1.42c-1.37.66-2.41,1.45-3.68,2.4l-3.17,2.37c-.12.09.21.67.35.59l.46-.24,2.9-1.51c-.04,1.53-1.06,1.77-1.48,2.57l-1.63,3.06c-.35.66-.86,1.44-1.66,1.73-.42-.83-.06-2.12.59-2.77l2.01-1.97c-1.38.14-1.85,1.58-2.74,1.98-.69.31-1.37.49-1.83.94-.4.4-.56,1.01-.11,1.82l.96-1.72.63,1.19c.15.28-.68.67-1.16.79l-1.64,4.53c2.54,1.78-2.08,3.13-1.41,6.65l1.16-2.01-.52,5.92c2.07-2.91,2.74-6,2.81-9.47-.89-1.97-.3-4.2,1.12-5.62l.97-.21c.18-.04.23.64.1.76l-.44.38-1.74,4.17,1.17-.53-.69,2.79c.1,2.96-.53,5.72-2.07,8.32-.61,3.94-1.2,7.93-.67,11.95.23,1.78.72,3.44.21,5.33-1.04,3.86.62,6.62,0,6.62h-.73s.33,3.89.33,3.89c.21,2.41-.01,4.77,1.04,7.02.17-1.27-.01-2.11-.11-3.46.24.48.63,1.38.68,1.82l.22,2.17.34,3.42.18-2.45.27.2,1.54,6.37c.71-2.36-.77-4.05-.87-6.46.33.18.96,1.09,1.07,1.61l.73,3.36c.59,2.74,2.58,2.34,2.44,4.71-.07,1.23.49,2.63,1.77,2.77,1.21.14,1.88.86,2.85,1.46s2.03.97,2.78,1.79l1.59,1.74c-1.16-.13-1.98-.56-2.55-1.19,0-.35-.04-1-.28-1.12s-1.07-.1-1.01,0l.74.6c.12.1.1.5-.05.51l-1,.08c1.53.46,2.75,1.18,4.2,2.12.83.26,2.05-.09,2.92.91l-3.2-.15c1.33.56,2.29.67,3.03,1.6l-1.92-.51-.2.21,3.91,1.92-3.24-.17c-1.97-.1-3.42-.28-5.09-1.17-1.31-.69-2.24-1.41-3.05-2.78l-1.79-1.53c-.69-1.66-1.39-3.08-2.41-4.49l-2.65-3.7c-1.43-1.99-2.89-4.24-2.7-6.62.1-1.27-.38-2.24-.75-3.36l-1.21-3.67c-.46-1.39-.01-3.25-.21-4.71l-.72-5.38c-.23-1.76-.24-3.07.11-5.22-.46.76-.73,1.81-.8,2.83l-.56,8.88c.62,1.29.7,2.69.26,4.02.58,1.15.9,2.32.82,3.5-.68-.94-1.09-1.64-1.26-2.52l-.56-2.96c-.38-2-.7-4.03-.18-6.06.43-1.7.35-3.1,0-4.84-.96-4.84.5-8.07.41-9.83l-.2-4.24c-.07-1.42.55-2.65.89-4.02.31-1.27-.09-3.17.25-4.39l.83-3.01,1.23-4.13.4-3.03.75-1.42-.39-.05-.89,1.51c-.1,2.09-.77,3.64-1.78,5.47l-.84,2.76c-.66.92-1.04,1.67-1.13,2.74l-.27,3.52c-.22,2.81-.61,5.45-1.07,8.19-.57-2.24.1-4.21.21-6.32l.21-4.22c-.95,1.33-.34,2.9-.63,4.38-.4,2.02-.95,3.99-1.05,6l-.24,4.68,1.14-2.89.27,5.25c.12,2.41.65,4.68.89,7.1l.53,5.38c-1.13,2.36-.95,4.92.19,7.2l.68,7.33c-.89-.47-1.13-1.3-1.15-2.17l-.11-4.99c-1.08.78-.4,5.95.19,7.16l.91,1.89.49,3.18-1.42-1.6,2.02,4.8.72,1.25c-1.75-.19-1.54-1.28-2.38-2.53l-.03,2.85-1.2-1.81.64,2.39-.3,4.2c-.36-.06-.89-.05-.85.21l.17,1.08c.32-.5.64-1.03.8-.85l.66.73c.12.13.23.55.28.74.03.11-.38.24-.45.15l-.46-.59c-.13,1.71,1.12,2.71.98,5.2,1.27-.99.01-2.4.13-3.58.01-.12.18-.12.24-.02l.29.46c.83,1.3.67,2.49-.62,3.42,0,.79.3,1.68.89,2.41l-.11,2.72c-.49.43-.88,1.1-.53,1.66.19.31.4.39,1.12.71l-1.73,1.25c-.19.43-.4,1.82-.89,1.76-.8-.09-1.62-.19-2.09.22-.37.32-.69,1.18-.92,1.75l-.76.68c-.18.16-.04.86.03.89l1.45-1.54c.14-.6.28-1.18.46-1.48.15-.25,1.11-.19,1.12-.08l-.5.86c-.07.12.78.35.78.49l-.14,3.2,1.12-.16-.35-3.4,2.54-2.52c1.26,2.9,3.63,2.27,3.26,5.23.51-.32,1.09-.71,1.45-.61.44.11.87.91.67,1.28-.59.3-.38.53.37.84.28-.16.49-1.21.28-1.79-.14-.39-1.04-.6-1.48-.82l-2.67-4.29c.51-1.49.69-2.4.08-3.77-.46-1.04.18-2.69.5-3.73l-.46-2.59,1.3,2.19.39-2.85c.66.7.48,1.36.34,2.41l.8-.78.41,1.64.69-.58c.06-.05.1.26.08.34l-.08.41,1.95,1.48-2.03-.44s.04.11.07.21l2.13,1.06.09-1.08c1.52-.5,1.7.82,2.3,1.25l3.07,2.18c-.27.28-.56.5-.43.61l.52.44.73.62c.16.13-.08.72-.01.91l.6,1.66-1.21.91-.48,2.2-.42,1.86.86-.5c.16-.09.43.44.69.78.11-1.37-.95-3.23.25-4.35,1.43-1.33,3.7.38,4.64,2.54l.42,2.1c.04-.85-.05-1.96.35-2.32,1.65-.42,2.65,2.26,2.82,1.94l.37-.71c.07-.13-1.14-1.67-3.07-2.11-1.07-1.24-2.18-2.34-3.59-3.37l.09-1.67c-1.05-.9-1.46-1.87-1.56-3.15-.18-2.29-3.65-3.67-6.36-4.36-1.19-.3-2.32-1.53-3.07-2.59ZM195.18,69.5l-5.54-1.14c.39.63.79.64,1.43.74,1.45.23,2.65.52,4.11.4ZM27.07,77.08l1.51-5.88-.28-1.63-.55,3.08c-.7,1.38-.94,2.87-.69,4.44ZM175.85,71.52c-.51-.62-.97-1.15-1.64-1.38,1.11,1.62,2.24,2.94,3.76,3.97l-2.12-2.59ZM20.92,76.85l-1.3-4.74c.05,2.48.74,4.58,1.52,6.96.11-.69,0-1.45-.22-2.21ZM7,79.14c-.13.15-.43.52-.57.46l-.68-.29-2.92-1.05,8.39,5.21c-.76-2.19-3.2-2.45-4.22-4.33ZM21.22,88.63l.13-3.45-.18-3.6c-.83,1.1-.37,2.33-.4,3.6l-.09,4.24c.13-.08.54-.6.55-.79ZM20.21,94.77l.4-3.34c.05-.44-1.91-1.43-.87-5.45l-.99.48c-.75,1.61.43,2.96.69,4.33l.77,3.99ZM26.9,100.58l.17-2.9.29-4.54c.03-.52.78-1.35.34-2.05-.76,1.44-.87,2.9-1.09,4.63l-.36,2.77.65,2.1ZM17.84,109.85c.03-1.45.33-2.57.92-3.99l.71,1.87.21-2.71c-1.67-4.46,1.03-7.58-1.17-12.08.24,2.41.66,4.29.25,6.52-.31,1.68.13,3.92-.31,5.51-.97,2.47-1.65,4.65-.92,7.29-.14.61-.8,1.8.21,2.39l.1-4.79ZM35.9,102.88c.77-1.55,1.05-3.14.69-4.95-.4,1.6-.68,3.16-.69,4.95ZM25.68,103.99l.31-4.64c-.99,1.44-1.09,3.4-.31,4.64ZM37.05,117.23c.91-2.52,1.34-5.07.98-7.49-.3-2.04-.47-3.95-.51-6.04l-.09-4.37-.78,3.98c-.48,2.44-.59,5.01-.52,7.56.03,1.13.63,2.56.51,3.65s-.29,1.96.4,2.71ZM25.37,113.13l.27-2.06.06-3.8c0-.45.01-.74-.22-1.17l-.48,3.15c-.21,1.36-.34,2.53-.12,3.97l-.48,2.79.4-.11.58-2.77ZM20.57,125.12c-.21-.05-.51-.06-.51-.21v-.9s.49-3.55.49-3.55c.23-1.69.49-3.2.29-4.77l-1.06,5.02-.16,3.91-.81,5.67,1.76-5.17ZM25.38,127.47l.96-4.3c-.61-2.57.34-4.73-.08-6.63l-.75,3.54c-.26,1.21.06,2.89-.09,4.19s-.26,2.17-.04,3.21ZM30.21,126.09c1.04-1.7.81-3.05.51-5.09-.03-.17-.21-.22-.62-.13l.11,5.22ZM92.13,128.55l3.32-.68c.82-.17,1.55-.32,2.45-.28-1.65.75-3.31.96-5.3,1.14l2.47,1.5c2.3.32,4.2,1.26,6.31,1.9l4.85,1.48,2.45-.66c1.74.1,2.92-.16,4.51-.38l3.01-.42c1.23-.17,2.23-.33,3.34-.71l-1.14-.55c1.24.14,2.46.57,3.35.39l2.8-.55,3.09-.16,2.89-.58c1.16-.23,2.06-.36,3.23-.42l3.48-.19-4.18-1.17-.25.29,1.57.69c-3.45-.71-6.6-1.42-9.77-2.71,3.08-.15,5.39,1.58,8.08,1.92l.21-.22-5.38-1.87-5.59-1.64-4.82-1.78c-2.28-.85-4.43-2.01-7.08-1.87l5.84,2.21,8.39,3.16c-5.54-.67-10.5-4.19-16.25-4.81,2.57,1.6,5.43,1.3,7.8,3.22-2.46-.66-4.58-1.65-7.01-1.7l3.17,1.39-.05.36-3.42-.87c-.6-.15-1.52-.07-1.89.26,2.84.93,5.21,1.65,7.25,3.29-2.26-.78-3.85-1.71-6.07-2.15l2.35,2.38-3.7-2.35c-.82-.52-2.2.16-3.48.15.69-.58,1.74-.67,2.95-.93-.4-.43-1.38-.53-2.06-.33l-6.98,2.11c1.25-1.2,2.9-1.13,4.34-1.87l3.56-1.86c-4.29,1.55-8.35,2.77-12.72,3.89l-4.74,1.21c1.3.18,1.96.04,2.79.56.55.35,1.31.36,2.01.22ZM58.34,127.93c1.97.16,5.37.8,6.07,1.37s1.07.98,1.85,1.05c1.7.15,3.07.69,4.31,1.64,1.21-.12,2.3.22,3.17.97,1.67-.36,2.8.69,4.21,1.18l3.4,1.18,3.53-.09,1.74-.42,2.9-.03,2.89-.05c.97-.02,2.32.61,3.05-.52l.96.14c1.99-.5,3.64-.31,5.79-.02-.35-.27-.88-.41-1.44-.6l-10.34-3.41-5.25-1.87-11.49-4.28-4.9-1.47c1.36,1.04,2.83,1.62,4.44,2.22l4.77,1.78,2.48.9c1.03.37,2.06.5,2.77,1.37l-10.77-3.63c-1.13-.38-2.12-.71-3.46-.62l5.56,2.5c-2.38.32-5.64-1.8-8.64-1.89-3.26.42-6.35,1.02-9.63,1.93,1.82-.01,3.43-.52,5.2-.77l4.26-.62c1.33-.19,3.09.71,4.34,1.21l4.13,1.64c.74.29,1.33.5,1.83,1.18l-6.51-2.47c-2.61-.99-5.12-.93-7.84-.45l-3.74.67.36.31ZM92.49,125.7l4.56-1.08c1.78-.42,3.57-1.11,5.05-1.99l-7.2,1.93-9.63,2.37c2.53.29,4.72-.63,7.22-1.22ZM92.92,124.35l-5.82,1.23c2.14.26,3.98-.35,5.82-1.23ZM63.94,124.7c-2.64.19-4.8.8-7.13,1.6,2.44-.13,4.86-.78,7.13-1.6ZM26.88,140.93l.02-5.65.15-6.28c.02-.79.41-1.43-.1-2.21l-.68,5.01v4.63s.61,4.51.61,4.51ZM6.54,142.08c1.66-.29,2.72-1.5,4.1-2.18,1.59-.79,2.74-1.73,2.64-3.69s.98-3.1,2.05-4.59c.77-1.07.91-3.01.9-4.45l-1.33,4.13-1.95,2.17c.5,2.76-.93,4.6-2.92,6.06l-3.49,2.56ZM18.56,136.88c.99-2.18,1.87-5.17,1.64-7.16l-2.86,9.58c1.1-.46.85-1.61,1.22-2.42ZM6.84,151.76c1.4-.12,2.32-.87,2.61-2.24.16-.74,1.1-.87,1.64-1.07,2.09-.77.91-4.18,4.07-4.99l.32-1.44-3.36,3.23c.82,2.24-2.7,1.87-3.74,5.22-.52.32-1.39.6-2.1.81-1.23.36-2.12,1.48-3.08,2.32-.71.62-1.43,1.19-1.82,1.85,3.56-1.41,2.97-3.48,5.45-3.69ZM14.66,160.58l.55,1.58c.06.18.58.52.49.68l-.39.63c.68.22,1.27.81,1.43,1.44l.15.59c.03.11.57.11.45.08l-.29-2.48c-.15-1.24-.21-2.44.39-3.51l1.22-2.16.13.66c.02.08-.08.38-.02.34l.43-.26,1.19-1.79.27.22-.56,1.1c2.08-.96,1.07-2.65,1.07-4.18,0-1.97,2.02-5.64,2.48-5.28l.76.6-.07-2.13-.91.53,1.44-2.05c.35-.5-.25-1.99-.38-2.45l-.58.85c-.06.09-.34-.1-.35-.21l-.07-.63-1.61,1.58c-.47.76-.86,2.07-1.11,3.05,1.3-.82.34-3.4,3-3.38l-1.27,1.95-2.01,3.3,1.31-.74c-.09,2.55-4.1,2.29-4.66,5.7l1.39-1.5-.14,1.04c-.02.15.48.02.53-.12l.2-.63c.04-.12.47.02.46.15l-.07.64c-.12,1.04-.74,1.99-1.65,2.07.49-.71.75-1.08.84-1.79l-1.86,1.99c-1.62.1-3.31.85-3.52,2.54,1.03-1.13,1.72-2.24,3.19-1.68l-1.62,1.35c.4.36.95.89.82,1.16s-.47.59-1.06,1.15ZM99.28,161.18l1.28-.27-.91-1.34h-5.56c1.91-.99,3.73-.31,5.6-.67l-3.4-.61,3.3-.2v-.32s-9.08-.47-9.08-.47l2.55-.73-6.82-.64-.17-.27,5.85.07c-1.42-.76-2.84-.1-4.35-1.25-3.61-.78-7.14-.89-10.71-2.2,1.15-.05,2.41.2,3.44.4l-.82-1.17,3.44,1.53-.51-1.26,1.99,1.11-.39-1.3,1.63.91v-.66s1.61.49,1.61.49c-.52-.47-1.7-1.02-2.31-1.27-.25-.13-.33-.99-.61-1.03l-1.4-.2,1.27-1.48-.04.84c0,.09.27.03.36.02.13-.02.38-.08.35-.21l-.11-.41c1.83.09,2.02-1.78,4.57-2.03l-2.17-.24,4.71-.6-12.12-.97-20.97-.59c1.23.69,2.09.45,3.7.66l-1.69.51,3.98.55-1.19.62,1.96-.2.32.75c.04.09.25-.13.29-.22s.25-.58.35-.61c.79-.25,2.34.55,2.9,1.53l1.38-1.04,2.3,1.69c.94-1.13,1.71.14,2.39.15,1.16.02,2.14-.32,3.2.43l-5.45-.03-5.19-.17c-1.41-.05-2.65-.25-4.17-.11,1.74,1.45,2.84,2.58,3.84,4.5.94,1.79,2.88,3.63,4.94,3.99,1.39.24,2.49.21,3.39,1.42.72.98,1.96,1.2,3.18,1,2.91-.47,5.69.44,7.08,3.06,1.15,2.16,3.69.5,5.36,3.28.25.41,1.03,1.13,1.45.97l1.6-.6c.74.85,1.73,1.7,2.91,2-1.74-2.9-3.92-2.39-4.37-3.84l3.06,1.04c1.53.52,2.59,1.53,3.47,3.09.17-3.23-2.38-4.41-3.59-6.78,2.45,1.39,4.37,3.07,6.19,5.27.08-1.91-.22-3.89-1.51-5.56l-1.56-.3ZM102.1,160.28l2.7-.61-3.85-.14,1.36,1.52c.96.06,2.01.05,3.3-.36l-3.51-.42ZM4.04,164.53c.34.11.88.25.85.09l-.16-.98c-.15-.93,1.54-.8,2.33-1.19.34-.17-.6-.41-.45-.65.25-.39,1.49-.05,1.52.28l1.31-1.36-3.16.64-2.29,1.54c-1.17.11-2.01.36-2.85.77l.72.74.75-.92c.17-.21,1.05-.06,1.24.02l-1.27,2.45,1.47-1.43ZM23.11,166.95c.3.42.26,1.25.16,1.81l3.47-2.82c-1.05.2-1.58.76-2.53,1.62-.05-2.13,2.03-1.94,2.47-3.17l-1.81.65c.32-1.65.86-2.72,1.83-4.29-1.17.69-1.58,2-2.26,3.26l-.78,1.45-1.02-2.8c-.15,1.22.08,2.21.36,3.56l-1.91,1.19-.24-1.52h-.37s.29,3.23.29,3.23c.66-.99,1.22-1.84,2.34-2.18ZM104.27,162.39l1.1-.74-2.63-.27,1.94,4.29.53-1.86c.12-.42-.74-1.25-.94-1.42ZM113.72,165.26c.01.66-.31,1.35-.89,2.2l1.72-.51,2.29,1.22c.9-.56,1.73-.67,2.81.03l-1.42,1.38c-.04.06.33.43.4.35l.35-.45c.12-.15.6-.43.74-.29l.44.41c.12-.48.26-.98.57-1.02l1.27-.16-2.97-1.07c1.04-1.6,2-2.67,2.01-4.39-1.37,2.48-2.05,4.86-4.39,4.34-.27-.06-.94-.07-.99-.29l-.17-.73-1.24-.22-.35-1.03-.17.25ZM113.66,164.92c.51-.01.81.09,1.42-.53-1.57-.32-3.04.04-4.36.86-.3-.03-.91-.15-1,.08l-.44,1.19c1.51-.75,2.73-1.28,4.14-1.63l.22.02ZM20.34,183.65l1.98.87c-.44.39-1.14.9-1.5.77l-1.44-.5c.88,1.59,2.34,1.94,4.09,2.13l2.87,2.14c.32-1.22-1.66-1.03-1.21-2.7l2.7.24c.64.79,1.02,1.23,1.62,1.73.02-1.73-1.14-2.3-2.67-3.01,1.41-1.02,2.95-.61,4.14.68.37-.52.39-1.35.03-1.55-1.42-.79-2.86-.75-2.54-1.18l.6-.82-1.97-.1c-.16-.05-.35-.56-.22-.71,1.14-1.36,3.98-.11,6.18,1.16-1.99-2.56-4.9-3.1-8.12-2.14.43-1.39,2.09-2.4.92-2.15l-.64.13c.02-.73.81-1.28,1.84-1.5-.08-.26-.63-1.18-1.05-1.17-1.21.05-1.99,1.02-2.96.94-.34-.03-.82-.81-.8-1.11l2.33-1.87c-.37-.52-1.16-.97-1.57-.85-.36.11-1.09.6-1.28.92l-1.08,1.86c-1.3.73-2.29,1.32-3.34.66-.16-.1-.03-.61.03-.82l.5-1.69.51-.81c.24-.38-1.36-1.19-1.15-1.47l.47-.63,1.25-1.66c-1.94-.31-2.74,1.21-4.01,2.02-1.42-.9-.88-2.79.24-4.4-1.37.42-1.75,1.58-2.68,3.09-.31-1.43-.27-2.65-.29-4.15-1.37.88-.23,3.37-1.69,3.97-.73-1.7-1.29-2.92-2.62-4.09.65,1.73,1.64,3.04,1.2,5.18-1.8-.71-1.41-3.5-3.56-3.27.75,1.07,1.17,2,1.3,3.14l-1.49.76.08.68c.02.14-.65.13-.77.06l-.68-.41c-.09-.06.22-.29.32-.33l.64-.25c-.08-.13-.68-.44-.89-.3l-.9.6c.35.51.71,1.07.41,1.2l-1.16.51,1.31,1.53.3-1.84c2.45.44,2.44-2.78,4.02-.43l.3-1.09,1.92,1,.07,1.57c.03.77-.08,1.33-.7,1.82.83,1.15,1.01,2.29,1.14,4.01,1.16-1.17-.45-3.4,1.97-3.72l.36.96c.06.17.56-.4.75-.36l2.01.41c.08.05-.14,1.28-.44,1.61l-2.16,2.44.85.49c.16.09.03.66-.06.96-.2.62.4,1.28,1.02,1.16.33-.06.72-.65.67-.86l-.99-.54c-.18-.1.22-.71.32-.91l.53-1.44.79.49c.17.11.73-.17.84-.35l1.1-1.87,2.52-.48c.63.41,1.25,2.05.92,2.77-.94.34-1.48.46-1.88,1.53l2.36-.49,1.66.47-.79.79,2.22.91c-1.98.86-3.46-.51-4.93-.37ZM183.99,167.85l-1.64-.02.06-1.17-1.42,2.8,1.31-1.11,1.69-.5ZM58.43,170.69l.86,1.6c.33-1.56-.99-2.39-2.25-2.46l-.73-1.52-1.36-.04c0,.24.02.61-.16.66l-.88.28.78.47c.54-.66,1.31-.78,1.77-.11.33.47.3.83-.27,1.58l1.21,1.08-.5-1.12c-.09-.21.2-.78.42-.72l1.11.3ZM185.84,170.97l.98-1.64-1.19.21c-.32-.34-.88-.8-1.26-.8-.33,0-1.01.33-1.28.52l-.94.67,2.56-.2-.44,1.17,1.57.07ZM114.79,171.36c-1.11-.68-2.26.45-3.78-.4l1.92-1.43c-1.61-.54-3.32,1.54-3.46.99l-.29-1.11c-.83,0-.75,1.36-2.44,1.62l.26-1.28c.03-.13-.51.02-.53.14-.06.37-.14,1.42-.49,1.42s-1.2-.12-1.43-.17l.19-1.89-1.35,2.6,2.27-.11,3.56-.63c.16-.03.76.26.67.37l-.43.51-.44.62c-.05.07.25.06.31,0l.4-.34,1.21-.52c.22-.09.5.68.55.85.27-.12.99-.32,1.27-.17.22.12.58.58.77.51l.82-.29-1.31-.51c.24-.29.56-.65.81-.68l.95-.11ZM44,175.37c.28-.63.36-.95.52-.99l.74-.23-.61-1.61c-.12.08-.88.38-1.02.15l-.57-.93c-.17-.02-.7.13-.88-.02l-.94-.75.47,1.66c.4.01.62,0,.67.13l.24.7h1.1s.29,1.89.29,1.89ZM170.69,178.4l-1.36,3.01-1.03,2.51c1.15-.21,1.4-1.11,1.46-2.18,1.23-3.36,2.68-3.75,6.15-3.67l-1.64-.61c-.41-.17.42-1.29.9-1.6l-1.07-.1c-.56-.05-.18-3.28-2.54-4.36.86,1.32,1.45,2.28,1.55,3.55.08,1.11-.7,2.4-1.73,3.23l-.51-2.6c-.13,1.36-.35,2.31-1.43,2.75l-.59-.99c-.16.65-.44,1.53-.81,1.84l-1.8,1.53.35-1.41c-.61.77-.99,1.41-1.41,2.45l5.48-3.35ZM175.6,177.39l4.02-5.8c-2.1,1.24-3.79,3.31-4.02,5.8ZM184,180.25l2.33-1.53-2.7.04.65-1.12-2.97-.09.43-1.4-3.06,3.1,3.83-1.25c-.14.67-.36,1.05-.58,1.23l-.61.51c-.12.1.46.4.57.29.44-.42,1.6-.89,2.21-.83l-.11,1.03ZM78.86,180.44l-1.1-1.08c-.09.08-.79.68-.88.46l-.33-.81-.35-.86-.7,1.85c-.79-.68-1.23-1.43-1.44-2.39l-.13-.57c-.03-.12-.58.04-.54.15l.2.59c.06.16.16.74,0,.71l-.63-.08-.54-.07c-.09-.01-.13.18-.09.26.41.71,1.73.12,2.35,1.72l2.45.17c.33.02.74,1.01.79,1.17l.21-.88c.04-.18.54-.29.73-.36ZM47.68,187.83l2.59.97-1.44-1.26c.48-.45,1.17-.82,1.8-1l-.64,1.17c.75.03,1.79-.03,1.95.33l.66,1.55c1.02-1.3,2.24-.82,3.77-.14-.35-.92-1.14-1.12-2.28-1.61.91-.57,1.83-.2,2.98.32.04-.25-.65-.93-1.05-1.05l-3.06-.89c1.24-1.53,2.42-.6,4.13-.16-1.12-1.3-2.97-1.63-4.53-.7-.16-.28-.26-.6-.16-.77l.41-.71c.16-.28-.94-.63-1.18-.43l-.91.78c-.43.36-1.12.7-1.57.33-.42-.35-.16-2.92-.05-3.01l1.11-.91c-1.03-.66-2.16-.09-3.25.78-.39-.01-.93-.94-.79-1.32l.55-1.48-1.88,1.82.17-2.31-1.45,1.81-.79-2.37.02,3.94c-1.59-.47-1.88-2.03-3.14-2.63l.73,1.97c-1.05.1-1.54.73-1.81,1.56-.23.16-1.05-.12-1.33-.33l-.61-.45c-.09-.06-.21.36-.14.44l.3.37.64.79,1.78-.23c-.07-.51.15-1.22.52-1.39.66-.31,1.16-.07,1.55.59l-1.25,1.09.67.54c.1.08.16.02.17-.12l.02-.64c0-.18.53.11.59.27l.22.62.84-1.15-.39,1.87s.16.2.2.24l1.08-2.07c.27-.11,1.08.29,1.22.57s-.06.86-.23,1.27l-1.05,2.47c-.3.33-.65.91-.36,1.07,2.84,1.64-.11-2.64,3.39-3.67,1.05-.31,2.12.28,2.68,1.59-1.54-.02-3.02-.2-3.49,1.28,1.06-.62,1.79-1.05,2.7-.86l-.6,1.23ZM61.69,182.38l.64,1.94.44-1.14c.09-.23.89-.04,1.1.06l1.46,1.25.24-.43-1.28-1.11c1.31-.6,2.35.17,3.63,1.12-.4-1.34-1.65-1.75-3.11-1.87l.27-1.1-1.21-.2c-.14-.02-.02-.54,0-.61l-2.33.48c.11-1.63.48-2.03,1.3-3.26-1.47.66-2.12,1.72-2.16,3.42-.95-.39-1.5-.73-2.2-1.23-.13-.09-.61-.34-.58-.19l.14.61c.04.17.39.79.21.81l-.92.1c-.61.07-1.15.25-1.67.79l1.23-.23c.52-.1,1.62-.17,1.92.25s.39,1.21.62,2.15l.38-1.59-1.06-1.66,1.57.45,1.37,1.17ZM212.06,189.96l3.48-.48-2.44-.41c.03-.19.25-.74.45-.85l1.07-.62-1.72-.05c-.48-.34-.42-2.18.33-2.36,1.48-.36,2.92-.86,3.71-2.09-1.28.62-2.32.8-3.06.64l-2.96,2.15,1.04.04c.2,0,.37.56.26.72s-.41.44-.61.54l-1.38.65,2.83.4-.99,1.71ZM160.06,190.55l2.8-.99,2.19-.64c-1.93-.3-3.49.54-5.32,1.01,1.09-3.33,3.84-4.7,6.78-5.59-2.04-.11-3.55,1.12-5.33,1.81l-3.34,1.29-3.28,1.82.63-5.66c-1.23,2.1-.72,4.58-2,6.75l2.61-1.35-.15,1.39c1.22-1.7,2.37-3.26,4.71-3.13l-1.49,2.91-1.4,1.23,2.59-.85ZM37.95,186.94l-1.59-.79c.32-.23.69-.59.52-.68l-.7-.39c-.67-.37-1.6-.47-2.26-.04l1.87.64.99,2,1.17-.74ZM203.75,190.8c.33-.8.97-1.34,1.79-1.59l1.97-.59c-2-.32-4.02,1.35-4.5.53-.6-1.02,1.21-1.98,2.71-2.89-1.99-.13-3.26,2.24-5.22,2.07l.67-2.97c-1.37.75-1.06,2.5-2.66,2.96l-.47-1.3c-.38,1.49-1.23,3.06-3.07,2.89-.1-.33.1.34.17.55.05.16.65.06.81-.04l2.62-1.62c.72-.44,1.74-.19,2.31.41l-2.64,2.48c1.86-.69,3.12-2.22,5.19-1.23l-1.58,1.2.24.29,1.47-.78c.06-.03.11-.18.19-.37ZM138.01,192.78c-1.22-3.43-4.09-6.69-6.99-5.73-1.6.53-3.07,1.59-4.32,3.1,2.98-.85,5.64-.57,8.25.9l3.07,1.73ZM55.12,190.16c-2.28-1.49-4.14,1.37-4.09-.94-.27-.28-.56.1-.42.46l-.25.95c-.17.65,2.34-.53,4.75-.47ZM218.48,191.1c.38-.53.52-.91.74-.98l.89-.28-2.63-.6-1.41,1.51.94.15c.2.03.15-.31.16-.84l1.28.2c.23.04,0,.73.03.86ZM122.88,194.09l3.03-4.4c-1.35-.08-2.46.78-2.62,1.82l-.41,2.58ZM130.04,194.97l-1.88-.36c.58-.6,1.57-.73,2.21-.48l2.7,1.06-1.63-2.22,3.84,1.18c-.82-1.32-2.05-2.09-3.52-2.81-2.19-1.08-5.07-.91-6.53,1.37-.55.85-.98,2-1.33,3.04,1.55-1.4,2.75-2.24,4.77-3.1l.45.66c-1.39.69-2.5,1.28-3.13,2.41l1.3-.53c.24-.1.68.25.8.34l1.95-.54ZM203.79,191.29l.05.51c0,.11.25.27.32.19l.44-.49c.49-.54,1.65-.39,2.82-.11-.2-.66-1.34-.98-2.08-.75l-1.43.46-.12.18ZM146.86,193.59l-.04-2.49-.73,2.54c-.07.23.14,1.12.31,1.01l.64-.4c.13-.08-.03-.33-.19-.66ZM38.17,194.72l.83.68,1.81-1-3.19-.3c.75-1,1.46-.94,2.58-1.12-2-.83-3.12,1.44-5.43,1.41l1.57-2.53-3.29,2.12c-1.07-1-2.27-1.34-3.56-.98,1.3.33,2.12.42,2.72,1.59l-1.56.04c-.63.02-1.41.09-1.64.39l1.19-.06c.21-.01.62.33.83.44l2.89-.45.06,1.16c2.09-.17,3.77-1.71,4.16-1.39Z"/><path d="M0,195.33v-2.03s2.09.33,2.09.33c.64.09,1.85-.41,2.26.79-.52.37-1.59.6-2.29.71l-2.06.2Z"/><path d="M0,137.99v-1.13s4.07-.75,4.07-.75c.76-.17,1.61-.13,2.53.35l-2.75.32,1.48.46c-.25,1.15-2.44-1.44-4.1.38-.23.26-.98.55-1.24.38Z"/><path d="M140.88,177.35c.3-.9.7-1.42,1.21-1.95,2.59-2.56,2.5-6.88-.39-9.15l-3.73-2.94c1.79.53,3.12,1.61,4.46,2.79,2.26,2.02,3,5.26,1.46,7.94-.76,1.33-1.73,2.4-3.01,3.3Z"/><path d="M79.62,190.83c-2.48.67-4.57,1.71-7.09,1.96l6.89-2.36,12.78-3.23,4.61-1.07.21.33-13.91,3.43-3.5.95Z"/><path d="M252.04,195.56l-5.24-.08-3.41-.05c1.32-1.35,3.03-.88,4.6-.61,1.34.23,2.53.15,4.06.74Z"/><path d="M100.11,194.39l-7.95,4.86c1.42-2.65,4.85-3.58,7.34-4.94l.59-.32c.13-.07.23.27.02.4Z"/><path d="M165.42,128.04c-1.91-.36-3.65.26-5.47.42,2.76-1.87,7.13-1.06,9.98.44l-4.51-.85Z"/><path d="M156.62,177.36c-.19-1.27.9-2.37,1.11-3.43.49-2.43-.76-4.34-1.93-6.34,2.98,2.24,3.31,6.84.82,9.77Z"/><path d="M129.97,174.23c1.41-1.35,2.95-2.52,3.8-4.24.75-1.51-.03-2.93-.65-4.38,1.2.69,1.85,2.56,1.33,3.9-.81,2.07-2.42,3.88-4.47,4.72Z"/><path d="M56.53,131.97l-6.31-1.05c-.78-.13-1.43-.21-2.09-.45l4.52-.25c.46.46,1.21.93,1.78,1.02l2.11.33v.4Z"/><path d="M84.63,196.02c-1.29.56-2.16,2.03-3.85,1.94,2.76-2.07,5.71-3.52,9.08-4.22l-5.24,2.28Z"/><path d="M178.73,150.39l-7.1.04c-.37,0-1.19-.37-1.49-.56h6.37c.45-.01,1.41.28,2.22.52Z"/><path d="M108.09,194.82c-2.55,1-4.02,2.42-6.04,4.15,1.2-2.61,3.59-3.64,6.27-4.8l-.23.65Z"/><path d="M198.81,150.5c-1.07,1.17-2.07.23-3.11.23h-4.27s-.65-.63-.65-.63l3.53.26,4.5.14Z"/><path d="M112.54,182.57c-2.15.63-4.12,1.38-6.6,1.63l6.41-2.1.55-.16c.12-.03.29.44.17.48l-.54.16Z"/><path d="M135.94,181.11c.22-1.04,1.03-1.77,1.8-2.25l.58.36c.68-.66,1.25-1.27,2.12-1.52-1.15,1.53-2.72,2.42-4.51,3.41Z"/><path d="M51.7,198.82c.54-.78,1.51-1.58,2.53-1.93l4.12-1.42-6.65,3.35Z"/><path d="M9.35,198.95c-1.14.84-2.76.07-3.42-1.11,1.29-.2,2.48-.23,3.42,1.11Z"/><polygon points="109.67 190.17 103.64 192.6 103.57 192.05 109.15 189.89 109.67 190.17"/><path d="M168.27,129.46c-2.58-.4-4.51-.63-7.05-.3,2-1.19,4.83-.77,7.05.3Z"/><polygon points="158.57 129.22 152.81 130.08 152.62 129.73 158.7 128.62 158.57 129.22"/><path d="M54.51,132.88l-4.01-.48c-.74-.09-1.31-.1-1.78-.52,2.1-.21,3.9.08,5.79,1Z"/><path d="M185.1,150.93l-5.72-.37c1.35-.92,2.66-.25,4-.18.7.04,1.28.05,1.72.55Z"/><path d="M173.82,196.46l-3.76,1.72c.66-1.43,1.83-1.89,3.76-1.72Z"/><path d="M159.31,197.93c-.76.75-2.11,1.08-3.34.8.93-.89,1.84-1.3,3.34-.8Z"/><path d="M208.59,148.56c-2.18.15-4.46.47-6.72-.25l6.72.25Z"/><path d="M155,149.56h-7.07s-.14-.25-.14-.25l6.26-.08c.24,0,.95-.69.95.33Z"/><polygon points="191.13 135.24 184.79 133.72 184.98 133.44 190.85 134.8 191.13 135.24"/><path d="M155.49,166.41c.05.1.26.51.27.5,0,0-.26.28-.29.33l-3.73-2.81c1.39.43,2.4,1.19,3.75,1.98Z"/><path d="M115.34,199.65c-.22.12-1.17-.09-1.07-.32.36-.9.78-1.02,1.67-.92.21.03.42.69.23.79l-.83.45Z"/><path d="M150.75,174.51c.5-1.79.73-3.3.62-5.27.86,1.5.51,3.77-.62,5.27Z"/><path d="M74.01,196.78c.85-1.27,2.59-1.61,4.1-1.8l-4.1,1.8Z"/><polygon points="123.98 177.27 128.73 174.82 128.97 175.16 124.65 177.34 123.98 177.27"/><path d="M117.45,180.68l-3.74,1.53,1.63-1.48c.31-.28,1.2-.29,2.12-.04Z"/><path d="M40.85,125.5l-.54-4.47-.52-2.92c-.27-1.52-.38-2.99.56-4.21-.06,1.9.11,3.34.3,5.04l.74,6.4-.54.16Z"/><path d="M43.83,133.96c-1.94-1.86-1.86-4.27-1.48-6.4l1.48,6.4Z"/><path d="M43.33,87.61l1.04-2.57c.43-1.06.07-2.23,1.48-2.96l-1.14,3.83c-.19.63-.65,1.31-1.38,1.7Z"/><path d="M116.8,129.39c-2.13-.14-4.48-.76-6.1-2.48l6.1,2.48Z"/><polygon points="120.24 126.88 115.6 125.58 115.8 125.12 120.11 126.37 120.24 126.88"/><path d="M67.83,128.09l-3.05-.6c-1.06.08-2.21.51-3.32.33,3.13-1.34,6.36-.57,9.15.76-.96.04-1.7-.27-2.78-.49Z"/><path d="M87.3,131.37c-.63.12-1.36.04-2.03-.14l-5.13-1.88c2.55.32,4.64,1.15,7.16,2.02Z"/><path d="M80.99,132.3c-3.06-.98-4.62,0-6.72-.35l2.88-.57c1.28-.25,2.91.04,3.84.92Z"/><polygon points="88.49 133.31 83.34 131.92 83.25 131.46 88.99 133.06 88.49 133.31"/><path d="M90.86,131.38c1.02.47,1.85.26,2.46,1.03l-4.96-1.33c.42-.35.94-.43,1.22-.3l1.29.6Z"/><path d="M93.01,133.56l-5.23-1.69c1.94.06,3.69.58,5.23,1.69Z"/><path d="M15.68,176.53c-.35.04-1.28-.63-1.36-.92.04-.74,1.28-1.68,2.02-1.06.51.43.06,1.9-.65,1.98Z"/><path d="M24.93,185.16c.04.45-.64,1.27-1.07,1.32-.57.07-1.44-.26-1.76-.58.68-1.03,1.79-1.4,2.82-.74Z"/><path d="M11.29,175.78c.17-1.17.5-1.93,1.28-2.42.33.37.42,1.34.12,1.6-.41.35-.93.66-1.4.83Z"/></g><g id="KONTAKT"><path d="M731.85,66.8c1.06.88.53,2.33-.42,3.04-1.81,1.35-4.11,1.17-5.89-.53l-3.28,4.35-3.25-4.46c-1.67,1.56-4.09,1.92-5.96.63-.86-.6-1.38-1.97-.55-2.7.78-.69,1.77-1.11,2.43-2.03-5.95.66-9.36,5.54-15.45,6.13-3.29.32-6.59-.5-8.8-2.92-3.09-3.38-2.4-8.81,1.11-11.06,1.81-1.17,3.89-1.39,5.84-.66,2.45.91,3.48,3.46,2.54,5.86-.43,1.11-1.26,1.92-2.23,2.24-1.85.61-3.7-.44-3.89-1.51-.05-.25.25-.77.44-1.04.85.67,1.6,1.27,2.63,1.06.9-.19,1.49-1.2,1.71-2.01s0-1.91-.77-2.55c-1.8-1.51-4.42-1.36-6.21.28-2.17,1.98-2.47,5.56-.63,7.92,3.43,4.4,9.81,3.64,14.41.69l-1.95-3.34,1.31-1.1,2.13,3.6,6.12-2.84c-.39-.55-.86-1.31-.85-1.76,0-.59.49-1.39.95-1.79,1.58-1.35,3.51-1.11,5.34-.02l2.59-3.51c-.91-2.03-3.41-2.46-4.66-4.48-.96-1.55-1.42-3.16-1.87-4.96,1.36.36,2.5.73,3.57,1.44,2.2,1.46,2.22,4.48,4.03,6.78l2.03-4.06c1.12-2.24,2.94-3.68,5.46-4.09l-.94,3.22c-.9,3.07-4.13,3.74-5.66,6.11l2.61,3.62c1.68-.95,3.36-1.41,4.98-.42.6.37,1.16,1.12,1.25,1.79s-.46,1.55-1.06,2.14l6.12,2.97,2.07-3.82,1.3,1.01c-.62,1.36-1.19,2.37-2.04,3.57,4.56,2.9,10.57,3.59,14.12-.5,1.29-1.49,1.71-3.3,1.3-5.23-.58-2.78-3.28-4.79-6.1-4.12-1.64.39-2.86,1.8-2.67,3.39.11.92.63,1.65,1.36,1.98.84.38,1.71,0,2.44-.6l.48-.39c.13-.11.5.5.46.71-.18.98-1.6,2.06-2.73,2.07-1.38,0-2.62-.72-3.27-2.06-1.07-2.22.04-4.93,2.29-6.03,1.94-.95,4.08-.82,6,.29,1.62.93,2.8,2.61,3.14,4.76.65,4.08-1.96,7.79-6.01,8.96-3.72,1.07-7.66.35-11.05-1.64-2.78-1.63-5.38-3.07-8.5-4.02l-3.15,2.96c.87.98,2.18,1.54,3.44.93.74-.36,1.22-1.34,1.83-2.25ZM722.3,63.49l2.33-2.24-2.35-3.1-2.18,2.95,2.21,2.4ZM715.39,63.8l2.47-2.37c-.89-.55-1.78-.69-2.81-.55-.75.1-1.46.9-1.05,1.74.21.44.91.93,1.39,1.18ZM729.53,63.49c.66-.37,1.26-1.55.91-1.94-.99-1.12-2.48-.88-3.59,0l2.68,1.95ZM719.13,67.07l2.11-2.36-2.12-2.39-2.51,2.31,2.52,2.44ZM725.58,67.1l2.65-2.62-2.57-2.07-2.38,2.23,2.3,2.46ZM718.13,68.08l-2.75-2.41c-.74.36-1.56.92-2.14,1.52.17,1.39,1.31,2.28,2.7,2.06.83-.13,1.57-.55,2.19-1.17ZM722.28,70.89l2.22-2.67-2.21-2.39-2.12,2.32,2.11,2.75Z"/><path d="M682.06,104.77l-3.31-4.41v14.78c0,1.1-.18,2.6.63,3.43.65.67,1.85.58,2.94.75l-.22,1.88c-3.29-.3-6.13-.31-9.48.02-.13-.48-.11-1.47.11-1.85.79-.2,1.6-.29,2.26-.62.53-.27.89-1.58.89-2.26l.16-17.99c0-1.02-.75-1.82-1.65-1.96l-1.95-.31.26-1.8,7.68.1c4.86,6.74,9.76,13.2,14.83,19.51l-.21-15.58c0-.45-.4-1.52-.8-1.69l-2.46-.58.27-1.78c3.05.29,5.84.26,8.86,0,.3.16.43.8.4,1.27-.08,1.1-3.26.03-3.26,2.95l-.05,22.58-3.06.25-12.84-16.7Z"/><path d="M723.93,158.61l-1.69-3.32-1.6,3.09c-1.16,2.25-3,4.22-5.6,4.34l.96-2.67c1.28-3.59,4.24-3.22,5.42-6.09l-2.28-2.9c-1.52.83-2.9,1.23-4.43.62-.68-.27-1.37-1.15-1.45-1.8-.11-.88.44-1.6,1.26-2.4l-6.28-2.83-1.91,3.44c-.37-.07-.93-.5-1.29-.95l1.95-3.11c-3.91-1.81-8.83-3.05-12.38-.46-1.9,1.38-2.69,3.43-2.48,5.71.16,1.69,1.01,3.18,2.35,3.91,1.54.84,3.45.98,4.9-.09.98-.73,1.25-2.21.81-3.33-.22-.57-.87-1.19-1.35-1.29-.71-.15-1.42.29-2.01.71l-.61.43c-.14.1-.38-.59-.36-.75.1-.98,1.13-1.7,2.09-1.89,2.07-.41,3.74.81,3.99,2.84.36,2.88-1.61,5.15-4.49,5.3-3.43.18-6.17-2.05-6.64-5.5-.5-3.64,1.67-7.04,5.23-8.22,3.3-1.1,6.7-.58,9.88.88l6.07,2.78c.38-2.61,2.24-4.14,4.8-3.67.87.16,1.67.74,2.58,1.32l3.02-3.9,3.11,3.99c1.98-1.76,4.27-1.9,6.17-.33,1.02.84-.16,2.18.89,2.61l6.08-2.72c4.51-2.02,9.48-2.43,13.01,1.03,2.51,2.46,2.82,6.16.97,9.09-2.14,3.38-7.37,3.46-9.22.83-.88-1.25-1.16-2.71-.62-4.13.43-1.16,1.44-2.02,2.44-2.21,1.9-.37,3.79.9,3.52,2.21-.05.24-.68.54-.87.33-.41-.47-1.26-1.11-1.8-1.05-.69.09-1.35.53-1.7,1.19-.44.85-.41,1.75.04,2.65.3.61,1.09,1.15,1.96,1.38,1.96.53,3.85-.11,5.05-1.76,1.74-2.38,1.41-5.66-.83-7.68-3.59-3.24-8.1-2.24-12.48-.35l1.75,3.22-1.5,1-1.61-3.55-6.42,2.86c.69.57,1.25,1.22,1.3,1.87s-.41,1.56-.97,1.93c-1.59,1.06-3.51.89-5.12-.33l-2.42,3.17c1.59,2.76,4.37,3.01,5.08,5.33l1.06,3.44c-2.61-.34-4.41-1.88-5.31-4.22ZM722.34,145.81l2.18-2.2-2.19-2.59-1.98,2.6,1.98,2.2ZM715.63,146.69l2.86-2.99c-.92-.94-2.2-1.4-3.52-.87-.92.37-1.75,1.49-1.9,2.68l2.56,1.18ZM729.29,146.47l2.63-1.23c-.34-1.12-1.14-2.05-2.19-2.39-1.14-.37-2.27.06-3.18.8l2.73,2.82ZM719.28,149.12l2.15-2.38-2.01-2.09-2.57,2.63,2.42,1.84ZM725.51,149.05l2.49-1.92-2.39-2.45-2.32,2.25,2.22,2.12ZM722.25,152.84l2.24-2.81-2.14-2.23-2.1,2.34,2,2.7ZM728.67,150.71c.81.02,1.57-.63,1.67-1.39l-1.33-1.37-2.56,2.22c.83.33,1.36.52,2.22.54ZM718.27,150.06l-2.43-1.75c-.69-.16-1.59,1.16-1.08,1.75.91,1.03,2.41.77,3.51,0Z"/><path d="M645.18,121.36c-3.07.37-5.9.32-8.74-.66-3.75-1.29-6.51-4.35-7.6-8.18-2.2-7.7,1.47-16.11,9.48-17.95,3.55-.82,7.17-.79,10.65.35,4.33,1.42,7.18,5.37,7.71,9.83.21,1.75.24,3.3.04,5.01-.73,6.13-5.3,10.85-11.54,11.6ZM650.75,114.03c2.04-5.78,1.05-13.88-4.31-16.59-2.58-1.3-5.69-1.33-8.32-.14-5.14,2.33-5.73,11.35-3.18,16.76,1.59,3.38,4.79,5.12,8.42,5.09,3.36-.02,6.2-1.75,7.39-5.11Z"/><path d="M821.37,119.2c.18.47.17,1.17.01,1.82-3.41,1.18-7.29.31-9.62-2.56l-7.56-9.34c-.17-.21-.76-.35-1.07-.28l-.07,8.13c0,.46.26,1.63.7,1.83.65.29,1.63.38,2.59.52.1.52-.04,1.33-.29,1.91-3.66-.41-6.91-.33-10.63,0-.15-.49-.1-1.44.14-1.85.81-.15,1.76-.24,2.39-.64.38-.24.59-1.33.59-1.84v-18.51c-.01-.48-.39-1.57-.84-1.68l-2.42-.58.39-1.72c3.58.31,6.88.27,10.44.04.32,0,.52.84.44,1.23-.21,1.05-2.13.46-2.78,1.3-.25.32-.55,1.2-.55,1.63l-.02,8.45c1.32-.79,2.08-1.51,2.95-2.43l6.03-6.36c.35-.37.57-1.29.32-1.66l-2.19-.43.25-1.75c3.4.29,6.28.22,9.75-.02l.02,1.87c-2.03.05-3.2.83-4.44,2.11l-7.77,8,8.93,10.76c1.08,1.3,2.43,1.95,4.31,2.04Z"/><path d="M614.94,119.19l.02,1.85c-2.48.74-5.03.69-7.34-.62-1.21-.68-2.22-1.84-3.1-2.94l-6.28-7.91c-.34-.43-.74-.7-1.46-.88l-.07,8.29c.03.44.24,1.59.66,1.76.79.32,1.73.45,2.64.6.01.6-.11,1.34-.34,1.89-3.7-.41-6.93-.32-10.66.02-.11-.55-.06-1.43.12-1.89.84-.15,1.81-.23,2.39-.62.43-.29.67-1.46.67-2.02v-18.22c0-.53-.39-1.68-.85-1.8l-2.45-.6.36-1.71c3.72.32,6.92.33,10.78.02l.13,1.79-1.66.28c-.72.12-1.54.7-1.55,1.6l-.16,8.95c1.75-.9,2.7-2.07,3.84-3.29l5.13-5.47c.29-.31.72-1.5.27-1.61l-2.15-.51.28-1.7c3.25.27,6.23.18,9.55-.01.36.34.32,1.38,0,1.84-1.2.25-2.47.39-3.3,1.23l-8.7,8.85,8.58,10.5c1.17,1.43,2.61,2.2,4.66,2.34Z"/><path d="M770.1,112.81h-8.85s-1.59,4.83-1.59,4.83c-.22.67.41,1.38.95,1.46l1.87.28c.01.65-.09,1.31-.34,1.84-3.06-.33-5.55-.31-8.61-.03l.05-1.91c1.79.09,2.59-.69,3.14-2.14l8.64-22.6,2.63-.33,8.75,23.41c.12.33.58,1.12.89,1.19l2.27.54-.17,1.86c-3.71-.34-6.91-.34-10.66,0-.14-.5-.14-1.26-.04-1.81l1.82-.27c.2-.03.58-.17.72-.29.16-.14.25-.74.18-.96l-1.64-5.06ZM769.15,110.35l-3.53-9.43-3.45,9.5,6.97-.07Z"/><path d="M853.85,119.25c.1.57.02,1.41-.2,1.94-4.22-.37-8.03-.3-12.17.05l.04-1.93,2.24-.32c.69-.1,1.52-.79,1.52-1.66l-.05-20.35h-4.82c-1.43,0-2.58,1.06-3.01,2.39l-.86,2.67-1.85-.25.65-7.4,3.21.21h17.54s4.12-.2,4.12-.2l-.53,7.15-2.05.07-.68-2.89c-.48-2.06-4.27-1.86-7.11-1.72l-.02,19.48c0,.61.22,1.88.7,2.14.98.43,1.96.44,3.33.62Z"/><path d="M734.89,119.24l-.14,1.96c-4.13-.33-7.89-.3-12.07.04l.06-1.9,2.56-.51c.56-.11,1.06-1.24,1.06-1.89l-.03-19.97-4.53-.03c-1.54-.01-2.82,1.08-3.3,2.53l-.85,2.57-1.87-.3.73-7.38,7.53.33,16.95-.23c.12.75.06,1.64-.02,2.45l-.43,4.65-2.04.11c-.24-1.37-.19-2.95-1.19-3.87-1.43-1.1-3.64-.84-5.36-.8l-.71.02c-.18,0-.34.57-.34.77v18.84c-.01.6.25,1.43.51,2l3.47.61Z"/><path d="M835.39,147c-.4.41-.9.28-1.63.29l-33.8.42-12.61.11-28.5.38c-.51,0-1.15-.65-1.21-1.02s.43-1.2.88-1.21l2.29-.02,30.4.43,41.44.41,2.74.21Z"/><path d="M835.6,65.1l-12.65.29-30.16.22-14.67.22-18.37.39c-.68.01-1.29-.69-1.29-1.19,0-.44.64-1.22,1.29-1.21l18.03.32,43.22.46,13.7.1c.36,0,.69.13.9.39Z"/><path d="M612.44,147.29c-1.16-.01-2.01.39-2.84-.36l14.85-.36,27.04-.2,32.87-.44c.66,0,1.16.56,1.2,1.03.04.39-.54,1.26-1.09,1.25l-27.16-.42-44.88-.51Z"/><path d="M626.48,65.38l-9.94-.11-6.77-.18c.18-.22.57-.38.9-.39l9.6-.1,24.46-.24,39.57-.51c.79-.01,1.4.59,1.41,1.18,0,.63-.62,1.24-1.34,1.22l-10.35-.28-6.32-.14-13.09-.2-28.13-.25Z"/><path d="M723.31,48.56c.16-1.85-.36-3.61-.86-5.37-1.3,2.94-1.02,5.91-.75,9.25-2.41-3.09-2.66-7.25-1.09-10.77l1.93-3.66,2.19,4.79c1.1,3.23.54,6.99-1.77,9.59l.34-3.85Z"/><path d="M723.11,158.45c2.23,3.01,2.38,6.88.69,10.02l-1.59,2.95-1.62-2.83c-1.2-2.1-1.43-4.43-.76-6.75.37-1.27.72-2.38,1.79-3.38l-.33,2.98c-.18,1.64.33,3.34.93,5.01.74-1.81,1.08-3.57.96-5.39-.06-.86-.5-1.65-.07-2.62Z"/><circle cx="839.31" cy="147.09" r="1.8"/><circle cx="839.41" cy="65.08" r="1.8"/><circle cx="605.88" cy="147.09" r="1.78"/><circle cx="606.06" cy="65" r="1.78"/></g></svg>