<?xml version="1.0" encoding="UTF-8"?><svg xmlns="http://www.w3.org/2000/svg" viewBox="0 0 1671.24 540.18"><g id="logo_NI_H_Obraz"><path d="M591.53,316.83c5.25-5.1,8.13-7.95,8.11-14.21l-.19-91.79c-.04-17.99-10.49-13.98-13.72-22.32l29.32.18,21.14,28.26,49.84,64.24-.12-79.11c0-5.76-3.17-8.8-8.16-13.57l27.49-.55c-4.32,5.87-6.73,9.04-6.73,15.01l.07,113.18c-3.75,4.15-10.84,1.85-14.17-2.52l-33.73-44.28-38.37-49.31.11,83.49c0,5.65,3.2,8.62,7.92,13.26l-28.82.03Z" fill="#d8c6a5"/><path d="M1054.83,317.54c-31.28,9.19-59.65-6.85-69.13-40.15-5.69-19.99-3.67-40.68,4.5-59.63,13.29-30.83,51.52-42.35,79.15-22.93,25.83,18.17,31.01,59.92,19.73,89.42-6.33,16.57-19.45,28.94-34.25,33.29ZM1057.16,303.1c19.9-14.59,22.83-69.79,3.21-95.34-6.8-8.85-16.88-12.4-27.98-10.78-9.57,1.39-17.68,7.87-22.08,17.9-9.98,22.76-9.98,54.98,1.86,77.04,8.71,16.23,29.52,22.52,45,11.18Z" fill="#d8c6a5"/><path d="M1409.88,280.35c-8.77,25.76-30.66,36.63-57.56,36.4l-34.89-.29c4.56-4.14,7.07-7.31,7.07-12.77l.04-99.85c0-5.75-2.58-8.92-7.17-14.04l44.78-.24c24.16-.13,42.6,15.7,49.01,38.65,4.75,17.04,4.51,35.14-1.28,52.14ZM1395.44,245.75c-1.4-21.16-10.33-42.28-32.16-45.02l-21.73-.17-.14,97.18c0,2.55.63,5.12,1.25,7.59l22.52-.65c25.87-3.5,31.89-34.34,30.26-58.93Z" fill="#d8c6a5"/><path d="M1284.13,313.15l-61.01-90.8.09,80.35c0,5.54,2.52,9.32,6.92,13.73l-25.67.3c5-4.68,7.45-8.33,7.43-14.68l-.23-95.53c-.02-7.97-5.58-11.13-12.31-16.53l24.77-.31,60.34,89.8-.08-74.65c0-6.51-2.28-9.9-8.39-15.07l26.24-.24c-4.54,5.77-6.88,8.89-6.88,15.33l.13,111.61c-4.08,2.39-8.53.89-11.34-3.31Z" fill="#d8c6a5"/><path d="M812.05,255.44l-.05,38.39c0,3.83.74,7.57,1.72,11.77,11.15.88,21.5,1.09,32.46.04,12.04-1.16,12.77-9.14,19.58-14.24-.35,9.67-1.94,17.75-4.21,26.91l-77-.27c4.92-5.29,7.84-8.33,7.84-14.36v-99.85c0-6.87-2.9-10.59-7.98-16.42l75.24-.39c.29,9.41.74,17.34-.57,26.23-4.99-8.26-8.17-13.77-16.59-13.82l-30.13-.16-.08,43.88,25.03.43c6.8.12,9.04-3.55,14.84-9.39l-.25,33.14c-5.16-7.03-7.7-11.92-15.55-11.91l-24.28.03Z" fill="#d8c6a5"/><path d="M905.98,287.57c7.44,13.99,21.12,21.07,36.3,20.01,13-.91,21.73-7.73,28.44-20.42,1.2,9.17-.14,16.95-1.15,25.91-31.87,14.44-70.46,7.76-85.32-25.39-10.23-22.82-9.27-49.45,2.19-71.65,16.47-31.89,52.2-36.91,84.33-24.83l-.29,25.09c0,.7-1.22,2.8-1.6,2.43l-1.86-1.78c-3.39-12.01-13.53-19.3-25.93-19.66-13.74-1.92-26.32,3.86-33.56,15.78-12.15,20.01-12.72,53.48-1.53,74.51Z" fill="#d8c6a5"/><path d="M1497.23,316.26l-78.65.05c-.84-3.84,1.21-6.69,3.15-10.27l56.93-105.12-35.14.74c-13.66.29-15.47,15.96-16.82,14.85-.54-.44-1.63-2.1-1.56-2.89l2.26-23.64,73.03.05c1.24,2.77.46,6.37-1.29,9.63l-56.72,105.14,33.97-.14,12.49-2.17,11.24-13.51-2.89,27.28Z" fill="#d8c6a5"/><path d="M1606.03,254.1l-19.34.06.05,40.55,1.17,9.72c8.92.89,17.67,1.4,26.4.51,8.01-.82,10.73-6.34,15.52-13.51.44,9.04-.91,16.73-2.7,25.23l-63.64-.37c3.48-4.34,6.6-7.76,6.59-12.84l-.14-99.32c0-5.48-2.52-9.18-6.68-13.81l61.87-.41-.37,25.16c-3.68-7.81-5.54-13.89-13.79-13.86l-24.13.09v41.14s24.41-.09,24.41-.09c2.3,0,4.46-5,7.54-7.12l-.56,29.98c-4.29-6.59-5.39-11.09-12.22-11.07Z" fill="#d8c6a5"/><path d="M1666.67,308.69c0,19.76-14.5,41.6-35.12,38.28,10.38-8.14,17.22-17.72,17.59-30.3l1.14-38.95-.46-74.18c-.03-5.25-2.9-8.63-6.75-13.29l28.17-.05c-2.8,4.95-4.52,8.7-4.52,13.65l-.05,104.84Z" fill="#d8c6a5"/><path d="M762.8,317.75h-34.94c5.17-4.84,7.91-8.71,7.91-14.99l-.03-101.87c0-5.41-3.71-7.95-7.61-13.16l34.02-.27c-4.09,5.59-7.47,9.22-7.47,15.51v100.07c.82,6.1,2.51,9.08,8.13,14.71Z" fill="#d8c6a5"/><path d="M1185.95,316.7l-31.7.19c4.61-4.87,7.02-8.8,7.02-15.18l.02-97.88c0-6.16-2.35-9.42-7.32-14.58l31.27.12c-3.9,4.9-6.6,8.14-6.6,13.71l.04,100.01c0,5.62,2.67,8.92,7.25,13.62Z" fill="#d8c6a5"/><path d="M1545.56,316.15l-30.96.12c5.17-4.86,7.55-9.12,7.55-15.63l.02-96.76c0-5.73-3.1-8.92-7.45-13.62l31.09.02c-3.88,4.74-6.58,8.1-6.58,13.55l-.05,97.87c0,5.77,1.85,9.36,6.38,14.45Z" fill="#d8c6a5"/><path d="M652.96,411.11l-31.73-.64,12-1.5,48.22-.88,83.83-3.09c3.85-.14,7.4-2.01,10.18-4.25l13.75,9.42-13.24,8.74c-3.12-1.81-7.01-3.58-11.13-3.73l-111.88-4.08Z" fill="#d8c6a5"/><path d="M1629.47,410.76l-38.99.35-92.11,3.67c-5.4.22-9.94.59-13.81,4.54-4.26-3.57-8.52-6.65-13.24-9.12l13.33-9.29c3.13,2.29,7.12,4.09,11.47,4.24l100.06,3.28,35.18.44-1.89,1.89Z" fill="#d8c6a5"/><path d="M923.44,410.72c0,11.48-9.31,20.79-20.79,20.79s-20.79-9.31-20.79-20.79,9.31-20.79,20.79-20.79,20.79,9.31,20.79,20.79ZM914.54,420.41c2.83-7.32,2.51-15.78-1.92-21.8-2.79-3.8-7.27-6.11-11.62-5.68-10.8,1.07-14.98,16.16-9.7,27.77,2.25,4.93,6.72,7.73,11.57,7.85,4.86.12,9.56-2.7,11.66-8.14Z" fill="#d8c6a5"/><path d="M1020.06,424.64c2.17,2.72,4.55,4.12,7.63,6.47l-10.08-.19-16.73-20.9-.37,16.4c-.02,1.1,1.37,3.46,1.97,4.58l-9.48.21,1.95-4.56-.12-33.13-1.94-3.29h9.7c-.84,1.77-2.14,4.39-2.1,5.62l.4,13.58,13.55-14.62c.79-.86,1.07-2.88.99-4.61l8.41.06-17.01,17.78,13.25,16.59Z" fill="#d8c6a5"/><path d="M1235.91,412.07c-2.01-1-6.79-.71-9.63-.55l-.13,16.26,10.56.06c2.28.01,4.61-2.09,7.28-4.62l-.79,7.83-24.92.07c.88-1.64,2.23-4.07,2.23-5.22v-29.27c0-1.65-1.47-4.24-2.78-6.4l24.15-.07.2,7.02c-2.72-1.99-4.74-3.54-6.32-3.52l-9.62.14.05,13.56c3.65,1.11,8.85,1.02,12.98-1.29l.18,7.71-3.43-1.71Z" fill="#d8c6a5"/><path d="M1093.49,425.18c-4.67-5.47-9.55-10.31-15.5-14.98l15.22-15.67c4.53,5.82,10.04,11.25,15.18,15.74-5.58,4.27-10.03,9.06-14.9,14.91Z" fill="#d8c6a5"/><path d="M1166.43,405.9c-1.84,11.29,3.58,21.53,14.52,22.26,5.48.37,9.41-2.21,13.2-6.63l-.34,7.05c-7.85,3.85-17.44,4.55-25.29-.06-6.46-3.79-9.2-11.21-9.15-18.2.05-7.14,3.63-14.34,10.61-17.94,7.53-3.88,16.17-3.26,24.1-.64l-.2,8.36c-4.11-6.52-9.75-7.84-16.31-6.59-5.56,1.06-10.07,5.88-11.13,12.39Z" fill="#d8c6a5"/><path d="M1406.34,423.14c6.69,7.21,16.84,6.79,23.35-.92l-.15,6.64c-8.5,3.69-17.8,4.41-25.67-.71-5.97-3.88-8.59-11.11-8.43-17.76s3.07-13.43,9.26-17.22c7.55-4.63,16.31-4.09,24.65-1.55l-.32,8.31c-3.17-5.38-7.44-6.98-13.08-6.73-5.33.24-9.99,3.45-12.36,8.94-2.86,6.65-2.64,15.21,2.74,21.01Z" fill="#d8c6a5"/><path d="M846.13,411.75l-.22,13.19c-.03,1.65,1.3,4.1,2.44,6.15l-10.41.09c.9-1.79,2.21-4.1,2.21-5.39v-29.12c-.01-1.74-1.05-4.09-2.06-6.37l23.82-.12.18,7.13c-2.33-1.65-4.38-3.43-5.96-3.44l-10.03-.07-.06,13.54c3.95,1.7,8.96,1.13,13.06-.82l.15,7.28c-4.1-2.25-6.95-2.46-13.13-2.06Z" fill="#d8c6a5"/><path d="M1329.03,431.15l-9.68-.08c1.58-3.09,2.36-5.23,2.35-8.21l-.15-28.79c-4.94-.68-8.12-.68-12.34,2.65l.39-6.51h30.34s-.1,7.13-.1,7.13c-3.93-4.27-8.32-4.21-12.49-3.05l.19,30.65c0,1.38.67,3.36,1.5,6.21Z" fill="#d8c6a5"/><path d="M970.53,423.61l-.74,7.42-24.61.17c1.49-2.52,2.6-4.4,2.6-6.73l-.02-29.05c0-1.19-1.66-3.58-2.65-5.21l10.35-.03c-.98,2.26-2.12,4.88-2.11,6.44l.13,31.07,11.56-.22c1.25-.02,3.49-2.36,5.49-3.88Z" fill="#d8c6a5"/><path d="M1293,423.65l-.85,7.44-24.41.1,2.14-4.55v-31.64s-2.85-4.81-2.85-4.81l10.46.03c-.87,2.25-1.86,4.91-1.86,6.36l.09,31.1h10.76c1.58-.01,3.78-1.93,6.53-4.03Z" fill="#d8c6a5"/><path d="M1372.16,431.23l-9.87-.23c.92-1.59,2.29-3.88,2.29-5.14l.03-29.24c0-1.68-1.27-4.19-2.45-6.43h10.36c-.97,2.25-2.07,4.89-2.07,6.39l-.03,28.38c0,1.29.8,3.44,1.74,6.27Z" fill="#d8c6a5"/></g><g id="Warstwa_3"><ellipse cx="268.32" cy="270" rx="262.53" ry="265.24" fill="#d8c6a5"/><path d="M387.27,512.56c-42.06,20.78-88.34,30.09-135.01,27.06-32.74-2.13-65.02-10.19-94.9-23.6-43.89-19.7-81.75-50.64-109.07-90.27C11.68,372.62-5.92,307.15,1.78,242.71c7.03-58.78,33.48-117.64,74.35-160.54,28.38-29.78,63.32-53.02,102.26-66.61C210.19,4.46,243.92-.51,277.45.04c21.65.36,42.55,3.73,63.36,9.28,12.72,3.4,24.72,7.81,36.75,13.28,34.72,15.77,65.81,38.93,90.75,67.84,14.05,16.28,25.85,34.35,35.78,53.43,29.64,56.96,39.3,123.76,25.4,186.57-5.05,22.82-12.89,44.46-23.53,65.22-11.09,21.62-24.73,41.64-41.27,59.52-21.92,23.7-48.26,42.97-77.42,57.38ZM268.21,25.56l3.12,1.05c1.38,1.73.57,3.65-.76,5.36,3.38-1.73,7.23-2.43,10.27-4.58,2.51-1.77,5-4.5,6.72-6.93s1.65-5.41,3-8.08c-7.51-.5-14.75-.67-22-.57l-1.47,2.67,1.54.76c.15.08,3.36-1.84,5.59.48.8.83.19,2.69.2,3.6.01,1.22.22,2.49-.41,3.22-2.1,2.42-5.28.35-5.8,3.02ZM167.58,99.65c-.15,1.19.99,2.52,2.11,2.22l7.46-2.03c2.39-.65,5.27-.64,7.37-1.96l8.32-5.22,1.09-3.78c.17-.58-.55-2.04-1.09-2.29-1.34-.6-2.77.94-4.97-.7-.52-.39-.5-1.45-.45-2.37-1.86-.71-2.69-2.58-2.04-4.2s3.02-2.27,4.28-1.46c.35.22,1.67.05,1.6-.32-.5-2.46-4.81-3.81-3.66-6.58.25-.6.92-1.85.91-2.49-.01-1.28.47-2.72,1.56-3.19.71-.31,1.99,0,3.01.21,4.05.81,2.01,2.96,4.63,4.76.71-1.25,1.07-2.36,1.39-3.79.24-1.83,1.82-2.78,3.34-2.31,1.09-1.21,2.33-1.56,3.76-1.29,1.59.3,1.68,1.67,2.32,2.93,1.89,3.68-1.71,4.58-2.22,6.91-.17.76,3.47-1.37,4.75,1.13.59,1.15-.29,2.21-.8,3.31-.84,1.79-1.45,3.41-4.01,3.31-1.59-.06-3.55,1.01-3.99,2.41.98,0,2.02.07,2.44.48s.25,1.73,0,2.61c4.52-2.1,8.31-5.14,11.59-8.92,3.58-4.12,7.8-6.94,13.11-8.32l5.69-2.32c2.76-1.13,6.1-2.05,8.1-4.37l7.66-8.88c1.78-2.06,5.08-3.11,6.34-5.65l4.88-9.89.1-3.87c-.73-.09-2.27-.02-2.46-.52l-.73-1.92c-.15-.4-1.37-.26-1.64.09-.91,1.18-.6,5.53-3.61,5.7-.46.03-1.7-.2-2.01.07-1,.89-3.19,1.47-4.24,0-1.18-1.67-1.37-3.55-.08-5.1l-2.06-.53c-.43-.11-.67-1.29-.59-1.79.74-4.4,4.97-3.35,5.18-5.55-2.37.13-5.01-1.93-4.06-4.05l1.43-3.2c.51-1.13,3.55-1.74,4.71-1.28s3.09.74,3.04-.42l-.13-3.03-26.3,2.87,3.17.89c.6.17.89,1.69.79,2.36-.27,1.84-1.32,2.91-3.49,3.14.89,2.6,3.59,2.26,5.61,1.43,2.43-1,4.62.61,5.08,2.85.93.67,2.04,1.81,2.37,2.86.69,2.2-.28,3.61-2.11,4.49-2.71,1.3-3.26.18-5.57.26-.89.03-1.14,2.38,3.44,4.52,3.01,1.41,3.25,7.2,1.5,7.31l-2.59.17c1.48,2.37.78,5.47-1.6,6.63s-5.21-.12-5.9-2.77c-1.06.67-2.16,1.13-2.96.91-.66-.18-1.62-1.41-1.72-2.13l-.57-4.08c-.2-1.41,1.34-3.3.16-4.99-.43-.61-1.23-1.24-1.76-1.06-2.22.76,0,3.2-5.04,4.19-1.59.31-2.86.86-4.2-.36-.9-.82-1.02-2.25-.82-3.62-.31-.61-.92-2.07-.63-2.67.85-1.78,3.4-2.34,3.05-3.35s-3.46-.29-4.21-2.01c-.27-.61.09-1.86.25-2.72.93-5.09,8.7-1.88,6.95-6.4-.65-.03-2.03-.06-2.04-.66l-.05-2.77-8.1,1.74c-2.2,3.07-4.33,5.69-6.87,8.39-1.95,2.08-2.66,4.85-3.61,7.54-1.12,3.17-2.9,5.75-4.61,8.8,2.59.1,5-.32,7.39-1.14l7.62-2.61c.22,1.42-.1,2.74-1.04,3.94l5.54,3.07,2.98.47,5.73,3.39-7.12-.28c-1.73-.07-3.11.3-4.79-.45-2.64-1.17-6.22-1.9-8.71-.24-2.2,1.47-4.06,2.6-6.66,3.29-2.21.58-5.36,1.07-6.91,2.76l-6.22,6.78-5.32,4.44c-2.03,4.93-3.75,9.71-6.18,14.35-3.02,5.77-.22,9.74-1.27,17.92ZM297.87,15.93l2.21-2.65-5.23-.53-1.43,5.36c1.26-.48,3.65-1.22,4.46-2.18ZM302.44,61.8l1.57.79c1.36.68,1.69,1.13,2.01,2.68.14.7.71,2.05.26,2.53-.41.44-1.49.97-2.11,1.27-1.72.81-2.66.67-4.41.08-1.62-.55-3.28,1.52-3.72,2.92-.49,1.54-.56,2.76.27,3.97.62.9,2.75,1.22,3.9.61l8.34-4.43,7.51-2.92c3.02-1.17,4.18-5.24,6.86-6.87l8.06-4.91,1.56-3.89c1.47-3.68-2.46-2.2-3.68-4.87-.26-.57.24-1.63.52-2.49-1.68-1.68-2.03-4.97.2-6.2l3.01-.03c.73,0,1.85,1.05,2.79,1.7.44-.7.86-2.84.27-3.49-1.71-1.88-2.94-3.93-1.84-6.59.24-.58,1.39-.99,2.29-.9-.67-2.18.55-4.75,3.21-5.05l1.24-2.79-.32,2.71,2.91,3.04.73,3.56c2.84-1.28,1.73-6.92,5.06-6.49l1.54.2c.32.04.81-.82.87-1.05l-8.18-2.62-3.89-1.05c-2.54,3.27-5.42-.7-6.56.73-.74.93,2.39.99,1.95,5.05-.07.69.18,2.3-.23,2.92-1,1.54-4.41,1.82-5.53-.08l-.58-.98c-.09-.15-.68.08-.67.25l.03,1.02c.06,2.14-.93,3.28-2.93,3.9-1.12.35-2.61,1.19-3.62.69-2.07-1.02-3.01-4.45-1.61-6.78-.78.02-2.35.06-2.92-.3s-.48-1.97-.46-2.67c.07-2.5,2.07-3.79,4.04-4,.41-.04,1.55-.99,1.26-1.25l-1.07-.96c-.79.12-2.29.33-2.64-.23l-1.3-2.1c-1.14-1.84-4.46-.96-5.63.08.74.88,1.31,1.99,1.24,2.97-.06.75-1.16,1.45-2.03,1.64-.36.58-.93,1.78-1.54,1.75l-2.36-.1c-1.87-.08-2.91-.62-3.65-2.61-1.01,0-2.34.71-3.36,1.46-2,1.49-4.63,2.12-6.53,3.8-2.12,1.87-4.07,4.85-5.66,7.15-.2.29,0,1.56-.33,1.69l-1.45.57-8.44,5.12c-3.25,1.97-5.41,6.08-6.35,9.88-.42,1.71-.8,3.11-1.93,4.46-1.76,2.11-4.22,3.98-5.63,6.26l-3.73,6.04,10.46,2.7c1.72.44,3.67,1.81,5.42,2.36,3.06.96,5.9-.27,8.81-1.09l6.31-1.77-2.19-3.01c-.32-.44.22-2.07.75-2.21l2.06-.52c-.28-4.53-6.69-1.51-7.97-5.29-.21-.62.2-2.19.37-2.69-.97-.81-2.08-2.22-2.22-3.31-.12-.93.68-3.27,1.64-3.41l5.02-.73c1.17,1.29,2.13,1.88,3.58,2.06.35-.54.67-2.03.54-2.76-.12-.63-.92-1.23-1.66-1.89-2.72-2.45-1.01-7.53.49-7.26l1.52.27c-.21-1.68.22-3.68,1.43-4.81.85-.8,3.25-1.91,4.32-.88l3.22,3.1c-.24,1.84-.33,3.27.79,4.68,3.13-2.38.96-5.16,6.12-5.9l4.77-.69c1.02-1.53,2.05-3.75,3.74-4.35-1.33,1.8-3.03,3.83-2.75,6.05.18,1.42.18,2.56-.21,4l1.03,1.48c-.1,5.55-5.46,3.9-6.19,7.58,1.52,2.14,4.09-1.69,7.95,1.3.78.61,1.12,2.79.59,3.63-.42.67-1.36,1.53-2.11,2.27.32.86.73,2.6.15,3.4-.48.66-1.69,1.31-2.66,1.74-4,1.77-5.96-3.17-9.76,1.2ZM351.03,66.48l-.11-3.62c0-.33.8-1.12,1.12-1.05l1.33.29c.08-1.11.31-2.74.85-3.63.45-.74,2.11-1.73,2.88-1.32l2.73,1.44c.58.3.78,1.92.92,2.71.78-.25,2.16-1.01,2.5-1.69.39-.8.32-2.16.2-3.14-.25-2.07.74-3.81,2.92-3.77.66-2.5,3.26-3.73,5.55-2.7l1.83,2.83c.71,1.1-.16,3.29-1.03,4.28l2.45,2c4.02-2.12,1.76-5.93,5.54-8.49.76-.51,2.06-.16,2.57.25,1.02-1.07,2.69-1.89,4.22-1.53s2.02,1.71,2.31,3.38c.7,4.07-2.43,3.59-2.52,6.34,1.41.57,2.86.09,3.59-.95,2.52-3.63,7.75-2.65,7.53-1.42l-.32,1.82c.23-.05,1.58-.35,2.06-.67l7.75-5.17c-16.03-10.59-32.84-19.04-50.94-25.79-.8.89-.27,1.97.12,3.41.28,1.03-1.62,2.47-2.82,3.7.66.54,2.13.41,3.03.03,2.02-.84,3.93.47,4.24,2.12.38,2.03-.39,3.78-2.34,4.46l1.02,2.1c.44.91-2.62,2.98-5.77,3.25-2.3-1.64-5.8-1.08-6.88,1.5.88,1.54,3.81.59,3.92,1.62l.14,1.24c1.11.35,1.79,1.66,1.28,2.76-1.01,2.19-3.33,2.76-5.7,2.38.44,1.29.77,2.92.11,3.8-.53.7-2.31,1.14-3.27.94-3.85-.81-2.98-3.22-5.04-3.99-.53-.2-1.97.5-1.96,1.19.02,1.7-1.69,1.99-2.89,2.94l-4.18,3.29c-2.32,1.82-4.19,4.01-5.57,6.4l4.63,2.06c1.28.57,3.25,1.94,4.64,1.18,2.43-1.33,4.83-1.43,6.54,1.08,1.09-2.48,2.4-4.19,4.75-4.04.27.23.77.81,1.01.67l1.06-.61c1.38-.79,4.09-1.7,4.03-3.85ZM153.96,54.57l8.96-5.08,5.62-5.08c1.82-1.8,3.56-3.73,4.65-6.04,1.94-4.12,4.56-7.32,7.52-11.16-15.34,5.28-29.31,12.24-42.99,20.24l-1.78,11.15,2.37,7.27.91,4.16c1.73-1.53,3.33-2.37,4.43-3.7,3.32-4.01,5.97-8.43,10.32-11.76ZM359.63,81.27c2.75.23,4.76,2.29,4.44,4.83-.25,1.96-1.77,2.16-3.08,2.86-1.05.56-1.99,1.36-3.4.74-1.23-.55-3.39-.12-3.27,1.4.16,2,2.68,3.08,4.02,2.62-1.36-.72-2.82-1.66-3.58-2.42l6.52-.67c2.35.3,4.98,2.44,7.1,3.85,2.96,1.97,6.17,1.87,9.67,2.08l6.76,1.51c3.33.22,6.81-1.48,9.59-2.77l5.48.42c2.27.17,5.12-.58,6-2.66-.89-1.11-1.24-2.94-.43-4.31.36-.61,1.83-.98,2.59-.73.51.17.9.65,1.84,1.69l1.32-1.78c.87-1.18-3.9-4.32-2.01-6.48s-.39-4.2,2.98-5.9c.91-.46,2.09.18,3.38.68,3.86,1.52,1.56,3.45,3.94,5.69,1.77-1.33,1.91-3.15,1.5-5.18-.54-2.65,1.22-5.65,3.81-6.53.79-.27,2.79.02,3.03.74l.9,2.76c.97-1.46,1.67-2.29,3.35-2.92l-19.46-15-4.12,2.58-4.83,3.19c.49,2.89-1.34,4.3-3.61,4.8,1.16,1.29,1.19,2.04,1.11,3.3l-.46,7.69c-.09,1.42-.13,2.47-.65,3.67l-.3-5.08c-.07-1.16-1.1-3.3-1.5-4.43-2.26.37-3.81-.19-5.2-1.71-1.14-.06-2.99.28-4.13.73.48,3.35,5.15,1.58,5.09,6.33-.02,1.66-.34,3.05-1.76,3.86-1.15.65-2.72.56-3.82-.06l-.82,1.67c-.76,1.53-6.28-.09-6.89-4.03-.27-1.74-1.27-2.76-2.77-2.62l-2.59-2.07.87,4.77c.06.31-.9,1.42-1.15,1.23l-1.12-.84-3.21-2.59c-1.3-1.05-2.59-.58-3.78.65-2.73.08-2.03-4.38-4.2-4.68l-4.43-.61c1.01.96,2.06,2,2.35,2.86-2.65,2.84,1.38,4.08-1.05,6.9ZM117.9,82.74l1.75-4.69c1.57-4.2,1.82-7.84,1.05-12.26-.39-2.23.3-4.73.49-7.38l-8.88,6.5.22,2.69c.21,2.61.94,4.18,2.32,6.33,1.64,2.55,2.17,5.95,3.04,8.8ZM143.9,95.6c2.13-3.59,3.36-6.82,3.12-11.19l1.2,1.03,1.62-3.53.66,2.39,3.18-6.2c1.02-1.99.78-4.3,1.14-6.51.43-2.67,2.03-4.99,2.95-7.62l-3.53,4.06c-4.45,5.11-1.38,11.53-7.28,15.24l.49-6.1c-2.5,4.22-5.14,8.9-5.59,13.53l-.95,9.95,3-5.05ZM294.04,77.28l-2.91-6.04c-2.8.74-5.29,1.91-7.83,3.38,3.08,2.57,6.71,2.89,10.74,2.65ZM356,77.04l-2.31-2.67c-.51-.58-2.55-.71-2.85-.43.64,2.73-3.04,3.69-1.71,4.85,1.57,1.38,3.52-1.18,6.87-1.75ZM100.41,88.14c.62-2.5,1.61-5.03,1.95-7.78.25-2.02-.42-4.2-.65-6.54l-4.87,4.14,1.06,3.16c1.11,2.14,1.71,4.13,2.51,7.01ZM443.59,392.44l-.66,5.44.94,1.21c.17.22-.41.65-.76.96l2.3,1.26-1.57,4.18c.6,2.84-1.3,5.04.25,6.32l1.17-5.04.69-.85c.17-.2-.27-.74-.47-1.04l1.16-11.56.89-.04-1.19,7.85,3.01,1.13-.99,4.09-.48,4.33c-.12,1.11-.38,1.81.48,2.41l1.03-5.6,1.28-.52c.28-.12-.68-.89-1.05-1.13l1.42-11.33c.17-.26.56-.39.5-.37l.03-1.16.16-.74.2-.68.47-1.7.21-.81c.02-.08.28-.44.34-.47l.68-.3.65-.29-.4-.38-1.07-.36,1.29-10.79.1-.8c.03-.24-.14-1.55-.18-1.31l-.12.7-.15.86-1.92,11.09-3.15-.37,4.33-25.91,2.9.49-.25,2.6c.05.64.17.69.3,0l.54-1.98c.02-.09.37-.41.45-.44l.73-.21.67-.19c.08-.02.4-.41.42-.49l.18-.7.19-.75c.02-.1.22-.56.29-.59l.94-.53c.16.17-.38-.41-.82-.89l.98-5.23c1.13,2,2.08,3.64,3.62,4.34,2.13.97,4.1.79,6.05-.29,5.7-3.16,4.23-10.1,8.57-11.28,1.42-.39,3.36.43,4.33,1.7,4.99,6.52,1.19,16.93-3.45,23.91-3.04,4.58-3.34,9.46-1.69,14.63l4.2,13.14c1.39,4.34,1.27,8.88.78,13.54-.12,1.03.34.55.6-.09l.92-1.66c.58-5.57-.29-10.8-1.85-16.18l-3.42-9.94c-1.47-4.26-1.07-8.3,1.35-12.14,4.78-7.57,8.93-16.34,4.79-24.73-1.19-2.41-3.65-3.84-6.07-3.48-6.05.88-4.27,9.18-10.29,11.81-1.45.63-3.44.52-4.86-.28-1.03-.58-2.05-2.67-1.85-4.16l1.15-8.28.77-.62,1.55.6c.26.1.63-.38.87-.64l.76,1,2.74.38c0,1.05,0,.04,0-.5-.28-1.56-.46-4.15-.23-5.71s2.64,1.65,2.72.02l.05-1c-.34-2.85.65-5.87,3.4-6.67,2.74.93,4.25,3.84,3.55,6.66l.21.47,2.17.06c.08,0,.47.64.49.72l.14.63.19.8.35.95c.64-2.58,2.2-4.54,4.85-4.79,1.74,1.18,2.31,3.37,3.1,5.83-.37.44.52-.64.75-.9l1.76-3.28c.35-.66,2.08-.72,2.78-.58.93-1.43,2.67-2.77,4.6-2.37.7.15,1.29,1.67,1.36,2.35l.4,3.86-2,4.52c-.09.2-.01.44.17.37l1.08-.37,2.02-.48c.95-.22,2.42-.3,3.36.21,2.08,1.11,2.26,5.52-.52,8.03,1.88-.42,3.47-.69,4.04.25-.23,1.24.13,1.15.5.53l.64-1.85c3.55-10.25,5.81-20.58,7.97-31.88-12.96-3.45-26.11-5.32-39.53-6.6l-12.3-1.18,2.16-13.61c.09-.56.8-1.55.56-2.23-.56-1.6.34-2.56,1.55-3.27,1.11-.65,2.3-.99,3.58-.54.97.34,1.51,1.48,2.09,3.07l.26-.7c.08-.97,1.42-2.24,2.26-2l1.06.31c.15.05-.06-.44-.17-.57-1.64-1.78-1.05-3.94.23-5.86,1.95-2.93,4.55-.54,5.03-1.8.52-1.4,2.9-2.31,4.6-1.87,4.55,1.19,3.26,5.33,3.62,5.24l1.08-.27c.57-.14,1.79.17,2.1.66,1.14,1.81,1.09,5.03-.87,6.31-.85.6.03.87.59.59,1.68-1.01,3.27.44,3.44,1.46l.81.54c-.05-1.18.69-3.31,2.03-3.39.71-.04,1.79.17,2.16-.17.69-.62,2.31-1.25,3.27-1.03.71.16,1.78,1.18,2.01,1.86.06.18-.16,1.04-.26,1.2-.18.28,1.35-.47,2.26.61s1.12,3.74-.08,4.78c-.24.28-.45.53-.44.52,1.06.17,2.33.48,2.81,1.01l.87.97c.14.15.1-.6.1-.81v-.95s3.65-1.49,3.65-1.49l2.18.51,1.54-30.01c-9.69-2.01-19.08-3.72-28.96-3.33l-21.04,2.15,1.08-7.24,3.78-.55,20.58-3.75c8.21-.7,16.06.55,24.12,2.44-2.2-48.63-18.24-96.63-45.33-137.02l-1.36.89,1.15,1.86c.26.42-.59,1.51-.97,1.87-2.81,2.64-4.77.28-7.01,2.46l.79,2.17c.91.49,2.98,1.18,3.92.93,3.13-.83,6.18.26,7.42,2.26.6.98.21,2.61-.63,3.13l-.82.51c-.13.08.46.45.62.52,2.7,1.34,3.29,4.64,1.48,6.95s-5.07,2.13-7.15,0l-.88.2c1.12,1.87.64,3.75-.99,4.59-1.39.72-2.89-.12-4.29-.74-1.79-.79-3.43-1.65-3.5-4.28-.05-1.81-1.52-3-2.99-4.11l-1.34-1c-.29-.22-.98.36-1.39.58l-.78-.16c-.15-.03-.31.78-.23.91l2.41,3.7c.49.75.12,5.62-1.44,6.73-1.28.91-4.33.7-5.86-1.54l-2.08-3.06c-.53,2.56-1.52,3.6-3.46,3.64-1.72.04-3.37-1.12-3.58-3.17-.09-.88-.81-1.51-1.54-2.1-1.77-1.42-.88-4.45.51-5.98,1.67-1.83.71-4.9-1.15-5.53-.52.92-1.58,2.23-2.31,2.26-1.64.08-3.56-3.02-2.45-5.86-1.59-1.85-4.86-3.28-7.44-3.21-3.83.11-7.4-.59-7.39-.56.99,2-.32,3.85,2.82,5.76l-2.22,3.31,3.03-.44c1.34-.2,2.53-.32,3.9.32,1.05.49,1.36,1.96,1.21,2.96,1,.99,2.12,1.97,2.7,3.49.35.9-.15,2.74-.84,3.25s-2.23.84-2.99.96l-.61,1.31c-.54,1.17-3.51-.69-5.95-.57-.71,1.7-.17,4.07,1.51,4.59,1.17.36,2.13.98,2.69,1.77.85-.42,2.37-.53,3.44.09,1.94,1.03,2.56,2.62,1.71,4.55,1.48,1.13,2,2.9,1.32,4.38-2.1,3.87-4.89,1.35-7.74,1.68.37,1.67,1.15,2.48,1.83,3.3,2.18,2.68,1.06,5.06-.9,7.12-.66.69-1.24,2.55-2.13,2.69-1.33.21-2.72-.03-3.88-.32-4.86-1.2-2.83-3.58-4.91-6.42-1.08,1.69-1.83,2.97-3.63,3.01-.91.02-2.44-.94-2.93-1.65-.58-.83-.58-2.47-.62-3.52-.48-1.3-1.12-3.21.27-4.56,2.05-2,2.93-5.04,1.33-7.46-.49.49-1.14,1.11-1.27.84l-.59-1.22-.92-.34-.63,2.13-1.09,3.55c-.22.72-1.92.94-2.75.61-1.44,1.34-3.81,2.46-5.58.74s-1.43-4.42-.25-6.61c-1.08.13-2.16.31-2.7.08s-1.19-1.5-1.26-2.2c-.17-1.7,1.44-3.4,2.07-4.79.28-.62.54-2.2,1.42-2.26,3.31-.21,4.95-2.41,5.5-5.41l.4-2.22-4.43,1.75c-.42.17-1.63.3-1.88-.02l-.92-1.2-1.64-.35c-.96-.21-1-3.35,1.69-5.83-.1-.77-.28-2.25.15-2.79,1.31-1.66,4.03-.67,4.6-1.72.27-.49.35-1.68.35-2.35-.5-2.06-1.13-3.35-2.83-4.55-1.21-2.88-2-6.7-4.3-8.83l-5.68-5.27c-1.15-1.06-4-2.35-5.56-2.57l-9.56-1.37c1.37,3.5,1.46,6.91.61,10.65-.33,1.44,1.69,4.49,3.14,4.36,3.13-1.06,6.1-.94,6.67,1.11.17.6-.26,1.63-.63,2.39,1.85.59,3.16,1.5,3.79,2.97.56,1.29.53,3.24-.58,4.17l-2.55,2.12c-1.06.88-3.08-.46-3.79-1.08l-3.18.58c.18,1.21,1.23,4.11,2.66,4.73,3.28,1.43,5.61,3.6,5.25,7.36-.13,1.36-1.38,2.21-3.09,2.07,1.39,2.35,1.16,5.6-1.1,7.02-.76.48-2.94.58-3.7.16-.65-.36-1.27-1.32-1.87-2.08-.63.12-1.65.35-2.15.24-.41-.09-1.06-1.05-1.15-1.5l-.74-3.44-2.6-.52c-.55,1.51-.97,4.09-.04,5.61,1.21,1.96,3,4.26,1.45,6.42-1.83,2.56-.77,6.27-4.86,6.49-2.04.11-3.68-.87-3.98-3.4l-1.28.25c-.18,2.15-1.16,4.94-3.46,5.1l-4.31.3c-2.37.17-3.39-2.25-3.82-4.09-.76-3.19,2.92-5.05,1.39-6.03-1.69.69-3.8.58-4.55-1.03-.71-1.52-.41-3.51,1.31-4.5-.41-1.85,1.02-3.15,3.05-3.43,1.56-.06,3.18-.8,3.98-1.87-1.94-1.24.4-.93,1.26-3.32-2.88-2.55-4.84,1.98-8.83.4-.73-1.12-1.26-1.59-2.28-2.04-1.72-.75-2.2-2.63-1.63-4.4.41-1.26,1.9-2.46,3.38-3.2l-.29-2.15c-.17-1.26,3.19-2.4,6.2-2.19,1.13,1.88,5.19,1.86,6.64-.23-1.09-1.84-3.5-.98-4.23-2.57-.19-.42.16-1.25.37-1.83l-1.09-1.58c-.28-.41.27-1.77.63-2.16,1.17-1.28,3.37-1.45,4.91-1.02.29-.73.73-1.74,1.16-1.96,1.89-.95,5.7,3.69,7.04,3.06,2.56-1.21,4.62-5.53,3.43-9.33-.94-3.01-2.06-5.95-4.41-8.13l-3.17-1.34c-1.36-.57-2.7-.82-4.17-.51,2.1,2.24,2.49,3.45,1.83,5.89-.27,1.01-.97,2.46-1.85,2.8-2.54.98-6.04.52-6.88-2.23-.1-.32-.91-1.18-.98-.92l-.29,1.07c-.18.66-.64,1.83-1.13,2.2s-1.85.4-2.54.35c-1.93-.32-2.98-1.52-2.92-3.55-1.66-.53-2.22-2.05-1.47-3.7.51-1.75.55-3.6,0-5.07l-1.42.74c-.59.31-1.27-2.74-1.76-2.22-.17.18-.68.86-.71,1.11l-.43,3.47c-.16,1.29-1.75,1.73-2.68,1.54-.79.72-2.02,1.88-2.92,1.88-1.13,0-2.72-.78-3.29-1.79-.88-1.55-.46-3.47-.05-5.19-1.2.5-2.8.56-3.46-.42s-.25-2.34-.11-3.5c.23-1.92.38-3.3,2.64-3.89.94-.25,2.48-1.92,2.67-2.91.08-.42-.46-1.78-.88-1.71l-1.85.32c-.49.08-1.9.22-2.16-.18-.72-1.12-1.06-4.32-.7-4.62l2.02-1.7-1.1-3.05c-6.77-2.26-12.64.8-18.17,5.05l6.8,3.25,4.55,3.07-3.42-.65c-3.2.06-6.31-.33-9.37-1.34-2.82-.94-5.32.36-8.03.74l-8.5,1.21c1.59,2.57,2.66,5.08,2.91,8.03.24,2.76,1.59,4.87,3.43,6.85l3.89,4.2c.96,1.04,6.08,2.39,6.37,2.08l1.66-1.8c.28-1.68,1.61-2.44,2.99-2.18,1.69-1.91,3.99-1.93,5.92-.24l-.55,3.78,2-.76c1.94-.74,3.26-.34,4.88.74,1.25.84,2.42,1.67,2.49,3.21.06,1.17-1,2.37-2.04,3.01l.06,1.72c.01.32-.67.8-1.1,1.04-2.41,1.29-4.04-.98-5.98,2.12,5.58,5.86,6.63.78,10.86,2.08.93.29,2.05.79,2.74,1.47.52.52.55,1.97.41,2.9,1.85,1.1,2.84,2.79,2.6,5.06-.18,1.64-1.47,2.53-3.07,2.45-.61,1.04-1.9,1.5-3.09.97-1.4-.59-2.67-.74-4.09-.39.37,1.68,1.29,3.54,2.72,3.84,3.02.63,4.68,2.23,5.24,5.33.15.83-.02,2.55-.77,3.13-.54.42-1.65.43-2.92.42,1.15,1.77,1.34,3.64.26,5.5-.82,1.41-2.79,2.98-4.75,2.02-1.33-.65-2.17-.8-3.67-.91s-2.75-2.67-2.7-4.07c.07-1.81-.97-3.06-2.66-3.1.17,2.77-1.87,4.49-3.9,4.34-2.64-.2-3.89-2.29-3.33-4.87-.06-.04-1.1-.34-1.24-.49-1.16-1.29-.48-4.97,1.37-6.07l.16-4.74-1.4-.15c-.27-.03-.53-.59-1-1.18-2.07,1.21-.74,6.17-3.75,6.54-.88.11-1.59.24-2.16.82-1.47,1.49-4.17,1.2-5.28-.71-.79-1.37-.6-3.57-.21-5.15-.88.03-2.42-.16-2.88-.73-.39-.49-.6-1.91-.36-2.5l1.49-3.65c.74-1.81,7.05-2.36,4.76-6.38l-2.77.85-2.48-1.88c-.86-1.7.32-3.82,1.77-4.88l.46-1.64c.13-.46,2.92.21,3.16-.86.7-3.13-3.31-7.76-6.9-9.39l-1.85-3.47c-1.01-1.89-1.1-5.1-2.66-6.61l-7.25-7.05c-1.97-1.92-4.87-2.93-7.6-3.08-11.09-.63-13.09-7.16-26.93-.23l-5.81,2.91c-1.15.57-2.65,2.01-4.01,2.49-7.29,2.62-7.97,7.67-13.84,12.46l-4.81,3.92c2.92,1.38,5.43,2.13,8.64,2.43l5.23.49,5.81-1.76-3.79,2.54c2.18,1.61,4.93,2.12,6.78.93,0-1.28.28-2.71,1.19-3.77.39-.46,2.04-.75,2.39-.26l1.38,1.94c3-1.84-1-5.66,3.93-7.13.54-1.4,1.64-2.39,3.06-2.38,1.56.01,1.99,1.05,2.75,2.52,1.57,3.08-.68,4.29.56,5.53.65.65,3.71-.91,3.87-2.23.42-3.47,2.95-5.36,3.95-5.22.41.05,1.04.46,1.48.72,1.12-1.24,2.76-1.72,4.27-1.18,1.83.65,1.77,2.13,1.94,3.97.15,1.63-.09,3.16-1.88,3.86-.71.28-1.75,1.95-1.16,2.27,2.19,1.15,4.35-.16,5.73-1.82,3.55-1.37,6.79-.66,6.64.66l-.26,2.3c2.7-.21,4.96,1.59,5.11,4.28.12,2.16-1.75,4.18-4.24,4.41l-2.7.25c1.52,1.62,1.78,3.15.77,4.47-1.1,1.42-2.74,1.25-4.41.98-1.88-.3-3.08-.57-4.13-2.28-.81-1.31-2.53-1.73-4.39-1.39.16,3.04,3.63,2.07,2.61,6.76-.33,1.49-.47,2.72-1.87,3.35-1.07.48-2.6.32-3.64-.35l-1.09-.71c-.23-.15-1.05.7-1.37.66-1.61-.2-3.6-2.77-2.9-4.84l-2.42-3.18-2.35.46c.31,1.14.47,2.34.01,3.22-.68,1.3-1.81,1.95-3.12,1.76-.8-.11-1.76-1.17-2.33-2l-1.98-.98c-1.23-.61.82-4.12-.99-5.58-1,1.17-1.97,1.7-3.08,1.33-2.37-.81.35-4.52-2.52-5.32l-4.64-1.29c-1.22-.34-2.58-.36-3.9-.39l-5.21-.09,5.71,9.87c.76,1.32,2.57,3.19,3.93,3.94l5.26,2.9c1.33.73,2.72.6,4.31.47l4.68,2.87-5.05-.3,3.1,2.66,2.1-1.97c1.04-.98,3.06-.61,3.76.56l2.27.33c.58.08,1.1,1.58,1.14,2.2.12,1.81-.53,2.57-2.08,3.6.9.6,2.51,1.61,3.33,1.6l3.28-.05c1.24-2.63,3.83-4.53,6.81-4.06.49.08,1.77.74,1.72,1.23l-.21,2.32c1.95-.94,3.55-1.04,5.51-.36s3.69,3.27,2.1,5.18c-.71.85-.77,1.31-.78,2.58,0,2.58-5.8,1.23-6.18,3.27-.23,1.25,1.5,1.85,2.32,2.25,2.27,1.13,4.29,1.21,6.55-.1,1.1-.64,5.63.44,6.33,1.8.33.63.05,2.3-.14,3.01,1.36.61,2.83,1.52,3.39,2.65.59,1.2.48,3.24-.24,4.19-.33.43-1.39,1.01-1.85,1.32-3.2,2.13-4.85-.64-6.75,1.05.52,2.16,1.58,3.39,3.76,3.7.72.1,1.4,1.5,1.84,2.12.8,1.12,1.69,2.05,1.96,3.2.23,1.01-.46,3.12-1.43,3.49-.54.21-1.98.27-2.49.3.55,1.51.34,3.57-.76,4.76-1.16,1.26-3.04,1.75-4.66.88-.85-.46-1.52-.56-2.58-.78-2.74-.56-1.59-5.51-3.98-6.04-.23,2.46-1.6,3.63-3.54,3.79-1.66.14-3.34-.85-3.61-2.92-.33-2.53-3.44-1.97-.1-8.23.85-1.6-.04-4.35-1.33-5.58-.37.25-1.2,1.18-1.35.85l-.78-1.64c-2.66.95.79,5.6-3.66,8.04l-1.54-.94c-.62,1.48-1.76,2.64-3.25,2.84s-3.26-.58-3.9-2.16c-.57-1.4-.25-3.32.04-5.01-1.28.63-3.35.63-3.83-.94-.51-1.66.35-3.21.81-4.68.36-1.15.69-2.5,2.06-2.96,2.29-.77,2.92-2.12,2.97-4.39.02-.77.14-2.72-.52-2.81l-2.88.48c-.56,1.31-2.1,2.77-3.48,1.59-.25-.22-.59-1.12-.84-.97l-1.12.69c-.96-.04-2.16-2.12-1.76-3.07l1.36-3.24c-.61-.89-1-2.22-.41-3.22,1.18-2,4.27-.89,4.5-2.69.06-.5-.41-1.26-.64-2.02l-.73-2.41c-1.37-1.52-2.91-3.76-4.85-4.42l-6.35-2.17-4.59-3.82-2.59,5.53c-.3.63-.08,2.25.26,2.8.78,1.27,3.37-.23,4.91,2.14.37.58.06,1.7-.25,2.51,1.37,1.09,2.26,2.58,2.05,4.16-.19,1.47-1.28,2.22-2.7,2.97s-2.86.61-3.91-.58c-.42-.43-2.22-.11-2.49.52l1.4,5.37c3.92-.24,5.35,5.18,4.67,7.88-.19.76-1.7,1.42-2.57,1.68-.34,1.55-.67,3.42-1.56,4.69-.48.68-2.45,1.19-3.17.91s-1.59-1.26-2.3-2.03c-1,.22-2.56-.44-2.73-1.65l-.54-3.84c-4.76,2.31-.44,5.4-1.85,9.01-.09,3.21-2.6,5.38-5.77,4.91-1.8,1.59-4.37,1.75-6.11-.06-1.49-1.34-1.84-3.86-.77-5.82-1.56.32-2.87.34-3.55-.23-.88-.74-1.09-2.3-.81-3.29l.85-3.04c.65-2.33,4.67-2.53,4.69-3.27l.04-1.36,1.19-2.92c-2.88-2.2-5.01,2.51-7.79.82l-2.87-1.74c-1.19-.72-1.58-2.66-1.13-4.02.39-1.17,1.53-2.17,2.71-3.03-.29-.88-.71-2.61.14-3.41,1.35-1.28,4.65-2.09,7.45-1.17,1.19.39,3.19-.47,4.24-1.34l-3.11-1.15c-.33-.12-1.04-1.06-.88-1.37l.55-1.06c-.61-.64-1.39-1.78-1.35-2.53.12-2.1,3.43-3.82,6.7-2.52-.32-.9-.22-2.59.5-3.08,1.69-1.16,3.21-.13,4.55.79.69.47,1.56.93,1.82,1.75.33,1.05.94,2.16,1.63,2.37,1.87.56,4.7-1.34,5.38-5.21l.93-5.33c-1.36-2.42-2.91-4.72-4.61-6.68-.84-.46-2.64-1.64-3.64-1.76l-7.66-.95-4.71,3.26c-2.85,1.98-5.79,3.4-8.9,4.99l-4.67,2.39-5.45,4.86c-3.51,3.13-3.52,11.22-11.59,21.38-1.06,1.34-2.21,3.29-2.52,4.93l-3.02,15.77c-.97,5.04,2.19,11.98-1.04,23.09-.83,2.85-1.44,6.12-.76,9.05,1.62,7.02,3.39,13.87,3.53,21.14l.18,9.37.41,7.53c-.18,4.08,1.26,7.32,3.45,10.5,6.14,8.91,4.23,21.44,6.55,25.55,3.48,6.18,6.23,12.07,6.74,19.33.13,1.89.68,4.61,1.49,6.35l3.25,7.01c.4.86,1.91,2.45,2.68,3.09,3.58,2.96,9.62,3.53,12.79,11.78.72,2.35,1.97,4.21,4.22,5.62l2.22,11.1c-3.95,1.6-7.28,3.47-10.09,6.47-7.16,7.65-6.83,16.89-.85,25.41.94,1.34,1.87,3.39,1.37,5.02-.4,1.3-.84,3.99.98,4.02,1.1-.05,3.25-.52,4.26-.07,3.25,1.45,4.98,9.38,3.35,14.28-4.41-6.22-8.82-11.69-13.99-17.01l-15.17-15.61c-4.03-4.15-8.15-8.49-9.9-14.14l-11.49-37.12-7.87-25.59c-.42-1.35-.42-2.96.76-3.58l2.04-1.06c.45-.23.27-1.71-.09-2.01-1.36.67-3.36.67-3.93-.49-.22-.44-1.82-.74-1.81-.29.02,1.89,2.42,3.52.52,6.51l-.82-1.32c-.1-.17-.36.2-.43.38l-.27.77-1.1-1.68-.53,1.9-2.2-4.02-.14.68,1.31,3.28-1.56-.39c-.14-.04-.08.39-.02.53l.37.87,1.41,6.56.42-.3-1.13-5.35c-.05-.24.36-1.09.51-.91.1.12.67.7.71.83l1.99,7.42-1.77.28.7,2.71.23-1.73c.03-.2.43-.24,1.02-.35l2,6.48-1.98.49.87,3.62.43-.45-.67-2.53c.85-.07,1.83.46,2.02,1.21l1.08,4.16c.08.31-.78,1.14-.99.89l-1.13-1.4.53,3.29.91-1.38c.14-.21,1.18.4,1.24.64l1.43,5.77c.06.22-.69,1.11-.51,1.25s.86.64.93.85l1.84,5.41-1.8.19-3.4-12.86-.53.38,4,14.97.55-1.4c.07-.18.72-.11,1.36-.08l1.47,5.58c.08.29-1.19,1.2-.9,1.25.22.04,1.22.48,1.28.69l1.76,6.07-1.31.47c-.17.06.05.66.24.66s1.27-.08,1.33.1l1.57,5.27.35,1.46c.07.3-.75.67-1.21.97l1.59.37,1.74,6.68,5.26,19.01,7.65,27.47,2.68,10.02.67-.02-6.56-24.57,1.7-.6c.24-.08-.17-1-.42-1.01h-1.68s-5.08-17.96-5.08-17.96l2.22-.42,1.59,5.24,11.02,38.73-2.41.74c.24,1.8,2.67,1.05,2.67.33-.04-2.73-.75-5.2-1.48-7.83l-12.5-44.47-1.28-4.26,1.33-.1c.47-.04-.09,2.56.49,2.65l1.22.18.31-.39-2.83-7.51-.79.24,1.01,2.83c.07.2.51.82.35.9l-1.29.69-1.01-4.09c-.26-1.06-1.94-2.3-.08-3.64l1.41,2.89-.16-2.85,1.97,4.6,1.96,2.96c2.24,3.39,4.75,6.37,7.63,9.31l14.98,15.28,4.89,5.43c10.15,11.27,19.35,26.56,18.39,41.93-.75,12.07-8.17,22.19-19.47,25.98l.43,1.83c7.76-2.54,14.45-8.18,17.83-15.82,6.42,7.19,16.19,9.9,25.12,6.53.2,0,.95.09.95-.1l.02-1.37c-9.55,2.57-18.93,1.73-25.32-6.45l1.5-5.11c5.33-5.35,15.38-6.24,21.07-.37-.7-6.04-3.18-10.67-6.17-15.42l-3.26-7.53,5.74-1.72,1.22,5.69.76-.05-1.22-5.7,2.18-.38c.41,2.3.62,3.92,1.55,5.83l-.76-6.02,1.81-.12.7,4.66.33.86c.05.13.68-.48.66-.62l-.86-4.68c.02-.2.93-.65,1.1-.46.23.26.6.96.63,1.3l.39,4.43c-1.71,8.06-.36,17.03,3.01,24.88l-2.43-14.56c-.58-3.46.59-6.81.98-10.11l-.39-5.26c-.05-.65-.38-1.83-.86-2.09s-1.53-.31-2.66-.36l-2.49-9.49c1.09-.5,1.73-1.52,1.43-2.28-.22-.56-1.47-.91-2.3-1.22l-2.03-6.48,1.35.09c.21.01.58-.25.55-.46l-.22-1.54c1.26-.09,2.48,1.72,2.89,3.21l2.39,8.81c.53,1.96,2.1,4.11,3.74,4.99,1.67.9,3.27.15,4.05-1.06s-.22-3.38-1.32-3.58c-.24-.04-1.21.42-1.26.63-.07.28.04.7.21.95l.85,1.3c.59.9-2.91,4.01-5.66-7.89-.9-3.91-2.97-8.64-5.73-8.3-.66.08-1.32,1.03-2.15,2.04l-2.09-8.08-15.47-46.23,13.95,43.87,2.98,10.47,2.05,7.3-2.3-4.14c-1-1.8-1.32-2.16-1.82-3.8l-13.76-44.96-9.41-29.39c-.52-1.61-.81-3.29-2.14-4.31l5.97,18.3,5.89,19.1,11.09,36.19-1.34-.78c-.21-.12-.63.2-.79.39l-.24.31,4.17,14.6-.46.29-4.43-14.71c-.69-.27-1.53-.61-1.57-.24l-.18,1.61,3.93,14.71c1.52-.22,2.52.16,2.77.76l1.02-1.58c.23-.35,1.55-.05,1.58.37l.13,1.57-4.87.98,1.53,7.94-.53-.64-2.02-7.23c-1.18.56-3.24.67-3.5-.13-.45-1.39,1.38-2.33,3.05-2.12l-2.88-10.71-1.38-6.65-10.73-40.03-7.99-29.62-.56.35,5.65,21.49,13.24,49.28-2.94.35-1.78-7.4-7.16-27.83c-2.38.71-5.6,2.21-7.07,3.95l-.66,1.55c-.11.26-.85-.07-1.34-.2-5.33,6.97-3.15,14.15,1.34,21.38,1.2,1.93,1.61,3.95,1.35,6.45,2.65-.74,5.3.51,6.67,3.02,3.31,6.08,4.99,16.8-.36,21.37l-2.01-3.27c1.68-5.34,1.12-11.39-2.04-15.84-1.53-2.15-3.95-2.47-5.88-.94-2.66-1.81,1.33-4.07-1.58-8.25-6.11-8.78-6.81-18.33,1.28-25.63,2.75-2.49,6.23-4.06,9.64-5.39l-.31-4.49-6.75-26.6c-1.87-.69-2.54-2.22-2.66-4.33-.37-.3-2.06-.33-2.7-.08-.5.2-.73.97-1.19,1.93-.49,1.02-2.52,1.19-3.44.54s-1.64-1.8-1.69-3.12,1.1-2.52,2.11-2.73c1.12-.24,2.2.31,2.93,1.21l3.25-.31-2.27-5.5-3.39.91c-.16.5-.57,1.68-.96,1.97-1.18.89-3.87.23-4.44-1.42s-.39-3.52,1.61-4.33c1.13-.45,2.43.16,3.17,1.26l4.33-.03.1-.65-1.17.15c-1.4-1.88-2.14-4.54-2.45-6.9-.52-.13-1.54-.43-1.8-.68-.87-.82-1.31-3.36.26-3.95,2.13-.8-.14-5.49,5.08-6.12,1.8-.21,3.02.46,3.27,2.49l3.29,2.11c.6.38,1.24,1.86.99,2.64-.21.65-1.18,1.37-1.75,2.07l-.18,1.93c-.03.36-.55.45-1.65.82l1.23,1.7c.41.57,3.85.02,3.98-.27l.7-1.54c.47-1.03,2.68-1.02,3.56-.29s1.47,2.04,1.12,3.47c-.18.74-1.32,1.75-2.01,1.85-.92.13-1.87-.36-2.68-1.33l-3.01.52,2.32,4.2c.48.08,2,.05,2.72-.03.63-.07,1.05-1.41,1.4-2,1.29-1.39,3.53-.64,4.39.62.92,1.35.87,3.38-.53,4.42-2.83,2.09-3.72-2.86-6.54-.45l1.69,6.18,11,32.33c7.5-.49,14.63,2.53,18.64,8.84,2.56,4.03,3.23,8.78,2.97,13.51-.16,3.03.7,5.42,3.35,7.68-1.74.45-3.21.72-3.96,1.2-4.11,2.63,2.1,23.76,11.81,20.66l.92-.4c.19-.08.67.88.62,1.1-1.4,6,6.83,9.16,9.49,21.13,2.83,12.72-4.58,22.95-16.6,27.36l-2.1,2.09c14.33-3.01,23.33-15.48,20.17-30.04-1.15-5.31-3.83-9.89-7.39-14.03s-1.49-6.47-2.57-8.26c-.26-.43-1.53-1.02-2.05-.71-7.96,4.73-14.99-15.71-10.83-17.95.64-.35,2.05-.45,3.1-.54l.4-2.59c-1.64-.98-2.75-2.54-2.78-4.51l-.11-9.44c.99.92,2.88,2.55,3.26,3.76l1.94,6.22c-.03-2.96-1.16-5.6-1.81-8.36l-1.85-7.87-3.45.52-3.31-4.66c.17-2.49,3.21-3.04,4.91-3.25.04-1.89.85-4.12,2.76-4.66.23,1.99.59,3.71,1.35,5,.06-3.18-1.18-5.9,1.05-8.04,1.35-1.29,4.24-1.27,6.16-1.34l12.94-.51c1.11-.35,3.21-1.59,4.4-1.6l7.22-.11c1.88-.03,2.93,1.33,3.27,3.02l8.36,42.02,9.79,48.18c.23,1.11-.49,2.54-.97,3.64,1.94-.48,2.35-2.11,2.79-4.05l6.88-.98c.3-.04.8.39,1.03.29l1.2-.52.35.83c.04.1.12.11.18.05l2.34-1.09-1.43,1.91c3.01-.6,3.68-2.61,4.39-5.17l13.29-48.14,4.57-16.45c.33-1.2,1.87-2.11,3.1-1.49l10.95,5.55c2.29,1.16,1.98,4.16,1.49,5.97-.13.47.23,1.51.25,1.93s-1.11,1.04-1.22,1.45l-15.37,55.78c-.52,1.87-1.57,4.93-3.97,4.03l-6.74-2.54c-1.75-.66-3.33-1.64-4.77-2.67l.95-4.32-.43-.43-1.86,5.69c-.79.25-1.18.73-.26.67l10.92,4.69-.91,1.01c-.2.23,6.7-.33,7.58-3.34l6.58-22.47c1.23.62,2.04,1.44,2.7,2.37l.64-1.73,3.14,1.79c-.54-2.53-1.44-4.3-2.98-6.35,3.47.29,5.68,2.41,7.68,5.07-.08-4.49-1.31-8.35-3.59-12.27,4.87,1.86,7.54,5.84,9.29,10.49l.36-6.36c.2-3.5.21-6.67-.21-10.34,3.61,4.43,5.23,9.73,5.09,15.49,1.87-3.52,3.59-6.29,6.9-7.78-1.48,3.01-2.52,6.01-3.28,9.25,1.64-.99,2.63-1.6,4.29-2.13l-16.75,38.54-6.73,15.61c-.4,1.64,1.71,3.22,3.2,3.97,1.16.59,4.17,1.29,4.88-.32l6.02-13.66,18.94-42.17c.79.84,1.04,1.84,1.22,2.92l3.63-5.28-.51,5.58c3.1-3.93,5.63-7.06,10.18-8.4-1.99,3.14-3.59,6-4.77,9.41,2.5-1.68,4.6-2.68,7.26-3.11l-3,3.97,7.91-.62c-2.26-9.29,1.6-19.8,7.33-27.31l7.71-10.11c4.44-5.82,5.64-12.72,4.32-19.97-1.97-10.83-3.07-22.25,3.47-31.5,1.66-2.35,3.98-3.67,6.8-3.84.22-1.09.97-2.27,1.89-2.31.71-.03,1.95.71,2.51,1.38.46.55-.22,1.92-.8,2.62.75,1.65,1.21,3.68.7,5.53l-1.28,4.66c-1.81,6.57,2.35,12.6,6.28,11.9.84-.15,2.57-.96,2.8-2.07l16.2-78.58,3.43-17.68c.33-1.69-.98-4.32-2.26-5.03-1.96-1.08-2.95-2.88-2.01-5.02l12.19-27.78c1.1-2.5,3.42-3.96,5.53-4.2,2.54-.29,5,.52,6.42,2.66,2.48,3.75.92,8.34-2.72,10.76-1.47.97-1.61,3.6-1.28,5.28l2.13,10.84c.17.88-.28,2.71-.52,3.62-4.67,1.09-6.94,4.72-7.8,8.97l-.95,4.71-5.55,37.68-9.2,59.44-3.03,16.86-5.11.02,13.8-80.68,6.54-37.71c.36-.05.96-.07,1.06.19l.43,1.22c.64-1.35,1.01-2.54,1.21-4.07l.93-7.1c.3-2.3,3.54-3.11,2.75-4.28l-.98-1.45.15-3.83-1.92,6.17.57,1.07c.1.18-.85.81-.88,1.03l-1.42,8.4c-.05.28-.69.85-.93.88s-.58-.41-.53-.65l.19-.87,2.61-12,2.12-10.39-.42-.29-2.97,13.72-2.08,9.12c-.07.29-.01,1.18-.29,1.18l-1.37-.02,1.3-7.71-.38-.39-1.67,8.03-1.53-.47,1.57-8.44c.18-.98.73-1.95-.06-2.63-.7-.6-2.14-.44-2.74.35-.44.58-.51,1.74-.12,2.1.58.51,1.18.56,2.27.35l-.92,5.87c-.19,1.22-.74,2.34-1.44,3.5l2.65,1.12-8.44,45.24-13.4,72.25-2.99-.64,4.11-21.02-.45-.38-4.25,20.19-.48,3.11-4.86,23.66-.54,2.63-1.35,8.17-.12.28-2.09,8.4c-.05.2-1.34.62-1.19.76l.89.84-.95,4.67c.32.24.85.58.94.37l.36-.79,3.19-17.29,6.63-32.64,3,1.02-4.85,25.15-1.67.33,1.28,1.02c.2.16-.13.97-.17,1.25l-.75,4.7-2.84-1.02-1.1,5.04,2.74,1.09-1.06,6.33-1.82.34,1.28.74c.9.52-1.5,4.34-.28,6.45l1.5-5.18c.24-.84.27-1.71.42-2.65l1.75-11.06c.13-.06.38-.17.43-.15ZM392.35,102.49l4.91,4.68c2.05,1.96,4.03,4.3,6.89,5.13l9.51,2.75c.81.23,2.21-.3,3.09-.71l-1.23,2.17c5.97,5.8,10.37,8.41,19.18,6.86l-.85,1.16c2.43,1.67,6.44,1.6,8.31-.61-.33-1.18-.49-2.72-.22-3.36,1.39-.67,1.65-.96,1.94-2.55.14-.81,2.04-1.35,2.89-.98.67.28,1.43,1.33,1.69,2.11l.69,2.14,2.26-2.16,1.42-4.83c.45-1.55,2.39-1.21,3.17-1.66,1.12-.64,2.28-1.43,3.37-1.55.88-.09,2.45.69,2.68,1.51l1.16,4.1-2.09,3.35,3.52-.1c1.17-2.88,3.38-5,6.39-4.98.49,0,1.82.5,1.76.97l-.25,2.09,1.89-.95c-10.44-14.68-21.81-28.01-35.2-39.82.28,6.4-5.84,5.22-5.76,7.14s1.43,2.78,3.02,2.74c1.28-.03,2-.65,3.13-1.74,1.05-1.02,5.51-.26,5.98.87.2.48-.03,1.53-.25,2.48,1.54.13,3.12.78,3.5,2.31s-.65,2.99-1.88,3.9c.17.84.16,2.59-1.06,3.02-1.98.69-3.68.35-6.38.2,1.82,2.06,2.94,3.36,2.35,5.33s-2.65,3.53-4.87,2.41c-.45-.22-1.34.13-1.95.27-2.89.66-4.53-2.29-4.93-4.71-.3-1.82-2.78-2.86-4.36-3.01l-2.51,1.17c-1.65.77,3.01,3.3,2.74,4.41l-.55,2.27-.08,2.54c-.02.59-1.15,1.39-1.73,1.61-1.55.59-2.84.31-3.86-.84-1.36.4-2.93-.29-2.85-2.14l-1.48-2.19c-1.06,1.61-1.65,2.3-2.95,2.43-.9.09-1.7-1.22-2.35-1.91-.99-1.05-1.77-1.79-1.22-3.48.21-.63-.19-2.14-.89-2.37-1.98-.64-3.6-.1-5.63,0l-4.25.2-5.83,2.33ZM105.12,137.36c1.56-4.11,1.22-7.79,1.53-11.9.18-2.44,1.15-5.08,1.69-7.47.55.1,1.22.31,1.26.03l.18-1.27c1.61-4.43,1.77-8.92.04-13.36-.23-2.38.67-4.91.62-7.3-.08-3.68-.91-7.14-1.85-10.96.03,5.07-1.54,9.1-3.38,13.53-1.39,3.36-.17,7.65-.44,10.84l1.08-1.95c.41,4.4.25,7.73-.25,11.85l-.99-.96c-1.58,3.98-1.19,7.74-.58,11.77l1.09,7.13ZM134.28,105.71c1.08-3.66,2.88-6.83,3.08-10.03l-.36-5.97-1.86,5.99-.9,3.61c-.49,1.94-.18,4.68.04,6.4ZM74.42,107.2l4.34,3.29c.47-4.05.01-7.98-1.45-12.37l-5.52,6.26,2.63,2.82ZM122.32,121.13l3.72-8.27c1.24-2.76.32-6.3.4-9.18l.14-4.95-2.72,8.55c-.4,1.27-1.4,2.9-1.34,4.3.15,3.37.03,6.15-.2,9.55ZM144.87,128.29l4.02-8.11c.9-1.81,1.61-3.45,3.25-4.88l2.07-5.78,1.75-7.45-3.34,5.77c-.87,1.49-1.91,2.43-3.29,3.45-2.61,1.93-2.91,5.76-3.32,8.74l-1.13,8.26ZM91.06,130.1l.81-5.04c.1-2.25-.41-4-1.12-6.05-1.1-3.16-1.07-6.58-1.39-10.07l-1.03,5.49c-.54,2.88-.34,5.94.5,8.62l2.23,7.05ZM74.18,156.37l3.02-9.04c.48-2.51-.14-5.05-.37-7.64-.31-3.57-.16-6.98-.18-10.67-1.21-3.34-2.31-7.28-4.86-9.81-2.21-2.2-4.24-3.92-5.95-6.93l-10.06,14.35c1.39,2.45,2.68,4.53,3.75,7.02,1.34,3.14,1.77,7.04,4.4,9.44,3.42,3.13,6.07,6.44,7.05,11.17l3.19,2.11ZM413.57,132.9c1.13,2.06,3.29,2.32,4.56,1.57l3.17-2.2c-.67-1.39-1.56-4.01-2.72-5.44-2.16-2.67-4.77-5.25-7.7-6.92-2.39-1.37-5.67-1.37-8.3-2.07l1.62,4.7c.6,1.73,2.34,3.73,4.07,3.58.46-.34,1.61-1.35,2.02-1.07l1.79,1.2c.6-.02,2.6-.16,2.93.49l1.41,2.78c.6,1.19-1.61,3.15-2.85,3.39ZM152.8,151.94l-1.64,9.27,4.13-6.56c4.91-7.8.79-14.29,9.05-19.92l2.8-6.11c1.38-3.01,3.92-4.86,5.99-7.8l-8.04,4.47c-1.99,1.1-3.25,3.43-4.25,5.44l-3.68,7.37-.41-1.5c-5.17,6.18-3.26,11.5-3.94,15.35ZM127.8,184.5l1.72-6.15c1.76-6.26-1.32-9.02.29-14.85l2.52-9.11c.61-2.19.08-5.04,0-7.11l-1.17,1.9c.2-3.82.93-7.11,2.31-10.5l1.09-14.18c-1.56,3.75-2.96,6.56-5.04,9.81-1.56,2.44-3.09,9.24-1.21,11.41.16,3,.06,6.83-1.25,9.68-.61,1.33-1.5,2.71-1.64,4.18-.32,3.38-.2,6.43-.06,9.73l1.2-1.06.7,6.46.54,9.77ZM93.23,146.37l1.49-6.4c.37-2.39.15-4.89-.09-7.34l-.39-4.13c-.46,1.52-.64,2.83-.69,4.63-.1,1.73-1.13,4.04-.99,5.68l.67,7.55ZM455.53,131.2c-2.82-1.64-7.53-2.33-10.26-1.98l7.38,1.52,2.89.46ZM54.75,158.41l-.74-5.92-3.27-6.34c-.66-2.67-.98-4.92-2.5-7.16l-6.38,11.67c1.99,2.37,4.37,3.72,7.47,4.45l5.41,3.31ZM412.97,141.61c-.46-1-.87-2.02-1.61-2.16l4.02,8.43c-.19-2.36-1.39-4.09-2.41-6.28ZM139.03,186.75l3.01-8.67c1.42-4.1.95-8.08-.09-12.17-.28-1.09.09-3.08.14-4.27l.42-10.34-4.12,10.53c-.94,2.41-.72,5.55-.66,8.12,1.44,2.94,1.2,5.83,1.23,8.95l.08,7.85ZM107.28,182.16l2.07-6.99c1.19-2.88.16-5.7.34-8.67l.74-12.55-1.74,5.4-1.4,3.4c-1.51,3.68-.14,7.26-.1,11.02l.08,8.39ZM85.41,196.39c.37-.76.54-1.64.71-2.66.45-2.62,1.4-5.37,1.14-8s-1.11-5.04-.71-7.54c.47-2.97,1.66-5.98,1.5-8.88l-.43-7.79-1.51,7.3-1.13,6.68-.99-1.68c-.94,3.67-1.34,7.17-.68,10.47.77-.91.83-.68.96-.14l1.14,12.24ZM71.58,182.55l-.18-2.7c-.05-3.78-.9-7.67-3.83-10.13-2.35-1.98-3.14-5.05-4.8-7.81.15,2.25.19,4.49.94,6.44l1.76,4.56,3.33,3.54,2.77,6.11ZM153.89,191.11l2.28-5.68c1.44-3.6,1.36-6.72.87-10.52-.46-3.61.76-7.38,1.09-11.18l-4.41,8.96c-.44,1.11-.87,3.62-.75,4.85l.44,4.57.49,8.99ZM56.18,261.38c1.16-3.41.93-7.18,1.04-10.55l.21-6.34c.11-3.5-.3-6.94-1.16-10.32-2.73-10.67,1.67-15.58,1.6-24.42-.06-6.68-.2-18.4-2.55-22.74l-5.23-9.69c-1.93-3.59-6.52-5.31-8.43-7.01l-6.47-5.77c-17.71,41.04-26.84,84.78-22.93,129.17,1.41,16.07,4.32,31.48,8.66,47.37,1.98-2.72,3.91-4.48,6.84-5.49,4.83-1.67,3.77-6.86,10.29-12.88,1.88-1.74,3.07-3.79,3.46-6.37,1.71-11.61,9.13-13.9,9.18-21.01.04-7.66.34-15.03,1.59-22.56.67-4.03,2.56-7.42,3.91-11.4ZM115.16,212.48c.98-2.88,1.57-6.1,3.17-8.73,3.4-5.58,4-11.76,2.69-18.15-.29-1.39.7-4.11-.07-5.3-1.51-2.35-2.12-4.02-3.02-6.96l-2.77,9.43c-1.94,6.6,1.18,9.92-.27,14.37-1.04,3.2-.71,6.18-.36,9.47l.63,5.88ZM149.9,204.34c1.23-4.45.59-8.24.02-12.57l-.51-3.9.28-2.62-.68-.02-1.46,7.58-.77,6.26,1.35,11.65,1.76-6.37ZM96.08,222.76l1.7,10.23c.43-2.45,1.04-4.92.96-7.14-.12-3.26-.13-6.15,1.35-9.19,1.19-2.45.92-4.93,1.02-7.49.1-2.7.89-5.29.15-7.93-1.41-4.99-2.27-9.77-3.01-14.72l-.58,6.32c-.54,5.87,1.05,11.22-1,17.14l-.59-3.05c-.81,3.39-1.65,6.69-1.38,10.33.13,1.73,1.1,3.79,1.39,5.51ZM74.18,219.6l.88-3.5c.74-2.95.83-5.89.63-8.88-1.64-2.69-1.86-5.55-2.17-8.63l-.58-5.83-1.67,10.38.59,4.95c.81.57,1.24,1.23,1.31,1.92l.49,4.58.53,5ZM138.45,232l1.66-7.47c.49-3.24-.02-5.88-1.02-9.11-.64-2.08,1.81-5.96-.35-13.8l-1.82-6.63-.28,4.98c-.21,3.67-.93,6.77-1.8,10.37-.64,2.62-.08,5.92-.11,8.6.22.01.67.05.71-.12l.27-1.18.57,2.97,2.17,11.39ZM479.81,210.18c.81.02,1.5-1.62,1.02-2.27s-1.53-1.05-2.48-.81c-.61.15-1.26,1.66-.99,2.33.22.55,1,.72,2.45.75ZM124.54,246.8l.98-3.91c.93-3.72,1.97-7.94.48-11.7-.58-1.47-1.03-2.75-.85-4.49.5-4.84.73-9.28.21-14.17l-3.3,9.65c-.79,3.11-1.48,6.79-.36,9.78l1.21,3.25,1.62,11.59ZM158.43,233.84l.63-6.73c.31-3.33-.03-6.38-.96-9.61l-.98-3.42-.3,10.49,1,7.49c.08.6.38,1.58.62,1.79ZM475.42,220.24c.81-.04,1.05-2.01.32-2.75s-1.86-.64-2.82.34c-.4.41-.39,2,.13,2.25.44.21,1.18.21,2.37.16ZM153.52,259.25l-.14-6.76c.48-2.18.33-4.88-.69-6.86-1.74-3.36-1.64-6.35-1.54-10.09.11-4.12-1.16-8.3-2.42-12.11l-.06,2.87c-.08,3.65-.85,7.1-1.47,10.75-.49,2.87.13,6.08.58,8.9,1.71,1.86,2.76,3.89,3.06,6.33l2.69,6.95ZM89.7,240.24l-1.77-8.36c-6.66-.53-7.47-4.76-11.95-1.77-3.83,2.55-6.86,1.03-7.71,5.76l2.16,6.17.67-1.94c.12-.35,1.14.2,1.67.41l-2.08-6.72c5.38-.21,6.78-3.99,9.81-2.62l3.56,1.6c.95.43,2.03.52,3.37.35l1.91,7.44.36-.31ZM113.42,263.82l1.73,8.42,1.04-8.54c.58-4.74-.2-9.18-3.04-13.02-1.45-1.96.02-5.46-.38-7.87l-1.59-9.55-1.78,10.94c-.54,3.33-.32,6.8.82,9.76l.65-2.92,1.71,7.08.85,5.7ZM89.39,240.8l5.23,19.08.47-1.92c.39.56,1.19,1.41,1.62,1.44,1.7-1.33.72-4.54-.73-4.8-.45-.08-1.26.5-1.81.98l-1.06-3.77c.87-.2,1.68-.33,2.04-.64.92-.8-.18-4.3-1.34-4.07-.5.1-1.39.56-1.84.82l-1.13-4.16,2.13.24c1.29-1.55.78-4.14-1.26-4.93l-1.89,1.51-.44.23ZM109.81,401.9l-1.63-9.04c-5.47-1.52-9.74-5.24-11.91-10.63-2.65-6.6-1.77-14.17,3.68-19.15l-4.35-24.16c-4.89.7-9.76,2.48-13.47,6.06-5.23,5.03-6.53,12.56-4.63,19.45,2.32,8.42,9.03,17.72,6.95,24.39l-3.69,11.85c-2.09,6.72-4.17,13.26-3.9,20.26.39,10.48,4.21,19.73,11.62,27.22l-5.73.19c2.3,1.74,4.31,1.88,7.03,1.04l-1.29-1.88,4.37,1.09c-2.03-3.55-4.44-6.47-7.48-9.16,4.07.22,7.21,1.64,10.4,4.44l-4.12-14.05c3.82,2.28,5.68,5.7,8.06,9.3l1.95-5.43c-.02,2.94-1.05,5.51-.28,8.15l1.03,3.52c.71-6.02,2.89-11.13,7.2-15.04-.85,3.54-1.92,6.87-1.18,10.25l1.5,6.88c2.2-4.99,5.82-10.3,11.04-12.28-2.58,4.89-4.42,9.47-4.51,14.6,3.15-3.65,6.5-6.21,11.01-6.79-2.41,2.57-4.16,5.04-5.45,8.59l5.57-1.51c.24-.06.66-.3.64-.51l-.1-1.12,6.5,3.39c-.59-3.06-1.56-5.5-2.85-8.72,3.1,1.8,4.19,3.89,6.56,7.12l.37-5.33,2.92,5.23c-.05-1.26.5-2.6,2.18-3.28-9.23-12.59-10.16-29.26-5.1-44.36l7.27-17.7,6.06-13.11c2.66-5.76,4.12-11.94,4.36-18.34.17-4.32-.68-8.35-1.74-12.55l-12.45-49.45c-.5-1.99-1.97-2.89-3.59-4.17l-1.59-4.28-3.01.3c-.36.61-.96,1.61-1.48,1.52l-2.32-.42c-.22.91.94,2.44,2.01,2.59,1.27.18,2.31-.61,3.51-1.86l1.41,3.36c1.1.9,2.63,2.03,3.51,3.17l12.53,49.79c2.93,11.64,1.51,20.64-3.59,31.47l-6.38,13.55-4.32-5.73c-5.1-6.77-1.8-15.83-2.72-23.98-1.38-12.35-11.71-20.37-24.56-19.82l-9.6-43.21-6.04-26.15c-.57-2.47-.79-4.06-.55-7.48-1.51,1.62-1.72,3.69-1.49,5.9l-2.58.34-1.68-8.42,1.73.89c.71-1.04.69-2.01-.04-2.9-.37-.45-1.3-.17-2.13.29l-1.04-5.48c.65-.11,1.16-.17,1.53-.47.3-.24.35-1.56-.03-1.64l-2.03-.47-1.17-5.04c.93-.68,1.41-1.48.98-2.27s-1.66-1.17-2.4-.38l5.9,25.79-2.1.16-5.94-13.87-4.99-12.12c-.63-.29-2.07-.02-2.24.47s-.03,1.8.34,2.16,1.31.14,1.98.02l2,5.5c-.36-.02-1.87.25-1.73.65l.6,1.73c.11.32.78.15,1.62-.02l2.23,5.26c-1.09.04-2.25.53-2.04.96l.78,1.65c.17.36,1.15-.27,1.65-.74l3.5,8.3c-.83.28-1.42.47-1.67.71s.15,1.36.5,1.38l1.54.08.99.32,1.16-.5,5.25-.34,1.95,8.6-9.54.73,1.33,3.43.03-2.58,8.37-.62,1.76,8.05-6.31.1-1.44-6.47.9,6.6-3.56.8-3.26-17.36c-1.3-1.39-2.54-3.12-3.95-4.11-3.55-2.48-2.3-2.84-3.57-5.26-.13-.24-.96-.07-1.34.01l1.89,5.4c1.94,1.15,4.29,2.32,5.13,4.48l10.61,59.21c.47,2.63-.3,4.75-2.66,6l-.69,3.34c-13.71,4.47-26.17,11.42-25.02,27.16.36,4.9,2.23,9.38,4.51,13.71,2.57,4.86,3.45,10.11,1.34,15.29l-3.86,9.47c-3.01,7.4-4.52,14.93-3.89,22.94l1.88,2.37c-1.51-11.48,1.3-20.33,5.73-30.49,3.7-8.48,3.75-12.58-.12-20.66-4.71-9.84-6.47-19.93.94-27.75l-.76,2.21,3.12-2.76,4.53-4.01-1.85,3.62c2.19-2.16,3.72-4.6,6.14-6.42,2.59-1.95,5.99-2.77,8.97-3.88l.89-2.81,1.87-5.79,1.46,6.68,5.04,25.92c.15.29,1.04,1.11,1.14.82.07-.22.25-.85.22-1.07l-.33-2.27,5.88-.93c2.16-.34,4.7.47,6.78-1.34l-12.93,1.33-.51-2.71,12.49-1.43c-.53-.71-1.16-.71-2.08-.61l-6.13.65-4.36.54-.64-3.27,9.17-1.22c1.09-.15,2.58.63,3.19-1.16l-12.46,1.53-.8-3.73,8.25-.97c1.54-.18,2.79-.24,4.18-.85-1.61-.2-2.75-.12-4.1-.02l-4.21.32-4.2.82-.89-4.21,12.56-1.43c-1.95-1.01-3.74-.49-5.62-.25l-6.98.89-.72-4.38,11.96-1.2,1.32,3.29,4.36,20.5c3.75,1.45,5.83,4.54,8.24,7.52l8.15,10.08c5.73,7.09,9.77,19.15,3.44,24.33-4.02,3.28-9.89,3.37-13.54-.55-2.59-2.78-2.8-6.83-3.5-10.69l-2.56,1.28-3.77.94-3.04-.58,1.26,8.56.13.33,1.35,7.94,3.2-.64c-.77-3.79-1.55-6.74-1.58-10.47l2.02,10.17,3.14-.06.25-2.17.6,2.03,13.48-1.66,1.62,6.93c-4.2-.87-5.89,1.99-8.85,3.33-3.81,1.72-9.44,2.59-13.64,2.14-3.8-.4-7.11-2.42-11.16-.22l-1.33-7.52,11.76-1.85-1.32-7.67-.07-.24ZM71.59,242.73c-3.02.28-2.45-1.76-4.06-1.93-.44-.05-1.48.55-1.72.97-.78,1.3-.27,3.66,1.09,4.48.58.35,2.41.12,2.61-.47.17-.5.2-1.26.24-2.11l1.84-.93ZM167.85,266.91l-.82-8.02c-.29-2.82-1.79-4.76-3.06-7.16-1.5-2.84-2.16-6.11-3.38-9.07l.63,8.51c.23,3.06,1.27,4.72,2.81,7.21s2.39,5.84,3.82,8.53ZM70.77,244.19l2.06,5.97c2.15-.15.3-5.35-2.06-5.97ZM73.58,250.66l-1.75-.21c-.22-.03-.44-.58-.76-1.07-.45-.68-2.26-.4-2.79.38-.59.87-.59,2.06-.06,3.17s1.7,1.67,2.86,1.36c.73-.19,1.14-1.6,1.09-2.56l1.42-1.08ZM76.21,256.34l-1.47-4.24-1.22.58,1.46,4.49c.07.2.78.38.99.35s.33-.91.23-1.18ZM131.95,255.53c1.18-1.91,3.77-1.96,5.56-1.29,1.35.51,2.5,2.58,3.41,4.08,1,.36,2.42,1.03,2.56,2.17.19,1.47-.65,2.19-1.56,3.21l-.4,2.17c-.07.37-1.01.5-1.51.64l2.83,3.97c1.61-.4,2.63-.35,3.6.89l-2.44,1.29,3.06,5.34c.74,1.28,2.76-.19,4.09,1.12l3.16-1.18c-.09-1.47-.95-2.9-2.1-3.13-1.48-.29-2.5.4-3.59,1.79-.79-.21-1.81-2.08-1.32-2.64,1.66-.19,3.28-.5,3.78-1.59s.43-2.4-.19-3.56c-.51-.97-1.73-1.78-2.69-1.77s-2.02.85-2.75,1.79c-.35.25-2.03-.35-2.16-.92-.74-3.3,2.76-4.19,1.77-8.5-.38-1.68-2.21-2.14-3.29-3.24-1.7-1.72-2.28-3.71-5.17-4.01-1.9-.2-3.61-.03-5.36,1.32-1,.77-1.5,3.09-1.9,4.42-1.49,1.01-2.51,2.07-2.5,3.98,0,2.39,1.23,3.21,2.54,4.82l1.8,5.1-2.67-1.26c-.57-.27-1.95.69-2.34,1.23-.89,1.25-.6,3.04.39,4.2.66.78,2.57,1.39,3.51.73.63-.44,1.77-1.12,2.29-.98.86.71,1.62,2.79,1.72,3.58l-3.19-.94c-.59-.17-1.84.86-2.05,1.43-.13.37-.05,1.45.07,1.83.09.28.87.42,1.08.23l1.3-1.13c.29-.25,1.3.87,1.66.8l3.75-.67-2.49-6.48-3.66.76.18-1.65c.03-.28.85-.36,1.12-.43l1.68-.44-2.47-7.69c-1.14-.49-2.31-1.4-2.22-3.03.03-.58.03-1.74.43-1.92l1.51-.69,1.17-3.75ZM76.68,258.67c-2.94-.07-2.86-1.61-4.24-2.09-.39-.14-1.43.51-1.68.88-.98,1.4-.38,4.16,1.46,4.89.56.22,2.22-.29,2.27-.85l.18-1.95,2.01-.88ZM471.61,261.65l-1.29,9.28c1.29-2.17,2.23-7.33,1.29-9.28ZM171.1,298.06c2.38,2.08,3.49,5.53,5.82,7.9-.73-3.67-2.35-6.6-2.83-9.88-.54-3.73-.88-7.33-2.84-10.68l-7.27-12.4,2.24,9.03,2.29,8.81-1.47-1.84c.64,3.57,1.69,6.98,4.06,9.05ZM55.86,313.16l-.62,2.63,7.21-10.55c2.76-4.04,2.74-9.48,2.61-13.89l-.98,1.37,1.49-11.11.76-8.18-2.37,7.43c-.42,1.31-1.07,2.34-1.74,3.58-1.77,3.29-1.39,7.47-1.47,10.93l1.23-2.79c-.45,4.11-.81,8.41-2.45,12-1.31,2.87-2.9,5.29-3.68,8.57ZM71.92,290.46c.93-3.01,1.83-6.03,1.45-9.45l-1.6,5.99c-.21.78-.01,2.46.14,3.46ZM120.38,316.22c.62-2.63.14-4.68.81-6.76,1.5-4.69,3-9.73,1.34-14.6l-3.19-9.39.28,6.17.18,9.46c-1.68-2.6-1.94,4.81-.66,10.02l1.24,5.08ZM465.24,303.14l.57.03,1.45-10.21-.34-.74-1.68,10.91ZM68.09,334.47c3.3-5.79,2.58-13.47,7.25-16.75,1.67-1.17,2.59-3.47,2.78-5.87l.77-9.8-.13-5.43c-1.24,5.41-2.7,10.22-4.86,15.68-.48-.06-.32-.01-1.27-.3l-1.97,5.06c-1.09,2.8-2.15,5.14-2.26,8.27l-.3,9.15ZM211.15,308.75c-.22-2.77-1.55-5.4-3.48-7.67l3.48,7.67ZM229.06,378.91l-13.15-45.38-7.3-24.78c-.54-1.84-1.15-3.5-2.23-4.86l3.22,10.61,18.24,63.16c.18.62.61,1.32.95,1.56l.27-.33ZM132.9,327.28l.2-7.93c.07-2.74-.75-5.72-1.86-8.57l-.38,6.8-.49.47-.98-8.65c-2.35,7.97-1.65,14.1,1.23,21.04l.56-6.23,1.72,3.07ZM194.94,332.84l2.53,2.64c.85.89,2.73,1.7,3.93,2.28l-4.44-5.72c-2.11-3.55-5.16-4.98-9.33-5.12-1.5-.53-4.11-2.4-4.84-3.78-1.69-3.18-3.46-5.29-5.81-7.81l-4.53-4.86c1,3.02,3.03,5.67,3.72,8.56.52,2.16,1.23,3.8,2.8,5.5,2.21,2.39,3.95,5.1,7.5,6.16l-1.45-2.48,5.64,2.51c1.2.53,2.3,1.64,3,2.87-.27.02,1.02-.99,1.26-.75ZM33.68,365.31l3.63-5.06c.72-1,1.81-2.23,3-2.65,2.89-1.02,4.56-2.66,6.96-4.74l-3.59,6.42,2.9-2.23c1.32-1.01,3.07-2.55,3.83-4.01l4.6-8.8-.07,2.04c2.62-3.9,4.26-8.01,4.5-12.79l-1.52,1.97c.57-4.89,2.42-9.11,5.03-13.25.69-1.09,1.16-2.36,1.65-3.85l-4.11,4.09c-3.57,3.55-4.89,8.44-5.05,13.44-.07,2.04-1.54,4.2-3.09,5.56-2.12,1.86-3.26,3.89-4.48,6.21-1.8,3.43-4.81,5.63-8.13,7.09l.27-1.34c-3.17.4-5.68,2.36-7.23,5.17,1.17-.48,1.7-1.04,2.74-.26l-6.6,3.53.84.92c-1.09.92-1.09,2.34-.22,3.42l4.19-3.13-.05,2.26ZM35.53,342.86c2.33-.94,3.67-2.23,5.21-3.63,4.82-2.49,5.51-5.22,6.87-8.88l1.93-5.2-3.33,3.83c-1.19,2.04-2.01,3.46-4.26,4.47-.95.42-1.28,2.94-1.91,3.73l-4.51,5.68ZM79.08,333.33l2.12-7.72c-1.82,2.22-2.46,4.78-2.12,7.72ZM138.42,336.42c.44-2,.28-4.1-.31-6.16l-1.08-3.75c-.19,1.28-.54,3.41-.25,4.37l1.65,5.53ZM278.5,334.03l3.76-.14-7.29-.57,1.57,1.53c.32-.3,1.35-.8,1.96-.83ZM193.14,349.22l-3.7-7.05c-1.29-2.46-3.31-4.22-5.97-4.8l-4.87-3.79c1.67,2.73,3.01,5.93,5.28,7.79,1.78,1.46,3.15,2.41,4.1,4.61l5.16,3.23ZM175.4,412.25c.16.02.69-.18.65-.33l-.23-.89-5.64-21.87-6.63-25.08-4.55-18.64-2.29-8.66-.45.3,3.95,15.52,2.49,11.4,5.99,24.38c-5.19,2.37-6.69,11.32-4.42,15.39.49.87.86,1.27.75,2.24,1.87,4.12,5.84,7.21,10.76,8.05l-.41-1.81ZM458.06,348.13l.52.25,1.56-10.34-.35-.79-1.73,10.87ZM265.87,386.86l3.84-.36.95-2.19,10.22-.98-.75-3.12-11.08,1.32-.32-.54,11.23-1.6-.54-2.75-10.54,1.25c-.36-.71-.62-1.61-1.06-1.68l-2.22-.34c1.19-.2,2.35-.85,3.11-1.6l9.88-1.04c.02-.83-.28-2.05-.82-2.72l-9.42,1.11c-.57.07-1.65-.84-1.92-1.18l-3.04.08c1.83-.38,3.09-.5,3.57-2.37l10.43-1.26-.62-2.79-11.57,1.23.2-.67,11.12-1.29-.52-2.45-10.57.94c-.69-1.11-1.37-1.81-1.91-2.1l1.76-1.42,10.24-.61-.77-2.78-8.99.79c-1.06.09-2.1-.19-2.55-1.13-.28-.58.39-2.14,1.07-2.17l4.37-.17,5.61-.51-.87-2.72-10.15.53-3.32-.98,1.81-.27c.36-.06.48-.87.65-1.59l10.11-.86c1.13-4.56-3.68-1.19-10.34-2.02l-4.1-.51,2.54-.48c.45-.09.62-1.16.88-1.78l10.32-.27-.71-2.31-16.36.67c-.58.76-.8,2.2-.44,2.94.27.55,1.06,1.4,1.37,1.64-.68.57-.7,1.86-.37,2.87l.62,1.9c.13.42,1.37.43,1.71.51l-1.55.66c-.3.13.09,1.02.17,1.35l.89,3.78,1.06,5.28,3.68-.12.25.36-3.79.22.78,4.44c.04.2,1,.59,1.2.56s-.86.68-.82.88l.83,4.06,1.88.36-1.39.59c-.18.08-.2.82-.14,1.05l.87,3.51,3.32.23-3.21.5,1.04,4.92,4.84-.16-4.78.96,1.07,4.72,1.56-.08s.43-.21.49-.22ZM437.66,393.71c.15-.79.6-2.54.01-2.96l-2.72-1.98c0-2.67.68-5.88,1.42-8.6l2.57-.67,4.16-20.82c.93-4.63,2.01-8.96,2.2-13.53l-4.11,8.48c-.76,4.47-2.13,8.66-4.35,12.6l-5.28,9.55c-2.61,4.73-4.49,9.81-2.45,15.25,2.1,2.96,4,4.3,7.86,5.43l.54-2.22.13-.51ZM24.48,351.47l3.49-2.27c.86-.56,1.95-2.22,2.61-2.99l-3.69,1.57-2.22,1.77c-.33.26-.92.97-.69,1.27.17.22.79,1.03.5.66ZM465.54,427.93c4.26-.56,6.85-3.54,9.13-7.03,7.3-11.15,3.39-23.75-.87-35.87-1.96-5.58-1.3-11.12,1.93-16.09,3.74-5.75,7.79-14.21,4.56-19.73l.17,2.33c-.08,5.87-2.37,10.96-5.45,15.83-2.79,4.22-4.5,8.79-3.81,13.84-.24.25-.82.86-.81.86s.8.3,1.15.43l4.65,15.31c2.02,7.77,1.59,15.31-2.42,22.29-1.9,3.31-4.68,5.54-8.23,7.84ZM171.42,359.02l-.37.35.49,2.22-1.05.18c-.21.04-.21.82,0,.78l1.34-.25,7.4,23.9,1.11,4.21.36-1.67c5.16,1.98,8.54,6.99,8.81,12.67.17,3.46-.84,6.43-3.42,8.77l1.72,1.5-3.71,2.08,2.89,10.87,1.94-.34c.46-.08.59-1.21.69-1.88l.76,1.64c1.92-.5,3.51-.3,5.27.32.45.02,1.46-.2,1.77.08s.64,1.32.43,1.69-.98.74-1.54.97l-4.75,1.92.46,4.99-1.24-5-2.71.24,1.5,7.13-.41.3-1.66-7.26-2.83.61,2.92,12.89-3.47-12.24c-.42-.58-2.1-.37-2.88.16l5.15,18.75,2.97-1.01,1.54-.04c.33,0,.66-.64.97-1.1l.68.67c.25.25,1.02-.11,1.55-.3,1.48-.53,3.19.88,3.78,2.41,13.33-4.71,19.16-18.73,15.41-31.61l-.37,4.34c-.82-3.54-1.73-6.81-3.19-10.19l.03,4.9c-1.48-4.5-2.84-8.6-5.99-12.35.59,2.21,1.19,3.86,1.29,6.07-1.92-3.95-3.34-7.88-6.57-11.44.7,2.78,1.61,5.23,1.55,8.26-1.45-3.94-2.62-7.53-5.03-11.44l.35,3.7c-1.7-3.09-2.62-5.57-4.9-7.98l1.7,4.88-2.76-2.54c-2.12-3.66-5.03-6.38-8.79-8.05l-3.68-11.62-3.58-10.76-1.92-5.39ZM41.57,379.29l4.41-3.28-1.93,5.96,5.65-6.96,3.52-6.09-2.15,1.7c.52-1.87,1.22-3.43,2.05-5.14l2.71-5.53-4.63,4.53c-1.7,1.66-2.2,4-3.26,6.2-2.79,4.96-8.3,3.47-9.77,7.87-.83,2.49-2.1,3.26-1.94,3.5l.97,1.39,4.36-4.15ZM111.38,391.91l-.09-4.28-4.27-23.61,1.51-.04c.19,0,.16-.63.1-.7-.69-.17-1.66-.49-1.86-.97l-.79-1.89,4.98,28.16-2.95-.34,1.01,3.37,2.36.3ZM116.51,391.02l2-1.39-.39-3.09,1.08,2.62c5.64-4.09,5.63-14.5,2.54-19.45l-2.1-3.36c-.6-.96-2.59-2.35-3.53-2.98-.37-.25-1.61.11-1.59.55l.07,1.85c3.77,2.05,5.97,5.97,6.51,9.82.82,5.86-3.16,13.21-9.38,13.03l.55,3.38,3.14-.58-.45-2.7,1.53,2.29ZM107.1,387.73c-5.62-2.36-8.21-7.61-8.02-13.27.12-3.46,1.59-5.89,4.29-8.71l-3-.88c-2.81,3.03-3.92,6.67-3.77,10.73.27,7.2,4.37,13.27,11.24,15.72l-.74-3.59ZM173.45,460.4c3.8.67,7.27.64,10.11-1.13l2.51-1.56-1.14-1.43c-24.05-.52-39.9-18.82-40.57-42.35-.25-8.98,1.81-17.33,4.59-25.77,2.43-7.39,5.85-13.98,7.85-21.64l-6.93,15.86c-7.58,17.36-11.1,35.35-2.26,52.88,7.13,14.14,19.43,21.51,34.88,23.02l-9.03,2.12ZM349.64,368.97c0-.7-.57-1.26-1.26-1.26s-1.26.57-1.26,1.26.57,1.26,1.26,1.26,1.26-.57,1.26-1.26ZM348.24,373.79c0-.7-.57-1.27-1.27-1.27s-1.27.57-1.27,1.27.57,1.27,1.27,1.27,1.27-.57,1.27-1.27ZM489.81,392.33c3.58-3.77,6.92-2.96,7.13-5.7-1.81.71-2.49,1.43-4.31.92,1.8-3.31,4.47-5.01,7.33-7.56-2.92.37-4.95,1.36-7.47,2.66,1.66-3.41,3.49-6.35,5.91-9.39-6.09,2.08-11.55,8.43-11.57,14.39l4.72-4.62-.3,3.18c.33-.07,1.47-.38,1.36-.13l-.5,1.26c-.57,1.43-1.85,3.5-2.3,5ZM255.21,382.71l.31-1.23-1.7-6.8c-.24,1.37-.11,2.76.23,3.96l1.16,4.07ZM485.75,382.51c.23-.32.49-.78.73-.84l.77-.18.16-5.12c-1.54,2.56-2.45,4.79-2.88,7.88l1.23-1.73ZM265.76,387.41l-1.76.48c-.33.09.04,1.34.16,1.69l1.16,3.42c-.12,2.04.21,4.23,1.38,5.63-.74,1.77.11,3.72.95,5.19-.19,1.99.24,4.09,1.18,5.8.09,1.71.52,3.54,1.11,5.16l2.18-.45.33.3-2.36.66c-.07,1.77-.12,4.06,1.48,5.14-1,1.36-.24,5.63,1.72,5.8l-1.27.68.99,4.66c.49.15,1.94.39,2.5.29l14.7-2.72-.64-3.73-10.38,1.74c-.77-1.12-1.41-1.89-1.21-2.47.24-.7,1.27-1.35,1.85-1.44l9.03-1.32-.63-2.97-10.54,1.78c-.96-.43-1.21-3.12-.39-3.57l10.22-1.79-.69-2.93-7.34,1.09.18-.5,7.07-1.27-.59-2.62-10.47,1.37c-.65-1.22-1.67-1.71-2.87-1.63.81-.21,1.88-1.1,2.51-1.85l9.68-1.39c.62-.55.18-2.66-.6-2.88l-9.56,1.36c-.6.09-2.54-.97-2.86-1.01.74-.34,1.38-1.05,1.77-2.38l10.08-1.48c.19-.64.24-2.35-.3-2.54s-1.79-.11-2.49-.01l-8.78,1.15c.59-.65,1.33-.82,2.28-.94l8.89-1.18-.55-2.78-10.59,1.33c-.43-1.23-1.19-1.88-1.96-1.73-1.54.3-2.43.39-3.81.29l4.65-.95c.55-.84,1.32-1.29,2.18-1.38l8.88-.99-.78-2.87-9,1.22c-.83.11-1.73-.33-2.46-.84l-4.02.24-.2.14ZM52.89,403.49l3.39,1.99-4-7.42c3.21.97,4.85,2.68,7.01,4.83l-.73-4.58c-.05-.29.38-1.04.58-1.35-1.11-3.06-2.77-6.09-5.16-8.5l2.3,9.95c-3.23-3.68-6.89-6.16-12.01-6.67,2.91,2.56,5.4,5.78,7.34,9.12l-5.92-1.15,1.73,3c1.93-.51,3.72-.25,5.48.78ZM335.72,391.5c0-.73-.59-1.33-1.33-1.33s-1.33.59-1.33,1.33.59,1.33,1.33,1.33,1.33-.59,1.33-1.33ZM340.59,396.13l1.5-1.71c.31-.36.74-1.19.92-1.62.15-.34-.91-1.5-1.18-1.26-.52.46-1.24,1.68-1.58,2.3-.22-.33-1.15-1.65-1.36-1.26l-.67,1.29c-.48.92,2.37.06,2.37,1.08v1.19ZM458.44,416.35c.79.34,1.81,1.4,2.4,2.07,6.03-7.21,3.6-19.42-2.93-21.46l-6.23-1.94-1.17,7.56c1.72.33,2.58.53,3.89,1.14l-1.79,10.11,5.83,2.51ZM162.82,408.6l-1.02,4.04c2.06-1.03,2.44-4.35,1.13-6.11-1.33.04-2.75-.18-3.8-.98l1.13-3.08,2.36,3.45-1.59-10.03-1.15,5.02c-.32,1.39-.76,2.05-2.19,2.84l1.14,4.68,1.07-1.48c.13-.18.9.07.85.28l-.24.98-.28,1.16c-.06.26.91.38.98.13l.4-1.43c.05-.18,1.27.34,1.22.52ZM472.78,400.47c0-1.47-1.19-2.67-2.67-2.67s-2.67,1.19-2.67,2.67,1.19,2.67,2.67,2.67,2.67-1.19,2.67-2.67ZM330.36,402.91c-.68.31-1.18,1.7-.85,2.07.28.31,1.23.58,1.62.42.45-.2.78-1.02.71-1.53-.06-.41-1.1-1.13-1.49-.95ZM53.06,408.43c-1.45-2.21-2.64-3.83-5.07-4.74l3.17,5.29,1.9-.54ZM338.11,406.68c.67-.03,1.49-.92,1.47-1.4s-.73-1.79-1.19-1.64c-.55.18-1.23,1.15-1.34,1.62-.09.39.65,1.44,1.05,1.42ZM333.77,407.69c0-.69-.56-1.25-1.25-1.25s-1.25.56-1.25,1.25.56,1.25,1.25,1.25,1.25-.56,1.25-1.25ZM330.82,408.98c0-.71-.58-1.29-1.29-1.29s-1.29.58-1.29,1.29.58,1.29,1.29,1.29,1.29-.58,1.29-1.29ZM338.19,409.94c0-.67-.55-1.22-1.22-1.22s-1.22.55-1.22,1.22.55,1.22,1.22,1.22,1.22-.55,1.22-1.22ZM159.21,412.99l-2.8-4.11c-.35,1.13-.22,2.62.4,3.46.43.58,2.21,1.16,2.4.65ZM109.72,413.24l16-2.76-.16-1.13-15.15,2.4c-.47.08-1.1.48-1.3.65s.37.9.61.84ZM457.65,420.22c2.65,1.9,3.99,4.56,3.86,7.57,3.45-6.01-5.92-11.06-12.48-13.15-8.75-2.78-17.64-4-26.82-4.53l-10.37.04c-7.88.6-15.52,1.62-22.87,4.42-5.3,2.02-11,6.21-8.26,10.71.26-3.42,1.47-5.69,4.09-7.3,16.44-10.08,57.8-8.56,72.85,2.23ZM473.05,412.65c0-1.47-1.19-2.66-2.66-2.66s-2.66,1.19-2.66,2.66,1.19,2.66,2.66,2.66,2.66-1.19,2.66-2.66ZM168.13,414.31c.06-.91-.6-2.41-1.43-2.88-.6-.34-2.12.11-2.91.65l4.33,2.22ZM332.66,412.58c0-.7-.57-1.26-1.26-1.26s-1.26.57-1.26,1.26.57,1.26,1.26,1.26,1.26-.57,1.26-1.26ZM329.6,413.73c0-.75-.61-1.35-1.35-1.35s-1.35.61-1.35,1.35.61,1.35,1.35,1.35,1.35-.61,1.35-1.35ZM159.83,416.3c-.68.65-1.42,1.8-1.15,2.51.23.61,1.38,1.65,1.54,1.58,1.11-.77,1.12-.74,2.02-1.04,1.03-.35.87-2.39.29-3.34l-1.98-3.24.21,2.8-3.25-.94c.02-.13.18-1.06-.13-1.06h-1.53c-.81.93-.44,3.58.74,4.02l1.52-1.81c.32-.38,1.81.29,1.74.53ZM170.26,437.81l2.9,6.25c.95,2.04,3.5,3.11,5.3,4.55-2.49-.15-4.56-.24-6.66.08,2.96,1.95,5.61,2.01,8.37,2.41l-1.58.8,5.24.55c.52-1.58.88-2.2,1.97-2.97l-5.42-18.68-4.7.77c-.71.12-2.32-.61-3.06-.93-.53-.23-.54-1.81-.14-2.23.49-.49,1.38-.94,2.12-1.17l4.52-1.36-2.88-10.64-5.81-1.78c-.07,1.74-3.02,3.29-4.45,2.21-.45-1.11-.91-2.37-2.17-2l.98,2.37-.38,3.48,3.82,1.79c-1.48.4-1.94.38-3.53.4.73,2.23,1.87,4.18,4.06,6.13.52-.69,1.44-2.19,1.53-2.51-1.46-.59-2.05-.88-2.49-1.49-.32-.44.65-1.76,1.04-1.72l2.11,1.63c.54.41,2.15-.3,2.14-1.1,0-.56-.64-1.38-1.33-1.87-.01.04.18-.61.25-.84s.71.07.92.19l2.28,2.7c-.31,2.14-1.99,3.17-3.95,3.19l-1.86,3.42,3.18,3.94c4.85,1.52,4.85,4.26,4.11,4.18-1.64-.18-1.8-2.3-2.98-1.79-.46.2-1.29.95-1.56,1.37l-.76,1.18c-.15.23-.82-.63-.86-.68l-.27.18ZM183.33,425.25l3.09-.56-2.92-10.78-2.71.71,2.55,10.64ZM445.69,420.51c.77-.15,2.1,1.4,1.92,2.05-.16.57-1.01,1.74-1.63,1.89l-21.53,5.15-22.55,5.99c16.03,3.73,35.82,4.33,50.59-1.53,3.08-1.22,6.21-3.06,6.95-6.46.35-1.63-1.37-3.66-2.66-4.61-8.67-6.42-24.07-8.36-35.2-8.9-8.7-.42-17.23.49-25.67,2.53-6.62,1.6-15.79,5.71-11.73,10.92l32.08-7.38,14.35-3.17c.79-.17,2.24.93,2.31,1.62s-.83,2.09-1.66,2.26l-18.83,3.95-24.37,5.69,5.67,2.77c15.19-3.22,29.91-6.97,44.78-11.39l7.19-1.38ZM182.78,425.4l-2.94-10.41-2.81-.14,2.86,11.04,2.89-.49ZM356.45,423.83l3.38-1.36-4.5-.42,3.82-3.06c-3.05.2-4.54,3.02-6.89,3.09l3.93-6.52c-2.8,1.34-5.83,3.06-7.12,5.82l-1.47,3.16,3.89-1.67-1.98,2.67,2.8.26,4.13-1.97ZM344.98,424.68c1.86-1.62,2.68-3.68,2.58-5.87-1.4,1.96-2.43,3.64-2.58,5.87ZM160.26,426.38l2.33-.13c.27-1.34.08-3.1-.53-4.08-3.34.76-4.27-.53-6.88-2.85l1.17,3.59c-.94,1.66-.62,3.18.84,4.56,1.23,1.16,3.09,1.99,4.28.3-1.65.12-3.09-.04-3.68-1.15-.5-.96.06-3.07,1.12-3.09,1.3-.03,1.93,1.11,1.34,2.85ZM159.29,430.8c-.05-.32-1.3-.4-1.28-.07l.04,1.11c-.17,2.86,1.85,4.75,4.65,4.69.52-.01,1.4.07,1.61-.28,1.35-2.18,1.07-4.41.39-6.82l-.79-2.79c-.42,1.28-.57,2.21-1.06,2.51-.54.32-1.31.68-1.37,1.09s.2,1.58.61,1.51l2.09-.33-.99,3.06c-.07.21-.44.82-.55,1-.08.12-.2-.39-.24-.53l-.14-.63c-1.45-.33-2.78-2.25-2.97-3.51ZM298.02,429.09c1.64-.38,3.23-.68,3.9-2.26l-7.11,1.46-2.49,2.12,5.71-1.32ZM170.25,437.31l1.05-3.26-2.83-4.37-2.47-.48,1.67,2.89c-1.47,2.86,1.45,2.4,2.41,5.42l.16-.21ZM380.03,437.44c.63-1.37.68-2.88.69-5.3,2.58,2.45,5.12,4.29,8.39,5.8l.92-1.83-6.63-3.79.96-1.15-4.49.94c-.47.1-1.57-1.16-1.36-1.59l.72-1.45c-.41-.04-1.51.24-1.64.67-.57,1.86,2.37,2.15,2.32,5.09-.02,1.35-.36,2.2-1.34,3l-.2,8.68c-.01.58.79,1.73,1.32,1.75.58.02,1.52-.34,2.17-.72l-1.2-.71.05-7.69,1.24.06c.02-.32-.04-1.33-.39-1.41l-1.53-.36ZM462.11,435.92c2.04-1.85,1.68-4.26.91-6.5-.68.73-.37,1.32-.49,2.54l-.41,3.97ZM395.27,436.7c1.8.07,4.2-1.12,5.12-2.08.37-.39-.12-1.65-.57-1.79s-1.68.1-1.6.36l.67,1.41c.32.67-2.52,1.66-2.86.82l-.7-1.76c-.22-.09-1.44.58-1.74,1.07s.76,1.93,1.69,1.96ZM460.03,436.24c1.37-1.08,1.97-2.3.98-3.76-2.11,2.64-4.42,4.01-7.54,5.4l.5,2.26,5.72-3.42c.05-.03.24-.34.34-.49ZM328.76,442.3c2.25-1.9,4.33-2.63,6.59-2.95l-1.1,2.16c2.11-1.13,3.93-1.74,6.01-1.17-1.63,1.47-2.52,2.08-3.84,3.84l6.16-2.42c1.49-.59,3.13-.76,4.87-1-3.53-1.57-6.8-1.57-10.68-1.68,2.27-2.67,4.71-4.18,7.79-5.68-5.56-.3-9.83,1.93-14.51,5.31l.51-4.96c-1.54,1.01-2.9,2.57-3.68,4.26-.91-1.71-2.02-3.4-3.86-4.3l1.08,5.09c-2.79-.41-4.21-.39-5.95.18l5.07,1.91c.7-.64,2.76-1.88,3.53-1.42l2.02,2.83ZM307.05,437.92l2.41-3.78c-3.2.98-5.54,3.28-5.38,7.19l2.97-3.41ZM168.23,442.52l2.55,1.67-.19.93-4.11.22c2.4,1.42,4.88,2.11,7.92,2.05l-2.9-3.04-3.75-8.56c-.23-.31-1.21-.36-1-.05,1.86,1.73,1.24,6,.44,6.2s-1.6-.95-1.45-1.47l.71-2.44c-2.26.92-3.36,1.1-5.88,0l1.92,2.39c1.37,2.05,3.32,3.21,5.87,3.28l-.13-1.17ZM308.53,440.4l4.65-3.79-4.85,1.29.2,2.49ZM460.32,436.72l-.45.15-.31,7.2,2.59-2.52c-.22-1.98-.68-3.57-1.83-4.82ZM393.24,440.96l-1.39-3.36c-.88.22-1.66,1.67-1.37,2.81.21.83,1.9,1.23,2.76.55ZM409.89,443.72l9.46.83.83-2.17c-9.27-.64-17.55-2.1-26-4.6l-.13,2.13,10.58,2.73c2.01-1.38,3.83-.6,5.26,1.08ZM243.92,444.32c2.47.64,5-1.42,5.66-3.7.15-.53-.68-1.73-1.21-1.7l-1.86.11c1.03.3,2.2.7,2.3,1.33.34,2.06-2.98,2.08-4.89,3.96ZM449.79,441.34l-.1-2c-8.26,2.23-16.66,3.3-25.3,3.13l.16,2.22c8.41.18,16.9-.9,24.95-3.09l.28-.26ZM449.69,441.9l1.22,1.59c.01,1.04-.05,2.13.2,3.42l.79-3.82c.65-.43,1.24-1.87.96-2.54l-.42-1c-.11-.25-.98-.39-1.05-.12l-.34,1.25-.3,1.12c-.06.21-.61-.01-.74-.08l-.33.19ZM289.88,444.93c-1.77-.76-3.89-1.23-5.84-1.06l-5.16.43,2.05-1.54-10.44,1.68,5.06.39c1.89.21,4.51,1.67,6.52,1.11,2.65-.74,4.81-.89,7.8-1.02ZM423.68,445.03c0-.87-.71-1.58-1.58-1.58s-1.58.71-1.58,1.58.71,1.58,1.58,1.58,1.58-.71,1.58-1.58ZM392.22,456.32l.46-9.44,1.45.95c-.06-.93-.69-1.92-1.36-2.07-.81-.19-2.05-.1-2.82.34l-.19,9.82c-.01.72,1.75,1.69,2.36,1.51s1.37-1.16,1.58-1.96l-1.48.85ZM452.25,452.35c-.18,1.84-.5,3.17.48,4.63l.18-9.55c-1.02-.66-3.39-.21-3.54.7l-.22,7.07,3.1-2.85ZM319.92,472.74c.41-.37.99-1.75.77-2.38l-1.3-3.6,3.57,1.8c1.11-1.44,2.26-2.55,4.15-4.1l-9.05-2.48c3.8-2.99,8.12-4.96,13.21-5.49-3.47-.92-6.96-1.29-10.78-1.06l-4.49.98-4.16.05-2.72.15c2.38-3.2,5.24-5.27,8.75-6.98-5.68-.67-9.6,2.04-14.6,3.09l3.46-5.06c-3.16.81-5.58,2.52-7.73,5.19-1.99-3.2-5-5.12-8.76-5.28,2.01,1.7,3.49,3.05,4.57,4.98-3.73-.7-6.56-.98-9.69-.21l5.78,2.32c2.83,1.14,5.35,2.86,7.46,5.13-3.93-.22-7.1-.07-10.72.65l-5.14,1.02c4.8.9,9.39,1.91,12.72,5.32l-4.65,1.22,6.49,1.56-.12-1.4,5.71,3.41c-1.34-3.15-2.98-5.62-5.75-7.66,3.77.44,7.35,2.07,10.45,4.57l4.54,3.67c-.51-3.36-1.97-5.91-3.91-8.84,2.63.96,5.6,1.83,7.34,3.91l4.59,5.51ZM379.19,452.78l1.52-.19-.61-3.54-1.83,3.5c-.91,1.75-.36,4.74.64,6.65,1.19-2.13-.97-6.28.27-6.43ZM130.57,452.79c-.66-1.45-1.16-2.29-1.6-2.44l-2.63,1.44,4.23,1ZM423.6,460.15l.38-8.92-4.02-.16-.35,10.86c-.02.76,2.12,1.34,2.76,1.01.78-.4,1.18-1.54,1.23-2.8ZM197.18,457.51c-.36-.68-.7-1.26-.83-1.37l-7.7,1.49c-.9-2.31-.98-4.28-2.87-6.08l2.3,7.12,2.1.28,7.01-1.44ZM256.29,468.61l3.58-1.32-3.53,6.04c4.18-2.5,7.53-4.64,12.18-4.68-1.84,1.64-3.18,3.35-4.33,5.41l3.6-1.08c3.23-2.1,6.51-3.84,10.41-4.65-5.53-1.99-10.76-1.02-16.04.74,2.55-4.74,6.48-7.28,10.4-10.11-4.49.06-8.2,1.29-12.35,2.8,1.89-4.06,4.73-7.09,8.53-9.45-4.16.17-8.59,1.55-11.98,4.5-.17,1.23-.69,2.35-1.58,3.09l-.56-2.03-4.58,5.37.72,1.29-2.27,5.23,6.21-5.31,1.39-3.61-.28,3.34,5-1.67c-2.13,2.24-3.54,3.79-4.52,6.11ZM389.23,461.91l-6.86-5.13-1.88-2.79-.67,2.86c2.4,2.84,5.34,5.35,8.71,6.98l.71-1.93ZM146.52,492.54c-1.72-4.4-6.05-5.44-8.18-9.23.39-4.66-3.62-7.59-7.04-10.94l4.88.48v-.93s.7.28.82.32l6.11,2.22-.99-1.66,8.52,2.28,4.23.96-3.49-2.78c-2.74-2.18-10.61-3.09-14.54-7.16-1.66-1.71-2.96-3.41-5.36-4.23l1.33,2.41-4.28-3.24c-2.03-1-4.23-1.61-6.54-2.14,3.21,2.03,5.94,4.44,8.22,7.47l-10.62-1.49c-3.05-.43-6.02-2.55-8.27-4.48-2.13-1.83-4.54-2.6-7.09-3.49l2.37-.35c-3.37-1.94-7.13-2.5-10.81-1.95l1.43,1.06-2.81.24h-5.87s3.31,3.04,3.31,3.04l7.36.24c2.64.59,3.87,3.39,6.69,4.19l-3.34-3.99c2.3.57,5.7,1.24,7.61,2.99,2.77,2.53,5.64,5.3,9.65,4.42l5.08,3.21c-3.3-.28-5.49.91-8.46,1.52l-6.28,1.28-1,.22c-.18.04.07.61.24.68s.68.24.91.26l5.5.51,6.84.48-1.93-1.38c4.09.65,7.36,2.5,10.81,4.57-.44.33-.99.64-.81.85l.79.91,4.05,5.69,1.39,6.18,3.76,2.03-.79-4.74,6.57,3.45ZM244.13,461.57l.54,3.61.69,4.65c3.2-4.74,1.31-10.76-1.42-15.65l-3.32,9.72-1.78-1.34,2.26,5.35c.85-2.56,1.56-4.15,3.03-6.34ZM236.85,461.89l1.85-.06c-2.3-2.79-4.69-4.36-7.9-5.25l5.69,9.29.36-3.98ZM217.49,484.04l8.93,2.91,6.74,1.3-.94-1.42c4.72.94,9.76,3.53,12.88,6.26l-2.31-.62c1.54,2.06,3.37,3.59,5.8,4.49,6.59,2.46,6.59,7.33,8.79,9.34l3.82,3.5-2.79-6.66c-.67-1.61-1.46-3.06-2.52-4.52l3.64.27c4.51-2.53,8.31,2.51,14.14,3.25l-1.81-1.81,7.61.47c-2.77-1.89-5.84-2.72-9.28-2.81l-5.85-2.76,3.71-.74c-4.33-1.21-8.33-1.46-13.02-.99-2.31.23-5.29-1.79-7.18-3.29l-6.54-5.19,2.97.7c-5.19-3.87-11.38-5.23-17.76-4.29-3.3-1.15-7.46-2.58-9.33-5.12-1.02-1.59-2.61-3.02-4.67-3.94l-5.67-2.53c3.36-1.95,5.89-2.64,9.46-2.99l-1.99-.6c3.45-1.79,5.59.78,8.5.76-.37-.48-.95-1.11-.74-1.16s1.13-.25,1.39-.19l6.62,1.37c-4.13-3.84-9.62-3.74-15.37-4.26l3.28-1.51c-4.33-.39-8.31.26-12.41,2.15l5.42.64-10.15,3.18,4.19,2.12c-3.16.44-6.13-1.49-9.04-.49l4.93,2.11-4.71.57-8.68,1.09,10.53,2.73,7.56,2.2c2.06.6,3.98,2.3,5.7,3.51l-1.95-.12c2.72,2.06,4.72,4.46,5.57,7.94l-1.83-1.86,2.49,8.59c1.01.21,1.5.95,2.11,1.83,2.36,3.36,3.62,6.37,3.24,10.65.51,1.78,2.01,4.3,3.04,5.88l-.6-9.25,7,3.95c.47-.32,1.66-.45,1.98-.12l4.45,4.57.57-.42c.14-.1.65.4.78.61l5.04,7.76-.26-3.09,7.54,5.79-4.34-5.24c-1.3-1.57-2.49-2.76-3.55-4.61l2.59.74,4.31,1.72c-2.31-3.14-5.54-5.02-9.44-6.13l-3.66-1.88c-.11-.06-.5-.54-.49-.56s.32-.28.68-.6c-3.14-3.87-8.03-3.53-9.53-4.76-7.05-5.72-6.23-9.72-6.52-10.47l-3.07-7.95ZM388.76,467.25l-7.76-6.02c1.84,2.85,4.62,5.35,7.76,6.02ZM391.18,463.53l1.51-.78-1.9-.32c-1.03-.17-1.9,3.07-.43,6.49,3.01-1.82-.64-4.63.83-5.39ZM418.5,471.44l1-2.64c-9.07-.05-17.46-1.91-25.96-5.03-.41.58-.73,1.78-.56,2.45,8.34,2.92,16.84,4.55,25.52,5.22ZM188.5,495.69l3.95,2.3c-.4-1.03-.18-1.32.42-.86,3.83,2.44,6.23,5.59,7.32,9.62l.77-1.53.96,6.44c.48,3.2,3.09,5.86,5.31,8.2l-1.14-5.85,3.82,2.81c2.34,1.11,3.89,2.25,5.88,4.19-1.77-3.95-4.34-6.7-7.75-8.97-2.68-1.78-3.14-5.54-4.07-8.3l-1.09-3.27c-1.43-4.27-8.65-7.86-9.06-7.51l-.74.61-4.75-4.49c-1.14-2.21-2.32-4.08-4.36-5.54l-6.27-4.46,6.74-.18,6.44.3c-2.55-1.58-5.43-3.57-8.62-3.66l-5.67-.17c-4.71-.14-7.96-5.38-12.68-8.19l-.23,1.23c-3.25-1.93-6.31-3.41-9.98-3.68,2.21,1.38,4.74,2.43,6.27,4.43l1.39,1.82-5-.84-7.23-.75,9.62,4.68c2.09,1.02,5.14,1.64,6.36,3.72.74,1.25,1.18,1.96,2.32,2.68l1.85,1.17c1.39.88,1.78,3.44,2.14,5.07l.77,3.51.66-1.45c.77,4.61-2.19,6.75-.89,11.64l1.56,5.88.74-2.69c1.52,3.19,3.38,4.96,5.83,7.04,1.04.88,1.83,1.74,3.12,2.47-1.44-2.64-2.88-4.29-4.85-6.15-1.31-1.23-1.61-2.98-2.01-4.73l-.71-3.12c1.13-2.72,1.53-6.15,1.01-8.98l-.82-4.45c2.15,1.1,4.98,2.22,6.76,4.13,1.86,2.01,3.42,4.41,5.9,5.86ZM328.02,471.36c1.37-.36,2.84-.1,4.17-.26l3.75-.46,6.14,1.26-5.28-3.46c-1.61-1.06-9.64-1.73-10.36,1.66-.21.98.84,2.8,1.38,3.24l1.73-.74-1.51-1.26ZM300.01,519.49l-3.45,3.26,7.79-2.43c1.24-.39,3.87.29,5.03.67-1.95,1.21-3.25,1.96-4.99,3.65l5.03-.21,6.24-.99c-.72-.88-1.72-1.72-2.74-2.08l-5.99-2.12c2.53-1.63,5.32-2.96,8.21-2.68,1.24.12,1.85-.13,2.82-.7l4.37-.52-7.3-1.95,4.4-1.13c-2.94-2.2-6-3.51-9.79-4.66,7.22-2.98,14.37-1.52,21.74.62l-3.77-4.7-4.14-2.99c5.16-.41,9.5,1.34,13.83,3.53.69.15,2.09.46,2.62.87l4.71,3.52c-.27-1.56-.91-3.34-1.84-4.32l-.81-.85c-.15-.16.28-.5.72-.91l-4.38-7.33c6.45,1.53,11.08,5.63,15.02,10.98l.21-5.21,7.57,6.4c-1.78-7.03-5.38-12.79-10.38-17.85,4.86.69,8.86,2.89,12.93,5.31,1.25.74,2.28,1.46,3.18,2.6l2.73,3.44c-.22-6.87-2.2-12.49-4.72-18.83,4.93,2.84,8.46,6.85,10.46,12.1,2.17-5.23,5.45-9.5,10.96-11.53-2.94,5.24-4.38,10.37-4.53,16.3l2.9-4.22,2.48-2.31c2.54-2.57,4.75-4.5,8.23-6.64l-6.87-.82,4.12-1.85-9.97-2.94,5.57-.86c-2.86-1.19-5.77-1.14-8.84-2.06l-5.56-1.67,5.2-1.9c-1.13-.39-2.56-.78-3.09-1.28-.94-1.62-2.22-3.55-4.36-4.24.95,1.7,1.94,2.82,3.3,4.39-2.15-.42-3.61-1.47-5.33-2.69-2.62-1.87-6.14-2.32-9.58-2.17l4.17,2.38c-.44.31-.88.6-.7.71l.73.43c2.04,1.22,3.44,2.82,4.95,5.05l-6.33-1.58c-.52-.13-1.58.07-2.11.2l-6.8-.67-3.71-.13,6.53,2.83-2.51.43c2,1.49,3.49,3.03,4.92,4.98l-8.85-1.52,1.05,1.34-4.17-1c-4.12-.99-8.17-1.26-12.37-.47l6.76,3.55-1.37.5c1.66.9,3.21,2.09,4.54,3.66l-6.78-.53-6.45.12-3.1-.26,2.56,2.24c-2.87-.41-6.01-.79-7.98-2.48l-5.1-4.37,1.41,3.94c-4.07-.77-6.11-3.74-9.62-4.83,1.57,1.93,3.09,3.3,3.05,5.53,3.41.93,4.7,3.85,8.48,5.88l-4.95.5-4.6.46.72.49c.1.07-.54.57-.66.54l-8.93-2.02-7.05-.48,5.23,3,4.25,3.26c-1.8.16-4.02.7-5.5.5l-9.03-1.21-4.26-.13,5.61,2.67c-.52.37-.93.63-.75.72l.72.39,4.27,2.34-7.95,1.62c-2.16.44-4.39.76-6.49,1.89l-3.85,2.06,11.59.37c-1.92,1.21-2.9,1.68-4.55,3.26l7.52-1.43c4.4-.84,8.72.03,13.17,1.58-4.43,1.14-7.81,3.11-10.6,6.17l4.9-.48ZM431.85,470.71l2.83-2.4-11.55,1.01.5,2.22c2.61-.05,5.41-.16,8.22-.83ZM419.84,475.52c-.39-1.27-1.15-1.38-2.12-1.39-9.07-.15-17.34-2.4-26.03-5.5,2.04,1.99,4.85,2.65,7.52,3.47,6.78,2.09,13.57,3.05,20.63,3.42ZM421.98,470.86c-.17-.29-1.3-.31-1.5-.05-.6.79-.54,3.2.81,3.81,1.08-.94,1.41-2.52.69-3.76ZM278.21,476.89l-4.52-2.6-3.33.56c2.57,1.04,4.97,1.69,7.85,2.04ZM282.03,482.87c3.18-.59,6.21-.25,9.12,1.04,3.45.14,6.45.9,10.11,2.23-3.5-3.93-8.19-5.82-13.49-7l4.74-.81c-4.29-1.59-8.9-2.2-13.68-.6l3.46,1.51c-4.15.67-7.74,1.58-11.42,3.42l7.33.75,3.82-.52ZM398.18,492.82l3.69-1.86c-.13-1.01.16-2.23.82-2.75l4.29-3.39c-4.34.18-6.38,3.09-10.12,2.65-1.53,1.89-2.77,4.02-3.73,6.44,2.24-1.91,4.19-3.43,6.74-4.22l-1.69,3.12ZM201.08,489.37c-1.47-2.51-3.78-3.85-6.45-4.27.91,1.13,2.12,2.43,2.92,2.98l3.53,1.3ZM157.75,495.33l.88,4.13-5.08-6.51c-.69-.88-2.62-1.71-3.96-2.3l4.37,6.5,2.75,5.16,6.92,3.16c-1.03-4.11-2.96-7.18-5.89-10.14ZM279.87,523.5l-.51,1.94c-1.52-3.37-3.92-5.87-7.05-8.11l2.43,6.33c-4.23-3.02-7.54-6.09-12.44-8.08l7.94,8.41-3.71-.84,4.48,4.54,11.02-.2-2.17-3.99Z" fill="#222616"/><path d="M446.65,393.32l-3.06-.89.84-5.24,5.32-28.55,4.49-24.5,2.78-14.61,1.74-.2-1.31-.74c-.25-.14-.09-.95,0-1.39l7.15-39.22,1.85.14-1.19,7.4-1.44-.45c-.25-.08-.23.9.02.9l1.42.02-1.41,6.96-.25,1.99-8.04,46.68-2.31-.22,2.16.78-2.05,12.48-1.95.57,1.39.64c.43.2-.2,3.54-.63,3.53l-2.07-.04c-.08.56.85,1.09,2.28,1.05l-4.27,24.18c-.08.43-.1,1.42-.43,1.51l-1.36.39c.39.29,1.16.7,1.13,1.04l-.14,1.56-.66,4.22Z" fill="#222616"/><polygon points="451.06 394.5 447.54 393.28 448.66 387.38 451.56 388.27 451.06 394.5" fill="#222616"/><path d="M175.4,412.25c-5.5-.8-9.32-5.48-10.45-10.89-.93-4.43.91-10.08,5.24-12.2l5.21,23.09Z" fill="#222616"/><path d="M299.12,324.15l.64-1.28c.07-.15.12-.24-.03-.27l-1.54-.33c1.08-.5,2.38-.9,4.29-1.52-27.59-5.04-55.47-3.74-83.61.67l-1.69-5.31,5.11-1.3-.08-1.63c-.02-.38,1.04-.8,1.33-.95-.38-1.23-.36-2.64.51-3.43,1.07-.97,2.49-1.08,3.99-.7.64.16,2.3-.46,2.64.11l1.47,2.47,1.07-1.66c.21-.33,1.22-.09,1.85-.03-1.21-1.53-1.74-2.91-1.15-4.74.53-1.66,1.64-2.07,3.28-2.3.73-1.02,1.66-2.43,3.36-2.42,1.39,0,2.47,1.07,3.31,2.32.89-.31,2.49-.33,2.9.6.39.87.39,1.99.33,3.29l2.05-1.42c.51-.35,2.13.34,2.79.55-.71-1.9-.75-3.4-.1-4.92.86-2,2.47-1.47,3.88-2.13,1.27-.59,2.2-1.94,3.92-1.79,1.6.14,2.81,1.08,3.49,2.75.72-.16,2.21-.3,2.74.12,1.05.82,2.26,4.1,1.98,5-.21.66-1.06,1.51-1.75,2.2.73-.1,1.99-.38,2.53-.18.62.23,1.32,1.27,2,2.15.33-.95.61-2.07,1.06-2.54s4.71-1.09,6.18.01c.64.48.93,1.95.93,2.85l1.34.84c.36.22.04,1.38-.11,1.84l2.33.81c.58-1.39,2-2.39,3.79-2.35s2.77.93,3.51,2.4l2.42,1.67c4.02.3,8.32,1.6,12.4,1.51l11.03-2.71-3.16-.8,13.75-2.04-3.05-1.2,6.8-.55,4.71-.45-2.03-.67.03-.5,5.89.09-23.21-5.72c-22.76-5.61-44.98-11.63-67.39-18.55l-27.72-8.03c-13.79-3.99-27.84-5.3-42.41-4.89l-1.36-7.69,20.46-3.18c11.7-1.82,22.98-3.3,34.5-6.11,16.69-4.08,25.99-4.25,42.8.87l24.07,7.33,20.39-4.73c8.18-1.83,16.1-1.66,24.28.66,11.77-2.2,22.87-5.44,34.34-8.91,9.48-2.99,19-3.51,28.7-1.26l15.88,4.58,12.8,3.71,27.23,6.38-2.07,9.94c-10.32,1.43-20.22,3.4-30.49,5.96-22.18,5.54-44.16,10.04-66.75,13.39l-7.6,1.13-4.54.7-9.65,1.88c-2.1.41-3.98,1.44-5.51,2.56,1.84,1.8,3.55,2.39,5.82,3.03l4.75,1.33,15.61,4.1c.8.21,2.48,1.51,2.66,2.34.18.87-1.65,2.29-2.56,2.49l-10.9,2.4-7.48,1.42-8.13,1.7-7.18,2.17c-1.72.52-3.18,1.11-4.72,1.96-2.45,1.36-4.64,2.47-5.29,5.69-.28,1.41,5.8,8.03,9.6,7.82,1.93,1.8,4.79,2.62,7.33,3.72l7.42,3.2,6.89,2.91,5.92,2.94,7.96,4.99c1.34.84,2.32,2.27,3.18,3.59,3.37,2.92,3.46,8.39-.2,12.14-.19.7-.72,1.53-1.45,2.01-3.96,2.62-7.47,4.73-11.94,6.68l1.68-6.25,1.13-3.9c.75-2.58.12-6.12-2.69-7.59l-11.09-5.83c-.87-.46-3.14.36-4.07.62-.37-1.06-.68-2.27-1.21-2.74s-2.27-.36-3.06-.14l-1.13-3.46c-3.85-3.14-6.55-1.14-7.45-4.16l-5.12-2.02c-.54-.21-.92-.61-1.13-1.26l-6.13-2.16-6.24-2.2c-.98-.35-1.44-.89-1.61-2.12-.66-.55-.98-.2-.46.94-2.65-.88-5.8-2.46-7.57-5.28-.78-1.24,1.47-3.77,2.74-3.24ZM414.22,273.86l11.22-3.36,22.27-5.39-24.48-5.21-11.66-2.63-15.47-2.8c-6.35-.6-12.38.41-18.55,2.08l-16.14,4.38,30.2,8.73,15.83,4.34c2.14.59,4.44.43,6.78-.14ZM303.92,285.9c1.15-.25,2.99-.54,3.84-.01.66.42,1.22,1.68,1.72,2.55.44-1.09.82-2.22,1.3-2.56s1.74-.09,2.39-.05c.9-.71,2.22-1.39,3.41-1.12.83.19,1.75,1.55,2.32,2.23.76.26,2.38.61,2.59,1.47.26,1.09-.11,2.26-.51,3.27.41.05,1.97.27,2.11.72l.6,1.98,1.02-2.14c2.16-1.34,4.95-1.93,7.55-2.58l5.46-1.35,5.82-1.14c3.4-.67,6-2.07,9.57-2.03,1.71.02,3.7-.43,5.44-.89l-42.76-11.81-27.82-6.58-24.53-5.2c-4.86-1.03-9.78-1.23-14.73-.91-6.54.43-12.67,2.04-19.12,3.06l-15.7,2.47c11.04,2.55,21.26,5.82,31.77,9.46,4.97,1.72,9.94,3.58,15.06,4.4,2.13-.78,4.18-1.9,6.52-.09.86.67,2.78,1.23,2.15,2.76,1.39-.16,2.35-.11,3.35.08-.05-.52-.29-1.63.09-1.89l1.5-1.07c.72-.51,1.66-1.98,2.5-2.22,3.24-.9,4.15,1.76,4.59,1.58l1.18-.49c.85-.35,2.57.77,2.96,1.6.53,1.11.43,2.43.23,4.09,1.14-1.88,3.15-1.67,4.77-.99-.78-1.6-.82-3.19-.01-4.45.99-1.56,2.44-1.28,4.06-1.74,1.49-.42,2.66-1.6,4.53-.87,1.28.5,2.17,1.82,2.46,3.31.42-.09,1.66-.34,2.04-.25,1.12.28,2.39,2.41,2.29,3.69-.11,1.43-.96,2.59-2,3.71ZM376.67,280.98c1.15-1.58,2.61-2.55,4.25-2.49,1.38.05,2.94.86,4.16,1.95l13.87-2.87-12.31-3.43-36.62-9.16-12.86-1.97c-4.75-.73-9.63-.63-14.38.28l-9.55,1.83,51.3,15.05c.16-.88.24-2.08.7-2.23l2.32-.73c1.33-1.04,3.49-1.14,4.84,0,.39.33,1.61.38,1.76.78l.52,1.4,1.99,1.59Z" fill="#222616"/><path d="M395.4,342.35l-8.35-3.01-16.09-5.31-13.15-4.65c-2.16-.76-4.61-2.65-5-4.55-.7-3.37,5.95-5.42,10.45-6.8l6.04-1.86,6.6-2.34c2.89-1.02,6.56-3.06,7.06-4.97.62-2.36-4.27-5-7.07-5.65l-18.1-4.18-9.87-2.59c5.76-1.5,11.11-1.34,16.73-.63l12.7,1.62,5.05,1.08,5.62.9-2.11.57,10.84,3.37c-1.22-2.41,2.23-5.09,4.61-5.02.78.02,1.84.91,2.63,1.35.72-.08,1.83-.09,2.01.34l.98,2.31,1.15-2.15c.26-.48,1.76-.42,2.53-.48-1.74-1.26-2.05-2.94-1-4.86.36-.65.98-1.59,1.47-1.96.55-.43,2.22-.21,2.77,0,.4-1.36,1.41-2.44,2.64-2.55,1.66-.15,2.76.39,3.6,1.85.8-.22,2.36-.31,2.82.27.69.87.76,2.05.61,3.63l1.38-1.04c.4-.3,1.66.28,1.89.47l2.36-1.31c-1.43-2.1-.91-5.25.97-6.73.73-.57,2.06-.5,3.22-.17.31-1.75,1.53-3.04,3.42-3.2,2.56-.21,4.46,1.09,4.97,3.75,1.13-.74,2.58-.98,3.84-.25.8.47,1.25,1.82,1.69,3.16.23.71,1.31,2.13.89,2.7l-1.92,2.58,1.54,1.31c.53-.8,1.85-1.61,2.89-1.47.79.11,1.51,1.52,1.55,2.39l1.52.98-2.08,10.25c-13.46-1.54-26.76-.88-40.15,1.5-8.27,1.47-16.26,2.93-23.74,6.71l-3.78,1.91c-2.34,1.18-4.69,2.11-5.71,4.85,0,.69.94.92.97.17l.5-.99c.08-.16.73-.55.73-.37l.07,1.56c.02.54.35,1.79.74,2.14.45.41,1.52.27,2.61-.02l1.69,2.18,1.54-.63c.42-.17,1.32.68,1.84,1.1.34-1.27.83-3.13,1.71-3.98,1.44-1.4,3.11-.99,4.21.16.94-.62,2.2-1.18,3.09-.87,1.11.38,1.69,1.43,2.22,2.72.27.66,1.5,1.59,1.48,2.28-.03.83-.7,2.17-1.33,3.29,1.89-.74,3.83-.39,5.03,1.5l.43-3.06c.1-.69,1.54-.8,2.25-.87.83-1.08,1.84-2.07,3.1-2.08,1.37-.01,2.28,1.11,2.91,2.27.7-.02,2.4-.09,2.86.36,1.6,1.57,2.09,5.1-.4,6.65l3.22.5c.46,1.48,1.28,2.1,2.67,2.52l1.83,12.26c.61,4.08.09,8.12-1.75,11.95-1.04-9.53-7.74-14.2-15.88-18.3l-11.27-4.57Z" fill="#222616"/><path d="M365.92,431.01l-3.07,1.47,2.73-6.29,2.97-.95-.31,1.76c.75-.49,1.08-1.36.94-2.19-.15-.88-1-1.1-2.62-1.11l4.21-8.99,1.61-.63c.45-.18-.05-1.58-.52-2.03l1.49-3.1c.16-.33,1.67-.69,1.78-.33l.53,1.74.95-1.66c.53-.92-2.72-1.4-2.67-1.7.05-.28.27-1.04.38-1.31l2.41-6.01,11.08-25.44,1.13-3.85,4.55-10.1,3.36-7.39c.39-.86.84-2.05,1.45-2.4.82-.47,2.37-.28,3.39.05,1.53.5,3.64,2.09,2.89,3.86l-4,9.46-3.89,9.94-1.53,1.56-13.4,30.24-10.28,22.75-11.35,25.65-1.17,3.38c-1.73-1.57-3.41-2.58-5.69-2.95l5.53-12.41c1.11-.9,3.49.55,4.31,1.73.23.04,1.1,0,1.03-.17l-.32-.78c-.78-1.92-1.81-2.88-4.52-2.57l3.44-7.42,2.05,2.13c1.4-.29,2.47-1.93,1.1-3.94ZM394.85,368.67c1.53-1.66,2.66-4.34,1.36-5.8-2.43-.42-4.64,4.86-3.39,6.09.36.36,1.61.17,2.04-.29ZM395.51,373.4c-1.08-2.62-3.97-3.29-6.08-2.26l6.08,2.26ZM387.43,386.93c0-.86-.7-1.56-1.56-1.56s-1.56.7-1.56,1.56.7,1.56,1.56,1.56,1.56-.7,1.56-1.56ZM381.37,396.93c.86.09,1.91-.98,2.01-1.57.09-.5-.48-1.8-.99-1.79-.57.01-1.43.67-1.73,1.11s.09,2.17.71,2.24ZM379.75,403.7c.25-.41-.15-1.89-.61-1.93s-1.49.42-1.78.81c-.27.37-.32,1.58-.13,2,.15.33,1.02.61,1.34.45s.81-.71,1.18-1.33ZM373.74,417.81c.56-.98-.11-2.34-.93-2.48-.57-.1-1.53.64-1.91,1.4-.34.66.11,2.1.76,2.37.56.24,1.53-.32,2.08-1.29Z" fill="#222616"/><path d="M329,384.32l-10.16,36.81c-.17.6-.76,1.32-1.14,1.13-.51-.25-.92-1.05-.8-1.64l8.42-42.4,5.2-26.71.89,1.25,3.68-1.95c1.14,3.73-2.3,5.1-1.53,7.85l1.21-2.82c.29-.67,2.05-1.01,2.57-1.06l-8.34,29.55Z" fill="#222616"/><path d="M304.92,415.87c.35,2.48.55,4.4.09,6.67l-10.54-50.76-7.09-35.11,1.62,1.83,4.79-3.41,1.69,12.9,4.16,30.67,5.27,37.21Z" fill="#222616"/><path d="M306.91,411.63c.27,3.64.97,7.2-.07,10.82l-6.95-48.94-3.42-24.65-1.47-10.7,1.4,1.65c.32.38,1.39-.44,1.82-.72l3.19-2.09.61,9.81.43,6.34,3.09,40.07,1.38,18.41Z" fill="#222616"/><path d="M312.09,413.5c-.18,2.83.76,5.89-1.46,8.42l-.39-17.39-.3-42.71-.1-19.86,1.21,2.27,5.37-2.62-.5,9.48-.3,5.38-3.13,50.72-.39,6.31Z" fill="#222616"/><path d="M307.59,408.25l-3.84-50.11-.51-6.19-.44-5.76-.41-5.93,1.5,1.87,4.73-2.93c.5.68.36,1.66.37,2.61l.22,35.55.18,36.54c.01,2.91.56,5.45-.47,8.31-.77-3.55-.8-6.68-1.05-10.04l-.28-3.93Z" fill="#222616"/><path d="M313.91,420.36c-.07.55-.5,1.38-.76,1.27s-.6-.7-.58-1.04l.54-9.33,3.39-53.45.3-6.73.29-6.28,1.32,2.23c1.9-1.11,2.82-1.75,5.05-2.38l-4.77,38.08-4.78,37.64Z" fill="#222616"/><path d="M314.65,421.15l4.03-30.87,5.23-41.72s.63-.11.68.05l.35,1.08,5.37-2-14.22,73.26-.49.84c-.11.19-.5-.18-.94-.63Z" fill="#222616"/><path d="M222.68,396.68c1.38,4.56,1.02,10.93-2.74,11.46-2,.28-3.72-.61-4.33-2.77-.16-.57.54-2.01,1.15-2.16.57-.14,1.59.34,2.14.99.37.44,0,1.28-.39,1.96l1.04.62c.77.46,2.37-2.77.91-7.81-1.45-5-2.31-11.03,1.56-12.56.86-.34,2.57.29,3.06,1.22.17.33.12,1.48-.1,1.78s-.99.52-1.33.39c-.97-.37-.81-3.09-1.41-2.23-1.7,2.4-.58,5.7.45,9.11Z" fill="#222616"/><path d="M472.38,205.96c-2.78-.83-2.23,2.64-4.9,1.98-2.34-.58-1.88-5.35-1.92-5.31l1.77-1.69c.74-.7,1.89-1.36,2.72-1.33,2.46.1.72,3.53,2.44,4.76l1.01.73c.27.19-.79.95-1.13.85Z" fill="#222616"/><path d="M464.36,226.31c-.75,1.7-2.9-.28-3.45,1.14s-1.88,2.07-2.92,1.56c-1.39-.67-1.33-1.74-1.41-3.23l-.11-1.94c-.03-.52,1.06-1.02,1.48-1.45,1-1.03,1.84-1.75,3.16-1.55s1.79,1.97,1.24,3.32l1.19,1.24c.53.34.96.63.83.91Z" fill="#222616"/><path d="M467.48,216.2c-2.55.37-2.71,3.6-5.17,2.11-.68-.41-.95-1.68-1.05-2.69l-.24-2.38c-.06-.59,1.27-1.18,1.76-1.55l2-1.46c.47-.35,2.16.5,2.22,1.07l.48,4.89Z" fill="#222616"/><path d="M466.63,277.34l-1.98.18,2.82-14.7,1.14-.29c.22-.06-.64-.65-1.03-.91l1.53-8c.03-.18.38-.81.54-.74l1.14.46-3.06,16.89-1.24.22c-.15.03-.14.21,0,.27l1.11.42-.98,6.22Z" fill="#222616"/><path d="M471.24,251l-.32,1.09c-.06.19-.81.09-1.43.01l1.97-11.84,1.42,1.17-1.64,9.58Z" fill="#222616"/><path d="M150.16,295.9l-2.42-8.39,1.44.97.42-1.36,2.7,8.68-.89-.63s-.11.05-1.25.73Z" fill="#222616"/><path d="M167.09,363.62l1.63.12c.57.04,1.39,3.24.89,3.39s-1.82.29-1.9.2l-2.03-7.55,1.86-.76,1.09,4.24-1.1-.38c-.19-.07-.33.3-.44.74Z" fill="#222616"/><path d="M156.58,318.17l-2.05-6.85c1.56-.01,1.63.96,2.26,2.41l-.32-2.56.32-.27,2.2,7.12-.56.07-.96-2.37.15,2.06-1.03.39Z" fill="#222616"/><path d="M358.12,459.15c-1.97,1.09-4.73-.59-6.18-2.62,2.01-1.06,4.87-.03,6.18,2.62Z" fill="#222616"/><path d="M149.17,294.81c.07.24-.02,1.36-.23,1.26l-.91-.42-1.73-6.49-.1-1.12c-.01-.16.46-.25.61-.18.22.11.6.57.68.86l1.68,6.09Z" fill="#222616"/><path d="M240.59,402.87l-2.7-6.51-.91.9c-.13.13-.16.11-.17-.06l-.11-1.18c-.05-.48-.02-1.33.22-1.61.31-.35,1.72.07,1.84.57l1.84,7.89Z" fill="#222616"/><path d="M152.71,299.22l.15,4.83-2.72-7.35c1.45,0,2.53,1.08,2.58,2.52Z" fill="#222616"/><path d="M161.69,331.71c.02.21-.39.89-.53.78s-.64-.56-.69-.73l-1.58-5.47,2.34-.53,2.15,6.74-.51.3-1.47-3.68.29,2.58Z" fill="#222616"/><path d="M163.92,339.23l.28,1.42c.04.18-.8-.03-.93-.11l-1.9-5.83-.2-1.25c-.03-.19.65-.35.81-.25s.5.54.55.73l1.39,5.29Z" fill="#222616"/><path d="M166.19,346.43l.34,1.16c.09.31-1.3.58-1.34.26l-.17-1.38-1.32-3.91-.09-1.04c-.02-.23.42-.06,1.11.1l1.47,4.81Z" fill="#222616"/><path d="M157.08,318.75c1.45.42,2.44,4.74,2.27,6.84-1.86-2.26-2.01-4.31-2.27-6.84Z" fill="#222616"/><path d="M154.92,310.57c-1.55-1.67-2.28-4.41-1.85-6.79,1.07,2.08,1.99,4,1.85,6.79Z" fill="#222616"/><polygon points="165.08 340.85 162.94 333.52 163.56 333.16 165.81 340.62 165.08 340.85" fill="#222616"/><path d="M165.36,351.74c-.36.42-1.99.13-2.13-.47-.26-1.09-.52-2.34,1.56-2.35l.57,2.81Z" fill="#222616"/><path d="M160.79,335.04l.1,1.12c.03.29-.93.25-1.61.26l-.92-3.08c1.52,0,2.34.7,2.43,1.7Z" fill="#222616"/><path d="M162.06,341.79c1.14.01,1.16,2.86.91,2.86l-1.11.02c-.28,0-.61-.68-.67-.96l-.27-1.36c-.07-.34.79-.56,1.13-.56Z" fill="#222616"/><path d="M166.79,355.79l-1.66.19c-.72.08-1.07-2.5-1.06-2.51l1.47-.48,1.25,2.8Z" fill="#222616"/><path d="M160.59,340.33l-1.22-3.1,2.48.61c.02,1.77-.15,1.93-1.26,2.49Z" fill="#222616"/><path d="M154.79,315.82l.86,1.62c.21.39-1.31.69-1.47.22-.24-.7-.55-2.34-.8-3.39.81.12,1.04.21,1.09.44.06.28.2.89.32,1.12Z" fill="#222616"/><path d="M91.08,303.89l-3.05-16.78.83-.38,1.61,7.06.46.34-1.27-7.23h1.96s.94,3.62.94,3.62l-.29-3.76,6.15-.6,1.83,7.71-6.45.66-.99-4.15.28,3.98-3.01.57,1.19,2.73.15-1.98c.03-.37,1.16-.31,1.55-.27.46.04.64.81.77,1.57l1.01,5.98c-1.84-.28-2.59-.24-3.34.54l.43.26,1.28,2.8-.03-2.63,2.1-.04,1.43,6.76-.93-6.89,6.61-.66,1.56,7.18-10.63.81,1.7,4.89-.28-3.76c.04-.29,1.92-.63,2.09-.12l.8,2.5-.23-2.78,6.69-.82,1.59,6.65-7.33.45-2.32.49-1.15.06c-.27.01-.09.75,0,.92l10.93-1.13,1.34,5.9-5.87.55-5.13.53-.16.82,11.38-.97,1.14,5.24-7.34.71-.61-2.09c-.08.87.06,2.09-.41,2.27s-1.86.02-2.14-.21l-.44-2.89-.32.29.26,3.96,11.15-1.19,1.04,4.74-10.49.92-.26-1.62-1.1,2.4-6.54-33.7-.09-.18Z" fill="#222616"/><polygon points="102.06 302.26 95.41 302.68 93.86 295.4 100.35 294.86 102.06 302.26" fill="#222616"/><path d="M169.15,420.75l-3.27-2.25,2.53-1.58c1.25-.78,2.35-1.49,3.62-.98,1.2.48,2.36,1.82,1.59,3.64-.61-.18-1.92-1.44-2.43-2.12-.36-.48-2.14-.08-2.13.52l.08,2.78Z" fill="#222616"/><circle cx="148.24" cy="271.09" r="1.63" fill="#222616"/><path d="M421.4,452.95c1.6-1.07,1.46,2.4.33,5.75-.53-1.76-.47-4.25-.33-5.75Z" fill="#222616"/></g></svg>