<?xml version="1.0" encoding="UTF-8"?><svg id="Warstwa_1" xmlns="http://www.w3.org/2000/svg" viewBox="0 0 841.89 595.28"><path d="M135.02,318.42c-8.71-9.59-16.47-19.21-24.58-29.08l-21.83-26.57-5.59-6.28-.12,33.16c-.03,9.1-.17,17.82.79,26.83.24,2.28.91,4.88,2.31,6.57,2.28,2.75,6.96,1.99,6.99,4.02,0,.42-.99,1.08-1.42,1.05l-10.55-.73c-6.01-.41-14.57,2.09-14.21-.36.07-.48.92-1.3,1.45-1.37,3.22-.41,5.94-2.27,6.47-5.56l.86-5.27c.57-8.2.77-16.05.68-24.26l-.44-38.29c-.06-5.57-15.1-12.31-26.45-4.42-3.58,2.49-5.65,6.21-6.73,10.37-.12.45-.92,1.1-1.35,1.14-.5.06-1.39-.87-1.3-1.51,2.05-14.46,16.64-22.14,30.19-20.82s21.29,10.62,29.41,20.56l34.62,42.39,7.59,8.35.25-41.91c.03-4.83-.18-9.37-.86-13.99-1.23-8.39-9.32-6.29-9.25-8.72s6.58-.6,12.68-.6,13.69-1.84,13.55.59-6.61.59-8.16,6.76c-.68,2.73-1.08,5.66-1.13,8.54l-.27,15.54.06,40.09c0,2.58.71,5.15,2.01,7.31,5.14,8.54,13.82,13.99,23.78,14.89.47.04,1.23.66,1.38,1.03.18.45-.86,1.42-1.46,1.4-16.08-.48-28.57-8.98-39.36-20.86Z" fill="#d8c6a5"/><path d="M402.14,314.13c-10.43,13.72-29.46,17.57-45.2,12.07-15.45-5.39-25.07-20.3-24.07-36.59.67-10.81,5.67-20.77,14.36-27.23,18.43-13.69,47.31-9.42,58.2,11.04,6.92,13,5.6,29.01-3.3,40.71ZM385.78,320.47c5-2.97,8.11-7.66,10.18-12.88,3.43-8.67,3.68-18.26.91-27.17-3.86-12.45-15.15-22.24-28.49-21.34-7.99.54-15.08,4.45-19.37,11.28-5.83,9.28-6.98,20.37-3.98,30.84,1.42,4.96,3.33,9.25,6.68,13.16,8.38,9.78,22.67,12.86,34.07,6.1Z" fill="#d8c6a5"/><path d="M551.62,326.67c-.44.04-1.46-.7-1.43-1.13s.73-1.27,1.16-1.3c2.74-.22,5.03-2.02,5.19-4.87l.69-12.31.06-33.13-.59-8.3c-.32-4.54-6.12-3.83-6.54-5.38-.16-.58.75-1.48,1.4-1.45l9.78.51,11.6-1.16c13.45-1.34,26.47,1.11,35.5,11.47,11.68,13.39,9.58,36.61-4.43,48.73-6.47,5.6-14.63,8.23-23.16,8.62l-14.86-.88-9.01.12-5.36.44ZM601.68,308.25c3.33-7.88,3.83-16.25,2.16-24.68-1.84-9.28-8.13-17.04-17.17-20.06-5.98-1.99-12.14-1.7-18.27-.17-.65,2.65-1.06,5.01-1.05,7.72l.14,45.26c0,1.5.75,3.3,1.55,4.33,13.63,4.59,26.92,1.1,32.64-12.42Z" fill="#d8c6a5"/><path d="M525.31,319.19l-30.71-35.24-8.09-9.35-.3,8.1.13,28.24c.02,3.35.14,6.73,1.23,9.79,1.38,3.89,6.71,2.86,6.9,4.85.05.53-1.03,1.08-1.74,1.07-6.13-.84-11.79-.93-17.82.15-.54-.19-1.31-.65-1.48-1.05-.2-.46.71-1.41,1.21-1.48,5.3-.69,5.63-5.44,5.79-11.39l.37-13.51.03-12.68-.47-18.04c-.11-4.13-3.47-6.89-7.16-7.51-.43-.07-1.16-.8-1.2-1.18-.06-.46.96-1.27,1.45-1.21,4.7.58,9.4.66,14,.22l7.98,9.74,17.97,21.15,11.85,13.76,5.16,5.63.2-13.83c.14-9.48.27-18.79-.62-28.16-.54-3.53-2.65-5.86-6.24-5.91l-1.18-.63c-.34-.18-.57-1.3-.19-1.42l1.71-.55c5.99.77,11.51.75,17.48-.04.63.17,1.5.75,1.53,1.21.11,1.81-5.92.94-6.23,6.14l-.66,11.24-.06,48.73c-.84.96-3.07,1.05-3.97.14l-6.87-6.96Z" fill="#d8c6a5"/><path d="M671.97,326.61l-4.95.04-22.77-.3c-7.63-.34-14.88-.41-22.49.26-.37-.19-.98-.59-1.04-.87-.08-.35.18-1.01.5-1.48l40.68-60.01-10.38-.45c-4.85-.21-9.68.28-14.43,1.14-4.78,1.25-8.07,4.34-9.65,9.03-.45.46-1.18,1.1-1.66,1.22-.65.16-1.4-1.01-1.26-1.69l2.3-11.37c.21-1.02.38-2.29.74-3.11l9.37-.06,16.65.12,21.33-.17c.46.2,1.12.55,1.32.84s0,1.21-.21,1.52l-15.84,22.97-24.93,36.61,23.39.33c4.3.06,8.19-1.14,11.75-3.51,3.49-3.08,5.04-8.63,7.01-7.92.38.14.72,1.14.6,1.53l-4.2,13.71c-.27.89-.72,1.61-1.8,1.62Z" fill="#d8c6a5"/><path d="M247.53,298.27c-2.02.56-.93-3.5-4.69-4.96-2.74-1.06-5.66-1.29-8.66-1.29h-11.2c-.47,8.98.58,18.85,6.84,25.22,3.69,3.75,8.81,5.36,14.04,5.38,6.93.44,12.94-2.75,16.72-8.57.48-.28,1.18-.6,1.6-.7.48-.11,1.23,1.35.92,1.85l-6.19,10.3c-10.13,2.78-18.93,3.59-28.76.05-7.82-2.82-13.2-8.92-14.8-17.11-.76-3.9-.83-7.79-1-11.86l-.21-5,.51-12.05-.34-13.32c-.08-2.96-2.25-4.8-5.13-5.07-.48-.04-1.28-.76-1.33-1.2s.89-1.27,1.33-1.24c5.07.35,9.95.66,15.01.44l12.38-.54c5.74-.25,11.19-.03,16.83.95,3.7.64,5.45-2.49,6.28.46-1.5,4.62-2.39,8.87-2.99,13.73-.05.63-.75,1.37-1.31,1.34-.78-.04-1.37-.83-1.34-1.73.38-12.69-17.45-10.63-28.29-9.42l-.74,9.39-.06,14.35,8.52-.27c6.12-.19,13.13.91,16.55-3.2.24-.29,1.14-.54,1.44-.45.39.11.66,1.1.54,1.57-1,3.87-1.61,7.92-1.68,11.89,0,.33-.5.94-.79,1.02Z" fill="#d8c6a5"/><path d="M751.13,293.42c-3.14-1.04-6.26-1.33-9.39-1.3l-8.83.1c-.09,6.46.22,12.39,2.15,18.22,2.37,7.16,8.24,11.66,15.63,12.28,7.35.61,13.97-2.54,17.67-9.04.24-.41,1.23-.83,1.69-.74s.93,1.47.71,1.88l-5.83,10.61c-8.33,2.81-17.14,3.61-25.48,1.27-8.7-2.44-14.5-9.1-15.92-17.93l-.94-14.1.2-7.81.12-15.46-.43-5.7c-.38-5.04-6.09-3.74-6.14-5.78-.01-.46,1.02-1.19,1.55-1.14,7.14.65,13.83.61,20.96.11s14.17-.45,21.35.82c2.38.42,4.03-1.58,5-.6.23.24.33,1.01.22,1.38-1.33,4.53-2.25,9.17-2.79,13.88-.05.47-1.08,1.01-1.5.87-2.14-.7.78-8.45-7.54-10.9-4.11-1.21-8.41-1.33-12.72-.96l-7.48.65-.47,11.66-.06,11.92,5.6-.1c4.85-.09,9.43.21,14.29-.63,2.68-.46,3.49-3.53,5.23-3.07.38.1.68,1.09.55,1.53-1.11,3.88-1.73,8.01-1.61,11.92.01.44-.55,1.2-.89,1.25-1.93.27-1.29-3.91-4.9-5.11Z" fill="#d8c6a5"/><path d="M756.11,353.43c6.84.31,12.71-2.11,17.44-6.61,6.75-6.42,10.44-17.47,10.54-26.62l.24-22.42v-6.22s-.23-24.98-.23-24.98c-.03-3.28-2.4-5.25-5.5-5.49-.57-.04-1.59-.74-1.67-1.24-.1-.67,1-1.42,1.84-1.45,7.31.85,14.2.85,21.47-.1.55.15,1.29.58,1.5.98.24.46-.71,1.55-1.32,1.61-3.33.28-5.62,2.89-5.62,6.44v44.74c0,7.61-.75,14.55-3.33,21.62-4.39,12.02-14.34,21.34-27.04,23.68-11.81,2.18-20.06-1.79-28.49-9.3-.29-.25-.72-1.49-.35-1.56l1.66-.32c5.47,4.33,11.72,6.87,18.87,7.23Z" fill="#d8c6a5"/><path d="M288.02,266.35c-11.14,9.77-11.71,28.98-4.31,41.93,5.63,9.85,16.2,15.42,27.43,14.1,11.45-1.35,13.85-10.36,16.16-9.46.49.19.83,1.65.54,2.11l-6.07,9.49c-11.52,4.75-24.35,4.64-35.44-.96-8.52-4.3-14.19-11.66-17.05-20.65-4.13-12.99-1.03-26.87,8.87-36.42,7.32-7.06,18.41-10.46,28.59-9.96,4.75.23,9.13,1.48,13.71,2.59,3.15.77,5.25-1.66,5.88-.68l.78,1.22c-1.92,5.02-3.1,9.76-3.56,15.16-.21.56-1.02,1.2-1.6,1.21-2.44.05.69-7.74-7.21-12.03-8.46-4.6-19.33-4.17-26.74,2.33Z" fill="#d8c6a5"/><path d="M462.71,328.01l-12.24-.88-11.67.94c-.57.05-1.57-.54-1.58-1-.08-2.05,3.77-1.4,5.35-3.09,1.45-1.55,2.29-4.02,2.36-6.2l.69-21.11-.02-4.35-.22-37.88c-.01-2.46-.65-5.04-1.93-6.97-1.8-2.72-6.59-1.7-6.49-3.76.03-.75,1.02-1.4,1.88-1.34l12.41.82,11.6-.83c.5-.04,1.54.88,1.49,1.36s-.94,1.29-1.49,1.33c-6.35.49-6.75,6.64-6.76,13.38l-.08,32.73v5.1s.53,22.88.53,22.88c.09,3.78,2.88,6.15,6.44,6.37.44.03,1.28.82,1.39,1.23.14.48-.85,1.33-1.63,1.27Z" fill="#d8c6a5"/><path d="M194.46,326.73c-8.01-.93-15.5-.98-23.36.02-.58-.24-1.31-.79-1.36-1.24-.19-1.92,5.97-.34,6.71-6.89.95-8.47.64-16.89.75-25.47l.07-5.45-.29-19.82c-.03-1.72-.71-4.02-1.87-5.17-1.96-1.94-5.49-1.2-5.58-3.1-.02-.43.97-1.23,1.44-1.17,7.82.95,15.11.78,22.92-.06.54-.06,1.64.7,1.63,1.18-.03,2.32-6.85.33-7.43,7.74-.74,9.49-.16,18.83-.32,28.36-.12,7.27-.11,14.19.38,21.43.12,1.73.71,3.87,1.77,5.18,1.84,2.25,5.92,1.34,5.9,3.25,0,.43-.73,1-1.36,1.23Z" fill="#d8c6a5"/><path d="M707.07,326.7c-7.14-.92-13.84-1.05-20.91.07-.54-.21-1.26-.64-1.47-1.01-.24-.43.65-1.5,1.16-1.54,3.05-.25,4.97-2.41,5.05-5.51l.61-25.95-.04-16.3-.61-10.48c-.3-5.1-6.13-4.18-6.2-6.02-.02-.5.95-1.15,1.57-1.23,6.94.82,13.51.8,20.49-.06.51.09,1.34.6,1.46,1.01.54,1.91-4.84,1.22-5.87,4.28-.96,2.85-1.13,5.97-1.13,9.02l.03,20.56.54,25.36c.07,3.21,2.48,5.21,5.54,5.35.51.02,1.41.87,1.35,1.32s-.92.97-1.59,1.14Z" fill="#d8c6a5"/><path d="M358.91,298c-.56.16-1.26,1.45-1.21,1.99.06.67.98,1.2,2.16,1.59-.02.77-1.23,1.54-2.23,1.54-.9,0-2.19-.65-2.83-1.56-.89-1.25-.79-3.06-.1-4.65.47-1.08,1.85-2.25,3.48-2.66,2.44-.62,5.11.31,6.69,2.33,2.68,3.41,2.18,8.54-1.16,11.3-3.12,2.58-7.09,2.83-10.6,1.16-3.32-1.58-5.5-4.86-5.71-8.96-.21-4.34,1.8-8.41,4.98-10.76,3.75-2.77,8.24-2.94,12.56-1.31,4.58,1.73,9.76,1.1,13.01-2.43s4.36-8.63,1.98-12.93c-2.58-4.66-8.43-6.18-12.66-3.06-3.36,2.48-4.23,7.03-1.62,10.33.93,1.18,2.66,1.78,4.04,1.84,2.86.12,5.22-2.55,4.67-4.89-.43-1.84-3.09-2.26-3.27-1.63l-.37,1.31c-.17.59-.4,1.24-.71,1.52s-1.53-.03-1.87-.42c-1.24-1.44-.92-4.22,1.03-5.4,1.61-.98,3.47-1.25,5.42-.41,1.25.53,2.66,2.03,3.15,3.77.87,3.14-.31,6.31-2.65,8.19-2.49,1.99-5.6,2.41-8.62,1.12-3.66-1.55-6.06-4.79-6.15-8.92-.15-6.71,5.44-12.22,12.26-11.91,7.44.34,12.79,6.61,12.47,13.93-.22,5.11-2.49,9.53-6.79,12.32-5.93,3.83-7.49,12-3.08,17.64,2.08,2.67,5.62,3.66,8.77,2.72s5.57-3.29,5.92-6.77c.37-3.76-1.52-7.33-5.35-7.94-1.76-.28-3.59.56-4.5,1.71-1.2,1.51-1.31,3.68-.12,5.19.34.42,1.55.81,2.06.75.58-.06,1.48-1.07,1.23-1.6l-.8-1.7c-.2-.43,1.35-1.04,1.82-.93.99.23,2.14,1.24,2.37,2.04.33,1.16.2,2.67-.44,3.69-1.16,1.84-3.36,2.4-5.35,2.1-1.84-.28-3.63-1.57-4.46-3.57-1.09-2.61-.84-5.9.89-8.25,2.77-3.78,7.92-4.3,11.81-1.59,5.76,4.01,6.33,12.45,1.42,17.6-2.85,2.99-6.84,3.98-11.1,3.18-3.48-.65-6.83-3.16-8.65-6.88-2.82-5.75.39-12.31-6.47-15.87-3.39-1.76-7.19-1.44-10.17.98-3.92,3.18-4.04,9.51.1,12.41,1.62,1.14,3.64,1.49,5.53.85,1.45-.49,3.06-2.05,3.3-4.06.13-1.13-.24-2.41-.92-3.21-.6-.71-1.75-1.22-3.14-.83ZM372.13,292.11l-3.21-.02,1.79,2.83,1.42-2.82Z" fill="#b3a58a"/><path d="M126.4,390.1l-20.28-.41,7.67-.96,30.83-.56,53.59-1.97c2.46-.09,4.73-1.29,6.51-2.72l8.79,6.02-8.46,5.59c-1.99-1.16-4.48-2.29-7.11-2.38l-71.52-2.61Z" fill="#d8c6a5"/><path d="M750.67,389.87l-24.92.22-58.89,2.35c-3.45.14-6.36.37-8.83,2.9-2.73-2.28-5.44-4.25-8.46-5.83l8.52-5.94c2,1.46,4.55,2.62,7.34,2.71l63.97,2.1,22.49.28-1.21,1.21Z" fill="#d8c6a5"/><path d="M299.31,389.84c0,7.34-5.95,13.29-13.29,13.29s-13.29-5.95-13.29-13.29,5.95-13.29,13.29-13.29,13.29,5.95,13.29,13.29ZM293.62,396.04c1.81-4.68,1.61-10.09-1.23-13.94-1.78-2.43-4.65-3.9-7.43-3.63-6.9.68-9.58,10.33-6.2,17.75,1.44,3.15,4.29,4.94,7.4,5.02,3.11.07,6.11-1.72,7.45-5.2Z" fill="#d8c6a5"/><path d="M361.08,398.74c1.39,1.74,2.91,2.64,4.88,4.14l-6.45-.12-10.69-13.36-.24,10.48c-.02.71.88,2.21,1.26,2.93l-6.06.14,1.25-2.91-.08-21.18-1.24-2.1h6.2c-.54,1.13-1.37,2.81-1.35,3.59l.26,8.68,8.66-9.34c.51-.55.69-1.84.63-2.95l5.37.04-10.88,11.37,8.47,10.6Z" fill="#d8c6a5"/><path d="M499.07,390.71c-1.29-.64-4.34-.45-6.16-.35l-.09,10.39,6.75.04c1.46,0,2.95-1.34,4.66-2.95l-.51,5.01-15.93.04c.56-1.05,1.42-2.6,1.42-3.33v-18.71c0-1.05-.94-2.71-1.78-4.09l15.44-.05.13,4.49c-1.74-1.28-3.03-2.26-4.04-2.25l-6.15.09.03,8.67c2.33.71,5.66.65,8.3-.82l.12,4.93-2.19-1.09Z" fill="#d8c6a5"/><path d="M408.03,399.09c-2.99-3.5-6.1-6.59-9.91-9.58l9.73-10.02c2.9,3.72,6.42,7.19,9.71,10.06-3.57,2.73-6.41,5.79-9.53,9.53Z" fill="#d8c6a5"/><path d="M454.65,386.77c-1.18,7.22,2.29,13.76,9.28,14.23,3.5.24,6.01-1.41,8.44-4.24l-.22,4.51c-5.02,2.46-11.15,2.91-16.17-.04-4.13-2.42-5.88-7.17-5.85-11.64s2.32-9.17,6.78-11.47c4.82-2.48,10.34-2.09,15.4-.41l-.13,5.34c-2.63-4.17-6.23-5.01-10.43-4.21-3.55.68-6.44,3.76-7.12,7.92Z" fill="#d8c6a5"/><path d="M608.02,397.79c4.28,4.61,10.77,4.34,14.93-.59l-.1,4.24c-5.43,2.36-11.38,2.82-16.41-.45-3.81-2.48-5.49-7.1-5.39-11.36s1.96-8.59,5.92-11.01c4.83-2.96,10.42-2.62,15.76-.99l-.2,5.31c-2.03-3.44-4.76-4.46-8.36-4.3-3.41.15-6.39,2.2-7.9,5.72-1.83,4.25-1.69,9.72,1.75,13.43Z" fill="#d8c6a5"/><path d="M249.89,390.5l-.14,8.43c-.02,1.05.83,2.62,1.56,3.93l-6.65.06c.58-1.14,1.42-2.62,1.42-3.44v-18.62c0-1.11-.67-2.62-1.32-4.07l15.23-.08.11,4.56c-1.49-1.06-2.8-2.19-3.81-2.2l-6.41-.04-.04,8.66c2.52,1.09,5.73.72,8.35-.52l.1,4.65c-2.62-1.44-4.44-1.57-8.4-1.32Z" fill="#d8c6a5"/><path d="M558.6,402.91l-6.19-.05c1.01-1.98,1.51-3.34,1.5-5.25l-.1-18.4c-3.16-.43-5.19-.44-7.89,1.7l.25-4.16h19.39s-.06,4.56-.06,4.56c-2.51-2.73-5.32-2.69-7.98-1.95l.12,19.59c0,.88.43,2.15.96,3.97Z" fill="#d8c6a5"/><path d="M329.42,398.08l-.47,4.74-15.74.11c.95-1.61,1.66-2.82,1.66-4.3v-18.57c-.01-.76-1.07-2.29-1.71-3.33l6.62-.02c-.63,1.45-1.35,3.12-1.35,4.12l.08,19.87,7.39-.14c.8-.01,2.23-1.51,3.51-2.48Z" fill="#d8c6a5"/><path d="M535.57,398.11l-.54,4.76-15.6.06,1.37-2.91v-20.23s-1.82-3.08-1.82-3.08l6.68.02c-.56,1.44-1.19,3.14-1.19,4.07l.06,19.88h6.88c1.01,0,2.42-1.23,4.17-2.58Z" fill="#d8c6a5"/><path d="M586.17,402.96l-6.31-.15c.59-1.02,1.47-2.48,1.47-3.29l.02-18.69c0-1.07-.81-2.68-1.57-4.11h6.62c-.62,1.44-1.32,3.13-1.33,4.08l-.02,18.15c0,.83.51,2.2,1.11,4.01Z" fill="#d8c6a5"/></svg>