<?xml version="1.0" encoding="UTF-8"?><svg xmlns="http://www.w3.org/2000/svg" viewBox="0 0 1254 1254"><g id="Warstwa_3"><ellipse cx="627.02" cy="614.14" rx="530.46" ry="535.92" fill="#d8c6a5"/></g><g id="Warstwa_4"><path d="M745.16,1146.91c-83.2,19.43-173.75,16.95-255.96-5.88-67.25-18.68-130.27-49.07-186.67-90.12-27.95-20.34-53.44-43.53-77.02-68.72-42.04-44.91-75.75-96.34-99.14-153.29-12.4-30.18-21.6-60.82-28.67-92.67-23.55-106.11-12.49-221.21,29.23-321.46,43.18-103.77,114.93-192.02,208.97-253.4,35.7-23.31,73.62-42.99,113.89-57.23,76.08-26.91,157.34-36.79,237.78-28.12,75.52,8.14,148.43,33.41,213.4,72.29,35.85,21.46,68.4,47.45,98.37,76.42,44.92,43.42,81.99,94.32,110.79,149.71,35.35,67.99,56.2,144.27,58.97,220.87,1.33,36.79.61,72.65-5.28,108.92-3.7,22.78-8.23,44.65-14.62,66.89-36.06,125.4-117.68,232.64-228.01,302.25-54.2,34.19-113.6,58.98-176.01,73.56ZM615.39,129.74l5.09,7.2c4.27-6.58,9.03-11.12,15.55-15.09l3.83-10.26c-5.69-1.96-6.88-6.34-4.41-12.25l-25.59.81,1.14,4.08c1.3.02,3.37.19,4.17.99,3.01,3.01,3.09,10.18-1.61,14.65,1.07,2.9,1.52,5.78,1.84,9.87ZM627.25,165.19l-4.87,21.2,19.41-12.49c14.27-9.19,22.01-4.51,30.3-10.39,3.07-2.18,5.79-1.75,9.36-1.23,7.91,1.15,22.43-1.13,25.62-8.41l11.32-.95c4.66-2.89,9.1-7.01,12.65-11.38-2.05-3.72-3.87-9.53.23-12.01,2.22-1.34,3.16-1.82,3.81-4.69.98-4.32,7.19-7.26,11.32-4.57,1.61,1.05,2.52,4.31,3.46,7.01,5.05-1.79,2.84-7.08,7.51-11.77-15.1-4.15-30.08-7.34-45.33-9.46l-7.65,3.64c-.52.25-.82,2.09-.28,2.29,3.61,1.37,6.76.21,9.49,5.28,1.52,2.83.81,5.2-.31,8.51-.8,2.36-1.84,4.2-4.42,4.8-2.32.53-3.59,2.09-5.37,3.68-3.65,3.26-9.82.33-12.47-3.02-2.38-3.01-6.1-2.73-8.94-.56l4.03,4.46c2.35,1.99,2.81,5.34.84,7.71,1.34,3.82-.48,7.09-4.16,8.91-4.73,2.59-10.08-.49-12.83-4.62-1.61,1.7-3.42,3.49-4.75,3.81s-4.11-1.32-5.13-2.31c-4.2-4.08-4.38-9.2-1.43-14.08-.71-1.47-2.46-3.81-3.81-4.09-7.58-1.59-14.45,5.27-19.06,13.12-2.01,3.42-5.73,7.36-6.47,11.1l-2.06,10.49ZM479.17,156.07l22.55-19.88,14.62-14.38c3.61-3.56,7.3-6.16,11.11-10.9-26.9,4.6-52.88,12.99-78.76,22.58l.69,6.66c3.74-1.3,6.77-1.19,9.21,1.15s1.21,5.5.29,8.63c.93,2.19,2.26,5.3.67,7.7-3.39,5.13-9.91,4.21-9.25,6.27l1.23,3.86c.81,2.56.92,4.6,3.51,5.36,5.83,1.73,18.42-12,24.14-17.05ZM790.77,147.74c2.29-.47,5.99-1.65,6.89-3.43,2.81-5.61,7.13-9.53,13.11-11.29l-16.13-5.99c-.96-.36-2.55,2.39-2.11,3.11l1.65,2.72c-3.09,10.21-15.38,8.03-15.15,14.9,3.37,2.32,7.64,1.31,11.74-.01ZM524.53,242.96c-4.27,3.06-10.55,2.78-11.87-1.76-1.42-4.87-4.89-4.24-5.18-8.45-.1-1.36,1.16-4.32,2.25-5.25,3.33-2.87,6.85-2.26,11.6-1.56-1.03-4.89-6.99-4.56-7.76-11.34-.17-1.48,1.35-3.57,2.82-4.81-1.5-3.93.33-7.62,3.7-8.82,3.58-1.27,7,.36,8.8,3.42,1.54-.54,3.67-1.2,4.63-.77.8.36,2.07,2.14,2.27,3.03l1.5,6.53c.51-.2,2.13-2.14,2.3-2.96.98-4.68,5.02-7.22,9.45-5.54,3.61,1.37,5.55,5.22,3.97,9.17.65.25,2.73,1.2,3.16,1.8,1.46,1.98.34,7.21-2.23,8.86l.82,6.97c6.71-5.25,11.87-11.11,18.4-16.95,4.74-4.23,19.33-6.98,24.61-18.68,3.95-8.76,7.74-17.68,9.71-27.19l3.9-18.87-3.07-12.93-10.83-3.67c.28,3.08-.38,6.54-2.21,8.27-2.08,1.97-6.11,3.62-8.15,2.43-2.39-1.39-3.75-1.89-6.27-2.55-3.53-.93-3.56-6.55-1.64-9.4l-4.88-3.05-25.23,24.97c6.69,1.22,10.98,4.06,16.41,7.92,13.06,4.31,19.93-4.56,26.07-5.12l12.84-1.17c-1.72,2.87-7.31,1.35-10.81,5.79l10.04.69c.64.04,2.67,1.65,2.22,2.04s-1.72,1.33-2.42,1.58l-17.1,6.19,1.47,2.57c-2.53,1.45-6.35,4.55-9.2,4.88l-14.45,1.67c-2.59.3-7.98-1.71-10.37-3.12-5.81-3.43-11.42-4.55-18.25-3.36-6.82,1.18-13.47,3.31-18.38,9.01l-18.37,21.32-8.02,8.93c-3.78,6.66-7.79,11.66-13.27,16.85-12.45,11.81-19.05,28.06-20.02,45.16l6.35-.65c9.37.18,17.15-1.76,25.32-5.7,6.71-3.24,13.13-6.36,19.2-10.71,6.87-4.92,13.78-2.1,21.05-9.73-.77-2.49-2.65-5.5-4.89-5.97ZM675.46,225.01c.24-.88-.2-3.16-.43-3.98s-2.75-1.5-3.04-.63c-.84,2.49-2.44,7.58-4.98,7.81s-3.44.65-5.69,1.75c-1.99.96-6.06-1.18-7.18-2.99-1.42-2.29-1.02-6.25-.34-8.94-1.06-.18-3.63-.63-4.14-1.53-1.74-3.05-.26-10.78,7.8-13.7,1.98-.72,2.61-5.97,1.62-7.97l-8.2-2.14c-11.64,4.67-19.51,12.58-27.78,21.57-7.52,8.17-19.73,4.56-37.12,25.22l-10.96,13.02c12.23-.46,23.26,2,34.86,3.86,13.42,2.15,26.62-1.91,39.02-6.32l18.84-3.07,12.29-.21-.21,2.57,21.53,5.25c5.93,1.44,13.51,2.78,19.23,1.5l14.73-3.29c7.69-1.72,13.78-8.06,20.39-11.8l17.24-9.76-2.39,6.14,16.42,2.44c5.84.87,11.28.83,16.78-1.66l7.9-.44c3.44-.19,6.89-4.73,8.05-7.38-2.49-2.36-3.88-4.51-3.57-7.29.24-2.11,3.14-4.41,4.83-5.67.68-3.06.99-6.65,4.01-8.24,2.68-1.41,6.28-1.4,9,.82,3.69,3.02,4.33,7.89,2.78,12.55,5.46-2.86,9.9-7.53,10.49-13.61-2.52-4.7-3.36-9.12-1.88-14.18,1.25-2,2.86-2.87,5.2-2.7-1.53-6.44,2.7-11.75,9.3-12.03,5.77-.25,9.25,5.64,8.55,11.97,6.94-1.36,1.18-15.33,14.56-18.52l3.03,3.32,6.78-4.19c-16.71-10.95-34.1-19.38-51.83-27l-2.9,3.95c.85,1.01,2.25,3.52,1.53,4.28l-2.52,2.7c-6.86,7.34-12.31,1.87-15.17,7.23,8.45,5.75,11.39-2.5,18.49-3.88,1.01-.2,2.64,3.14,2.02,3.97l-2.6,3.55-3.01,8.16c3.84,2.53,4.84,6.56,2.92,9.86-2.83,4.89-8.59,5.5-13.54,3.15.18,2.55.3,4.8-.17,6.17-1.43,4.25-13.9,2.88-16.98-3.11-1.97-3.84-5.3-7.02-9.94-4.65.64,5.42,6.16,9.56,4.87,13.7-.35,1.11-1.85,2.42-3.07,3.58,1.94,4.73-.78,9.7-5.95,10.74-5.53,1.11-10.44-2.28-13-7.66-1.91,2.97-4.61,4.76-7.1,4.23-5.5-1.17-6.02-5.45-7.29-9.62-1-3.3-2.05-6.76-.2-10.16s2.66-5.85,1.18-9.09c-1.29-2.81-3.5-4.18-6.42-5.84l-2.66-1.5c-.44-.25-1.69.79-1.99,1.23,1.04,2.62,1.59,8.02-.8,9.45-4.39,2.63-6.19,5.8-9.76,3.86-1.86-1.01-2.95-2.81-3.91-5.07l-4.32-1.14c-.88-3.23-.65-6.55-.65-10.18,0-7.48-18.8-8.17-23.27-4.59-6.22,4.99-12.09,8.06-20.01,9.27l-10.85,1.65,4.11,3.46c1.02.86,3.83,2.04,5.05,1.34,8.29-4.79,14.7.01,14.28,1.36l-1.12,3.59c4.64-.33,8.03,1.61,8.98,6.22.77,3.73-1.13,5.85-4.48,7.34-.97,1.11-2.85,3.39-4.19,3.59-3.87.58-7.99-3.45-9.88-.28-.54.9,1.19,3.67,2.38,4,4.88,1.39,10.18,5.03,10.24,11.15.01,1.23-.2,4.11-1.24,4.47l-4.51,1.57c2.42,4.74.62,10.39-3.45,12.26-4.52,2.07-9.38-.43-12.09-4.49-1.76,2.51-3.99,4.34-5.88,3.84-4.73-1.28-8.48-7.37-6.61-14.2ZM770.86,161.41c-10.2-3.4-20.51-4.69-31.54-6.31-2.09-.31-3.68-.37-4.78.76l28.41,4.65c2.77.45,4.96,1.37,7.9.9ZM391.5,200.74c1.24-1.2,3.03-2.56,3.21-3.98l1.2-9.69c-3.73-.51-6.27-1.51-7.67-3.57-1.58-2.33-.74-5.23-.7-8.02.03-2.61-.17-5.34,1.3-7.09s4.87-1.93,7.25-2.23c1.05-.32,2.27-3.44,1.64-4.44-.69-1.11-2.1-2.9-2.99-3.75-14.76,7.96-28.22,15.92-42.08,24.7l-4.59,22.36c-1.24,6.05,3.04,13.66,5.44,19.2l5.08,5.65,7.17,9.69c1.42-.04,4.29-1.13,5.34-2.22,12.79-13.31,11.4-27.92,20.4-36.62ZM794.24,280.65c-3.88.84-6.71-.88-7.09-4-.67-5.53,2.25-9.45,7.29-11.79.14-2.81-1.93-7.38-4.57-7.76-10.64-1.55-14.73-2.77-26.66,2-6.7,4.53-12.84,8.63-19.98,11.95,6.83,4.35,12.75,9.19,16.72,15.45,5.31,8.37,12.97,12.83,21.66,16.75l9.84,4.44c13.46,4.1,29.65,6.57,42.4,1.17l7.75-1.98,8.59-3.58,14.67-5.47c1.12-.42,4.22,1.76,5.42,1.91l15.75,2.01c7.64.98,17.36-2.36,22.05-9.01,1.64-2.33,5.55-2.88,6.61.2,10-.51,18.54-4.63,19.46-14.94-5.63-5.24-7.93-12.17-4.16-15.5.82-.72,2.93-1.11,4.85-1.49-1.31-4.59-.55-8.94,3.48-11.78,3-2.11,8.88-2.1,11.26,1.49.93,1.4,1.37,5.28,1.54,6.26l5.73,2.89c.72-1.52,2.31-2.83,4.66-3.87,1.29-1.27,1.56-5.65.98-8.09-6.15-4.61-6.36-14.18-.66-18.99,1.69-.25,2.79-.5,4.4-1.34-19.55-18.55-40.45-34.25-62.75-48.33.28,4.14-.57,6.58-2.25,9.65,2.45-.62,6.32.81,6.36,3.57.13,8.63-6.27,14.45-14.37,15.9-2.48.45-5.17,5.14-4.7,7.31,3.22,2.84,8.67,1.93,11.84-.45,8.48-6.37,17.89-4.07,18.64-1.06.31,1.23-.25,3.7-.8,6.34,6.12-.93,13.8,1.95,13.57,9-.21,6.46-6.43,10.1-12.94,10.16,1.75,2.65,3.26,5.29,1.92,8.17-1.54,3.32-13.05,6.86-19.23,1.12-3.61-3.36-9.43-5.97-13.72-2.35,1.05,5.03,8.53,5.58,9.67,10.86.28,1.31-.8,3.9-1.42,5.25,1.57,2.69,2.21,6.15.52,8.93-2.57,4.22-13.3,5.73-18.29-2.09-1.02,3.64-2.77,6.33-5.7,6.36-3.94.04-12.49-6.46-12.76-12.23-.45-9.81-5.71-12.8-15.69-14.05l-15.85,4.02c-.13,2.54-.7,3.32-2.3,5.5,3.67,3.89,15.18.71,15.42,12.3.04,2.16-2.98,4.2-5.53,4.62,4.05,3.77,6.4,10.05,2.53,14.84-2.55,3.15-7.64,2.5-10.59.43-1.26,1.09-2.75,2.4-3.73,2.92s-3.54-.43-4.47-1.09c-6.73-4.76-3.21-11.74-8.7-10.88.04,5.48-3.95,10.56-9.62,11.28-2.34.3-5.53-2.68-6.64-4.47-1.4-2.27-1.1-6.01-.42-8.47ZM321.65,228.07l8.49,4.7-3.05-12.88c-1.27-5.39-2.61-10.12-4.75-15.47l-20.35,15.56c1.43,1.13,3.22,2.79,2.85,3.82l-1.73,4.81,4.56,1.82c3.98-4.15,9.35-4.92,13.97-2.36ZM413.72,277.05l-2.18,16.11c3.45-6.84,5.7-13.78,9.89-20.16,5.04-7.69,9.01-15.53,8.76-25.37l9.28-23.6c-4.44,5.48-8.84,10.49-12.51,16.57-4.12,6.82-1.89,19.27-10.5,26.77-1.58,1.9-2.37,7.03-2.73,9.68ZM846.18,235.41l9.65-1.75c-1.99-.36-6.17-.87-7.87-.26l-17.33,6.21c-4.81,1.72-9.61,2.55-13.41,5.43l28.96-9.63ZM270.05,276.11c2.54-1.02,7.23-9,4.34-12.3-.59-.67-3.15-.82-3.69-.29-.92,1.9-3.03,4.61-4.78,4.94-2.15.4-5.73-.58-6.86-1.58l-.29-6.3c-8.05,8-14,14.65-21.18,22.87,1.07,3.84,4.02,6.62,5.57,10.39l11.9,28.92,8.15,14.42c2.26,4,5.51,7.05,8.43,10.57,9.19,11.07,10.95,24.96,22.08,19.31,4.51-2.29,7.94-5.84,10.22-10.58,1.96-4.06,5.55-7.38,7.78-11.03l10.04-16.38c5.03-8.2,9.86-16.42,13.51-25.39l11.32-27.8c1.47-3.61.76-10.79-1.24-14.43l-9.95-18.15-7.41,1.08c4.23,2.78,6.23,6.57,3.34,10.2l-4.08,5.13c-2.36,2.97-8.77,3.63-11.68.7-1.45-1.46-5.52-2.73-6.07-1.17-1.34,3.88,2.24,8.15,5.39,8.86,5.36,1.21,9.76,3.76,10.72,9.66l-1.62,3.9c2.77,3.95,2.28,9.81-1.66,11.95-4.37,2.36-7.99,1.25-12.4-3.21-1.03,2-1.11,4.84-.04,6.29,4.52,6.14,3.43,12.68,1.28,14.04-.9.57-2.82,1.07-4.42,1.53,0,4.04-1.95,7.69-5.37,8.78-3.59,1.15-7.56-1.14-8.9-3.91-.57-1.17-3.32-1.58-4.64-2.1-6.07-2.35-.15-12.44-3.51-17.76l-4.32,5.46c-1.02,3.45-4.38,4.95-7.59,4-2.76,2.31-6.4,1.84-8.62-1-2.97-3.8-2.19-9.19.05-13.11-1.69-.82-3.35-1.6-3.81-2.51-1.78-3.52.84-10.29,10.04-14ZM939.3,304.27c-3.81-1.42-8.3-3.02-11.79-2.28l-8.55,1.81-13.07,7.21,12.07,10.37c9.49,6.5,21.58,6.63,32.93,6.95l14.64,6.04c1.94.8,14.79-.3,20.56-3.2l15.89,6.44c3.39,1.37,9.1-1.49,12.11-2.9l.45-9.49,4.32-2.3c.83-4.33,4.94-6.58,8.51-5.47,4.08,1.26,4.71,5.23,4.04,10.58l5.3-3.71c-1.39-5.04.76-9.38,5.7-12.02l-33.65-42.06-6.48,3.68c-1.67.95-3.09,1.78-4.68,3.72,5.37,3.05,15.8,2.74,13.96,5.68l-2.45,3.9c2.25,1.32,4.54,3.69,4.62,6.24s-1.51,6.86-4.42,7.16l-8.19.85c1.43,2.09,1.6,5.77-1.26,7.12-5.44,2.58-17.5-1.04-19.8-9.71-3.04-1.26-7.54-.29-11.48,1.99l5.79,6.06-.52,6.19c-.21,2.56-.61,5.23-2.01,6.68s-5.11.73-6.86,1.13c-4.8,1.09-9.53-1.41-10.67-5.7-.21-.8-2.58-2.12-2.85-1.47l-1.05,2.57c-.46,1.12-3.21,2.48-4.4,2.15-5.36-1.49-10.01-7.56-6.72-14.21ZM789.73,596.55c36.61-11.04,71.62-2.32,106.23,9.33l31.77,10.7c9.89,3.33,19.76,2.04,29.62-1.37,25.61-8.84,50.7-17.11,77.12-23.19,36.68-8.82,72.77-1.85,109.56,7.34-2.74-83.29-26.12-163.37-67.37-234.59-6.02-1.01-13.35-4.69-11.08-1.8l1.26,1.6c2.44,3.11,3.58,6.29,1.19,10.47-.89,1.54-3.62,3.76-5.22,3.37l-6.09-1.5c-2.7-.67-7.39,3.63-12.97-10.51-.64-1.61-4.62-2.92-6.24-2.65,2.66,4.64,1.91,6.86.09,10.35s-4.28,5.26-8.78,3.84c-3.68-1.16-6.89-3.35-6.43-8.09l-4.07.66c-5.48-2.91-3.89-8-3.09-12.72.72-4.25-5.72-9.42-9.57-8.95-7.7.94-8.14-5.64-16.71-4.43l-10.29,1.45c5.38,6.64,8.72,12.82,11.65,20.02,4.25,10.48,17.35,9.56,22.49,15.93,1.93,10.83,10.14,11.13,19.39,11.9,1.26.1,3.62,1.69,4.66,1.16,1.2-.61,2.1-2.55,2.62-4.78l9.67-3.45c2.38-.85,5.75,1.69,5.45,3.81l-.36,2.53c-.15,1.05,7.18-4.02,13.37,1.55.83.74,2.37,2.86,1.98,3.86l-1.38,3.59,1.24,2.83c.26.59-.63,2.47-1.14,3-5.47,5.64-10.95,3.84-14.55,7.16,5.07,3.14,13.9,3.83,14.46,3.19l2.09-2.41c5.58-3.65,14.98-.5,14.6,1.88l-.7,4.33c5.76-.29,11.15,2.33,11.51,8.66.19,3.28-1.88,6.06-5.62,6.26v1.47c-.91,7.85-11.42.72-14.75,6.39,2.9,3.31,6.43,4.91,10.12,5.57,4.71.85,8.63,5.19,9.62,10.08.28,1.41-.31,4.83-1.41,5.53s-3.18,1.44-5.35,2.21c3.32,4.24,4.58,12.29-.7,15.7-6.31,4.08-15.35-3.22-15.8-5.33.02.08-1.57,5.01-4.6,5.89-6.89,1.98-12.4-10.06-11.7-13.55.79-3.94.1-6.28-3.62-8.91l-1.72,3.71c.78,4.11-1.98,6.66-5.65,6.72-1.57,3.4-4.32,4.23-7.74,3.07-5.36-1.82-3.66-8.72-4.91-9.29l-2.35-1.07c-3.95-9.63,6.63-12.28,1.79-22.89l-4.57,1.84c.34,3.81-1.73,9.01-4.56,10.43-.98.49-3.96.02-4.74-.03-1.77,1.22-4.29,2.56-6.17,2.45-1.58-.1-4.35-2.07-5.06-3.64-1.69-3.73-1.26-7.73.51-10.72-1.7-.45-4.32-1.56-4.8-2.93-.43-1.23-.07-4.19.37-5.42,3.17-8.73,11.27-4.58,13.14-15.34l-5,1.03c-2.86-2.41-2.78-7.03-.87-10.27,6.4-10.83-4.91-22.07-17.81-26.23l-2.18-.71c-.31-.1-.5.86-.89,2.23.2.08-.18-.07-.73-.28l-5.12-4-5.28-13.92c-1.57-4.15-5.18-7.36-8.24-10.53-8.69-9-19.5-12.71-32.1-12.74l-15.28-1.82c-6.26-.75-12.05-5.16-17.58-8.35-7.47-9.35-18.18-14.83-30.31-14.78l-8.87.96-19.77,7.86,10.21,6.99c4.04,2.76,6.41,13.06,10.49,13.62l15.08,2.06c6.63,6.17,7.01-8.29,17.88-4.33l1.33,3.26c2.84-1.72,6.42-2.15,9.18-.58,2.99,1.7,3.46,4.23,3.77,7.9.19,2.21.6,5.03-.7,6.5-3.04,3.45-9.7,2.95-8.81,6.55.24.96,2.87,2.59,3.95,2.52l11.21-.78c2.55-4.52,5.56-5.6,9.73-7.16,4.91-1.84,10.49-1.82,13.17,3.55l-1.2,4.75c5.59-1.1,10.46-.09,13.97,4.18,1.52,1.86,2.26,6.52,1.4,8.79-.7,1.86-3.33,3.89-5.1,5.48.63,2.01.58,4.96-1.1,6.19-3.37,2.47-7.56,2.63-11.01,1.8-1.84-.44-5.89.89-6.59,2.44-2.08,4.58,7.17,9.81,16.76,8.6,4.7.27,8.1,3,7.64,7.73,5.29,1.46,8.41,6.17,7.73,11.16-1.65,8.37-11.68,5-10.88,7.03,1.31,3.34,6.92,6.96,5.44,10.74-2.68,6.85-1.11,11.65-7.13,13.1-2.93.71-5.72-.27-8.53-.95-1.67-.4-4.29-.87-5.18-1.94l-5.65-6.8c-.3,5.84-3.39,9.32-8.18,9.77-5.45-1.46-8.96-4.91-8.7-10.46-4.08-.62-4.93-3.9-4.48-7.77.97-4.11,2.48-10.1-.9-13.65-9.88-1.54-3.05,9.16-10.19,15.36-2.42,2.1-5.82,1.33-7.88-.59-4.08,3.23-8.1,3.7-11.12.32s-2.94-7.92-1.6-11.85c-2.87-.21-5.27-2.18-5.45-4.6-.44-6.02,2.25-9.84,6.17-13.37,5.88-5.28,4.75-15.65-.35-21.39-1.49-1.67-4.46-2.17-5.52-.9-2.85,3.41,3.4,10.56-7.59,18.37l-4.15-2.39-4.22,3.26c-1.79,1.38-6.6-.68-7.89-2.51-1.52-2.16-1.83-5.88-.91-8.53l-.83-1.56c-2,0-3.92-1.75-3.75-3.81.86-10.66,11.24-9.57,7.55-17.55-2.45,1.33-6.52,2.12-8.1.47-3.54-3.71-2.81-8.22-.33-11.8l3.93-5.67-1.53-9.28c-6.86-5.77-13.74-11.04-22.55-13.71-6.48-1.96-19.87-.14-32.11-4.01l3.77,10.72c1.09,3.09.01,6.63.08,10.42.09,4.9,6.27,12.45,10.99,13.16,8.2-1.95,15.12.17,14.81,2.7l-.57,4.65c3.43.82,7.89,1.92,10.04,5.02,1.17,1.69,1.88,5.02,1.58,7.05-.24,1.62-2.6,3.17-3.91,4.83-1.7,2.15-3.04,3.93-5.28,4.62-4.84,1.5-6.8-3.52-10.82-2.37-4.24,1.22,2.4,11.24,7.55,11.9,8.79,1.12,15.36,7.6,14.98,16.64l-3.72,2.83c3.22,4.39,3.16,12.86-2.04,14.75l-8.32,3.03-7.52-6.9c-.32.31-1.81,2.57-2.34,3.64-.5,1.02.78,3.47,1.63,4.37,3.47,3.67,3.73,7.67,3.2,12.37-.39,3.42-1.36,7.38-4.32,8.42-3.35,1.18-6.43-.15-9.37-3.02-1,6.17-2.88,10.23-8.65,11.91-2.17.63-5.78-.16-7.45-1.71-1.94-1.81-2.57-4.63-2.85-7.56l-4.48-.41c-3.56-8.48,4.16-12.55-.76-16.01-3.61,4.38-8.33,6.11-13.21,3.89-4.28-1.95-4.44-8.2-2.22-11.77l-2.61-3.14c.94-5.14,3.95-9.72,9.57-11.17l1.54-7.85c.17-.88.24-2.76-.43-3.02-2.44-.94-3.59,3.9-9.3,4.23-1.55.09-3.81-2.47-5.14-3.36-2.41-.69-5.6-1.45-6.66-3.17s-1.49-4.66-.99-6.68c1.1-4.42,4.45-6.82,8.01-8.51-1.93-2.59-2.42-5.93-.15-8.18,3.94-3.89,8.32-3.76,13.72-3.03,3.86.52,8.75-3.62,10.14-6.96-.15-1.79-.66-5.36.14-6.72,5.26-8.96,7.94-20.39-.2-22.18l-1.65-9.35c-.81-4.59-3.86-11.4-7.2-14.78-4.26-4.3-10.48-6.4-15.86-8.7-11.37-4.88-14.12-18.72-29.08-27.92-6.83-4.2-13.49-5.51-21.84-7.72l-.39.95c7.97,8.36,5.17,18.67,12.2,23.11,3.11,1.96,7.17,3.62,10.39,4.15,1.79-.93,4.62-1.94,6.3-1.72,1.4.18,2.87,2.2,4.27,3.84,5.35-1.03,11.61,3.93,10.34,9.09-1.2,4.87-4.88,6.02-9.94,5.34.65,1.58,2.33,4.12,3.63,5.01,6.02.32,11.67,4.3,13.09,10.45.3,1.29-.94,4.79-2.21,5.06l-4.84,1.02c3.96,4.37,3.37,11.62-1.78,13.88-4.84,2.12-10.08-2.15-11.33-6.56-1.78,1.65-3.36,3.33-4.64,3.52-1.11.17-3.68-1.39-4.39-2.32-6.72-8.79,3.42-19.29-5.83-21.02-.26,1.48-.85,4.86-1.81,5.58l-6.77,2.02c-1.73.52-4.81-2.38-5.1-4.18-.35-2.19.06-4.8.64-7.26l-3.33-2.17c.64-3.64,2.19-6.08,5.6-8.57,2.54-1.86,1.48-17.01-7.23-19.38l-2.5,4.18-.88-9.23c-.64-6.66-1.96-10.76-7.25-15.16-9.77-8.12-23.73-6.91-36.05-2.2-8.05,3.08-16.41,4.2-25.25,5.88l5.02,6.72c2.03,2.72,5.1,5.62,5.07,9.22-.06,7.15,4.67,11.67,11.58,12.29,1.36.12,3.29.22,4.16-.3,3-1.8.3-7.61,9.89-10.78,2.9-.96,6.42-2.07,8.79.17,2.16,2.04,2.07,5.42.72,8.99l8.51-1.98c5.17-1.2,12.18,3.61,12.82,8.84.42,3.42-3.45,6.46-5.91,8.08,1.93,1.83,3.65,4.62,3.09,6.82-.87,3.41-9.11,9.56-18.07,5.45-2.38-1.09-7.34.71-8.74,3.2,3.01,9.26,12.89,13.28,21.94,11.06,5.88-1.45,15.76,2.03,17.21,6.92.62,2.11-1.05,4.76-2.86,6.43,4.28,2.31,7.61,5.04,8.96,9.66.77,2.63-.19,6.98-2.26,8.8-1.59,1.39-4.96,1.91-7.42,2.31-4.89,9.82-15.03-4.31-17.5,1.54-1.96,4.64,3.34,9,7.38,10.36,6.61,2.23,15,14.94,8.75,22-1.14,1.29-4.98,1.75-6.36,1.76.74,3.83.07,6.97-1.11,10.43-1.79,5.27-4.98,8.45-10.82,7.23-4.2-.88-7.65-3.71-9.36-7.73l-8.47,4.22c-4.61-1.78-7.31-4.12-6.75-9.04-3.7-1.99-4.03-5.92-2.65-9.77,2.25-4.07,2.63-8.88-.14-12.79l-4.72,2.65c-.64,3.86-1.66,7.98-4.58,10.64-2.25,2.05-5.86,1.22-7.54-.44-4.04,4.98-9.87,5.83-12.8,2.49-4.22-4.8-3.66-10.87-.56-16.14-3.6-.5-5.81-2.58-5.62-5.37.5-7.24,5.05-11.27,11.49-13.7,5.83-8.05,9.34-17.8,3.12-25.13l-6.04,2.64c-3.24,1.41-1.12,13.83-13.94,17.4-3.78,1.05-6.62-1.69-7.39-5.41-4.67,3.7-11.04,4.78-14.93.63-5.46-5.83-2.13-14.28,3.91-18.66-2.25-.13-5.85-2-5.58-3.78,2.19-2.16,5.18-3.58,8.62-5.35-3.64-2.51-5.41-6.03-4.67-9.8,1.63-8.3,15.64-10.77,20.21-5.75,1.02,1.11,1.45,4.13,1.5,5.89.06,2.13,2.38,4.1,4.52,3.98,1.33-.08,2.92-2.59,2.98-3.58l-3.71-2.79c3.78-2.22,5.94-4.39,6.68-7.6-1.33-.97-2.8-1.99-2.72-2.86.32-3.45,9.38-10.03-2-21.11l-8.31-8.08c-2.54-2.47-6.57-6.53-9.76-7.71-15.17-4.61-29.72-2.45-44.79.39l-10.92,2.06c-6.16,1.16-10.71,5.92-15.6,9.48-6.64,4.83-14.44,8.12-21.86,11.53,5.25,5.48,4.53,12.59,8.4,13.7,1.2.34,4.05-.41,5.31-.37l4.6.14c2.65.08,3.46-13.48,12.3-11.71l3.33.67c2.04-1.85,6.13-2.76,8.83-2.13,2.01.47,4.93,3.01,4.99,5.38l.22,7.93-7.71,6.69c4.56,4.42,11.38-4.21,20.04,3.07l.98,5.05c3.38,1.72,5.22,4.58,5.47,7.78.22,2.71-1.62,6.36-4.26,7.16l-3.74,1.13c-.68.21-.35,1.98-.35,2.98-3.51,3.16-8.37,3.66-12.34.94-2.43-1.66-7.74-1.69-8.59,1.76.06,2.48,3.71,7.13,6.13,7.78,6.32.53,11.88,4.04,13.55,10.36.93,3.5-.9,6.43-5.11,7.25,3.43,5.53,4.21,11.46-.23,16.45-4.01,1.98-8.97,1.83-13.49.98-3.69,2.38-7.87,1.92-10.9-1.5-5.42-4.15-3.39-11.88-6-12.37l-3.95-.73c-.76-.14-2.13-1.2-3.42-2.16-7.63,11.52,8.39,19.23,3.61,28.32-.39.75-2.22,2.6-1.97,3.65,1.17,4.88-1.73,12.18-8.54,12.27-3.44.05-6.54-2.78-8.08-5.9l-3.84,2.53c.19,4.07-2.64,9.76-7.09,10.92l-5.71,1.48c-2.38.62-6.69-.23-8.98-2.11-4.05-3.34-3.82-9.06-2.99-13.87-2.61.2-5.98.17-7.4-1.35-1.31-1.4-2-4.57-2.12-6.73-.32-5.93,2.47-9.6,7.7-11.91l4.02-1.78c-1.64-5.06,2.97-7.2,1-10.88-.46-.87-3.43-1.2-4.29-.52-2.84,2.26-8.04,5.83-12.3,3.87l-2.19-3.23c-2.94-.16-5.71-.68-7.39-2.35-1.4-1.39-1.94-4.63-1.83-6.75.31-6.21,4.17-9.47,9.58-11.33-1.52-1.91-2.86-3.52-3.09-4.71s.95-3.95,1.83-4.96c3.99-4.55,10.64-4.62,16.04-3.5,10.34,2.15,17.74-7.32,17.95-19.04.04-2.46,1.22-7.59-.68-9.52l-7.67-7.76-16.69,5.36c-11.81,2.79-20.6,9.99-27.35,19.71-3.86,5.55-8.29,10.46-11.75,16.42-10.45,18.01-15.7,38.98-14.89,59.88l.74,19.19c.41,10.53-.31,22.33-5.55,31.8-1.76,3.19-3.91,5.35-4.86,9.4-5.5,23.53-6.6,46.73-4.07,70.9l3.11,29.66c1.27,12.1,9.48,22.39,6.25,45.6-.79,5.68,1.15,12.24,2.49,17.79,2.07,8.59,3.14,17.31,6.19,25.58l6.33,17.18,11.88,36.1c1.99,6.05,6.63,11.72,10.49,16.14,4.01-.81,8.28-.7,12.11,0-3.82-5.04-2.85-12.78.35-16.05,1.16-1.18,5.11-2.72,6.48-1.77l6.61,4.6.44-9.25,4.62-6.16c1.49-1.99,6.33-3.92,9.02-3.41,8.5,1.62,11.86,9.61,10.1,18,3.19-2.76,6.44-3.55,9.51-1.19,5.4,4.17,5.49,12.16.64,16.98,2.68-.22,5.86-.43,7.84.37l8.99,3.62c-.38-3.42,0-9.38,3.16-10.74s5.16-2.39,7.83-4.07c5.88-3.7,13.12-.17,17.68,5.16,1.58,1.84.7,6.87,0,9.27,2.18.64,4.65,1.54,5.98,2.87.98.98.79,3.6.42,6.09,4.83,2.06,5.68-1.9,10.9-3.11,3.36-.78,6.56-.31,9.25,1.6,2.12,1.51,3.13,4.61,3.49,8.12l17.58.45c5.39.14,10.03,2.74,15.5,4.81l-4.64,1.68,29.55,8.04,14.15,3.17-6.26-12.12,7.51,5.48,8.76,8.83-.65-9.35,9.5,10.6-.48-9.23c5.47,3.62,7.47,5.91,11.45,9.75l-.75-5.32,7.32,3.45c.27.13,1.82.54,1.59.34l-1.48-1.31-13.78-10.53,3.29-2.07c.47-.3.26-2.18.12-2.78l-1.46-6.26c-3.07,2.54-3.19,5.25-3.07,9.14-4.66-2.43-4.55-7.84-1.16-11.68.63-.71,1.96-1.81,2.69-2.2s2.63,1.79,2.5,1.82l5.81-8.47-8.97-1.97c4.81-.93,10.19-.13,14.28-1.57l11.31-3.98-37.55-2.25,2.39-1.62-40.11.16-19.01.88-24.39.71-26.75.4c-1.35.02-3.29-1.63-3.2-3l25.52-7.35c11.19-3.22,21.67-6.83,33.24-8.38l14.51-1.94,21.08-.6c4.39-2.16,9.2-2.93,14.34-2.79l14.48-1,13.11-.39-39.04-11.41-71.94-20.51c-34.06-8.79-67.88-15.12-102.97-17.32-14.97-.94-28.73-.38-43.54-.14l-15.22.24-3.35-19.1,26.61-5.44,30.91-3.23,18.05-1.04c24.35-1.4,47.43-4.6,70.99-10.55,19.3-4.87,52.84-11.24,70.23-7.82l34.12,6.71c6.68,1.31,13.37,2.46,20.14.5l49.1-14.19,50.42-15.2ZM367.28,354.66l7.97-12.87c4.73-7.63,7.04-15.85,7.7-24.93.75-10.26,2.08-19.94,4.03-30.32-6.96,11.71-9.03,24.5-11.09,38.07-.72,4.74-4.03,9.8-5.07,14.42l-3.53,15.63ZM224.56,406.02c1.05-5.82,3.14-10.6,2.77-15.25-.81-10.31-2.47-20.18-4.95-30.14-1.38-5.52-4.44-10.79-6.16-16.22-2.38-7.52-5.2-14.04-8.99-20.87-7.38,10.61-13.67,20.25-20.2,30.87l10.59,16.54,9.94,19.16c2.74,5.29,11.03,13.38,17,15.9ZM512.14,356.8c1.54-7.56.87-14.38-.7-21.28l.15-1.87c.02-.28-1.16-.58-1.56-.64,2.19,12.41.58,24.19-.61,37.09l2.71-13.3ZM314.16,431.39l-1.16,13.92c3.82-9.08,6.97-17.37,13.49-24.84,6.35-7.27,8.61-18.05,8.81-27.83.15-7.5,2.18-13.68,3.83-20.67l4.36-18.51c-6.61,10.8-14.28,21.57-14.68,34.2l-4.59,17.91-2.92.12c-4.25,7.67-6.37,16.44-7.14,25.7ZM381.04,418.76l2.5-9.05c1.7-5.38,4.41-11.09,5.51-16.61l6.12-30.72-9.05,16.69c-1.51,3.78-3.02,8.46-3.3,12.62l-1.79,27.07ZM249.08,448.43l2.41-17.23,3.03-19.74c1.99-12.96-3.38-30.43-9.53-42.59l2.77,22.67c.68,5.53,1.07,12.43-.44,17.95-2.43,8.88-4.71,17.24-3.27,26.6l3.21,20.84,1.82-8.51ZM176.35,430.6c-1.01-4.69-1.86-10.34-3.79-14.44l-8.44-17.96-8.09,17.3,9.42,10.63c3.29.57,7.16,2.08,10.9,4.48ZM379.81,466.93c7.65-10.81,10.17-23.91,9.31-37.26l-.78-12.1-3.77,16.81-4.43,18.07c-1.01,4.12-.16,9.77-.32,14.48ZM343.41,505.94l4.65-7.58c7.52-12.26-.6-25.87,5.14-41.1,2.73-7.24,4.17-14.91,4.34-22.71l.22-9.65c-3.33,9.36-7.05,17.81-12.61,26.17-2.91,4.38-4.55,9.36-4.65,14.54l-.16,7.78c-.16,7.92-3.18,14.65-4.88,22.14-2.59,11.37-.2,23.01,1.29,34.59,1.69-7.99,3.31-15.84,6.67-24.18ZM185.34,631.77c2.35-7.39,1.3-16.04.81-23.75l-1.05-16.39c-1.06-16.57-.68-32,3.7-48.02,1.94-7.1,1.1-15.22.14-22.51l-4.05-30.65c-.59-4.43-3.57-9.38-5.41-13.6-6.85-15.68-22.27-23.61-27.46-34l-4.2-8.42c-26.39,67.44-38.55,138.62-35.82,210.57,1.51,39.76,8.84,78.09,19.44,116.33l7.41-6.22c3.59-3.02,5.44-8.39,8.78-11.91l8.79-9.27c3.76-5.43,5.57-12.28,7.6-18.57,2.71-8.38,6.48-15.41,10.09-23.43,3.07-6.82,2.72-15.62,3.23-23.03.91-13.2,4.06-24.7,8.01-37.12ZM275.54,456.87l.47-12.63c.13-3.41.62-6.35.21-9.33-2.02,9.11-2.66,17.56-5.55,25.92-6.12,6.86-4.95,23.41-4.6,35.32,6.36-13.61,8.9-23.82,9.48-39.27ZM218.34,590.92l1.68-16.96,4.37-18.87,2.04,5.82c6.28-13.53,6.33-27.95,2.56-42.1.45-7.14.07-14.14-1.24-21.3l-2.3-19.96-1.25,8.31c-1.76,11.7-3.76,23.05-3.2,34.97.51,10.75,1.3,21.83-3.63,31.82-5.01,2.28-6.31,19.14-5.64,25.3l2.98,27.47,3.62-14.52ZM304.2,575.19l4.13-24.31c.96-5.66,1.35-11.49-.07-17.1-1.68-6.65-.9-12.56-.35-19.22.79-9.59.44-18.99.14-28.96l-6.72,23.13-3.58,17.33c-1.82,8.8-2.39,17.72,1.23,26.08,3.23,7.45,3.71,15.54,5.22,23.04ZM275.25,610.59l2.73,19.14,3.15-20.88c1.38-9.16,1.1-19.1-2.18-27.59-2.9-7.49-4.75-14.11-4.15-22.24.94-12.73,1.12-25,.81-37.83-.03-1.4-.75-3.62-1.4-5.88l-1.18,4.83-5.21,21.84c-1.19,5.01.22,10.97-.41,16.1-.57,4.59-2.18,9.04-2.41,13.73-.97,19.74,8.45,26.24,10.24,38.78ZM375.9,628.71l-.6-17.24-2.44-10.21c-1.67-7.01-2.26-13.65-.54-20.76,3.46-14.31-2.3-24.73-2.41-37.66l-.23-25.6-6.44,22.52c-4.73,16.53,1.35,26.57-.69,40-1.44,9.43.38,17.48,4.1,25.93l5.78,13.14,3.47,9.86ZM344.16,630.32c1.08-9.82-.97-17.11-4.65-25.5-2.43-5.55-.64-13.39-1.31-19.42l-2.33-21.1-3.47,19.04c-1.94,10.66-3.73,21.64.08,32.37l11.77,33.11c.33-6.03-.77-12.45-.11-18.5ZM232.47,695.97l7.73-24.03c2.74-8.51,5.24-17.55,3.37-26.5-1.72-8.19-1.07-15.61-.77-23.98.29-7.9-1.19-16-1.77-23.58l-6.65,22.98c-1.92,6.63-3.26,14.45-2,21.36.84,4.61-.2,9.25.25,13.65,1.41,13.82,2.27,26.48-.15,40.09ZM798.09,668.8l103.25-27.12,33.5-9.68-18.4-1.82c-22.46-5.58-44.39-10.57-67.73-12.35-21.63-1.66-41.45,1.08-61.91,7.94-22.82,7.65-45.43,14.51-69.35,17.33l-10.98,1.29,38.62,10.06,53,14.34ZM816.26,986.92c-5.52,16.9-8.02,33.55-7.41,50.92l11.78-14.57,11.09-12.64c.21-.23,2.01-.56,2.12-.8s-.17.44-.41,1.02l-1.99,5.98,19.33-13.44c-4.63-2.83-9.1-4.79-14.3-6.25,12.78-6,22.85-.89,32.87-3.91-7.19-10.23-16.39-16.66-27.33-22.02,14.68-1.68,27.75,2.55,41.11,8.04l1.99-1.32-3.93-3.63c0,.53-.02-1.48-.04-2.46-6.74-11.47-15.38-21.11-26.5-28.92,15.55.94,28.49,7.25,40.67,15.96l-1.39-6.99c3.68,2.56,4.45,7.35,6.96,10.16l10.72,12.01-.65-7.73c-1.17-13.86-7-25.96-12.67-37.86,12.35,6.62,20,16.25,25.98,27.62l1.01-7.97c1.98-15.64,4-31.17,11.66-44.98l4.98,40.66.9,1.54,12.87-21.27c4.48-7.4,9.6-14.08,17.94-17.75l-1.77,4,.9.64,12.19-17.38c10.28-14.65,13.17-35.88,2.1-50.89l-5.91-8.03c-2.23-3.42-6.79-6.98-10.31-9.29l-13.73-8.99c-11.79-7.72-25.39-12.3-38.91-16.22l-22.53-6.53-54.34-12.64c-14.3-3.33-36.91-8.62-46.15-16.9-5.13-4.6-4.62-11.59.34-15.69,10.79-8.93,24.94-11.12,37.92-14.29l13.82-3.37c3.35-.82,6.86-1.1,10.1-2.72,6.4-3.19,13.45-2.08,20.62-4.81l-38.43-.7-20.73.44c-3.61.08-7.33-.48-10.34-1.09l9.73-2.84-27.91-.29c4.07-2.09,6.75-1.92,11.26-3.45l-25.49-2.57-.52-1.45,3.23-.18c.02.15-.06-.56-.16-1.51l-15.46-1.92c2.59-2.91,5.59-3.53,9.3-3.97,1.25-4.49,5.08-9.26,10.12-8.75l8.48.87c-1.28-3.07-2.19-4.99-1.87-6.35,1.09-4.56,11.87-5.67,18.27-6.99,3.26-.67,5.13-1.25,8.4-.2,10.53,3.4,22.86,4.24,20.07,16.89l9.51.85c2.35-3.23,5.65-4.16,9.29-4.77,1.57-1.8,4.19-4.38,6.62-4.63,3.1-.32,5.37.83,8.5,2.04,1.37.53,4.37.82,5.01,1.98s1.18,4.13,1.39,5.44l8.77,1.55c-.74-1.61-1.13-5.31.25-6.78,1.48-1.58,4.41-2.49,6.64-2.83-.82-2.58-.8-5.75.88-8.57,1.18-1.97,4.73-2.35,6.92-2.83,5.61-5.37,15.54-3,18.67,1.37,2.3,3.2,2.19,6.45,1.69,10.21,3.09-1.49,6.99-.69,8.54,2.67,1.37,2.96.72,6.2-.31,10.36l8.21-.7,7.95-.58c-1.03-2.49-1.75-4.81-1.36-6.29.31-1.18,2.38-2.62,3.48-3.49,1.01-3.21,2.69-6.03,5.27-7.23,3.3-1.54,6.46-.94,9.88-.2,3.68.8,6.26,3.21,5.5,7.39,3.04-1.21,5.25-1.84,8.27-2.32-1.96-3.19-4-8-3.01-11.82,1.74-6.72,7.82-11.64,14.51-8.39-1.52-7.39,2.72-14.16,10.02-16.7,4.67-1.62,8.67-1.91,13.35-.51,6.85,2.04,11.71,7.58,10.19,15.4,3.2-1.33,5.98-2.36,8.59-1.21,2.1.92,4.56,3.43,5.75,5.61,3.34,6.14,2.3,11.34-2.3,17.36,4.12-1.07,7.04-2.46,9.5-1.46s3.88,4.53,4.21,7.45c2.75-5.47,8.64-5.86,8.74-5.69l-.85-1.36c-3-4.84-3.71-9.16-1.24-14.34,3.07-6.42,9.64-9.3,17.46-5.54-2.38-7.2-.91-13.84,4.52-19.33,9.03-9.13,27.66-8,33.75,2.32,2.78,4.71,3.57,9.52.78,14.37,5.68-1.18,9.07.59,11.52,4.49,2.84,4.5,2.6,10-.92,13.98l5.33,1.13c.28.06,1.22,1.25,1.44,1.46.2.19.43.15.44-.12l.09-2.24c1.3-5.97,7.6-9.28,13.85-7.14l3.32-48c-24.72-6.66-49.34-10.84-74.91-11.79-18.3-.68-35.03,2.13-52.26,7.52l-40.03,12.53c-28.74,7.61-57.35,12.22-86.43,18.41l-44.78,9.53-66,16.26-24.81,4.93,12.19,3.82c2.16.68,4.42.95,6.4,2.1-12.99,1.71-24.86.21-37.59.51l-11.87.28c-1.52.04-4.38,1.77-5.95,1.98l-15.13,2.02c-.58-.28.65.32,1.4.68,14.04,3.91,27.53,7.36,41.9,9.72l6.23,1.8,29.92,9.95c1.76.59,3.69,3.58,3.46,5.06-.21,1.32-1.95,4.27-3.27,4.65l-15.9,4.57-12.96,3.46-14.29,5.6c-8.14,3.19-16.76,7.98-17.92,17.66l3.82,8c4.33,6.63,11.91,10.07,18.89,12.91l14.1,5.74,39.32,11.3,41.8,12.32c6.89,2.03,26.69,13.12,31.3,18.73,7.83,9.53,9.69,22.09,2.22,32.81-4.89,7.02-11.65,13.16-19.07,17.76-12.99,8.05-25.95,14.72-40.32,19.55l-25.72,8.65-39.42,11.91,33.12,3.77-19.82,3.38-48.13,7.87-29.44,7.35c7.61,1.08,13.91,1.13,21.57,3.92l-28.01,3.66c-16.46,2.15-32.24,5.58-47.71,10.83l15.81,2.51-26.9,5.74c-12.88,2.75-24.93,7.1-36.65,13l-17.46,8.8c11.05-1.15,21.08-2.55,32.17-.42-18.6,5.89-36.98,11.74-54.57,20.59-1.43,1.99-3.7,4.71-5.96,5.76-7.14,3.32-12.17,7.9-17.99,12.91l-7.8,6.72c-1.06.91-3.8,2.23-4.57,3.38l-9.46,14.18,14.69-9.58,1.64,2.75,8.99-7.65c12.08-7.37,25.94-10.38,39.55-11.93l-34.94,23.61-14.34,6.03c2.48,1.4,4.86,3.4,4.62,5.03l-10.8,15.97,19.59-12.3c.46-.29,1.81-.7,1.84-.3l.13,1.85c18.42-11.29,39.34-18.42,61.18-19-16.95,8.35-31.97,17.26-45.22,29.79l-10.48,11.7c9.47-4.76,18.09-6.6,28.19-7.86l9.16-2.18,20.2.21c-15.98,6.78-29.75,14.78-41.58,26.91l14.94-2.33c11.25-.8,22.06-.86,33.42,2.19-12.61,3.64-23.2,8.35-31.93,17.07,8.86.44,16.32,1.51,23.96,4.98,32.67,3.12,65.05,2.67,97.35-2.03,5.74-6.06,12.2-11.14,20.19-12.93l14.44-3.24c-13.21-7.44-26.72-9.35-41.04-10.43,8.51-5.15,17.04-8.49,26.3-9.08l19.86-1.27c-2.19-3.73-4.74-5.81-8.06-7.99-8.41-5.53-16.88-9.83-26.34-13.56,12.5-2.51,24.16-1.48,35.88,1.16l12.04,4.18,13.22,5.33-6.92-11.43c-7.16-11.83-17.63-21.1-28.92-30.24,14.72.94,35.15,10.7,45.2,19.4l6.98,6.05-3.89-12.82c-3.82-12.59-11.06-22.92-18.98-33.81,13.34,4.54,24.14,13.18,32.47,24.15l3.15,1.28,4.47,7.96c2.83-24.65,10.22-48.81,29.05-65.07ZM325.98,726.7l1.08-14.74c.58-7.98-2.1-15.48-4.85-22.88-2.31-6.2-1.32-12.81.08-19.24,1.02-4.68.04-9.93-1.68-14.51-4.15-11.02-6.75-21.35-9.78-33.39l-1.42,18.58-.31,19.99-1.65,9.85c-.06,8.47,1.48,16.82,4.38,24.53,8.21,7.84,11.05,20.37,14.15,31.81ZM397.42,785.19c-7.35-10.68-13.61-22.06-17.35-34.38-2.35-7.72-4.31-16.25-4.37-24.23l-.15-17.27c-.14-15.7-11.68-23.36-12.63-35.42-.73-9.34-3.89-17.11-6.95-25.74l-3.8-10.73c-.7,5.42.11,10.21.36,15.79l.85,19.08c.3,6.74.05,14.64,2.96,20.64,3.63,7.47,6.98,14.14,6.57,22.86-.69,14.72,3.35,29.7,12.36,41.34,3.16,4.09,7.56,7.36,10.05,11.74,5.81,10.18,10.2,20.93,20.46,28.5l-8.37-12.17ZM732.06,681.8l13.24-3.62,22.11-4.15c-29.47-9.85-59.12-17.5-89.91-23.39l-38.83-7.44c-17.05-3.26-34.07-4.53-51.33-3.17-14.65,1.15-28.37,4.49-42.78,6.88l-29.96,4.96c31.84,3.56,63.2,9.77,94.32,19.26l64.13,19.55,27.76-6.04c10.56-2.3,20.31-3.15,31.24-2.84ZM264.2,749.35l7.64-13.96c5.39-9.84,5.93-19.98,4.38-30.89-1.5-10.58-.69-21.08-.91-31.52l-5.77,22.98-2.61,19.47c-.58,4.3-2.08,8.3-2.19,12.86l-.54,21.07ZM186.98,755.05c7.35-5.7,11.68-12.41,12.71-21.38.9-7.85,3.76-14.8,6.75-22.08s3.05-15.36,3.5-22.95l.44-7.46c-2.72,8.37-5.82,16.03-10.6,23.68-4.48,7.18-6.25,15.42-6.96,23.76-.65,7.62-3.46,13.61-7.32,19.79l-9.41,15.08,10.88-8.44ZM478.99,814.48l-13.42-19.15c-3.6-5.14-8.54-10.5-13.9-13.9l-14.87-9.44c-4.32-2.74-6.69-4.66-9.83-8.69-5.15-6.64-11.01-12.94-14.02-21.15l-10.2-27.8-5.63-13.95,2.6,22.58c.72,6.26-.72,14.27,2.79,19.68,5.56,8.59,9.07,16.69,11.87,26.6,2.19,7.76,9.08,15.7,16.26,19.12l8.57,2.56c5.16,1.54,9.06,4.46,12.27,8.7,2.39,3.03,5.82,4.36,9.7,3.74l17.8,11.12ZM246.66,748.68l4.46-8.91c1.66-6.5,3.1-12.76,3.62-19.85-4.27,9.07-7.32,18.12-8.08,28.76ZM1003.51,803.04c.76.35,2.31-.33,3.14-1.06l7.38,6.33-4.32-19.28c4.23,1.5,5.73,6.61,8.35,9.67l8.03,9.38c.18-8.67-1.34-16.84-4.31-24.83,8.34,4.41,12.4,11.26,16.68,18.85.45-13.89-1.57-26.22-4.47-39.78,8.69,7.51,13.33,17.52,16.04,28.56,5.26-14.31,13.38-29.36,26.85-38.17-7.01,15.16-12.33,30.02-13.4,46.27,7.55-11.51,17.55-19.85,29.96-24.27-7.84,10.96-13.63,21.04-16.72,33.42,6.58-5.86,13.52-10.57,21.99-11.59-4.89,6.48-9.68,11.88-11.19,19,6.26-3.03,10.56-5.65,16.47-4.87-3.12,2.1-5.18,4.5-6.9,7.97l6.71.97c12.19-26.69,20.95-54.15,27.67-83.62-37.61-4.6-74.75-5.24-112.6-3.15l-51.73,2.86-60.05,5.28c4.33-4.24,10.1-3.15,14.94-6.44l-21.97,3.23c-.88.13-2.88-.41-3.3.24l-1.72,2.65-9.64.62,1.05-9.65c-1.46.75-3.95,2.45-4.3,3.83s.43,4.54.96,6.55c-6.08,1.09-12.11,2.27-17.44,4.54l9.13.33c-4.54,4.54-8.41,4.44-11.4,9.8,5.74-1.77,8.93-3.69,14.52-4.08l-8.01,7.62c5.71,3.3,6.45-5,12.14-1.1,2.16-4.44,7.54-6.98,12.44-7.63l-4.13,13.45c4.69-2.45,7.9-3.48,10.72-.44l-1.96,4.84,12.47,2.55c3.86-1.61,6.67-1.48,9.41,1.81-.28-3.97.62-8.92,3.53-10.99.98-.7,4.15-.98,5.47-1.15,3.43-2.44,9.46-3.13,11.8,1.12l1.31,2.37c.21.39,2.14-.41,2.62-.22,3.49,1.4,4.77,7.95,1.69,11.1,2.34.1,5.79.81,5.72,2.02l-.26,4.51c3.34-1.57,7.23-.77,9.53,2,.29-3.87,1.75-7.29,4.76-9.27l5.06.91c2.16-3.03,7.44-3.98,9.45-.86,1.26,1.95,2.61,2.6,4.72,3.65,4.02,1.99,2.03,8.1-.77,10.43,2.57.53,5.63,1.09,6.4,2.3s-.02,4.28-.33,5.98l11.82,5.42ZM225.8,897.64c-2.43,2.8-3.9,6.69-4.68,10.5l-1.99,9.73,10.62-8.5,9.05-10.98,1.28,2.93c4.5-5.97,6.2-17.05,1.35-21.19.06-8.22,3.19-16.53,8.55-22.71,4.73-.62,7.34-3.92,9.29-7.99,4.25-8.96,9.44-17.01,18.15-22.02l-1.47,8.02c8.84-9.1,15.26-20.2,14.19-32.82-.68-7.95,1.73-14.11,3.93-21.59,1.78-6.05.04-13.6-.35-20.09l-1.12-18.27c-3.18,6.46-2.95,14.97-6.56,21.22-4.81,8.31-6.96,15.43-7.21,25.16-.17,6.6-2.89,14.58-5.99,20.53-1.73,3.33-5.66,6.45-8.1,9.04-8.22,2.81-14.41,8.34-18.32,16.21-1.66,3.35-3.64,6.31-6.07,9.29l-1.56,3.85-15.42,10.93c-9.42-3.21-19.35,1.15-27.61,6.7-3.25,2.18-4.92,4.82-5.84,8.66l-7.56,6.14,5.79,9.14c3.62-4.13,7.64-6.87,12.76-8.82,6.32-6.74,12.29-13.1,20.62-17.71l-7.99,8.18,15.38-3.81c-2.17,13.17,4.57,21.41-3.12,30.27ZM510.56,962.58c1.37-5.59,2.8-8.6,4.88-12.65,2.68-5.23,1.76-11.7,2.03-18.37,5.84,2.69,11.25,5.56,16.43,9.26,6.62,4.72,5.11,11.79,10.11,16.82l9.82,9.86c-.8-6.53-1.45-12.89-3.49-18.76l-1.99-5.74c-2.78-8-9.5-14.65-16.8-18.81-5.91-.62-10.89-2.91-15.7-6.04-5.02-2.88-7.79-7.12-9.13-12.74-1.55-2.62-6.6-2.3-9.12-3.47-4.88-2.25-7.35-7.79-10.73-11.95-1.11-1.37-1.56-3.79-1.66-5.5-3.48-4.81-7.91-9.1-12.54-12.73-10.64-8.35-19.11-3.48-27.28-9.77-7.23-5.58-9.22-13.79-30.15-17.56-1.78-.32-4.05.13-5.31-1.32-3.44-3.95-8.46-7.26-10.89-11.61l-6.86-12.29c-2.03-3.64-4.22-7.15-6.95-10.22l-6.98-7.84-6.36-4.17-10.93-12.45-5.42-15.6-10.42-26.12c-.27,13.22-.49,27.22,4.69,40.09,1.32,3.29,4.12,5.99,4.6,9.89,1.16,9.42,5.84,17.96,11.96,24.94,4.86,2.24,8.67,5.64,12.33,9.43,4.81,4.8,9.21,8.83,12.4,15.4l-5.21-2.65c2.84,9.94,10.19,14.73,17.76,19.61,2.69,1.73,6.24,5.98,8.23,8.27,3.3,8.16,4.28,15.81,5.51,24.18.59,4.03,3.13,8.37,4.55,11.94l.73-3.98c6.19,7.81,6.38,17.75,2.93,27.01-4.65,12.47-1.35,26.2,8.07,35.31l8.93,8.64-3.96-14.49c-1.92-7.03-3.96-14.55-.31-21.15,3.36-6.09,4.75-13.39,1.64-20.1l-7.45-16.04c-.86-1.86-.21-6.4.13-8.45,1.47-8.94-1.81-12.9.97-15.75,1.73-1.78,10.94.27,13.3,1.63l8.67,5c4.99,2.88,9.49,5.91,12.57,11.02,5.57,9.24,13.27,16.31,22.87,20.11l.1-3.26,8.48,6c5.28,6.96,8.93,14.89,9.9,23.75-2.99,8.12-1.15,16.1,1.04,23.43ZM168.35,832.8l5.28-6.46,14.09-7.89-.68,3.82c1.67-.2,6.85-1.15,8.35-3.08l12.34-15.81-.54,8.12c7.51-5.24,15.48-13.62,17.48-23.48,2.45-12.05,3.68-23.16,10.01-33.98,1.27-2.17,2-5.91,2.07-8.48-3.18,4.95-6.19,10.39-10.76,14.37-1.78,1.55-4.8,2.74-5.91,5.02l-8.57,17.65c-2.45,5.05-5.16,8.67-9.31,12.66s-7.95,10.45-13.84,10.9c-11.75.9-21.42,7.13-28.39,16.48l-4.76,5.09,4.57,10.23,8.6-5.16ZM711.26,883.73c7.07,1.6,11.4,6.05,15.69,10.65-.68-11.02-5.98-19.37-11.69-29.31,9.72,3.11,17.51,10.51,22.68,19.32,1.28-13.96-1.13-26.45-3.89-39.83,9.66,9.32,14.27,20.47,17.08,32.47,2.99-9.03,7.33-16.58,15.37-21.35-2.47,8.88-4.68,16.75-4.98,26.07,4-5.45,7.59-9.82,13.2-12.85l-.04-3.35c1.98,1.14,3.69,2.38,5.27,3.78l6,5.32c.39-5.7-.68-10.71-2.17-16.46,7.01,2.3,9.9,7.66,13.3,13.26,1.99-5.15,1.1-8.41,1.06-14.41l7.75,9.08.25-6.65-10.65-4.77,6.57-.12c-4.64-3.51-8.88-5-14.9-7.8l7.26-.14c-5.9-3.3-11.28-4.85-17.32-6.15l-22.72-4.86,6.7-.95c-5.69-2.61-11.46-4.33-17.89-5.58l-17.42-3.36-44.01-10.01,11.39-.9-47.3-13.12-53.83-15.05c-38.12-9.39-76.15-15.21-115.51-18.26,4,2.59,8.18,5.47,11.19,9.56l11.93,16.24c2.59,3.53,20.83,5.78,30.4,19.19,4.67,6.55,11.13,10.35,19.04,11.88l9.88,1.91c9.83,1.9,18.17,7.59,25.7,14.07l12.44,10.71c-.08-11.09-3.49-19.79-7.41-29.76,10.29,6.69,16.9,16.35,19.73,27.98,3.42-10.35,7.62-18.83,15.2-25.48l8.94-7.84c-5.23,14.1-10.03,26.95-10.22,42.21,5.8-8.95,14.1-15.09,24.67-17.86-6.06,8.6-10.08,16.93-13.02,26.57l16.22-11.99c4.37-3.23,9.54-4.92,15.03-5.85-3.95,4.44-7.37,7.68-9.91,11.9l-8.1,13.48,15.29-8.26c7.1-3.84,13.85-8.34,22.7-9.34-7.63,8.38-14.75,15.99-19.55,25.04l16.13-4.55c3.99-1.13,8.69-.39,12.87.63-5.7,3-10.88,6.64-15.78,11.4l21.63,1.2-6.61,6.41,10.38,1.36c4.61.61,7.98,1.67,13.29-.21-1.6-5.61-4.13-10.12-7.3-15.23ZM355.21,1036.35c4.91-3.84,4.66-10.5,6.24-16.16l5.15,5.63c5.17,5.65,11.2,11.03,12.09,19.4.37,3.48.53,8.26,2.47,11.05l9.34,13.44-1.1-14.65c-.41-4.05-.52-7.79.06-11.69-2.2-10.12-8.61-19.14-16.72-25.08-1.01.16-3.4-.56-3.67-1.46l-5.36-17.83c-1.44-7.96,2.69-13.96,5.12-20.91l4.47-12.81,8.44,5.25c.74-.58,1.36-1.24,1.75-.95.3.21,1.49,1.29,1.7,1.62l4.76,7.46,9.43,6.98c5.57,4.12,7.3,11.47,8.06,18.16.84,7.4,3.71,16.51,4.61,16.55l1.83.07c4.09,8.57,12,11.97,16.62,20.48.66-7.73-1.94-14.02-5.45-20.17-4.05-7.09-3.02-15.67-3.81-23.54-.88-8.81-6.39-15.9-12.36-21.8-2.49-2.46-3.76-5.29-5.61-8.26-2.72-4.39-8.72-6.72-13.28-9.04l-2.36-1.19c-.36-.18-1.19.92-1.89,1.62-4.98-7.42-10.54-14.58-13.63-23.17-2.83-7.89-8.97-13.99-15.98-18.39l-4.14.38c-3.45-3.65-7.86-7.38-9.53-11.99-.7-1.94-.64-5.64-1.74-7.45-5.64-9.3-6.04-19.34-3.97-29.88l2.17-11.02c6.74,15.08,15.18,19.86,25.65,26.94l8.3,5.61c-2.7-9.63-10.28-12.58-9.06-17.24-5.93-10.77-21.03-11.71-24.85-25.36l-6.97-24.92c-2.51-8.95-6.67-16.89-8.08-25.95l-1.32,11.93-1.84,17.17c-.86,8-.79,14.76,1.15,22.74l-2.4,15.33-2.1,10.22c-.75,3.66-1.08,5.85-3.85,8.59l-8.69,8.6c-.9.89-3.84.91-5,1.33-7.37,2.66-12.59,9.82-15,16.18,2.22-.77,2.73-.44,1.84.79-2.91,5.11-4.72,10.74-8.9,14.13l-12.04,9.76c-7.85.23-15.86,2.87-20.5,9.2l-8.67,11.83c1.32,2.13,4.02,5.13,5.81,6.33,6.21-6.86,20.45-17.42,21.6-16.36l1.78,1.62,11.6-5.45.48,11.78,3.97-7.48,5.62-11.43c7.93-1.79,11.88-8.47,13.53-15.79,1.31-5.81,5.98-10.74,10.24-14.9,3.12-.42,8.07,0,10.96,1.56,1.45.79,3.11,4.27,3.85,5.89,3.67,7.96,8.58,14.59,15.29,19.83l-.2-7.79,9.35,15.23c3.76,6.12,7.01,16.53,5.44,23.28l-2.09,8.98-4.77,13.96-8.54,6.85c-.33.27-2.04.73-2.44.79s-.37-.81-.52-1.89c-18.45,4.97-20.37,15.01-25.82,32.76,5.7-4.92,11.14-8.49,17.7-11.58,3.19-4.28,6.68-8.87,11.63-10.94l8.32-6.03c.4,16.69,10.54,20.01.08,37.01-2.36,3.84-2.82,8.56-3.18,13.25l8.95-7ZM547.13,867.46l12.42,1.7,4.61-.49c8.95,3.74,16.77,8.75,23.05,16.1,2.04,1.83,4.51,3.6,6.94,4.67l16.53,7.34-9.01-13.04c-10.43-15.09-29.05-30.15-47.36-25.71l-12.08-5.1-17.44-10.84c-4.74-2.95-9.67-6.02-15.65-5.87-9.43.23-17.1-2.85-23.49-10.24l2.6,5.03-13.64-4.14,9.18,9.41c4.59,4.71,10.28,9.87,16.88,11.65,6.54,1.77,13.42,2.16,18.77,6.92,2.46,2.19,5.22,5.81,8.09,6.97,14.94,6.03,6.6,25.32,17.75,34.98l6.36,5.51,8.14,5.43-5.49-10.91c-2.63-5.23-3.84-9.57-3.81-15.62.02-4.33-1.98-9.08-3.34-13.76ZM1022.3,888.77l4.93,5.61,4.96-18.53,6.34,17.69,7.85-10.66c2.81-11.51,6.32-22.09,12.24-32.21-10.58,7.39-16.93,18.07-21.46,30.11-3.42-10.57-6.46-20.06-13.89-27.94,2.83,12.81,4.27,24.54,3.27,37.11l-9.26-8.17c.38,6.83.23,11.44-.84,17.6,6.3-1.14,2.58-5.97,5.87-10.61ZM780.46,878.95l-3.85-8.25c-2.42,4.54-3.05,6.25-4.48,11.08l8.33-2.83ZM1052.06,892.9l16.58-21.69c-4.59,1.1-9,3.18-12.23,5.67-.07,4.23-5.04,8.63-4.35,16.02ZM1062.08,896.57l6.07-8.63c-2.26.09-4.98,1.21-5.85,2.88-.71,1.37-.7,4.38-.22,5.76ZM657.21,925.84c-.66-5.36-5.99-5.81-8.5-8.33-3.23-3.23-5.12-5.52-10.16-5.59s-9.46-1.85-14.69-3.41l11.53,9.72c1.57,1.32,5.68,2.89,7.72,3.77,5.37-.36,9.76,1.36,14.1,3.85ZM610.3,944.55c-.99-4.34-5.33-6.59-7.35-9.05-3.42-6.88-8.15-10.38-15.87-10.18l-15.39-5.94c3.1,2.95,6.46,5.86,8.52,9.25,3.24,5.32,8.28,5.54,13.3,7.93l16.78,7.99ZM978.95,961.19l6.06-7.75c5.24-8.53,11.68-15.1,20.28-21.26-17.72,2.7-34.49,13.23-41.73,29.53,7.57-5.78,12.7-13.13,22.51-15.61-2.94,4.92-6.36,9-7.12,15.08ZM498.6,1004.45l5.91-11.25c-.35-8.34-2.33-18.79-9.06-23.26l-1.36,2.9-7.08-17.17c-2.39-5.8-8.89-10.19-13.65-13.86l-6.97-5.38,5.23,10.56c2.91,5.88,5.12,10.73,5.46,17.49.23,4.5,6.8,14.55,10.67,14.23,4.13,6.45,4.09,14.49,4.57,21.97l.77,12.05,5.5-8.29ZM272.17,990.44l14.47-18.75,1.19-1.89s.9,1.32,1.52,2.24c2.11-3.43,3.37-8.79,2.02-13.12l-4.98-16.02-7.26,11.35c2.52,11.85-7.5,13.98-7.22,25.58l.26,10.61ZM999.36,962.67l18.48-7.86c-15.88-1.76-29.45,2.13-37.8,15.97l19.31-8.1ZM1012.41,960.89c-9.14,2.59-14.92,9.86-17.67,17.74,6.95-5.72,12.27-11.57,17.67-17.74ZM468.3,1043.96c5.84-13.84,1.3-26.46-6.47-37.28l-5.2-7.24,3.31,13.78,2.84,10.47c1.28,4.73,3.6,8.18,4.36,12.96l1.17,7.31ZM891.35,1058.47l9.18-4.85c4.01-6.47,9.4-10.68,16.22-13.74l11.85-5.33c-10.25-1.22-19.87,1.96-29.41,7.17,4.3-10.17,10.81-17.82,18.19-25.61-8.94,4-24.87,13.08-27.78,18.77-.27.52,1.06,1.59,1.43,1.95l-10.8,17.45,16.41-9.03-5.28,13.21ZM816.9,1065.89l9.26-12.56,8.84-24.74c-11.27,10.8-17.34,21.64-18.1,37.3ZM838.79,1068.61l11.75-15.28,10.66-13.86-14.34,9.25c-5.39,5.42-7.48,12.99-8.08,19.88ZM480.64,1084.46c-10.24,2.71-17.38,8.4-25.08,16.49l-1.54-17.91-3.33-21.12c-3.77,12.12-5.74,23.14-7.23,35.06l23,8.77c.99-3.85,2.35-7.95,4.82-10.74l9.35-10.55ZM438.75,1095.11c-2.9-5.6-7.58-8.03-12.75-11.05l3.1,7.17,9.65,3.88Z"/></g></svg>