<?xml version="1.0" encoding="UTF-8"?>
<svg id="Warstwa_1" xmlns="http://www.w3.org/2000/svg" version="1.1" viewBox="0 0 25.8 62">
  <!-- Generator: Adobe Illustrator 30.6.0, SVG Export Plug-In . SVG Version: 2.1.4 Build 109)  -->
  <path fill="#222601" d="M23.3,48.2c1.9,4.1,1.8,8.2.1,12.4-1.6-.3-3-.8-4.4-1.6-3.7-2.2-5.7-6.1-5.8-10.4-6.2-2.3-10.3-7.5-11.6-13.9-.6-2.8-.6-5.7,0-8.5.8-3.6,2.5-6.9,5-9.6,1.8-1.9,4.1-3.3,6.6-4.1.2-2.1.8-4.1,1.9-5.9.9-1.4,2-2.5,3.4-3.3,1.5-1,3.1-1.6,4.9-1.9,1.7,4,1.4,7.9-.3,11.7l.7.9c2.2-4.4,2.3-9.4.2-13.9-6.2.8-11,5-11.9,11.4-5.1,1.8-8.6,5.6-10.7,10.6-2,5-2.2,10.6-.5,15.8,1.8,5.5,5.6,9.7,11.1,11.9.2,2.5,1,4.9,2.5,7,1.1,1.6,2.6,2.8,4.2,3.7,1.6.9,3.4,1.4,5.2,1.6,2.2-4.7,2.3-10,0-14.6l-.8.8Z"/>
  <path fill="#222601" d="M22,58c1.5-4.6.8-9.4-1.7-13.5-2.5-4.2-6.8-7.4-7.3-12.6l-.2-.3c0,.1,0,.4-.1.5l-.9,1c.6,2.3,1.9,4.7,3.4,6.7l2.9,3.7c2.8,3.6,4.2,8.2,3.1,12.7-1.6-.7-2.7-1.8-3.5-3.3-.6-1.2-.9-2.5-1-3.8l-1.3-.6c0,4.5,2.3,8.2,6.7,9.6Z"/>
  <path fill="#222601" d="M22.6,23l-2.2-1.8c-1.8-1.5-3.3-4.2-3.6-6.5-.5.3-.8.5-1.2.8.7,3.3,2.6,5.9,5.2,7.9,1.3,1,2.2,2.2,2.6,3.8.8,3.4-.4,7.2-2.5,10-.9,1.2-1.8,2.3-2.8,3.5l.9,1.1,2-2.3c2.2-2.6,3.7-5.7,4-9.1.3-2.6-.3-5.6-2.3-7.3Z"/>
  <path fill="#222601" d="M15.4,12.8l1.3-.6c.4-2.8,1.9-5.3,4.6-6.4.9,4.2-.7,8.5-3.1,11.8l.8,1.3c1-1.4,1.8-2.7,2.5-4.2,1.5-3.3,1.9-7.2.8-10.7-4.2,1.3-6.6,4.6-6.8,8.9Z"/>
  <path fill="#222601" d="M4.7,27.3c-1.7,2.4-1.3,5.7.9,7.5,1.8,1.5,4.5,1.6,6.3,0l-.5-1.4c-1.5,1.1-3.5,1.3-4.9,0-1.9-1.7-1.7-4.6.3-6,.9-.7,2-.8,3.1-.5.6.2,1.1.4,1.6.8l.5-1.5c-2.4-1.8-5.5-1.3-7.2,1.1Z"/>
  <path fill="#222601" d="M10.5,19c.2,0,.4.2.6.5.1-.4.3-.8.3-1.2,0-.3-.6-.6-.8-.6-1.6,0-2.7,2-2.8,3.6,1-.3,1.8-.2,2.6,0l2.3.7c-.4-3.7,1.8-7.2,5.2-8.4.8-.3,1.5-.3,2.3-.2l.5-1.3c-2.5-.5-5.2.9-6.9,2.8-1.3,1.5-2.1,3.4-2.3,5.4-.4,0-.8,0-1.2-.2-.3-.1-.4-.5-.3-.7,0-.2.3-.4.6-.4Z"/>
  <path fill="#222601" d="M11.4,40.9c.3,3.5,2.4,6.4,5.5,7.8,1.2.5,2.4.7,3.6.4l-.4-1.3c-.9.1-1.8,0-2.6-.4-2-.8-3.5-2.4-4.3-4.3-.3-.7-.6-1.5-.6-2.3v-1.6s-2.3.6-2.3.6c-.9.3-1.7.3-2.7,0,.2,1.5.9,3,2.3,3.5.4.1,1.1,0,1.3-.5,0-.3-.1-.9-.3-1.2-.2.2-.3.4-.5.5-.2,0-.4-.1-.6-.3,0-.1-.1-.3,0-.5.1-.4.9-.6,1.5-.6Z"/>
  <path fill="#222601" d="M15.3,24.1l1.9,2.7-.3-.3-2.6,3.5-.4.6,3.1,4.1-1.6,2.3.8,1.2,1.7-2.2,1.8,2.2.9-1-1.7-2.2c-.1,0-.3,0,0-.1l-.8-1.2c0,0-.2,0-.2,0v-.2s-2.1-2.8-2.1-2.8l2.1-2.9-.2-.3c.2.1.3.3.4.5l2,2.8-2.1,2.9.9,1.2,3-4-3-4c-.2-.3-.3-.5-.5-.8l.5.5,1.9-2.5-1-.8-1.6,2c0,0-.1.1-.1.2v.3s-1.8-2.4-1.8-2.4l-.8,1.1Z"/>
  <path fill="#222601" d="M11.9,27.7c-.4,1.7-.6,3.3-.2,5l1.2-1.3c-.1-1.5.1-2.9.6-4.4.5-1.4,1.1-2.6,2-3.7l2-2.6-.8-1.2c-2,2.6-3.9,4.9-4.8,8.2Z"/>
  <path fill="#222601" d="M23.2,39.7c-.3-.3-.7-.4-1.2-.3-.7.1-1.4,1.3-.9,2.3.2.3.5.5.8.5.3,0,.7-.1.9-.4l-.6-.8c0,0-.3-.1-.2-.2v-.2c.2,0,.3,0,.4,0,1.7,1.5,1.2,4.6-.4,6.2l.5,1.3c2.6-1.9,3.1-6.4.7-8.6Z"/>
  <path fill="#222601" d="M24.3,16.9c.2-1.6-.6-3.1-1.9-3.9l-.5,1.3c.6.6,1.1,1.3,1.1,2.2,0,1.2-.8,2.8-1.6,2.6,0,0,0-.3,0-.3.3-.1.5.2.8-.4-.4-.4-1.1-.4-1.5,0-.4.3-.6,1-.3,1.5.3.6,1.2.8,1.9.4,1.1-.7,1.8-1.9,1.9-3.3Z"/>
  <path fill="#222601" d="M16.8,42.5c-.6,1-1,2.1-1.2,3.2l1.1.8c.2-1.1.5-2,1-2.9l-.9-1.1Z"/>
  <path fill="#222601" d="M22.7,32.8c0,0,.1-.4,0-.5l-.8-1.5-.9,1.2,1.1,2.1.5-1.3Z"/>
  <path fill="#222601" d="M23.8,36.2l-1,1.7v.9c.4.3.8.5,1.1.9.2-1.2.2-2.3,0-3.5Z"/>
  <polygon fill="#222601" points="14.6 29.2 13.6 27.9 13.1 29.5 13.7 30.3 14.6 29.2"/>
  <path fill="#222601" d="M21.2,21.2l1,.8c.3-.6.7-1.1.6-1.8-.4.3-.8.5-1.3.5l-.3.6Z"/>
  <path fill="#222601" d="M13.8,33l.8-.9-.9-1c0,.2-.2.4-.1.6l.3,1.3Z"/>
</svg>