<?xml version="1.0" encoding="UTF-8"?><svg id="Warstwa_1" xmlns="http://www.w3.org/2000/svg" viewBox="0 0 720.65 519.32"><path d="M183.66,439.14l-18.49,2.46c-14.78,1.97-28.73,6.3-42.27,12.31l-15.55,5.96-14.65,4.91c-11.86,3.15-23.73,5.56-36.01,6.5-7.24.56-13.87,1.23-20.85,3.12L0,484.11l20.66-2.49,21.96-2.99,15.89-2.45c10.02.37,19.6-1.09,29.18-3.92,8.4-.5,16.44-1.54,24.63-3.23,3.54-1.78,7.24-2.22,11.15-2.69,3-.36,5.63.33,8.61.25l8.21-.21,12.74-.96,21.85-1.89c-7.73-1.4-28.27-5.32-26.49-10.29,1.08-3.02,4.24-5.12,7.18-6.35,3.74-1.56,7.7-3.64,11.7-4.12l13.03-1.57c-6.95,2.47-13.95,3.7-20.23,7.75l3.72.94-4.76.42c-1.17,2.34.91,4.23,3.3,4.44l9.11.78-5.79.78c.99.53,2.51,1.25,3.79,1.52,11.47,2.4,22.78,3.23,34.47,3.99,8.28.54,27.6,2.59,29.51,7.35,1.48,3.69-15.52,7.3-22,8.81l-11.33,2.65-21.93,4.23c-5.99,1.16-11.37,3.23-17.11,6.12l8.48.11c-4.71,1.33-8.74,1.96-12.7,3.88-1.83.89-3.17,3.61-2.08,5.25,1.63,2.48,4.42,4.13,7.12,4.33-2.02-2.42-3.13-4.37-1.38-6.72.64,4.95,4.11,7.51,8.57,8.29l13.73,2.41-9.55-.07c8.26,3.65,16.87,4.23,25.79,4.62l15.86.69,27.84,1.21,13.91.87,8.4.4,19.9.46,11.21.08-9.58-2.85-8.96-1.78c2.48-3.26,5.22-5.45,8.9-7.91-4.96-.25-9.43,2.18-13.66,6.01.16-4.4,3.4-7.26,5.96-11.12-2.72-.19-5.13,1.14-6.67,3.16l-3.63,4.77c-.15-5.47.61-11,2.62-16.94-4.96,3.52-6.59,8.84-8.06,14.74-2.44-7.34-7.27-13.87-15.04-16.8,4.91,5.89,9.22,12.2,9.12,19.6-4.55-5.99-11.28-9.13-18.63-8.52,5.21,2.96,10.19,5.4,12.15,11.22-5.43-.87-10.21-5.55-16.23-2.43,2.67.44,4.59.89,6.4,2.81-7.41.88-14.31.31-21.55-1.35l-11.07-2.53-5.59-1.63-13.84-4.98,4.9-1.34c-.8-1.09-1.76-1.76-3.1-2.58,2.73-3.09,7.07-5.1,11.33-6.2l19.43-5,13.49-2.95c7.07-1.54,13.79-2.47,20.39-5.27l-10.12.17,9.55-2.35c5.5-1.35,12.98-3.24,11.83-6.97-.28-.92-1.96-2.54-2.99-2.56l-8.99-.22,5.97-1.76c-14.08-5.3-29.98-5.48-44.78-6.81l-16.62-1.5c-6.75-.61-20.91-3.19-20.38-5.76.62-2.99,9.61-5.58,14.99-6.91l13.75-3.39c11.25-2.77,21.69-5.93,32.36-10.44s20.67-7.29,31.83-8.37c6.54-.63,13.13.45,19.17,2.9,2.82,1.15,6.14,2.91,8.94,3,3.63-1.06,7.04-1.36,9.85,1.3l-2.61.61c3.38,2.41,6.86,2.7,10.34,4.21,6.32,2.75,12.37,4.81,19.05,6.56,10.65,2.79,20.83,5.71,31.96,7.26.38.22,1.77,1.28.66.6-10.02-.36-19.1,0-28.68,1.2l-16.49,2.06c-2.44.3-5.34.76-7.68.09-3.85-1.12-7.38-1.53-10.8.02.66-3.57,3.11-4.8,6.24-6.8-4.3-1.3-8.1,1.15-11.13,5.17-.71-4.6.6-8.35,2.66-12.69-4.26,1.43-5.52,5.48-6.68,9.67-2.87-5.2-5.26-10.5-11.22-12.49,3.27,4.77,6.79,9.35,6.82,15.6-3.31-3.96-8.13-6.09-13.24-6.04-.29.31-.89.89-.68.95l1.06.32c3.31,1,6.17,2.99,7.36,6.71l-6.04-1.22-5.34,2.42.93-7.17c-1.4,1.4-2.39,2.75-3.71,4.7-1.22-3.88-3.47-7.79-7.61-9.92,2,4.03,3.59,7.24,4.28,11.67-3.28-2.23-5.92-3.33-9.54-2.23,2.29,1.27,4.1,2.32,5.76,3.99-3.8.19-5.58.51-8.45,1.2l-8.81,2.1c4.52,1.21,9.03,1.29,13.77,1.11l24.58-.92,9.49-.55,17.22-.89,8.25-.22c3.87-.1,7.12.77,10.93.16l7.69.03c12.36.05,24.21,1.03,36.71,2.8,1.07-.14,1.22.12.26.65l-13.01,2.09-17.99,3.67-5.4,1.96-16.26,2.75-25.75,5.65c-5.52,1.21-10.49,3.07-15.34,6.01l14.03-1.37-17.24,4.63c-2.62.7-4.89,2.57-5.15,5.27l9.93-1.32-3.3,2.8-6.48-.49c-.16,3.02,2.4,5.28,4.81,5.6,3.13-1.75,5.9-4.1,9.76-3.66-2,1.14-3.58,2.28-4.34,4.12l-.62,1.51c-.16.4,1.29.96,1.7,1.14l27.71,2.8.32.52-13.67-.04-8.9.15c10.67,3.83,21.07,6.35,32.06,7.17l32.37.75,23.41,1.69,7.18.68-21.99,1.92-12.04,1.06,15.61,2.13c16.12,2.19,32.11,2.84,48.34,1.4l33.67-2.99,13.92-1.82c.82.52,2.21,1.02,3.21.89,14.88-2.01,30.34-6.08,42.06-15.33,5.39-4.25,10.44-8.17,16.55-11.5l-3.41,3.87c5.56-2.05,11.11-5.08,15.94-8.92l10.65-8.46,1-.79.09.95-1.03.91c-.16.14,1.19.3,1.4.19l8.62-4.7c6.11-3.33,11.09-7.28,15.08-12.94l11.3-16.02c5.05-7.17,10.67-13.48,16.8-19.04l-.75,2.47.88-.16,6.87-5.03c7.2-5.27,12.11-11.27,15.72-19.55l2.63-6.04,8.02-8.11c2.12-2.14,5.35-3.99,6.77-6.66,1.52-2.87,3.12-4.62,5.84-6.32,2.39-1.49,4.45-5.15,7.16-6.26,7.18-2.94,12.95-7.06,18.27-12.71,3.25-3.45,5.35-6.98,7.08-11.58,1.11-2.96,4.58-5.38,6.59-7.83l4.04-4.92,1.41,5.87c6.78,24.12,8.11,48.81,4.51,73.64-.57,3.93.64,8.23,1.17,11.97l2.66,18.78c-2.01-2.73-2.12-5.61-3.05-9.05l-4.74,18.32,10.12,19.29c5.31,12.05,7.21,24.83,5.7,38.18l-13.09.76-20.87-.1c-12.27-.06-24.08-2.1-35.67-5.3l-17.09,6.68,17.3,4.54,8.25,1.91,9.58,1.68c22.18,3.9,41.17-1.72,62.76,1.6l-.05-16c2.21-35.47-17.32-48.6-14.92-62.95l2.27-13.57c1.58-9.45,2.28-18.39,2.21-27.99-.1-13.53-.23-26.58-1.31-39.99-.61-7.52-1.34-14.41-4.26-21.44l-1.42-5.11-2.3-10.31c-.25-.83-.56-.91-.86-.09l-4.99,10.7c-.11-5.2,1.87-9.79,3.64-14.69l4.76-13.18c1.49-4.12,3.39-8.63,2.7-13.09l-.86-5.54-.87-10.15c-.82-5.8-2.58-11.21-4.75-16.63l-.78-.86c-.12-.14-.33-.11-.36.09l-.21,1.3c-2.19,5.71-3.61,11.46-3.08,17.56,1.51,9.88-2.26,18.69-6.07,28.06-.48.99-.87.86-1.11-.24l2.62-7.92c1.09-3.31,1.51-6.79.78-10.21-3.03-14.33-8.59-30.26-14.4-43.77l-9.84-22.86-3.04-7.06c-1.81-4.2-4.43-4.9-6.57-16.49-.78-4.2,1.09-7.34,3.56-10.28,5.25-6.26.96-13.27-.46-12.54l-3.18,1.64c-.17-.28-.36-2.66-.08-3.56,1.67-5.42,1.31-11.75-2.13-16.14-1.84-2.35-4.03-2.73-6.4-1.29-1.43.87-2.54,2.19-3.29,3.77l-2.61,5.55c-2.28,4.86,1.22,10.22,4.62,13.92l1.2-4.71c.81-.69,1.09-.29.47.76l-.15,7.84,2.11.99c.45.21-.73,1.54-.74,2.17-.09,4.92,1.31,10.25,3.3,15.09-2.81-3.21-5.72-7.09-6.27-11.38l-1-7.87c-.39-3.1-5.66-6.44-6.67-11.85l-1.06-5.68-.71.78-1.76,1.15c-1.54-4.49-.4-8.47,1.54-12.63,3.17-6.79,2.98-10.56.56-17.37-.4-1.12-1.96-2.18-3.21-2.85-.73-3.91-4.24-8.7-8.49-8.49-5.2.25-7.59,5-7.28,9.5.16,2.26-1.91,5.28-4.08,4.22-4.01-1.97-5.28-6.97-5.14-11.22.04-5.59-2.24-11.2-6.19-14.92l-2.94-.19c-.57-.04-.75-1.59-1.25-2.18-2.55-2.99-7.08-5.01-10.96-4.82-3.55.17-4.42,3.81-5.57,6.24-2.8,5.94.7,7.32.27,11.16-.1.92-1.67,2.55-2.7,2.56-3.3.03-5.57-2.42-7.19-4.92-3.49-5.38-8.31-9.36-14.84-10.46l-5.65,1.4c-1.09.27-2.64,2.11-2.94,3.2-.95,3.52,2.47,5.59.96,7.44-1.85,2.26-7.07-1.06-10.63,0l-8.55,2.53c-2.44.72-6.54,2.23-6.81,5.55-.2,2.52,2.03,5.87,3.34,8.13l2.91.59c2.08,5.29,7.76,4.16,7.69,8.05-.04,2.4-5.18,3.55-4.53,8.09.25,1.79,1.88,3.39,3.48,4.57,2.29,1.7,4.35,1.69,7.08,2.11,2.91.44,5.53,1.16,8.58-.08,6.68-2.73,11.88-1.4,12,1.9.18,4.83-8.73,3.45-9.38,14.44-.15,2.62-.52,4.18,2,6.12,5.32,4.08,9.83,1.09,12.54,3.44,3.78-.24,8.3-1.33,11.33-3.8,7.62-6.22,14.19-5.37,14.66-1.82.21,1.59-1.07,3.6-2.45,4.3-2.89,1.47-3.44,3.16-3.95,6-.3,1.69-1.23,3.53-.69,5.44.88,3.09,7.1,6.21,11.44,3.78l3.71.97c4.88-.11,7.55-3.36,10.76-5.94,6.56-5.28,15.8-4.84,22.7-.81,3.01-.07,6.67-.57,8.56,2.82-3.86-1.52-6.96-2.1-10.71-.95-.74.04-1.25-.14.09-.76l-.34-1.46c-3.41-.95-6.13-1.54-9.69-1.91.93,2.41.87,4.15-1.03,5.51-2.09,1.5-2.88,5.22-.32,6.87,5.77,3.72,11.81-1.14,15.27-1.93,5.95-1.37,11.41,3.03,14.6,7.49,1.57,2.2,2.29,4.05,3.17,6.47l2.21,6.09c.99,2.71,2.06,5.3,2.62,8.11-4.92-2.24-9.21-4.99-14.41-5.43-2.83-.24-5.74.25-8.23-1.73l-6.32-5.02c-.54-.43-1.93-.77-2.57-.67s-1.38,2.1-.84,2.47l7.87,5.45c-4.6,1.94-8.88.53-10.55,2.98-.41.6-.35,1.89-.37,2.9l-5.29,4.13c-3.06-7.13-6.27-3.75-10.03-6.68-4.62-3.59-5.12-1.72-10.87-1.6-6.78.13-17.36,7.27-14.65,14.62,3.47.82,6.93,2.19,9.91,4.38,8.96,6.59,18.92,17.61,20.95,28.55,2.55,1.94,6.98.14,9.16-1.92l.98-.93-.7-.8c-.73-.32-1.46-.65-1.42-1.06s.51-1.56.87-1.76l1.86-1.05c.47-.26,1.11.7,1.85,1.86,1.42-1.25,2.59-3.62,2.99-5.99l1.39-8.28c.56-3.32-1.85-7.43-3.74-10.07l-3.84-5.39,2.76-2.19c1.45.31,2.67.53,3.6.49,2.55-.12.82-5.68,3.6-6.33l5.55-1.3c2.22,3.21,5.79-.65,12.15,3.34,5.22,3.27,10.22,7.93,12.83,13.69,5.57,12.29,10.29,24.41,13.71,37.39l2.1,10.47c1.82,9.05-.07,18.66-4.65,26.64l-8.23,14.36-4.91,6.96-7.18,8.34c-.23.07-.97.19-.88,0l.48-1.06.41-.9c.1-.22.32-.92.11-.83l-1.5.62-11.79,8.99-12.01,10.25-.35-18.5c-.11-5.86.69-11.08,3.27-16.25l1.93-5.78c2.82-8.43,8.65-15.06,14.35-21.85l.68-.23-2.13,4.95c7.15-5.22,12.52-11.5,17.1-18.74,1.84-2.91,2.92-5.73,4.22-8.87s4.08-6.26,4.8-9.4l-7.79-20.6c-3.56,8.19-5.95,15.86-10.87,22.47l-.57-1.76c-.07-.21-.94.3-1.09.48l-10.96,13.23c-.27,1.01-.72,2.84-1.42,3.28l-8.52,5.28-9.61,4.56-1.06.41c-.17.06-.78.06-.72-.11l.51-1.28-6.9.62c-6.85.61-12.94,2.6-18.67,6.16-2.1,1.3-4.59,1.34-6.4,4.18l12.3-1.21c2.66-.26,5.57-1.5,8.16-.88l6.19,1.5c.23.06,1.12.26,1.11.27s-.58.45-.86.68l-10.11,8.26-6.69,5.89c-7.6,6.69-14.04,11.84-23.85,6.87-4.64-2.35-9.56-.2-9.39,1.55.08.76.84,2.1,1.35,2.76l1.06,1.37c1.14,1.47-6.46,3.48-10.66-2.26-2.67-3.65-6.29-6.51-10.75-7.2s-9.23-1.43-13.24,1.46c-1.77,3.44-1.17,7.91,1.98,10.59.68.97,1.29,2.77.84,3.57-2.14,3.76-8.1,1.8-12.73-1.87-3.81-4.62-8.92-7.13-15.03-7.93l-1.93,1.85c-4.6-.91-11.26-1.09-14.33,3.59-1.98,3.03-.56,8.31,1.01,11.27l4.26,3.11c.84.61,1.53,2.76,1.29,3.71-.83,3.2-6.46,3.79-11.49,1.66-5.42-2.29-11.42-2.69-16.56.18l-1.39,1.68c-5.25.44-8.98,4.82-8.91,9.98,1.92,6.68,8.66,5.91,9.11,8.77s-7.15,3.35-13.29,11.5c-2.4,3.19-4.06,6.68-3.47,10.17.16.97,1.76,1.81,2.91,2.38,3.87,2.27,7.83,3.61,12.46,3,1.92,3.09,4.88,3.49,8.23,2.1l7.4-4.35c.82-.48,3.1-.27,3.79.27,2.81,2.18-3.28,7.48-.13,11.76,3.12,4.24,9.57,4.29,13.05.43l3.36.38c3.01-1.35,6.83-3.84,8.02-7.23,1.65-4.73,3.46-9.03,8-11.84,1.29-.8,3.28-1.02,4.26-.36,4.17,2.82-.84,7.86.41,13.96l3.76,3.01c-.16,3.46,2.39,5.82,5.74,5.37,5.32-.72,9.69-4.02,11.89-8.8l4-.26c2.82-3.92,5.73-8.88,5.26-13.97s-.49-10.26,2.76-14.85c.72-1.01,2.47-2.02,3.44-1.66,1.03.38,2.41,2.15,2.42,3.36.04,4.78,3.69,8.75,8.64,7.99,4.51-.69,4.16-7.15,7.21-8.08,3.24-5.34,2.66-11.62.24-17.35.06-2.22.7-4.83,1.33-6.99l3.47,4.65c.16.21.64.69.82.84,1.2.95,5.26-4.82,1.94-10.79-3.14-5.65,2.81-16.9,9.32-20.38,2.63-3.02,5.82-5.5,9.55-6.94l12.4-8.13c.19-.22.89.69.51.77-4.29,9.74-9.26,23.2-8.84,32.88l.4,9.06.05,1.12c0,.22.61.76.67.55l.57-2.15.64.98c-.17,7.67-1.1,14.94-4.26,22.11l.74-11.55c-.2-.85-.81-1.82-.91-.95-2.22,6.4-4.2,11.71-7.09,17.24-2.17,4.15-3.13,8.72-5.99,12.5l-9.71,12.85-1.23,1.13c.09.41-.1-.47-.13-.62l2.88-5.29-5.72,4.66c-13.08,10.66-17.12,24.18-24.15,31.61l-11.53,12.19,2.65-5.35-15.42,10.5c-3.6,2.45-6.27,6.8-10.31,8.57l-7.69,3.36c-.58-.4-1.84-.74-2.37-.54l-18.8,6.96-11.4,5.79c-1.97,1-4.24,2.73-6.34,3.05l-11.74,1.81c1.04-6.1,4.77-11.38,10.65-15.18.7-.61-.25-1.2-1.19-1.01-4.94,2.01-9.43,4.34-13.3,7.86l-4.5,5.59c-.76-9.52,2.68-17.6,7.58-25.03-4.97,3.15-9.04,7.31-11.18,12.39l-3.34,7.91c.22,1.12-.38.87-1.06-.09.1-5.21.86-9.41-.79-14.8l-2.38,8.28c-3.19-5.29-7.67-9.66-13.05-12.88l-.89-.54c-.16-.1-.74-.19-.64-.04l.86,1.27,4.51,6.7c3.33,4.94,5.01,10.64,4.82,16.79-4.59-6.59-15.01-12.16-23.58-11.49l4.62,2.93c4.73,3,8.88,6.6,11.11,11.87l-4.28-.24c-13.24-8.47-19.91-2.63-18.24-2.41l1.27.17c3.85.5,7.61,2.05,9.83,5.71l-17.76,1.5c-2.68.23-4.31.2-7.04.09l-9.73-.41-26.96-.42-19.46-1.24,13.52-1,1.24-.09c.24-.02-.45-.71-.67-.89l-23.22-2.99-13.11-2.01,4.1-.72,1.69-.24c.31-.04,0-.78-.23-1.29-.22-.4-1.42-1.43-1.97-1.41l-8.7.29c-.27,0-1.4-.21-1.25-.33l.68-.54c.15-.12.82-.34,1.04-.39l9.55-1.88c1.72-.34,4.11-2.02,6.04-3.17l-7.39.3c4.54-2.04,9.12-1.11,13.4-2.12l21.4-5.05c-.51-.2-1.42-.51-1.57-.5l-7.14.59c-1.25-.06-1.18-.48-.02-.76l34.53-6.17c2.09.76,4.34.9,6.64.55,6.73-1.02,13.21-1.55,19.58-3.68,3.68-1.23,7.5-1.36,11.41-2.18l7.56-1.58,9.55-.84c5.76-.5,11.55-.5,17.08-2.01,4.16-1.13,7.76-.68,12-.64l20.77.19,5.37-.56.98-.51-6.57-1.02,13.31-.8,4.7-.44,10.68-.21,24.35-.57c2.62-1.8,5-3.67,7.65-6.38-10.32-.03-19.31-1.53-29.23-3.6-27.67-5.76-53.71-15.86-77.52-31.03l-19.07-10.67c-13.05-7.3-29.34-7.33-42.99-.93l-22.57,10.58c-3.21.09-6.15,1.29-8.79,3.22l-23.79,6.91,8.17,3.99c6.92-1.15,13.93-2.62,20.38-5.62,15.42-7.17,32.07-13.15,48.76-7.84l13.08,3.21-5.55,1.66,12.33,4.3,12.14,4.98,4.92,2.07c.18.07,1.12-.07,1.1-.25l-.18-1.51,8.8,3.24-3.02,1.13,19.87,7.06,25.68,6.98,7.92,1.74-21.01,1.88-7.14.48c-5.63.38-11.06.77-16.54,2.01-10.77,2.43-21.23,2.24-32.07.56l-6.86-.15c1.79-2.88,3.9-4.17,7.11-6.44-4.94-.94-8.54,2.14-11.97,6.15-.71-4.58,2.49-7.79,6.57-10.71-5.86.49-10.28,3.82-13.04,9.55-.5-6.04.92-11.84,4.49-16.82l.7-.97c1-1.38-5.89,1.24-9.29,10.61l-.49,1.36c-.11.31-.35-.02-.65-.58-1.44-5.9-5.24-11.72-10.21-14.59l-1.2-.69c-.15-.09.08.75.25.99,3.24,4.68,6.68,10.67,6.39,17.29-3.71-4.27-7.38-8.53-13.65-8.69-1.18,0-.87.73.15,1.05,1.71,1.15,3.57,2.53,4.46,3.92l2.63,4.13-1,.5-11.65-2.82-32.78-10.65c-9.89-3.21-18.44-8.88-27.65-13.65l-11.72-6.07c-7.01-3.63-14.47-6.18-22.49-6.46-15.62-.54-29.01,9.8-40.69,15.42l-10,4.81-7.14,2.92-5.62,2.17c-11.53,4.45-23.15,7-35.64,8.66ZM565.91,143.17l4.95-1.45-15.81-5.52c5.88.65,10.61,2.79,16.4,4.73l-.09-1.84c1.31,1.56,2.91,2.99,4.94,3.73,8.97,3.27,17.11,6.89,25.95,11.35l-4.04-10.17c-1.87-.94-3.94-2.16-4.59-4.33l4.3,3.3-1.72-9.96c2.89,7.81,4,16.09,9.66,22.46l3.7,4.16c-9.76-1.3-17.61.62-26.56,4.97,1.09-1.9,4.05-2,3.95-2.77l-.15-1.17c1.34,0,2.96-.14,4.28-.49l12.22-3.29c-10.14-5.73-19.76-10.68-30.31-14.26l-7.07.56ZM630.11,175.91c-6.23-5.34-12.51-10.04-19.21-14.71l2.92-.24,14.34,10.35c-.84-4.21-2.73-8.11-2.56-12.04l.47-11.34c.7,9.09.77,18.31,5.75,26.1,2.58,4.04,9.38,7.77,11.25,13.25-3.94-2.27-6.19-6.07-9.95-7.99-6.92-3.54-14.19-1.46-21.03,2.02,4.66-4.64,10.65-5.02,18.02-5.4ZM601.81,232.91c-.36.24-1.46.57-1.85.65s-.33-1.64-.1-2.03c1.14-1.87,5.17-3.65,6.99-2.06l-5.04,3.44ZM607.62,232.5c-.21-.93,2.16-2.37,2.97-2l2.76,1.25c-1.86,1.6-4.56,2.53-5.73.76ZM612.95,244.89c-.38.14-.45-1.68-.32-2.13l1.89-6.45c.23-.77,1.35-2.11,1.98-1.82l2.33,1.05c.27.12.77.89.88,1.15s-.48.81-.74.72l-1.09-.38c-.54-.19-2.33-.07-2.4.51-.05.46.04,1.34.16,1.81l.62,2.51c.08.32-1.23,2.25-3.31,3.03ZM606.29,239.32c-1.13-1.6-.21-3.58.85-3.71,1.28-.16,2.81.36,3.74,1.42-1.37,1.08-3.18,1.99-4.59,2.3ZM598.23,240.49c-1.32-1.35-.45-3.87.95-4.36,1.76-.62,4.17-.04,3.97,1.89l-4.92,2.47ZM589.35,240.74c.13-.65,1.07-2.56,1.8-3.15.94-.76,2.58-.77,4.1-.2l-2,3.49-3.9-.13ZM619.14,241.57c-.06-.74,1.7-1.08,2.4-.73.49.24.63,1.58.39,2.25-.17.48-1.35,1.12-1.85,1.22s-.82-1.27-.94-2.74ZM605.31,246.64l-.99-4.02c1.28-.79,3.41-1.43,5.04-1.16.25,1.17-.21,3.12-.94,3.52l-3.1,1.67ZM597.91,243.52c.02-.89,2.61-1.68,3.54-1.33.46.17,1.01,1.89.58,2.1l-1.47.74-1.72.86c-.38.19-.95-1.66-.93-2.37ZM617.55,250.54c-.39-1.52.97-3.81,2.43-3.81.68.05,2.09,1.25,1.86,1.9l-.91,2.52c-.21.58-1.41,1.47-2.02,1.55s-1.09-1.16-1.36-2.17ZM624.33,248.45c-.05-.64,1.73-1.42,2.15-.99.78.8,1.61,3.07.92,3.66l-2.68,2.31-.39-4.98ZM611.68,252.7l-.13-5.07c1.53-.18,3.39.22,4.03,1.24-.55,1.92-2.12,3.36-3.9,3.83ZM604.22,250.38c1.94-1.98,2.64-2.3,4.72-2.61l-.31,4.02c-1.81.27-2.66.16-4.42-1.42ZM629.67,255.47l.33-6.69c2.41,2.11,3.14,5.68-.33,6.69ZM621.8,257.01c1.48-1.85,2.99-2.38,4.56-1.69l-1.43,4.9-3.13-3.22ZM616.38,255.43l3.19-.87c.78,2.39.3,5.15-3.07,6l-.12-5.13ZM612.38,258.68c-.76-.14-1.77-1.8-1.28-2.21s1.98-.93,2.79-.91c.53.01.58,1.64.3,2.07s-1.3,1.14-1.81,1.05ZM628.28,264.13c-.37-3.99.81-7.96,2.21-7.38.69.29,1.5,1.48,1.52,2.06.08,2.76-.93,5.45-3.72,5.32ZM622.5,261.81c.17-.56,2.52-.35,2.67.3.36,1.55-1.4,4.41-3.8,3.49l1.13-3.79ZM614.51,262.31l5.37-.17-2.55,4.38-2.82-4.21ZM618.46,268.89l5.16-1.36c-.37,2.9-1.14,3.66-3.26,5.6l-1.9-4.24ZM511.3,378.91c-7.23-1.56-13.53-2-19.82-4.71l15.06,2.85c2.32.44,6.46,1.32,8.61.37l27.7-12.17-12.27-3.53-8.64-.18.27-.44,5.27-.47-5.55-4.38c6.23,2.93,10.89,5.42,17.32,5.9,2.58.19,6.72,1.37,9.24.45,7.62-2.8,14.01-6.97,20.87-11.26l-9.57-2.79-4.3.75-.44-.47,3.13-.98-1.78-2.3c5.72,2.47,12.1,5.03,18.25,2.81l12.04-6.97-7.48,6.78c-4.74,5.69-5.66,12.74-5.9,20.07l-1.15-6.64-3.93,2.97c.56-2.55,3.35-4.25,4.18-6.32l3.38-8.42-14.92,8.67c-2.14,1.24-4.84,2.15-7.3,2.77-6.25,6.15-8.58,14.83-9.86,23.41l-.8,5.39c-.37-2.77-.07-6.81.28-9.32l-.72-1.71.66-1.48,5.24-12.57-29.46,12.05c-3.1,1.35-4.01,5.55-7.05,7.63l3.23-6.03-24.01,9.12.21-.8,20-8.05Z" fill="#d8c6a5"/><path d="M690.32,106.16c6.24-2.17,10.58-9.56,7.97-11.92-1.7-1.54-3.38-.8-5.18-2.05-.51-.35-.29-2.14.06-2.68,2.05-3.18,5.42-4.63,8.92-6.15,1.79-.78,4.67-3.73,5.32-5.54l2.26-6.28c.95-2.63.45-5.11-1.64-6.69-3.86-2.91-6.86,1.25-9.76.25s-.73-5.96,3.91-10.62c3.05-3.06,6.25-9.89,4.21-14.32-2.45-5.32-8.08-.3-8.82-1.63-1.56-2.81,1.32-6.51.74-10.41-.85-5.61-3.85-10.06-7.89-14.11-3.26,1.37-5.61,3.66-7.57,6.43-3.09,3.45-4.61,7.56-4.06,12.44l-1.24,2.23c-.62,1.12-5.54-4.56-7.9-.47-2.91,5.04-2.19,11.38.82,16.46,2.39,4.02,3.27,8.44.98,9.41-.63.26-1.83-.21-2.64-.65l-3.87-2.13c-6.74,2.02-4.34,13.75.72,20.15,1.96,2.47,3.45,5.38,2.63,8.81l-4.43-1.63c-2.84,1.32-2.42,4.46-1.75,6.91,1.02,3.75,2.73,6.23,5.19,9.3,2.72,3.41,4.34,8.91,3.95,13.28l-.75,8.45-7.05-9.21-2.89-4.13c-6.26-8.95-10.14-19.01-7.49-29.99,5.54-6.21,6.89-18.74,2.43-20.02-.86-.25-2.56.55-3.37,1.11l-1.58,1.08c-1.03.7-3.61-3.97.62-10.75,3.54-5.67,4.16-14.03,1.69-19.33-.62-1.32-3.3-2.5-4.74-2.38-4.06.34-6.21,7.41-8.34,5.08s-1.26-6.01-.27-8.7c2.62-7.15-.08-16.32-4.97-17.27-3.64-.7-4.68,4.14-6.19,5.27-1.88,1.42-3.34-5.04-5.74-7.3-3.5-3.3-7.53-5.03-12.27-6.45-3.75,9.46-4.23,12.32-1.27,21.05.56,1.64-1.9,2.86-3.39,2.45-2.15-.6-4.11.26-4.62,2.46-.57,2.46-.16,5.73,1.19,7.8l2.68,4.13c2.35,3.62,7.62,3.94,9.47,8.17.33.75.11,2.57-.33,3.17s-2.27,1.1-3.01.83c-4.04-1.44-8.74.01-10.19,4.19-.92,2.66,1.34,5.1,2.05,7.14.8,2.3,1.31,3.91,3.24,5.32,3.28,2.39,6.52,3.88,10.63,4.37s7.84,3.5,7.04,5.72c-.87,2.41-5.32.33-7,4.32-2.12,5.06,6.69,10.39,13.09,10.92,1.15.09,3.6-.61,4.72-.34,5.8,1.41,10.76,5.23,14.82,9.4,1.9,1.95,2.48,4.05,3.34,6.34s2.1,4.06,2.18,6.61c1.42,3.28,3.68,6.17,6.51,8.36,2.32,5.94,5.58,11.07,9.05,16.47.68,8.81,4.61,14.91,9.7,21.59,2.41,3.16,3.98,6.82,5.19,10.73l-3.62-4.12,1.11,5.63c1.47,7.47,4.72,14.57,5.44,22.26s-.14,14.54-1.53,21.97l-.67-9.42-5.51,19.53c-.87,3.07-1.63,6.04-2.96,8.96-.95,2.1-1.17,4.17-.18,6.26l8.63,18.17,4.41-9.68c4.44-6.65,6.82-13.28,8.21-20.97,1.83-10.16,3.99-20.07,5.2-30.54.58-5.02-.8-9.52-1.55-14.46-1.57-10.34-4.64-19.66-9.93-28.69-1.36-2.33-2.26-5.12-3.88-7.29l-4.9-6.54c-1.49-1.98-3.24-4.66-4.08-7.01-3.77-10.47-3.96-21.61,5.28-28.06,1.14-.8,4.12-.58,5.47-1.05ZM644.31,88.81c-3.47-3.24-7.96-4.58-11.82-5.99,4.19-.58,6.91,1.78,10.8,3.04-2.28-5.2-3.83-10.39-6.42-14.85-3.75-6.46-11.19-8.42-17.7-10.7,6.09-.09,11.03,2.79,16.26,6.07l-3.01-9.36c-1.56-4.85-2.83-9.95-5.11-14.5-1.94-3.86-6.66-4.61-9.18-8.13l7.57,4.58-2.29-8.1,3.21,6.83,1.35-6.16c.17,2.67-.33,5.1-.86,7.66l8.32,21.8c1.91-4.73,3-8.93,5.52-12.84-1.48,5.88-4.56,11.88-3.02,18.22,1.34,5.54,3.85,10.63,6.16,16.17,1.12-4.13,1.87-7.38,3.5-10.73-.42,5.61-2.98,10.6-1.2,15.85l2.58,7.59c-2.07-1.68-2.73-4.61-4.69-6.45ZM675.12,110.92c-1.37-8.53,2.59-15.46,3.32-22.92.44-4.5-2.32-8.17-3.24-12.64,1.64,2.34,2.67,4.72,4.22,7.86,1.87-7.49,3.7-14.52,4.45-21.87l-3.25-11.48,3.87,8.8,2.67-18.19.46.34-1.48,16.52,3.47-3.77.32.36-4.14,5.79-4.3,24.88c4.13-3.2,6.95-7.46,12.09-8.41-10.88,7.12-14.45,13.06-15.31,26.22,3.24-1.74,5.01-4.57,8.43-3.26-6.55,1.82-9.63,5.93-11.57,11.77Z" fill="#d8c6a5"/><path d="M684.31,462.23c-5.19-4.37-12.88-9.01-19.47-7.98l2.28-2.08c-6.07-1.52-11.28-2.72-18.08-1.45l2.87,10.46c4.33,0,7.74.21,11.36,1.46-2.9,3.93-5.45,6.95-8.88,9.88-8.43-11.06-11.77-23.81-11.45-37.56-4.11.86-7.88,2.1-11.71,3.78.01,17.18,6.62,32.86,18.36,45.15,10.1,10.58,24.16,16.13,38.76,16.83l14.17-.29c-.44-14.77-6.93-28.71-18.2-38.2ZM670.06,472.62l3.19-3.73-1.75-1.96c9.46,4.02,15.57,13.81,19.13,23.32-10.52-.08-19.98-3.88-28.05-9.68l7.48-7.96Z" fill="#d8c6a5"/><path d="M664.4,390.5c15.06,19.95,15.3,38.66,5.68,61.44l11.13,4.91c3.61-8.02,6.49-16.43,7.62-25.16,2.85-21.71-8.13-42.57-23.25-57.76-5.81,4.76-11.17,9.41-16.06,14.95-6.35,7.75-11.71,15.87-15.02,25.91,4.57-1.16,8.93-1.83,13.88-2.05,3.78-8.47,8.93-15.97,16.01-22.24Z" fill="#d8c6a5"/><path d="M604.96,484.67c-.94-4.43-1.77-7.82-1.33-11.83,1.1-10.15,4.93-19.04,11.86-26.67,13.87-15.27,35.9-20.36,55.56-12.67l.42-12.5c-30.57-9.73-64.35,4.61-76.09,34.1-2.78,6.99-4.29,14.27-3.43,21.52l.85,7.19,12.16.86Z" fill="#d8c6a5"/><path d="M67.26,510.84l20.24-.37,14.85-.38c11.67-.3,22.75-.44,34.42.25l11.81.7,19.02.92-14.73-4.92c-2.32-2.99-5.76-4.15-9.21-2.48h-4.24c.83-2.7,2.41-4.62,4.65-6.27l6.23-4.6c-6.92.18-12.57,3.72-17.59,8.57-1.15-6.91,2.91-12.65,8.14-17.88-4.46.77-7.92,3.51-10.31,6.95-2.9,4.17-1.64,10.43-1.71,10.44l-1.8.26c-.42.06-.97-1.4-.91-1.92l1.19-10.03-7.05,6.95c-.28-7.89,2.01-15.4,6.3-22.39-6.06,3.67-9.23,9.91-10.75,16.39l.29,8.03c.01.35-.85,1.73-1.13,1.53-.38-.27-.87-1.08-.93-1.6l-.64-5.71-1.42-13.18c-1.82,2.28-2,4.58-2.61,7.33l-1.2,5.48c-3.53-7.03-8.93-12.77-16.59-15.79,5.48,6.72,10.63,14.34,11.11,22.47-6.89-6.04-14.82-10.32-23.89-8.66,6.73,2.95,12.44,6.15,15.93,12.86-7.46,2.08-13.53-6.74-21.78-1.76,2.8.81,5.1,1.52,6.84,2.46l-11.86,2.47-18.73,5.15,18.08-1.27Z" fill="#d8c6a5"/><path d="M537.81,494.73c10.33.12,20.14.78,30.49,2.66l25.43,4.61,7.18.91c18.31,1.03,35.89-3.91,51.25-14.31-3.43-1.91-5.9-4.41-8.4-7.96-19.46,11.82-40.21,12.75-62.52,8.03-9.65-2.04-18.99-3.25-28.85-3.47l-14.58,9.54Z" fill="#d8c6a5"/><path d="M583,283.67c11.28,6.14,20.76,1.18,29.82-6.81,1.88-1.66,2.86-2.74,1.68-5.47-4.57-10.56-15.76-22.19-26.95-26.85-10.99,8.62-17.35,21.46-10.86,34.44l-1.54,6.46,7.86-1.77ZM578.1,272.03c-1.98-3.92-1.17-8.3.82-11.91,2.21-4.02,4.2-8.6,9.1-10.34-.85,2.72-2.68,4.71-4.28,6.81-3.55,4.66-5.83,9.81-5.64,15.45ZM589.68,283.14l6.2-1.36c5.54-1.79,9.93-5.16,15.2-8.14-4.61,6.48-14.34,10.63-21.4,9.51Z" fill="#d8c6a5"/><path d="M543.89,514.84l18.09,3.22c14.28,1.22,28.48-1.18,41.83-6.19,4.29-1.61,7.96-3.79,10.41-7.77-6.64.94-12.43,1.07-18.77.55l-1.16-.09c-.26-.02-.25-.54-.33-1.15-9.44,3.27-19.55,4.77-29.88,3.95l-17.09-2.49,4.4-3.65-17.67.32c-3.08.06-7.19.51-9.83,2.06-8.77,5.13-17.16,9.12-26.69,12.88l25.98-.13,21.11-9.99c-3.4,2.41-7.22,4-11.63,6.03l11.21,2.43Z" fill="#d8c6a5"/><path d="M615.35,472.41l1.74-1.65c-1.86,5.09-3.18,9.03-4.27,14.93l12.16-2.76c.72-6.21,2.92-11.85,8.46-15.42l-3.78-10.42-7.51,5.44-12.55-.72-2.18,10.18,7.92.42Z" fill="#d8c6a5"/><path d="M574.04,482.52l13.35-6.84,1.06-10.74c-9.67,3.17-18.74,8.61-27.53,14.99l13.12,2.59Z" fill="#d8c6a5"/><path d="M210.74,445.5l-18.34,2.58c-3.36.47-6.45.51-9.49,1.82,6.1.19,11.58-.49,17.45-1.37l30.52-4.55,12.34-1.91-2.11-1.28,13.42-3.89c-4.86-1.93-6.7,1.35-12.07,2.16-1.94.29-5.11,1.42-6.76,1.09-1.88-.38-3.01-.68-4.59-.27l-6.28,1.66c-4.7,1.24-8.94,3.23-14.09,3.95Z" fill="#d8c6a5"/><path d="M266.91,474.33c2.95-.26,6.9-1.55,9.33-4.42-.08-2.76-3.64-4.47-6.04-4.84l2.15,4.08-5.44,5.17Z" fill="#d8c6a5"/><path d="M368.64,424.75c2.01.91,3.16-.57,4.7-1.03l9.64-2.86c-2.33-1.53-4.87-.39-7.09.61l-7.25,3.27Z" fill="#d8c6a5"/><path d="M462.78,482.23c1.97-1.59,3.44-3.35,4.67-5.33-2.88.24-5.4,2.3-4.67,5.33Z" fill="#d8c6a5"/></svg>