<?xml version="1.0" encoding="UTF-8"?><svg id="Warstwa_1" xmlns="http://www.w3.org/2000/svg" viewBox="0 0 871.79 764.62"><path d="M205.8,655.58c24.71-14.63,67.78-6.6,92.56,5.18l42,19.97,40.13,21.11-5.57-5.63c-8.1-10.89-14.89-21.8-19.42-34.61-9.04-25.53-6.98-52.84,7.29-75.84,17.27-27.84,49.74-40.66,81.54-32.94,31.17,7.56,54.11,33.36,56.2,65.63.78,12.06-1.61,23.23-7.51,33.47-13.52,23.46-41.96,31.96-66.48,20.55-15.17-7.06-26.5-20.94-27.93-37.76-1.23-14.46,4.93-28.05,17.68-34.25,8.63-4.2,18.45-3.25,25.45,2.77,4.77,4.11,6.85,10.66,3.67,16.01-1.72,2.9-5.7,3.81-8.04,1.5,2.91-2.92,2.95-6.69.27-9.39-5.53-5.57-14.49-4.34-19.03,2.31-7.2,10.52-5.28,23.97,3.61,33.53,8.82,9.49,22.57,12.38,35.83,7.89,10.25-3.48,19.13-13.2,21.75-25.55,3.84-18.12-2.6-36.36-17.02-48.34-18.75-15.57-45.76-17.27-66.28-3.77-33.55,22.07-34.77,69.47-12.7,102.84,11.59,17.52,27.05,30.62,45.51,40.51,11.86,6.35,24.06,10.33,36.96,14.19,17.96,5.37,35.3,8.51,54.08,10.23,63.37,5.8,133.86-11.25,175.7-61.11,39.16-46.67,38.94-107.21-5.45-148.54-18.77-17.48-43.14-26.45-68.51-26.46l18.95-6.01,60.65-15.32c55.61-14.04,110.29-37.75,132.33-93.54l2.81,2.38c16.8-38.56,13.14-81.73-3.07-120.26-7.6-18.08-17.04-34.12-27.22-50.76-8.43-13.78-15.64-27.52-21.48-42.49-4.93-12.65-6.96-25.47-4.73-38.7,4.22-24.99,27.99-39.54,52.12-32.68,16.78,4.77,29,17.35,32.2,34.78,1.76,9.58-.76,19.35-8.21,25.96-5.61,4.98-13.47,5.42-20.28,2.46-7.58-3.29-11.78-11.59-8.59-19.28,1.4-3.39,6.23-5.71,8.77-2.96,1.09,1.17.62,4.78,2.27,5.77,4.39,2.64,9.79-.23,10.98-5.02,1.89-7.63-1.25-14.97-7.11-19.88-6.18-5.18-13.97-7.48-22.38-5.37-6.31,1.58-12.65,7.04-15.78,14.24-9.67,22.21,3.07,51.91,14.97,73.47,13.54,24.51,25.36,48.84,34.34,75.54,12.7,37.79,15.69,81.83-.83,118.36-22.55,49.89-65.48,77.92-116.99,92.98l-35.24,10.31,17.09,17.43c31.06,39.53,36.89,86.66,15.29,132.53-25.71,54.59-79.78,89.85-139.25,98.63-43.46,6.42-87.28,2.23-129.51-9.85-37.05-10.6-70.94-26.59-105.34-43.51l-58.36-28.7c-19.95-9.81-51.96-17.64-72.6-9.98-9.02,3.35-15.64,9.71-18.5,16.82-3.9,9.67-3.06,19.24,2.02,27.1,6.3,9.76,18.21,13.99,28.85,9.77,6.61-2.62,9.54-9.93,6.68-16.12-1.11-2.39-3.4-3.6-5.01-3.9-2.43-.45-4.12.57-6.16,1.62-1.17-5.55,2.02-9.75,6.71-11.47,7.65-2.82,15.2.69,19.87,7.5,7.42,10.82,4.87,25.46-5.08,34.38-7.85,7.04-17.99,9.96-28.88,9.11-21.48-1.67-39.61-17.12-44.53-38.06-4.81-20.46,3.95-40.14,21.9-50.77Z"/><path d="M754.41,186.59c-1.67,3.01-.26,5.82.56,9.36,2.14,9.18-3.45,18.14-11.39,22.4l-7.22,3.87c17.81,5.31,33.94,11.35,48.91,21.65,19.49,13.4,34.61,31.1,46.26,51.61,3.54,6.23,6.58,12.71,7.57,19.39-1.9.71-3.48,2.28-2.87,4.61.64,9.38,2.76,18.08,1.54,27.48-9.68-40.6-32.11-74.81-68.77-93.86-18.14-9.43-37.81-14.06-58.12-12.42-36.34,2.94-64.86,29.19-71.13,65.73-8.69,50.66,21.44,107.26,72.8,113.15,16.42,1.88,36.93-5.32,45.08-20.59,2.09,22.35-19.85,37-41.83,37.8-23.81.86-46.72-8.86-63.52-25.97-34.39-35.05-44.87-87.81-25.36-132.86,8.67-20.03,23.13-35.83,42.29-45.7,21.12-10.87,38.78-8.8,47.81-20.14,6.27-7.88,2.72-16.75-1.16-17.53-1.47-.3-2.77.13-4.8,1.2-.83-3.24.59-6.63,2.73-8.71,2.41-2.34,6.21-3.16,9.84-2.42,6.9,1.4,10.18,7.79,11.39,15.38,2.5-9.05,8.9-14.54,19.38-13.43Z"/><path d="M659.79,521.88c-27.6,3.95-54.51,9.46-75.6,29.25-17.51,16.42-24.15,41.27-15.1,63.99,8.16,20.48,28.15,34.47,50.44,34.41,13.67-.04,26.54-5.88,35.57-15.34,13.22-13.85,15.8-34.45,4.87-49.96-7.25-10.29-20.57-14.33-31.5-9.09-4.05,1.94-6.45,5.45-7.42,8.56-1.4,4.51.45,7.92,3.05,12.48-11.13.48-18.32-8.34-17.4-18.82.92-10.43,8.34-18.72,18.49-22.35,14.27-5.1,30.45-2.19,42.64,7.2,24.52,18.88,29.6,52.71,13.04,78.64-18.25,28.58-53.24,37.87-85.11,28.6-27.56-8.01-47.8-30.18-53.88-56.53-6.77-29.33,3.46-58.02,26.03-77.1,25.37-21.44,60.57-26.45,91.86-13.94Z"/><path d="M793.05,113.7c6.18-21.03,8.61-41.15,3.2-62.31-1.8,2.97-.09,5.67.08,8.29.87,13.22-.58,25.8-2.52,38.8-1.26,8.39-1.54,17.35-8.73,23.58,2.04-10.75,2.47-20.43-2.93-29.55-3.68-6.22-10.08-9.85-16.68-8.37-3.2.72-5.28,2.82-5.87,5.06-.78,2.95-.01,4.91,2.34,8.01-10.8-.86-18.43-9.62-18.55-20.72-.11-10.25,8.01-17.37,18.27-17.12,8.92.22,15.92,4.59,21.85,11.62-.22-4.01-2.42-6.41-3.96-9.51-11.08-22.33-3.79-41.2,8.83-61.08,3.61-.32,6.12-.63,9.5-.07-1.39,7.41.23,13.98,3.83,20.07l12.93,21.86c10.2,19.82,7.11,42.2-8.04,58.33-4.27,4.54-7.26,9.86-13.55,13.13Z"/><path d="M871.79,226.9c-5.03,3.61-3.29,15.14-10.59,16.95-11.49,2.86-10.92,10.56-11.49,21.97-4.9-11.56-.64-23.18-2.32-35.4-2.16,7.14-2.59,14.82-2.72,23.06-3.55-6.52-6.34-12.05-8.46-18.43-1.4-4.21-.4-9.51.2-13.73,1.88-13.23,11.86-14.22,13.68-22.01l4.58,11.02c2.54,6.11-.48,10.85-2.47,18.16,6.53-6.03,13.72-6.89,19.59-1.59Z"/><path d="M310.79,719.61c17.76-8.56,38.58-8.6,56.66-1.07l12.53,5.22c-14.2-1.58-31.45-1.15-35.23,11.93-.64,2.23-.1,4.46,1.04,6.06.92,1.3,2.52,1.9,4.26,1.66.24-.13.43-.38.49-.55,1.03-.74,1.56.66.8,1.09-.11.07-.21.17-.29.28-1.18,1.78-2.75,3.53-4.7,4.96-4.77,3.52-10.65,2.03-14.04-1.15-4.61-4.32-2.49-8.84-1.71-15.91-6.89,8.08-12.58,14.71-23.01,15.06-9.15.31-18.16-1.57-25.32-7.38,14.14-.18,16.98-14.63,28.52-20.19ZM329.11,724.54c3.33,0,6.77-1.42,10.44-2.1l12.02-2.24c5.07-.94,9.41-.12,14.58-.77-13.02-2.86-25.73.47-37.62,4.29l.58.82ZM328.2,725.51c.68-.64.25-2.08-1.26-.48l1.26.48Z"/><path d="M549.42,677.13c5.81-7.52,8.72-15.26,7.99-25.44,4.84,5.4,9.48,9.09,15.33,12.52,12.97,29.64-9.08,53.78-38.34,63.03-24.3,7.68-47.89,9.04-72.12,1.68,22,1.24,50.04-2.94,62.49-20.25,3.73-5.19,4.86-11.47,1.95-17.33-1.15-2.3-3.51-3.36-5.65-3.41-2.09-.04-3.61.97-5.55,2.99-2.25-3.88-2.1-7.93-.1-11.09,3.4-5.38,12.6-6.42,18.11-.92,1.24-6.05-8.83-8.59-10.46-15.78-1.16-5.12,0-10.13,2.61-15.35,1.91,2.85,4.24,5.17,7.47,6.21,10.14,3.24,15.63,11.54,16.27,23.14ZM525.76,716.11l.62,1.01c.13-.99-.25-1.11-.62-1.01ZM526.52,714.96l.57.52c1.72-.28,3.57-.8,4.61-3.32-2.61.09-3.72,1.67-5.17,2.8ZM538.96,704l-7.4,6.8,1.3,1.42,7.4-6.8-1.3-1.42Z"/><path d="M31.06,726.05c10.69-1.66,19.99,1.67,31.17,4.88-10.28-9.61-11.36-23.04-3.3-32.62,13.26,19.52,34.8,28.74,57.77,26.21,17.54-1.93,32.71-10.5,46.3-21.59,2.4-.77,5.93.19,8.62.87-26.74,32.82-63.69,51.82-107.4,45.29l-28.6-4.65c-12.41-2.02-24.13,1.01-35.62,5.89,4.4-14.54,17.45-22.17,31.06-24.29ZM140.25,721.76c.76-.38.5-1.31-.34-1.26l.34,1.26ZM87.32,740.05c9.52-.43,18.16-2.63,27.18-5.55,9.01-2.91,17.76-5.88,25.11-12.08l-.68-1.14-14.58,5.96c-13.25,5.42-26.34,6.99-41.02,5.09,4.07,3.03,8.54,1.95,13.94,3.72-7.03,2.52-14.71,2.29-22.67,2.48l-16.1.37c9.34,2.46,18.92,1.6,28.83,1.16Z"/><path d="M143,696.2c-4.69-2.61-10.07-1.84-13.19,2.38-.65-8.07,4.06-14.4,10.08-17.48,6.77-3.47,14.17-3.4,20.53.57,5.98,3.73,12.23,4.04,18.88,2.13-3.75,5.25-9.87,4.96-14.67,4.41-4.38-.51-9.51-2.21-14.46.69l14.81.6c4.53.18,8.24.17,12.92-.97-10.72,12.87-20.66,15.6-34.9,7.67Z"/><path d="M738.23,283.09c6.18-3.71,9.88-9.03,13.59-16.36,3.8,8.97,8.11,16.41,13.73,23.76,9.29,12.17,4.26,28.37-10.83,37.02-4.54,2.6-5.63,8.41-2.87,11.97l-.32,4.9c-.95.69-3.28,1.84-3.77,3.31.05,4.33,2.38,8.23,5.02,11.57,5.8,7.37,3.71,17.55-4.46,21.95-4.01,2.16-5.56,5.79-9.24,10.05-1.87-5.43-3.71-9.78-7.21-13.98-6.06-7.27-3.85-17.75,3.97-22.46,3.01-1.81,5.01-4.33,6.77-7.19l-4.52-4.69c-4.89-1.98-10.41.57-14.32,3.72l-9.44,7.62c-14.41,6.91-31.98,1.89-41.25-11.31-4.62-6.57-9.57-10.81-17.38-15.66,8.91-1.61,14.99-5.36,20.76-10.96,6.9-6.7,16.9-7.81,26.05-5.83,20.47,4.42,21.26,21.94,32.86,25.55,2.25.7,6.92.5,7.14-2.69.4-5.66-3.91-10.43-7.35-14.29-10.3-11.58-8.69-28.95,3.07-36.01ZM747.09,333.17l2.19-25.68-1.3-.02-3.34,25.03c-.14,1.08,0,1.44.57,1.78.83.5,1.78.15,1.89-1.11ZM742.93,368.66c2.21-6.51,2.62-13.01,3.17-20.25.24-.61-.66-1.42-1.64-.24-.64,7.16-2.64,13.34-1.53,20.49ZM711.56,333.57c-4.71-.91-9.04-1.97-14.83-.48l41.8,7.5.08-1.78-27.04-5.24Z"/><path d="M826.24,352.18l3.33-13.24,1.98,17.56c.59,5.2,6.12,9.83,1.15,24.87-3.37-8.52-8.57-16.88-16.69-18.63-5.53,3.86-11.27,9.83-18.16,10.62-14.39,1.65-26-4.56-32.13-17.01-2.8-5.69-8.15-9.68-13.22-12.52l35.62,4.43c-10.57-4.32-21.86-5.75-33.46-7.04-1.23-.14-1.84-.81-2.09-1.62,5.64.35,11.55-1.94,15.99-6.1,8-7.48,18-10.01,28.38-6.41,16.97,5.89,16.45,19.76,28.29,28.56.86.64,1.77,1.49,2.74,3.23-1.8.96-3.36.66-5.5.61-.09,2.57,1.75,2.32,3.51,2.03.95-.16,2.56-.48,2.62-2.39.04-1.18-.88-2.65-1.93-3.7-.53-.54-.7-2.23-.44-3.25Z"/><path d="M851.74,736.95c-3.08-15.42-13.26-26.02-25.84-33.83-24.69-15.32-37.27-29.28-41.97-59.26-15.12,17.2-22,37-17.22,58.18-6.03,1-10.61,2.83-15.99,5.39-5.93-27.49,6.55-61.28,25.32-80.42l17.3-17.64,15.36,9.14-5.76,6.35c-3.28,7.63-4.01,16.22-2.1,24.41,4.75,20.34,16.29,32.61,34.28,42.68,9.13,5.11,16.3,10.92,23.43,19.32-.34-7.7,4.4-11.27,1.27-13.37-.93,2.3-.74,3.38-2.34,4.93-3.81-5.44-8.69-8.66-13.83-12.12,11.98-29.94-3.71-59.04-29.77-75.54l-22.02-13.94c-20.71-13.11-35.97-40.34-26.03-64.59,3.9-9.51,11.74-17.32,21.75-19.98,8.63-2.3,17.52.09,22.93,6.78,4.39,5.43,5.32,12.56,1.23,18.16-3.07,4.21-8.81,5.02-12.86.68,3.36-1.71,5.25-4.08,5.16-7.28-.08-2.75-1.63-5.17-4.76-6.33-4.19-1.56-8.76-.56-12.21,2.34-13.54,11.36-7.81,33.09,5.56,47.56,14.25,15.42,38.73,22.23,56.82,47.98,13.49,19.22,18.3,42.22,11.89,64.85-.23.8.04,2.73.52,2.69l2.6-.24.02,17.69c0,2.38-.53,4.26-1.96,6.19,6.18,11.87,8.72,25.09,9.07,39.04-14.75-8.42-28.7-.97-43.4-12.28l10.98-9.88,12.59,2.35Z"/><path d="M811.37,473.42c7.7-5.5,13.85-11.7,19.64-18.35,17.03,18.38,27.19,39.91,28.49,64.43.43,24.62-7.46,48.19-22.43,67.38l-8.37,10.74c-5.21-4.24-10.05-7.61-16.25-10.63,22.08-19.26,32.26-49.09,25.27-77.42-3.79-15.38-12.52-28.13-26.34-36.15Z"/><path d="M718.63,729.42c6.19-9.57,16.42-14.57,27.97-14.82,5.18-.11,9.45-3.21,14.12-4.89,7.24-2.59,14.51-3.97,20.76-8.91l9.74,11.19c-13.6,3.09-30.84,12.48-38.08,23.08-11.21,16.42-35.46,16.06-51.12,1.93,7.38.07,12.28-2.63,16.6-7.58ZM755.16,724.03l19.8-8.42c-12.78,1.01-23.82,6.5-34.78,13.37,5.83.75,10.16-2.9,14.98-4.95Z"/><path d="M831.1,713.57l10,10.95c-6.72,7.92-14.06,14.7-23.29,19.17-18.42,8.92-40.29,4.84-54.42-10.26l13.4-10.1c17.08,17.12,39.23,6.2,54.31-9.76Z"/><path d="M817.78,721.67c-2.26,1.77-4.3,2.92-7.23,4.12l-9.53-14.17c-6.38-9.49-15.72-18.92-25.72-21.95-1.47-.44-2.85-1.24-2.62-2.88,10.55.96,20.05,2.94,30.54,5.37,3.41,10.53,8.38,19.84,14.56,29.51Z"/><path d="M720.37,695.96c5.16-9.2,10.9-15.18,13.75-23.55l12.72-4.36-3.33,18.52c-8.6,1.74-15.79,6.04-23.13,9.39Z"/><path d="M775.62,666.6c3.23-.37,5.94.06,9,.98,2.7,7.01,7.24,11.98,12.45,18.18-9.37-1.51-17.02-3.84-25.71-3.62l4.26-15.54Z"/><path d="M631.36,478.74c-7.17-10.34-6.96-22.57,3.63-29.65-1.43,12.55,15.77,13.59,15.52,25.34-.19,8.51,3.86,15.09,12.83,17.8-6.74,3.96-12.48-3.2-17.96-2.45l7.75,5.24-15.56,2.76c-12.94.45-24.21-8.12-25.7-20.84,6.34-3.22,12.33-1.23,19.49,1.81ZM640.35,484.53c.33-2.31-.88-4.14-2.77-5.11.12,2.46,1.76,3.42,2.77,5.11Z"/></svg>