<?xml version="1.0" encoding="UTF-8"?>
<svg id="Warstwa_1" xmlns="http://www.w3.org/2000/svg" version="1.1" viewBox="0 0 259 63.6">
  <!-- Generator: Adobe Illustrator 30.6.0, SVG Export Plug-In . SVG Version: 2.1.4 Build 109)  -->
  <path fill="#D9BFA0"
    d="M25.7,0c-.3,0-.5,0-.8,0h0c-5.9.7-10.4,4.4-12,9.7s-1.2,2.2-2.3,2.7c-3.9,2-6.9,5.4-8.8,10-2.1,5.2-2.3,11-.6,16.3,1.7,5,4.8,8.9,9.2,11.2s1.9,1.7,2.2,3,1.2,3.4,2.2,4.9c1.2,1.6,2.7,2.9,4.5,3.9h0c1.7.9,3.5,1.5,5.4,1.7h.2c.2,0,.4,0,.6,0h228.8c2.6,0,4.6-2.1,4.6-4.6V4.6c0-2.6-2.1-4.6-4.6-4.6H25.7Z" />
</svg>