<?xml version="1.0" encoding="UTF-8"?><svg id="Warstwa_1" xmlns="http://www.w3.org/2000/svg" viewBox="0 0 841.89 595.28"><circle cx="434.77" cy="292.24" r="288.4" fill="#d8c6a5"/><path d="M644.05,497.88c-36.81,38.97-81.93,65.25-133.43,79.39-41.4,11.37-84.88,13.09-127.04,4.71-44.36-8.81-86.14-27.22-122.48-53.99-12.78-9.41-24.39-19.7-35.47-31.04-12.97-13.27-24.37-27.8-34.39-43.44-26.81-41.83-42.34-89.6-45.52-139.27-1.77-27.65.58-55.32,6.55-82.32,13.15-59.58,43.61-113.85,88.04-155.53,34.09-31.98,75.66-54.59,121.16-65.82,58.43-14.41,117.89-12.75,174.9,6.84,24.39,8.38,47.24,20.32,68.05,35.43,39.57,28.73,69.16,65.84,90.57,109.82,19.59,40.25,30.06,84.38,30.45,129.21.15,17.66-.86,34.66-3.99,51.94-2.86,15.78-6.48,31-11.81,46.15-10.83,30.76-26.22,59.49-46.07,85.28l-19.49,22.63ZM425.74,37.73c1.66,4.41-3.5,3.65-3.93,6.65s-1.24,5.92-2.2,8.58l5.03-1.63c1.1-.36,2.6-1.9,3.66-2.68l5.26-3.88c.26-.19,1.04-.63,1.28-.45l.87.65c3.46-2.42,6.87-5.52,8.81-9.53,2.32-4.81,5.04-8.84,8.18-13.23l2.66-5.37c.22-.44.56-1.51.57-1.73l-20.64-.42c.89,1.9-.42,2.51-.97,3.66-.76,1.58-1.65,2.21-3.39,2.6-.84.25-1.89,1.79-2.46,2.8l1.77,1.23c.81-.65,1.71-1.33,2.45-1.65.61-.26,1.74.81,2.36,1,1.09.06,2.55.49,2.93,1.28.42.88-.04,2.17-.53,3.01.02.33.32,2.23-.21,2.34l-3.36.72c.74.94,1.32,2.47.52,3.25-.63.61-1.92.87-2.95,1.07l-2.51.48c-.51.1-1.13-1.4-1.62-1.65-1.48-.75-3.4,1.36-3.4,3.11l1.82-.23ZM472.16,20.38c-.31-.5-.91-1.24-.74-1.61l.9-1.97-9.12-.83-3.53,7.44c3.05-1.26,5.11-1.89,8.05-1.91l4.44-1.13ZM363.19,67.05c-.07.88,1.26,2.41,2.36,2.61,2.74.51,5.7,6.29,2.73,8.25l-2.22-.58,1.42,2.74c.34.65-1.65,4.84-3.56,4.51-.71-.12-1.88-.76-2.54-1.1-.34.2-2.05.33-2.26-.23l-1.57-4.09c-.63,2.04-2.27,3.3-3.77,2.6-1.67-.79-2.53-2.28-1.64-4.17l-1.58-.62c-.65-1.72-.27-3.84.95-5.4l-.32-3.62-1.48.71c-.29.14-.66-.98-.81-1.4-.16-.11-1.12,0-1.11.32l.07,1.6c.05,1.12-.17,2.59-.94,3.58-.49.63-2.04.72-2.88.71-.65.68-1.71,1.66-2.6,1.93-.67.2-1.97-.67-2.47-1.32-1.22-1.55-.9-3.02.08-4.63l-1.52.05c-1.23.04-1.04-4.29,1.36-5.34,1.63-.71,2.66-1.64,2.41-3.54-.36.33-2.19,1.33-2.47.8-.37-.69-.74-2.07-1-3.03l-3.21,4.64c-2.38,3.44-3.59,7.62-6.29,10.83-6.07,7.22-4.96,12.19-7.09,19.05-.92,2.94-2.14,5.53-2.17,8.68-.02,1.82-.34,3.69-.74,5.3l7.31-2.55c2.87-1,5.7-2.4,8.68-3.08,6.3-1.45,11.76-3.92,17.58-6.63,3.65-1.7,7.73-2.43,11.2-4.49l7.48-4.43,7.68-4.68c2.94-1.79,5.07-4.91,8.18-6.45l4.72-2.34c2.81-1.4,5.01-3,7.34-5.02,2.63-2.28,5.71-4.13,7.59-7.1l7.94-12.49.54-3.61c1.29-2.12,1.99-3.94,1.55-6.47-.22-1.28-2.74-2.93-3.63-2.02-1.11,1.13-2.17,1.79-3.8,1.76-.54-.01-2.14-.57-2.15-1.09l-.02-1.85-2.4-.07c-1.7-.05-.64-2.79-1.32-4.79.5-.9,2.36-2.49,3.5-2.77.56.13,1.84.95,2.28.63l1.6-1.18-4.39-2.15c-1.97.57-4.48-.86-4.96-2.71-.14-.54.65-1.57,1.19-2.05l-1.93-1.97c-12.02,1.39-23.65,3.66-35.48,6.43l-2.5,2.62,6.96,1.96c1.79.5,4.46.45,6.55.52l-1.1-2.49c-.21-.49.7-1.53,1.02-2.01l1.8-2.66c.56-.82,3.19-.41,3.69.6.43.89.64,2.15.98,3.71.83-1.48,1.33-2.49,2.11-3.38.55-.64,2.26-.56,3.08-.7,1.45-.26,2.43-.53,3.34.39,1.05,1.06,1.02,2.03.91,3.54-.07.97.03,2.59-.49,3.21-.55.65-1.69,1.01-2.97,1.41l.37,1.72,2.96.39c2.63-2.8,6.69-.98,6.68-.18l-.02,1.86c1.86.27,3.75,2.02,3.4,4.19-.24,1.5-4.16,3.8-4.74,3.59l-2.52-.89c-3.23,2.49,2.47,1.63,4.12,5.84l-.78,1.86c.54,1.5.31,2.86-.94,3.86-.93.75-2.52.37-3.69-.22-.17.38-1.26,1.39-1.73,1.26-1.23-.36-2.76-2.17-3.04-3.64l-2.28-1.19c.75,2.81.76,3.61-.26,5.27-.58.94-1.1,2.05-2.09,2.54-1.15.58-4.89-1.04-4.98-1.52l-.39-2.19c-.73-.2-2.08-.85-2.04-1.48.2-2.88,1.96-3.85,1.61-4.47l-1.01-1.83-2.55,3.28-2.37-.24c-1.19-.12-2.3-.52-2.87-1.52s.02-2.39.7-3.23c-.91-.65-1.73-1.7-1.46-2.67.39-1.43,1.85-2.09,2.92-2.14.42-.08,1.1-1.5.79-1.83l-1.34-1.41c-.79-2.6-2.8-5.01-5.86-4.38-3.04-1.83-6.49-1.11-8.92,1.38-1.84,2.25-4.21,4.52-5.62,7.04l-4.2,7.48c2.68,1.22,4.75-1.36,5.91-.03,2.85,3.25,2.56-1.65,5.64-2.8.67-.25,2.13.52,2.77.83,1.41-.29,2.78-.35,3.8.51.69.58,1.19,2.21.75,2.93-.58.97-.64,1.33-.81,2.43-.24,1.51-2.04,2.1-3.9,2.84l4.34,2.02c1.64-2.31,3.19-1.32,4.92-1.06,1.62.24,3.27.6,3.98,2.31l-1.56,1.87c1.89.22,3.26,1.08,3.85,2.66.52,1.37.2,3.35-1.65,3.82-1.28.32-2.07.89-3.01,1.59-2.02,1.49-4.52-.52-6.05-1.91l-.1,1.49-1.49.62ZM466.64,76.94c-.73.75-1.61,1.61-2.16,1.51-.46-.08-1.34-.77-1.59-1.16l-2.11-3.2c.27-2.51-.04-4.74-2.34-6.32l-.64,3.7-2.06,1.27-1.88,1.22c-.37.24-4.1-1.91-4.01-2.55l.42-2.84-2.17-.52c-.13-.69-.07-2.42.27-3.26.26-.62,1.39-1.06,2.32-1.47.81-3.03-1.73-4.97-4.4-5.54-2.99-.65-5-.57-8,.31-1.94.57-5.25.04-6.83,1.64-2.96,2.99-5.91,4.65-9.72,6.2-3.18,1.29-5.8,4.47-8.11,7.2,2.7.45,4.28,1,6.31,2.57,1.46,1.13,7.18,2.38,8.88,1.7-.02-1.59.1-2.57.96-3.56.33-.39,1.46-1.06,1.87-.81l1.43.86c.56-.84,1.71-1.51,2.89-1.43.8.05,2.22,1.15,2.21,1.94,0,.43-.42,1.3-.21,1.52l1.12,1.17c-.44.82-1.35,1.86-2.38,3.08l4.29-.14c1.74-2.47,6.1-3.24,8.91-1.63.69.4,1.84,1.43,1.83,2.12s-.71,1.84-1.22,2.49l2.66.77c-.03,1.45-.37,3.55-1.45,4.15-2.43,1.35-6.02.27-5.56,1.59.6,1.72,3.48.06,4.88,2.96l4.46-.42,6.5-3.6,7.45-3.96,6.05-2.47c2.52-1.03,4.88-1.48,7.53-2.07l6.92-1.53c4.62-1.02,7.72-4.79,10.61-8.32,6-1.07,3.73-5.42,7.62-8.28l-.41,4.49c2.56-.91,3.9-3.27,3.94-5.99.56-.85,1.48-2.47,1.28-3.46-.16-.78-1.09-2.09-1.69-2.62-1.59.67-3.01.51-3.79-.75l-1.72-2.81c-.46-.75-.3-2.72.38-3.26.84-.66,2.2-.42,3.9.05.52-2.54-2.69-2.88-2.91-5.99-.05-.66.99-1.52,1.91-1.81-.94-1.8-.21-3.81,1.65-4.73,1.6-.78,3.67.04,4.35,2.09l1.13-.79c.97-.68,3.62,1.82,3.63,5.95l1.25-1.21c.21-.21.7.18,1.36.63,2.17-4.4-3.32-6.4.69-9.65.11-1.21.09-2.84,1.73-3.84l-22.14-6.07c-1.71,3.15-4.16,1.07-5.81,2.85,2.15,1.91,6.02.36,7.04,3.08.14.38-.39,1.59-.08,1.85l1.21,1.03c1.24,1.06.47,3.42-.65,4.07-1.48.86-2.92.63-4.68.12l1,1.91c-1.22,1.72-2.94,1.53-4.68.94s-3-1.09-3.73-2.99l-2.75-1.23-2.26.95,2.91,3.27c1.01,1.13.42,2.99-.63,3.58.02.87.02,2.53-.61,3.02-.72.56-2.29.97-3.14.87-1.9-.22-2.55-1.13-3.05-2.91l-1.12,1.37c-.21.26-1.15.05-1.43-.15-3.55-2.55-.34-6.38-2.06-7.57-1.46,1.33-3.13,2.43-4.81,2.2-1.57-.22-1.21-2.14-1.57-2.86-.44-.89-1.15-2.06-1.02-2.88.1-.64,1.35-1.23,2.4-1.57-.1-1.04-1.08-3.05-1.97-3.73-1.12-.85-3.12-.9-4.09-.28l.08,1.53c.05.85-3.87-.3-8.24,3.21-2.94,2.36-4.39,4.96-5.49,8.55-.79,2.57-3.47,4.9-5.46,6.65l-4.97,4.39,5.22,1.59,5.28-1.51c.47-.13,1.82,1.07,2.04.64l.81-1.58c.2-.39-2.08-2.39-1.52-4.44.21-.75,3.32-4.3,5.08-3.79,1.25.36,1.98,1.51,2.46,2.66l.52,1.25c.1.25,1.13-.62,1.11-.95-.12-1.54,2.73-3.92,4.33-3.08.27.14.67,1.02.89.95l1.24-.42c.78-.26,2.58.22,2.97.99.32.64-.04,2.17-.03,3.03.01.78.96,2.25.35,2.99-1.87,2.27-3.4,1.73-3.95,3.11l3.65,2.14,2.17-1.56c1.69-1.22,2.96-.93,4.72-.57,1.4.28,3.52-.45,4.53,1.57.26.53.55,1.95.11,2.35l-2.14,1.94,3.02.44c.59.09,2.01.47,2.41.9s.31,1.62.44,2.22c.5.73,1.28,1.91,1.38,2.61.13.87-2.73,3.93-3.51,3.77l-3.29-.67.52,2.19c.13.56-1.65,1.41-2.21,1.29l-4.74-.99-2.87-3.4-3.25,1.34c1.01,1.69,3.76,2.35,3.72,5.5-.4.31-1.19.67-1.13.99l.29,1.68c.31,1.81-1.93,2.88-3.54,2.75-1.3-.11-2.74-1.16-3.52-2.31ZM420.15,31.48l.55-3.02-.37-6.18-.69,9.02-.37,4.9c.56-1.46.51-2.69.88-4.72ZM309.39,60.14c1.34-1.72,2.33-4.1,3.84-5.61l6.66-6.68,9.72-12.63c-10.57,3.99-20.37,9.13-30.44,14.77-.03,3.75-1.8,7.56-1.35,11.22l1.46,11.95,10.12-13.01ZM519.56,67.24c.06-.45-1.63-1.15-1.95-.81l-1.43,1.59-3.56.75c-.14.03-.69.5-.8.6s.03.16.14.26l.77.67c-3.35.51-5.34,1.98-7.29,4.26l-4.31,5.06,7.4,2.74c8.86,3.28,13.02.65,18.4,2.85,6.03,2.46,12.29,2.18,18.15-.5,1.94-.11,4.77.39,6.5-.48l8.91-4.47c2.98-1.49.99-6.94,2.81-7.71,1.16,1.66,1.38,3.37,1.09,5.39,4.37-3.26,4.4-9.26,1.75-9.79-1.75-.35-2.28-.89-3.37-2.08-.83-.91-1.59-1.78-1.74-3.02-.07-.63.3-2.09.89-2.09h2.38c-1.3-2.18-3.23-2.58-1.75-6.01.56-1.3.98-2.54,2.46-2.78,1.06-.17,2.36.87,3.1,1.88l1.71-.71c1.54,1.13,2.42,2.78,2.75,4.67,5.34-1.84-.49-3.31,1.56-7.72-9.6-5.86-19.74-10.46-30.15-14.84l-1.63,2.04c1.87-.19,3.29.11,3.76,1.87.27.99-.59,2.32-1.3,3.49-.58.96-.77,2.61-1.75,3.13-3.05,1.62-4.71-.4-6.53,4.04l3.13.38-.5,1.97c3.22.69,3.32-3.03,5.94-2.83l3.57.28c.67.05,2.05.74,2.22,1.36s-.36,1.76-.93,2.81c2.1-.21,3.84.48,5.26,2.04,1.54,1.7,1.69,3.17.37,5.02-.95,1.33-2.75,1.67-4.68,1.22l1.73,2.17c.52.66-.7,2.48-1.5,2.72-.71.22-2.34.17-3.14.14-3.89,1.91-4.33-2-6.83-2.13l-3,1.43,3.43,2.12c.63.39,1.71,1.65,1.76,2.33.04.59-.51,1.62-.76,2.19.45.78,1.04,1.87,1.07,2.47.05,1.09-3.11,4.2-5.53,3.09-.82-.38-1.83-1.45-2.64-2.3l-.61,2.17c-.14.5-2.09.39-2.41.01l-2.85-3.27c.61-2.78-.13-5.29-2.71-6.92-.27.89-.4,1.76-.29,2.95.21,2.28-3.63,2.7-4.02,2.34l-1.64-1.53c-.5-.46-1.86-1.15-1.78-1.79l.33-2.68ZM280,82.16c.84-1.76,1.78-4.42,1.93-6.2l.78-9.04.5-6.86-12.91,9.21.67,9.09c2.36,4.36,3.65,8.45,4.34,13.57l4.69-9.78ZM445.84,326.38c.34,1.54.24,3.24.06,5.07l-.39,3.99-10.63,11.71c-9.41,5.21-18.02,10.89-26.33,17.75l-4.62,3.38c-4.18-.45-10.66,4.5-12.7,7.77l-.67,1.07c-.07.11.64.06.73-.05l2.09-2.62c2.73-2.39,5.9-4.72,9.45-5.45-5.48,5.73-7.66,13.34-7.79,20.78l3.74-12.34c1.17-3.85,4.54-6.44,7.6-8.91.6.1.74.13.68.12l-.48.92-1.46,2.83-.31.65-.3.65-.31.68c-.05.12-.25.6-.23.69l.18.91c2.65-5.92,6.49-11.05,11.94-14.95l.35-.09.55.55s.34.09.38.05l.49-.6.43-.53.42-.52.41-.51.43-.54.47-.46.49-.48.56-.41.53-.39.56-.41,15.59-10.49.6-.38c4.17-2.6,8.69-4.64,13.56-5.34l.89-.13c5.47-.78,11.11,1.52,14.64,5.69l.5.59,3.32,5.13,8.68,18.37c2.91,6.16,6.11,11.91,10.1,17.41l.4.55c2.73,2.76,3.63,6.36,1.59,9.9l2.48,1.81,7.29,14.44c.31.62.57,2.42.03,2.78l-2.03,1.32,2.67,5.45c-2.32.12-3.22.36-4.93,1.48-.2.67-.07,1.15.42.58l.91-.66c.85-.62,2.49-.98,3.41-.32,2.25,1.61,2.69,3.54,1.6,3.63l-.97.08-.72.43c1.4-.02,3.45.04,3.86,1.21.29.85.5,1.87.39,2.34-.09.38-.87.61-1.75.99-.24-.03.32.39.54.3l.99-.44c.82-.36,2.95.13,3.31.99s.69,1.91.66,2.46c-.03.62-1.37.32-2.41,2.01-.07.12.46.01.58-.08l.67-.54c.56-.45,2.32-.72,2.94-.35s1.67,1.51,1.88,2.21c.49,1.65,1.33,1.78,2.65,2.62l3.29,2.1c.85.54,1.89,1.92,2.34,2.58l4.49,2.07c8.68,3.99,16.44.52,17.75,9.04.81.62,1.74,1.8,1.71,2.63-.03.68-.93,2-1.58,2.23l-6.75,2.42-7.09,1.9-20.48,4.16-1.13.1c-.15.01-.18.26,0,.25l1.37-.07,9.84.96c-8.34,2.87-16.89,3.82-25.67,4.98l-9.22,1.21-.84.08-9.17,2.17-8.88,2.5,5.39.54,7.28.76c.26.03,1.45.45,1.24.5l-.77.17-.93.21-13.95,3.57-14.44,2.93c-.9.16-.81.33-.06.38l1.61.28-1.13.57-5.17,1.43-1.53.41,10.7,1.26,1,.24c.17.04-.1.6-.28.62l-1.28.14-7.43,2.1-5.49,1.7-16.96,4.33,2.84.46c.28-.17-.34.2-.72.42l-3.29,1-.7.21-.8.27-4.32,1.94,14.7.32.96.05.99.17c.18.03-.15.67-.34.68l-1.03.08-17.57,6.61-.62.38-.76.47c-.85.49-.16.45.38.29l.98-.06.86-.05.9.03,1.31.06c1.07-.05.14.4-.25.41l-.97.4-10.21,4.26-.89.54.56.3,3.52-.39-5.82,4.22c-2.85,2.06-5.23,4.35-7.56,7.14l5.81-3.23.67-.34,1.02-.52c.17-.08.43.03.43.23l-.03,1.01c6.17-2.21,12.64-3.46,19.28-2.75.98,0,.67.45-.12.68-4.93,2.12-9.4,4.35-13.02,8.06l-2.31,2.37-4.16,4.56c-.14.47-.31,1.06-.2.67l1.38-.58.66-.28.8-.34,6.83-2.07.41.56-1.28.77c-.17.1-.57.62-.37.58l1.49-.25c3.14-.53,6.86-1.2,10.06-.92l4.65.4,3.47,1.17c-5.15,1.86-9.74,3.04-13.51,5.83l-5.82,4.3-.95.79c-.11.09.54.12.68.09l.86-.22c2.95-.58,5.68-.85,8.2-.36,4.73.94,9.41.95,14.67,3.18.54.18-.03.8-.6.76-5.73.59-10.56,2.33-15.04,5.56l-.99.15c-.18.03-.2.59-.02.6h1.17c3.18.05,6.66,1.19,9.84,2.5.73.4.65.69.04.76l-1,.21-5.01,1.29,15.62.59,28.95-2.08,4.2-.84c1.05-.65-.25-.8-.65-.37l-3.57-.64c2.98-1.78,5.07-2.52,8.1-3.19-4.99-2.39-10.33-2.61-15.81-2.18l4.67-2.99c5.37-2.36,10.91-3.24,16.85-3.88.2.08.24,0,.11-.07l-.73-.48-3.18-2.17c-3.22-2.2-7.42-3.25-11.38-3.78l-1.03-.14c-.83-.11,3.53-2.35,8.53-3.1,2.06-.31,4.68-.86,6.37-.76l8.14,1.22-4.04-3.74-2.05-2.26c-3.27-2.31-6.86-4.98-10.63-5.91l-1.36-.33c-.16-.04-.15-.59.02-.61l1.09-.09c6.65-1.14,13.13-.13,19.46,2.18,2.16.43,3.96,1.37,5.81,2.76l.98.74c.18.13.37-.19.32-.41-.03-.14-.26-.88-.34-1l-2.4-4.07-1.08-2.76c-2.82-4.47-6.06-8.89-10.25-12.06l-.94-.71c-.11-.09-.03-.41.11-.38l.9.17c7.18,1.34,13.9,5.14,19.24,10.11.33.31,1.49.71,1.82.84l3.44,4.4-1.3-9.32c-.79-5.63-3.18-10.59-5.2-16.18l.9.07,4.8,3.88c2.88,2.32,8.39,10.34,9.63,15.05-.11.99.35.39.49-.07,0-.41-.05-1.27,0-1.43l2.81-10.19.37-.77c2.73-5.67,5.59-11.1,11.16-15.09-2.26,7.31-3.82,14.69-4.09,22.53l-.21,6.23c2.27-3.36,3.9-6.43,6.72-8.62l7-5.42.94-.69c.13-.1.11.76.08.76-2.38,3.52-4.37,6.78-5.15,11.51,2.15-1.05,2.93-4.05,6.89-6.31l4.99-2.85c-.09-.05-1.06-.43-1.36-.45l-3.45-.22c-.31-.02-1.03-.38-.82-.55l.8-.65c2.01-1.64,4.64-2.74,7.4-3.78,1.03.12.61-.46-.07-.77-3.75-2.08-7.51-1.79-11.42-2.13,3.61-2.43,7.02-4.01,10.7-4.65l7.25-1.24c.35-.04.09-.5-.42-.99-2.77-2.54-5.67-4.61-9.2-5.59l-1.1-.31c-.94.02-.37-.45.24-.56,5.47-1.66,10.63-1.44,15.65.77l4.04,1.08c-.11.29.03-.09.17-.46l-.42-.58-1.01-1.41-.38-.54-.53-.45-.58-.37-.58-.38-.57-.37.34-.39.3-.35-.36-.43-.45-.54-.43-.52-.42-.5-.58-.77-8.02-6.14,2.49-.15c3.93.33,8.21,1.4,11.8,3.16l.64.31c.07.03.44.02.61,0l.64-.03c.08,0,.51.12.56.16l.52.44.51.43.52.44.52.44.52.44.59.5.64.18c-1.22-6.49-4.25-12.07-8.5-17.17-.13-.15-.57-.59-.44-.65.17-.08.45-.23.59-.18l.82.3c4.56,1.74,8.5,4.18,11.52,8.08l1.07.4.65.24,1.8,3.82.37-.82.17-5.79.5-15.01c3.6,4.88,5.25,10.54,6.52,16.69.21,1.19.59.15.5-.34l.19-1.06.14-.8.27-.69,1.21-3.1c2.11-5.4,5.59-10.03,9.82-13.62l-.13,1.03-.27.72c-2.51,6.59-3.61,13.35-4.19,20.51l2.31-3.02c2.41-3.15,5.06-6.01,9.01-7.95l-2.71,5.65c-.12.26.22,1.07.35.89l.58-.79.51-.55,4.74-3.89c1-.82,3.74-1,3.63-2.59l-3.22-.49c2.34-2.02,4.39-2.32,7.24-2.54-2.72-2.32-5.48-3.93-9.24-4.44-.86.3-.99.04-.38-.52l2.57-1.17c2.2-1.01,5.9-1.53,8.21-1.02l.91.2.96.21-1.8-2.59c-2.97-3.09-6.38-5.58-10.51-7.56,5.5-1.32,12.65.56,17.89,4.24-1.89-6.62-5.66-11.71-10.71-16.41l.88-.16c4.96,1.39,9.62,3.54,13.02,7.39l4.15,4.71-1.49-10.52-.35-1.12c-.05-.17.56-.04.69.08l.5.47.5.47.45.55.44.54,1.31,1.85,2.1,3.92.7-8.52.07-3.35.19-5.03c0-.12.27-.81.4-1.13,2.52,4.07,3.88,8.43,5.16,12.97,1.18-3.45,2.82-6.62,2.56-9.96-.46-5.99-3.95-11.27-3.58-11.32l1.04-.13c-2.48-4.22-7.17-5.89-6.14-7.29.09-.12-.24-.65-.37-.76l-6-3.9c-1.09-.71-1.77-1.44-2.57-2.18-1.48-1.38-3.9-2.23-5.68-3.31-5.91-3.59-9.43-3.49-11.33-5.32-1.59-1.52-3.77-1.78-5.92-2.65l-5.7-2.28-5.79-2.2-6.28-2.25-6.66-2.4c-2.04-.14-3.87-.91-5.4-2.21-2.78-.36-5.15-1.54-7.69-2.69l-5.26-2.39c-1.48-.67-4.21-4.2-4.31-4.62-.16-.64.26-2.2.58-2.83,1.26-2.43,3.74-3.3,5.87-4.63,1.62-1.01,2.76-1.66,4.8-1.95l3.22-1.71,4.36-.89,5.47-2.67c2.85-.3,5.49-1.35,7.47-3.42.6.15,1.63.49,1.84.14l1.11-1.87,1.3.66c.84.43,1.59-2.12,2.1-2.09l1.22.06c.98-.37,1.63-3.07.94-3.86-2.65-3-8.21-3.98-10.1-4.79l-2.59-1.12-9.08-2.43-9.35-2.04-1.72-1-11.91-3.26c-.51-.14-1.46-.99-1.52-1.47s.74-1.56,1.18-1.77l7.68-3.62-8.96,1.49c-5.52.92-14.23,3.71-11,5.68,1.02.62,2.79,1.41,3.64.52.91.6,2.31,1.59,3.13,1.9l6.16,1.57,7.27,1.97c2.55.69,4.65,1.09,7.04,2.13,3.84,1.67,11.34,3.39,11.06,6.68-.24,2.85-6.91,4.88-11.3,6.03l-24.04,6.32-5.01,1.51c-2.28.24-3.93,1.08-5.68,2.44l-4.62,1.48c-1.2,3.67-6.64,2.93-4.51,5.07-.66,1.63-.51,3.18.26,4.97l.88-.22.46-1.44c.07-.22.81.14.78.29.27,2.76,2.38,4.02,2.37,4.24,0,.01.39-.67.5-.78l1.74-1.96c.18-.2.91-.54,1.16-.65.64-.27-1.13,2.5.41,5.53l1.77-1.72c.22-.21.99-.51.97-.24l-.08,1.26c-.02.38.38,1.45.74,1.37l1.42-.31c.42-.56.88-.73.36.25l1.28,3.03,1.95-1.14,3.5,3.59.61-2.43,3.71,4.08c.2.22,1.16.6,1.43.65s.73-.43.89-.67l.46-.71c.32-.5,1.09,2.23,3.19,3.48,2.09-2.27,2.42.98,7.48,3.09l1.69.7c.36.15.99-.55,1.57-.93l2.34,2.65c.95,1.08,1.72,1.49,3.27.94l3.31,3.48c.17.18.73.47.96.42.17-.04.76-.51.91-.4,3.29,2.28,3.51,5.48,6.29,5.43l3.18,5.1c1.2,1.92.97,4.43.32,7.02-.06.74.1.68.35.13l.64-.8.69.11c-.33.71-.92,2.43-1.52,2.96l-4.99,4.45,2.35-.31c-1.49,1.89-3.84,2.88-6.25,4.07l-8.19,4.03,6.08-.09c-4.29,2.35-8.36,3.61-13.06,5.16-.37.21-1.42.81-1.3.74l2.24-.02c.27,0,.83.24.65.4l-.75.66-19.25,5.21c-.69.56.05.62.83.27l7.62.36c.33.02.57.69.31.74l-1.2.26-7.54,2.29c-2.84.86-6.04,1.53-9.07,1.78-4.39.37-11.43-1.7-14.91-4.33l-3.33-2.51-5.3-3.56c-.21-2.21-1.99-3.33-3.82-3.8-.22-2.41-1.63-3.98-3.68-4.85-.24-1.42-.98-2.8-1.65-3.93l-2.2-3.72-2.08-5.12,1.88-2.69.31-.84,1.54.31-1-2.99c1.43.81,2.28,1.39,3.19,2.25l.92.87c.14.13.17-.92.09-1.15l-1.96-5.07c-.49-.54-.2-.89.74-.82l5.68,6.48c-.14-3.94-.77-7.59-1.99-11.42-.62-.76-.42-1.11.36-.62,2.72,2.9,4.46,5.96,5.6,9.74,1.25-3.1,3.07-6.28,6.04-8.06l1.15-.68c.56-.34-2.78,6.77-3.52,10.92l.62.52c2.7-2.84,6.07-4.18,9.88-4.26l-5.22,6.01c-.1.88,0,1.2.56.55,1.87-.66,4.36-1.16,5.84-1.18l.63.61-.59.56-1.75,1.67.78.26,2.48-.02h.96s1-.01,1-.01l-.4-.42-.69-.37c-.09-.05-.54-.42-.53-.51l.09-1.19,5.13,1.22-2.7-4.92c2.39.47,3.97,1.46,5.51,2.65l.86.67c.1.08.03-.22.02-.61l-.11-.8c-.34-2.41-1.43-4.46-3.02-6.96,3.16.77,5.27,3.29,7.16,6.28l.24-4.61,3.96,3.11c-.52-4.25-4.16-5.81-1.32-5.49.23.03.27-.03.15-.13l-.73-.65-6.23-3.93,3.02-.12c.69.71-.24-.25-.6-.62l-9.86-4.71.61-.69,1.06.37,1.08.37.41-.7-12.44-4.91-.67-.54,1.83-.39-6.25-2.48-4.78-2.25-16.63-6.22c-.84-.63-2.05-1.4-3.09-1.68l-12.77-3.49-7.84-15.32,6.98-.52c-.12.55,0-.04.1-.44-.75-1.34.07-2.89,1.56-3.28.93-.24,2.22.58,3.3,1.69,2.1-.95-.79-3.83.53-4.91.49-.4,1.62-.85,2.34-1.18.62-1.53,1.96-2.44,3.51-2.26,1.44.17,2.49,1.17,2.84,2.92.86-.22,2.48-.38,3.04.23.75.81.65,2.27.23,3.61l1.08-.15c.9-.98,1.65-1.22,3.24-1.41.65.57.35.31-.24-.22-.29-.69-.77-2.13-.81-2.87s1.09-1.98,1.78-2.37c.48-.27,1.78.18,2.42.48-.29-2.11,1.1-3.83,3.27-3.91,1.8-.06,3.79,1.03,3.35,3.74l.85-.12c.91-.51,2.54.22,2.83,1.3.19.73-.23,2-.64,2.76l2.17.23c.22.27.73,1.32,1.01,1.12,1.31-.93.36-2.32,1.37-2.38l1.41-.08c.52-.66,1.19-1.6,1.81-1.78.53-.16,1.7.59,2.27.8.95.36,2.72-.35,2.52.55l-.2.89c-.03.14-.11.75-.01.64s.66-.49.81-.49l2.68-.12,4.63-.44-1.55-.62-.45-.68c3.15-.32,4.78-.33,7.78-.1.02.09-.14-.72-.25-1.28l3.72.79c.13.03.94-.04.87-.14l-.34-.43-.53-.68,2.38-.04c.13,0,.71-.16,1-.24l-42.43-13.24-34.6-9.83,2.59-1.52c1.47.02,2.4-.44,3.5-1.6l3.76-.33,13.54.96c.89-.9,2.05-1.49,3.44-1.2,1,.21,1.87.96,2.51,2.04l2.47.61c-.02-1.4.66-2.82,1.63-3.21.65-.26,1.77.11,2.73.5-.36-1.98.82-3.5,2.65-3.87,1.61-.33,3.06.63,3.99,1.99l2.34.25c.47.05.79,1.16.74,1.63l-.12,1.22c-.01.11.14,0,.21-.09,1.27-1.33,1.7-1.53,3.84-1.67.11.42-.13-.49-.21-.79-1.42-1.65-.89-3.4.46-4.64.51-.47,1.42-1.71,2.01-1.52l2.3.74c.03-.78.38-2.25.92-2.92,1.45-1.81,5.6-1.44,6.51-.02.41.64.78,2.15.98,3.01.61-.22,2.24-.63,2.86-.35.53.23,1.04,1.08,1.48,1.8.92,1.51.8,2.64-.59,4.33,3.09.88,4.79-1.25,6.17,2l5.26-.76c-.04-.93.1-2.43.62-2.53l2.18-.38c.36-1.1,1.3-2.39,2.69-2.51.99-.08,2.15.87,2.96,1.71.54-.07,1.93-.41,2.26-.01l1.32,1.57c2.28-.37,5.69-.67,7.81-1.57,1.78-.76,2.22-1.16,4.54-1.5.35.34.03.03-.22-.22l-20.88-7.08-14.03-2.6-15.1-4.4-24.64-7.61c-9.35-2.89-18.95-3.22-28.75-2.08s-18.29,2.78-27.3,5.37l-5.22,1.5-18.72,4.69-1.14-.02c-.18,0-.21.13-.04.19l.94.37,25.34,6.15c.15-.01.82.4.63.47l-1.02.37c-2.63.96-5.27,2.77-8.1,3.2-2.18.33-5.04-.84-7.1-1.28l-8.66-1.85-22.11-4.5-11.12-1.36-2.85-6.25,10.45-.66,15.6-1.92c9.36-.68,18.46-2.13,27.32-5.39,12.17-4.47,24.1-8.25,36.86-10.56s23.75-.46,35.08,4.44l9.58,4.15c3.62,1.07,8,.52,11.47-.81l17.49-6.68c9.08-3.47,17.81-6.88,27.36-8.76,10.2-2.01,20.26-2.02,29.98,1.56l15.61,5.74c7.19,2.64,23.18,8.69,28.26,6.9l21.09-7.45c12.18-3.25,24.52-3.77,36.88-1.18l.88.18c.16.03.24-.61.23-.88-2.33-50.26-19.76-100.72-46.88-142.94-18.64-29.02-42.67-54.14-70.75-73.83l-4.45,1.77,1.73,1.69c1.17-.46,2.39-.82,3.28-.88.76-.05,1.62,1.52,2.33,1.73l2.57.77c.95.28,1.08,4.68.27,4.95l-2.41.79c-.95.31.52,1.97-.43,2.66-.37.27-1.44.57-1.95.55l-3.96-.09c-.68-1.16-2.11-2.38-2.94-2.18-.78.68-1.45,1.32-1.97,1.42l-1.17.23c-.2.04.29.78.48.87l3.44,1.55c.44.2,1.23,1.46,1.09,1.91l-.56,1.84c.64,1.02.95,2.44.2,3.22-.81.83-2.14.84-3.34.54-.61.38-1.69,1.24-2.35,1.14-2.58-.4-2.48-3.96-4.95-4.27.1,1.57-.27,2.86-1.44,3.34-.73.3-2.15-.24-2.92-.79l-1.9-1.36c-.37-.27.1-1.57.2-2.13-.07-.36-1.46-.82-1.91-.61l-3.32,1.5-4.93,3.85,6.69,2.84c2.29.38,4.13,1.65,5.72,3.18l7.19,1.95,4.03,1.53c.84-2.45,2.45-2.27,4.2-1.97-1.35-1.46-1.75-3.26-.67-4.64.81-1.03,2.95-1.91,3.85-.89l1.04,1.17c.21.24,1.35-.33,1.7-.23,1.49.45,2.17,3.2,1.91,4.82,1.3-.56,1.77-.76,3.04-.92.36-.62.4-2.56-.02-3.5-.92-2.07.34-2.85,1.14-4.2l1.97-3.35c.44-.75,2.66-.78,3.56-.3,1.56.83.93,2.26,1.99,3.97.35.56,1.61-2.94,3.42-2.36,1.04.33,1.45.25,2.64-.15.99-.34,2.94.8,3.3,1.8.43,1.18.17,2.88-.51,4.01-.86.37-.65.55.06.51.8.41,1.78.9,1.68,1.38l-.44,2.16c-.76,3.73-5.57,2.12-4.73,5.1l2.28.25c.29.03-.15.84-.71,1.8l.55.4,4.96-1.37c.58-2.24,2.86-3.41,5.03-2.72,1.17-.68,2.36-.65,3.54,0,.57.72,1.19,1.42,1.29,1.95s-.49,1.6-.87,2.27l.3.7c2.12-.66,3.32-.19,4.86.99s2.86,3.01,2.26,5.22c-.28,1.03-2.17,2.08-3.09,2.15-1.01.07-1.01-.01-.89.15l.62.84c.33.45.13,2.1-.4,2.25l-2.22.63c-5.23,1.48-6.99-2.73-7.84-1.91l-.76.74c-.25.24-1.3.75-1.08,1.02,1.32,1.61,4.91,2.27,4.47,4.68-.54,2.96.25,4.09-.5,4.98s-5.33,1.3-5.88.68l-2.07-2.36c-.32.72-.78,1.73-1.21,2.06s-1.72.1-2.24-.2c-1.4-.82-1.84-2-2.65-3.29-.45-.72-1.58-1.77-1.46-2.75.25-1.99-.37-3.38-1.67-4.29l-1.38.68c-1.43-1.56-2.69-2.62-4.04-3.21l.2,3.17,1.13,2.82c.29.74-2.2,2.71-4.58,2.2-.59-.12-1.08-1.18-1.34-2l-.49-.39c-.8.88-1.77,1.42-2.42,1.15-1.88-.78-2.1-2.35-1.56-4.05-1.92-1.9-6.61.65-8.81,1.34l-5.64,1.75,4.44,4.27c5.16,3.84,11.48,4.81,17.77,5.19l4.32,1.4-.77.87c-.37.42,4.92,3.25,9.02,3.91.07.25.72,1.03,1.02,1.07l5.7.89c1.76.27,3.83.19,4.45-1.88-1.12-.58-2.38-1.6-1.99-3.18.15-.61.83-1.61,1.3-1.49l2,.54-.04-.55-.06-.82c-.11-1.49,1.16-2.92,2.64-2.65,1.38.26,2.42,1.4,2.19,2.88.56.19,1.6.52,1.57.98l-.13,1.99c-.23.63-.03.54.34.07l1.37-1.3,1.44-1.36c-1.23-2.6,0-6.13,2.46-7.43.45-.24,1.61-.06,1.76.34l.62,1.64c.49-1.32,1.53-2.34,2.84-2.49.8-.09,2.17.8,2.68,1.7.4.72.06,2.01-.08,3,.17.81.15,1.97-.33,2.4l-2.03,1.84c1.34.85,3.16.94,3.86-.09,1.52-2.24,5.29-1.41,6.01.13.13.27-.16,1.95-.07,1.48,1.34.22,2.67.61,3.1,1.26.54.81.41,2.33.04,3.19-.7,1.61-1.43,2.5-3.82,1.81,0,0-.38.67-.4.72l1.04,1.14c.47.52.25,2.45-.43,2.58l-2.7.52c-1.33.26-3.78.57-4.56-.71-.87-1.42-1.3-2.11-2.93-2.47-.71,0-2.09.01-1.88.01l1.54,3.29c.42.89-1.14,2.61-2.16,2.79-1.62.28-5.09-1.47-6-2.44-.47-.5-.37-1.69-.34-2.77-1.12-.7-2.65-1.34-4.23-1.8-1.13.3-.46.77.22.83l.76.95c.09.12-.48.47-.76.65l-2.86-1.51-6.25.34c-.48.03-.91.09-.75.26l.67.72,3.85,5.55c1.93,1.97,4.41,4.02,7.05,4.83l5.04,1.55c.4.12,1.61-.3,1.58-.7l-.15-1.83,1.49-.89c.22-1.31,1.43-2.29,2.51-2.4,1.38-.14,2.77.91,2.74,2.31-.02.76.18,1.63.63,1.67.38.03,1.22-.56,1.37-.95.75-1.85,3.95-3.32,5.2-1.8.1.12.53.84.54.85.27.1,3.18-1.22,4.52,1.19.75,1.34.26,2.85-.88,3.83.07.8.11,1.95-.27,2.41-.33.39-1.42.98-1.97,1.11l-2.7.64,2.39,2.19,3.73.69c1.52-1.69,2.97-2.3,5.19-2.17,1.44.08,3.81-.13,3.69,2.11-.02.33-.1,1.47-.09,1.23,1.97,0,3.4.45,4.44,1.71.88,1.07,1.21,2.5.69,3.66-.42.94-1.67,1.51-2.87,1.73l.37,2.1c-4.24,2.71-5.89-.45-8.28.58l-1.02.44c-.16.07-.1.51.03.63l1.5,1.43-.8,1.05c-.13.17.78.86.99.85l2.72-.16c2.43-.14,3.93.57,4.52,2.58,1.41.05,2.94.48,3.63,1.64,2.06,3.44-.11,6.26-1.04,6.49-2.09.52-3.86-.46-3.68.01.72,1.87,1.88,1.61,3.82,3.84.37.43.66,2.11.32,2.53l-1.1,1.38c.16,1.05.01,2.86-.67,3.55-.55.57-2.17,1.06-3.02,1-1.92-.15-2.75-1-3.82-2.72l-1.06,1.97c-.59.4-2.47.37-3.06-.17-.52-.48-1.14-1.8-1.49-2.6-3.8-1.52.16-5.71-2.94-7.09-.39.31-1.06.94-1.28.72l-.82-.79c.04,4.16-.64,4.29-2.99,5.69-.63.38-1.87,1.08-2.47.9-.81-.24-3.84-3.38-3.81-3.59l.41-2.91-1.68-.32c-.75-.14-1.54-4.25,1.37-6.48l-.07-4.1c0-.22-.42-1.08-.54-.91l-.74.99c-.2.27-1.05.11-1.19-.21l-.5-1.21-.49-1.17c-.1-.24-.77.33-.9.55-.7,1.2,1.68,6.05-3.21,7.74l-1.32-.48c-.68,1.21-1.89,2.15-3.11,2.17s-2.03-.89-2.87-2.12c-.93-1.35-.85-2.92-.22-4.3-.84-.06-2.37-.55-2.52-1.19-.46-1.96.59-4.86,2.85-5.88,1.39-.63,2.15-2.14,2.01-3.46l-3.4.11c-.84.03-2.15-1.29-2.26-2.02s.78-1.97,1.01-2.68c.29-.88.51-1.9.85-2.49.95-1.65,4.46-.04,4.14-1.47l-.41-1.87c-.35-1.61-.59-3.92-2.11-4.98l-5.58-3.89-.02,3.02-2.56-4.28c-2.82-5.69-7.68-9.69-14.15-10.55l-4.25-2.81c-2.65-1.75-5.09-1.77-8.28-1.78-2.93,0-5.98-1.29-8.86-2.07l1.28,4.85c1,3.77,1.97,6.49,5.9,8.28-.29.2.2-.14.7-.47.26-1.06,2.8-2.04,3.71-1.42.31.21.75,1.06.96,1.35.28.39,4.03.07,3.81,1.64l-.35,2.39c-.11.78.4,1.89.18,2.47-.57,1.49-4.46.7-3.87,1.88.4.8,1.83,2.2,2.37,2.59,1.79-.15,3.03-.09,4.59.14-.16-2.56,3.21-4.12,5.34-3.52.56.16.94,1.38,1.14,2.15,1.37-.49,3.16-.49,4.24.58.96.95,1.73,3.15.79,3.99l-1.21,1.08c-.24.21.17,1.24.06,1.56-.96,2.76-6.76,1.19-5.98,2.12l.56.67c.03.51-.03,1.33.35,1.41l2.01.39,4.25.35c1.6.13,4.04,1.44,4.1,2.72.01.23-.66,1.07-.8,1.25-.43.56,2.49.57,2.88,3.71.14,1.1-.85,2.79-1.94,2.9-1.73.18-1.97.42-3.07,1.54s-3.61-.26-4.47-1.38l-2.27.61,1.14,3.21c2.36.4,3.73,1.48,4.74,3.52.54,1.1,1.72,2.25,1.97,3.66.15.86-.56,2.38-1.19,2.78-.67.42-1.73.44-2.93.11l-.72.5c2,1.97,1.7,3.27.73,5.22-.57,1.13-1.33,2.58-2.26,2.75-1.6.29-2.71-.23-3.79-1.42l-1.62.68c-3.79-.81-2.14-3.93-3.7-6.01-.58-.78-.36,1.43-2.19,2.67-1.44.98-2.41.64-3.67-.14-1.93-1.21-2.41-3.23-1.47-5.19-.57-.04-1.93-.43-2.12-.94-.59-1.54,0-4.3,1.59-5.58l.03-5.08-1.61,1c-.43.26-1.22-2.43-1.42-2.31l-.8.52c-.84.55.74,3.63-1.61,6.21-.33.36-1.39,1.08-1.79.88l-1.6-.81c-.66.94-1.53,1.99-2.38,2.27-.97.31-3.17.08-3.62-.69l-1.85-3.18c-.49-.85.5-2.86,1.11-3.86-.13-.29-.5-1.08-.29-.62-1.19.19-2.35.22-2.67-.16-1.59-1.89-.58-5.36,1.78-5.94l-.24-2.32c-.19-1.85,5.7-.85,7.1-4.61l-1.71-.55c-.37-.12-.25-1.44-.05-1.8l2.22-4c.3-.54.47-2.07,0-2.43l-1.72-1.33-1.25,3.15c-.13.32-1.14.81-1.42.62l-1.4-.94c-.66,1.03-1.92,2.14-2.82,1.93-1.34-.31-1.96-1.42-1.86-2.73l-2.02-2.09,3.53-4.11c-1.46.23-3.16-.71-3.08-2.18.05-.88,1.21-1.81,2.21-2.43l1.27-1.51c.76-.9,3.5,1.52,4.1.23,2.44-5.27-2.66-7.69-4.47-14.62-.46-1.75-1.51-3.1-2.87-4.22l-4.38-3.64c-2.3-1.91-4.25-1.94-7.07-2.6l-9.75-2.26,2.06,6.72,1.45,4.57-1.82-1.4c-1.23,3.62,1.07,7.6,4.6,8.14,1.09-2.89,5.21-3.33,6.67-1.96.72.68.81,1.49.47,3.13-.55-.25.22.1.52.24,2.55-1.02,3.98.02,5.45,1.88.82,1.04,1.68,2.57,1.02,3.88-.41.83-2.37,1.4-3.47,1.52.52.63,1.44,2.06,1.27,2.82-.41,1.84-5.32,3.36-7.63.33-.45-.59-2.16-.93-2.71-.72l1.38,3.45c.09.22-.39,1.03-.62.97l-1.21-.31c-.16.92.31,2.16,1.16,2.89,2.01,1.75,5.13-.58,6.37,3.79.87.71,2.24,1.72,2.52,2.62.37,1.2-.15,3.28-1.01,3.73h-2.53c1.18,1.43,2.19,2.94,1.8,4.09l-1.19,3.52c-.3.88-2.3,1.48-3.46,1.14-.88-.25-1.89-1.27-2.82-2.35-.34.47-1.38,1.57-1.92,1.34-4.97-2.08-3.11-7.89-4.31-7.79l-1.39.12-.62-1.34c-.66-1.44,0,3.03-1.39,6.07l-2.57-2.3c-.84,2.35.28,3.79,1.78,5.51,1.63,1.87,1.37,6.33.13,6.16l-1.42-.19c.27,1.21.55,3.14.27,4.13-.23.86-1.45,1.86-2.43,2.31-1.48.68-2.18.35-3.42-.37-1.49-.87-2.01-1.64-2.23-3.79l-2.18.77c.91,2.27-.47,4.82-2.51,5.82-.35.17-1.53.22-1.76-.08l-.97-1.31c-1.16,1.23-2.78,2.09-4.16,1.73-1.66-.43-2.55-2.01-2.19-3.79l-1.53-.82c-.41-.22-.41-1.88-.18-2.26l2.2-3.58c-2.23.51-4.38.39-5.24-1.2-.97-1.8-.09-3.77,1.54-4.78l.91-.57c.18-.11-.62-.88-.59-1.12.28-3.08,6.07-2.94,6.11-3.37l.09-.93,3.04-2.26c-.96-.54-1.88-.97-1.73-1.33l.73-1.65-2.55,1.22c-1.41.67-3.56.69-4.95-.34-.29-.22-.57-1.18-.36-1.46l.87-1.19c-1.94.45-3.64-.15-4.35-2.35-.33-1.02.42-3.24,1.35-3.88s2.51-1.01,3.84-1.27c-.72-.56-1.71-2.08-1.21-2.68,1.6-1.89,6.35-2.75,7.89-.55.3.43,1.29,1.43,1.63,1.12l1.24-1.16c1.21-1.13,3.13.48,4.83-.44.37-.2.88-1.24.73-1.52-.44-.46-1.3-1.08-1.13-1.43l.75-1.47-2.91-.07c-2.53-1.77-1.98-5.94-.76-6.1l2.41-.32c-.74-1.34-1.42-3.56-.19-4.83.86-.89,3.33-1.13,4.66-.62.66.26,1.41,1.78,1.72,2.65,3.09-2.42,2.92-6.7.93-10.15l-3.63-6.31c-1.69-2.93-4.58-5.89-7.39-5.51l-5.8-6.03-3.7-3.28-6.9-1.99-11.57-2.22-10.09-3.35c-4.97-1.65-11.44-1.35-16.23.73-2.5,1.08-5.52,1.31-8.09,1.96l-5.48,3.73,6.82,3.28c2.95,2.84,6.95,3.82,10.91,2.17.63-.05,1.91.28,2.42.63l-3.02,1.9c2.25,1.88,5.81,2.92,7.8.57l1.48-1.74c.28-.33,1.41.53,1.9.92,2.68-1.17-.23-5.51,1.48-6.29l2.24-1.03c.73-2.03,3-3.33,4.85-2.31s2.64,3.16,1.42,5.49l.71.94,2.71-2.57c.53-.5,1.89-1.3,2.64-1.44.83-.15,1.94.67,2.49,1.45,1.96-.66,3.78.04,4.5,1.61.88,1.91.35,3.69-1.55,4.67l.92,1.65c.25.44-1.65,3.4-5.26,2.76-.73-.13-2.2,1.21-2.23,1.58l1.9.8c.3.12.14.68-.04,1.66l4.68-.16c1.29-.88,2.27-1.46,3.58-1.65.88-.13,2.31.89,2.99,1.46,1.34.15,2.61.51,3.5,1.53.79.91.78,2.71.05,3.67l-3.06,1.65,3.29.92c.78.22,2.15.91,2.8,1.57.53.54.2,2.21.49,2.92.53,1.29,1.22,2.64.75,3.65-.51,1.06-1.7,1.87-2.79,2.25l-2.03.72-3.31-1.61c.5,2.07.18,3.2-1.12,3.83-1.19.57-2.61-.4-3.69-.69-2.23-.58-4.27-1.26-4.39-4.26l-2.68-1.43c-1.14,1.26-2.24,1.11-3.84.51l3.4,4.55c-1.05.81-1.99,1.08-3.4,1.32,1.17,2.25,4.5,1.74,4.66,2.83l.31,2.06c1.73,1.39,2.24,4.41.37,5.94-.7.57-2.31.21-3.6-.11l.92,1.9c.93,1.94.5,2.73-.57,4.34-.54.81-1.09,2.07-1.74,2.49-.56.36-2.22.22-2.93.07-1.84-.37-2.76-1.38-3.18-3.44l-2.3,2.13c-.51.47-2.27-.44-2.87-.89-1.8-1.35-2.4-3.45-1.23-5.73l-2.08.19c-.94.09-2.41-4.36.46-7.45l-.47-5.23-1.9,1.9-2.04-2.61c-1.49,2.17,1.28,5.91-2.44,8.29-.59.38-2.01-.24-2.52-.72-.46,2.42-3.43,4.09-5.68,2.59l-2.12-3.16c-.56-.83.38-3.22.64-3.97l-2.79-.05c-.66-.01-1.24-1.96-.97-2.62l2.16-5.17c2.34-.49,3.71-1.4,4.74-3.39l-2-.92,1-3.35c.07-.25-.02-1.01-.08-1.27-.04-.17-.7-.12-.78.04l-.38.79c-.19.38-.97,1.33-1.32,1.57s-1.11-.24-1.53-.35c-.68.84-2.2,1.58-3.03,1.3s-2.72-3.56-2.57-4.46c.08-.51,1.19-1.35,1.16-1.86l-.16-2.45c-.07-1.13,2.88-.64,3.59-1.64.26-.37-.51-1.33-.81-1.7l-1.61-3.17-8.63-2.61c-1.29-.39-4.03.18-5.56-.11-5.85-1.12-8.39,3.48-15.81,2.96-1.09-.08-2.2,1.12-3.05,1.57-3.86,2.03-8.3,2.62-12.34,3.07.86,1.73,3.17,2.97,4.67,2.21.53-.81,1.86-2.3,2.72-2.25.51.03,1.52,1.09,1.78,1.41.95-.15,2.4-.03,2.99.7.51.63.54,1.88.58,2.85.17,3.93-2.34,2.53-4.36,4.9,3,2.49,5.89-.64,6.04.53l.11.86c1.62,0,2.44-1.05,3.47-2.56,2.27-1.75,6.34-1.54,6.24-.03l-.1,1.49c1.63-.53,3.32-.56,4.66.31.91.59,1.94,2.16,1.79,3.57-.08.75-1.52,1.9-1.98,2.3.12.79-.05,2.09-.55,2.43-1.62,1.12-2.77,1.16-4.43.46l-2.97,1.35,2.43.9c.32.12.94.49.87.79l-.25,1.2c1.8.1,3.43-.04,5.36-.57l4.56,1.43c.56.18,1.6,1.4,1.35,1.86l-1,1.85c1.8.44,3.28,1.51,3.75,3.12s-.08,3.7-1.84,4.12c-1.39.33-2.23.73-3.33,1.42-1.71,1.08-3.86-.59-4.78-1.74-.34.62-.63,1.28-.94,1.26l-1.36-.08,1.09,1.62c-.05,4.09,5.05,1.25,6.18,6.32.56.83,1.6,2.17,1.77,3.04s-.49,2.64-1.41,3.08c-.68.33-2.36-.15-3.37-.36.48.94,1.95,2.98,1.57,3.93l-1.35,3.39c-.4,1-2.72,1.56-3.72,1.17-1.15-.44-2.3-1.48-2.86-2.36-.35.54-1.03,1.42-1.52,1.57-1.79.56-4.84-3-3.85-6.94l-2.31-1.37c.31,2.83-.78,3.55-2.57,4.28l-2.02.82c-.41.16-1.26-.63-1.72-.88-2.04-1.14-2.52-3.33-1.7-5.55-1.08-.08-2.41-.32-2.53-.94-.47-2.4.18-5.27,2.23-6.95l.03-5.17-2.47,2.37-1.95-4.19-1.71,2.44c1.52,3.36-1.76,6.81-3.91,6.91-.51.02-1.13-1.1-1.45-1.73-.55,1.21-1.54,2.58-2.82,2.95-1.03.3-3.29.17-3.79-.68l-1.77-2.97c-.54-.91.72-3.14,1.4-4-1.27.21-3.11.01-3.36-1.26-.36-1.91,1.47-6.04,4.86-6.35.51-.05,1.87-.69,1.92-1.17l.19-1.97.52-.75c.09-.13.14-.47-.01-.43l-1.09.27c-.6.15-2,.37-2.6.33-.5-.04-.98-1.04-1.39-1.48-1.21-1-1.85-2.03-1.43-3.64.25-.97,1.42-1.6,2.91-1.95l-.3-1.76c.23-.59,1.69-1.75,2.51-1.77s2.14.75,3.14,1.18c.75.32,1.6-2.05,1.37-2.76.93-1.99.64-3.52-1.22-4.38-1.69-4.05-5.63-6.83-10.17-7.37-3.41-.4-6.57-.86-9.77-2.6-2.83-1.53-5.82-4.12-9.07-4.48l-10.65-1.19c-4.33-.48-8.1,2.61-11.64,4.65l-12.29,7.09,3.9.87c.16-.67.53-2.12,1.05-2.13l2.18-.04c.68-.49,2.09-1.45,2.76-1.02,2.02,1.28,2.01,3.72.62,5.38,1.37-.35,2.15-.5,3.47-.51.97-2.47,3.35-4.77,6.12-4.63.64.03,2.17.45,2.13.98l-.11,1.83c1.33-.38,3.23-.78,4.48-.3,1.46.57,2.52,2.13,2.37,3.35s-1.37,2.36-2.45,2.98c.23.16.89,1.58.6,2.07-1.15,1.92-4.85,2.97-6.76,1.45l-2.12,2.43,3.29.98-.78,1.28c-.56.92,2.71-1.18,5.68.35,1.47.76,2.48-1.16,3.49-1.91,2.7-2.01,9.1-.3,8.13,1.41l-1.18,2.08c2.84-.73,5.74.15,6.8,3.3.33.99-.05,2.89-.86,3.57s-2.52.95-3.58,1.06c.41.45,1.22,1.93.75,2.18l-1.75.94c-2.66,1.43-5.33.76-7.49-.96l-2.99,1.6,1.23,1.17c.21.2-.35.66-.86,1.29l2.89-.09c.68-.02,2.07.45,2.32,1.17.19.56-.26,1.25-.96,2.64l5.88-.14c2.79-.07,6.58,2.28,6.05,3.88-.19.58-1.04,1.37-1.82,2.07,2.86.27,5.18,1.62,5.52,4.71.09.88-.16,2.32-.66,2.95-.47.59-2.1.92-2.82,1.26-2.12,1.02-3.83,1.29-5.56-.8l-1.75.96.99,2.78c2.86.05,3.71,1.72,4.35,3.78.53.85,1.36,2.28,1.39,3.19.02.74-.89,2.29-1.63,2.54-.56.19-2.03-.12-2.7-.26,1.15,1.66,1.6,3.23.81,4.92s-1.26,2.65-3.21,2.96c-1.18.18-2.71-.78-3.64-1.77l-1.79,1.09c-.41.25-1.62-.59-1.83-1.04l-1.62-3.33c.24-1.38-.23-2.78-.96-3.33-.74,2.82-3.32,4.62-4.6,4.38-.57-.11-1.37-.72-2.02-1.18-1.82-1.29-2.28-3.04-.97-5.42l-1.92.3c-1.42-2.58-.84-4.9,1.11-6.97.56-1.38.13-3.95-.54-5.5l-2.53,2.78-1.74-3.56c-.64,1.4-1,2.44-.81,3.26.83,3.49-1.57,6.5-3,6.62-.53.05-1.38-.51-2.06-.93-.64,2.24-3.41,3.88-5.55,2.7l-2.18-2.54c-1.66-1.94-.3-4.2.85-6.24-1.01.18-2.7.52-3.25.08-.8-.65-1.13-2.94-.62-3.9.4-.74,1.33-1.64,2.06-2.38-2.15-6.11,6.38-2.79,6.35-8.59-.94.18-2.12.22-2.55-.25s-.19-2.13-.21-2.79l-.11-2.78c-.02-.57,1.15-1.24,1.43-1.71,1.49-2.69-.58-5.48-2.91-6.7l-1.18,4.58-1.9-1.37c-.87,1.61-.43,3.24,1.07,4.63,1.29,1.2.77,7.39-1.73,9.19-.73.52-2.89.39-3.25-.3l-1.57-3.02c-.81.82-1.07,2.12-.58,3.63.82,2.54-2.9,5.85-3.72,5.1l-1.62-1.47c-.44,1.65-1.72,2.67-3.26,2.68-1.63.02-3.14-.88-3.16-2.78l-.02-1.65c0-.23-.71-.11-1.15-.11-1.43-3.33,1.76-4.05,2.68-6.91-2.54.82-3.71.72-5.61-.7-.78-.58-.98-2.64-.49-3.59.6-1.18,1.81-1.96,3.18-2.42l-.99-1.72c.85-1.6,2.96-2.92,4.69-2.29,1.94.71,3.08.22,4.74-.68,1.25-.68,2.44-1.6,2.96-2.7-1.77.1-3.08.04-3.76-.66-.58-.59-.55-2.4-.13-3.2l1.1-2.16c.21-.4,1.49-.1,2.08.03.46.1,1.3-1,1.06-1.46l-1.56-3.03-9.18.99c-2.58.28-4.51,2.9-6.21,4.6l-10.94,10.94c-1.38,1.38-2.35,3.65-3,5.48-2.01,5.56-4.31,10.58-7.06,15.78-1.45,2.74-2.15,5.82-3.06,8.79-2.46,8-2.96,15.84-2.11,24.14.67,6.52-.54,12.93-1.87,19.26-2.25,10.72,2.22,21.54,2.02,33.43-.08,4.99.02,9.8,1.14,14.61l1.88,8.11.64,3.93-16.91,7.51c-4.55,2.02-7.74,5.4-10.89,9.1-4.25,5.23-7.5,10.83-10.64,16.92-5.76,4.38-10.02,10.12-13.1,16.73-1.92,1.4-4.76,2.76-5.33,5.05l-1.22,4.97c-2.45,1.8-2.95,4.32-2.11,7.2l-1.56,4.82c-.85,5.62,2.42,12.3,8.97,13.57l-4.6-3.8c-1.23-1.02-1.64-3.35-2.18-4.77-1.35-3.59.21-6.33,1.42-9.44-1.91-5.49,1.98-5.69,2.86-10.88.72-4.27,9.19-7.99,14.73-8.96-2.6-.42-4.89.02-8.11.76,2.59-4.73,5.56-9.85,10.29-12.31l9.95-5.17-8.18,2.35c2.43-5.16,5.53-9.49,9.64-12.96-.4-.35-1.01-.83-.85-1.01l.78-.91c2.29-2.66,5.16-3.93,8.35-4.98l-4.87.62c2.32-2.37,4.93-3.86,7.69-5.32,3.19-1.69,6.1-3.05,9.95-2.13l-2.8-1.14,7.82-3.67,4.29-1.75c-.11-.88-.35-1.86-.07-2.26.75-1.08,2.78-1.03,4.25-5.48.49-1.48,1.68-3.07,3.45-2.82l5.59.8c-.9,1.72-1.45,2.41-1.55,3.72,2.36-3.36,3.67-6.72,5.42-10.32.19-.39-.08-1.37-.29-1.82l.64-12.65.28-5.35c.08-1.6.75-3.12,1.22-4.73l.91-3.14c.52-1.79,2.19-3.72,3.57-5.21v-1.54c2.04-1.65,4.31-2.8,7.07-4.01l-2.71.07c1.61-1.3,3.33-1.67,5.34-1.77l-.11-1.29c4.11,1.17,6.04-1.57,9.27-1.48l-1.98,1.79c3.1-.96,5.7-1.32,8.91-.55l-2.3.97,9.09,2.23c.4.1,1.85.12,1.8.47l-.23,1.53,7.46,5.31c1.9,1.35,3.73,1.99,5.84,1.81-.5.95-1.35,1.16-2.98,1.25,1.55,1.61,3.08,2.39,5.89,3.33l-2.61,1.67,3.47,2.67c.22.17.44,1.1.45,1.37s-.78.02-1.13-.1c-.28-.04-1.03-.06-.98.15s.22.9.33,1.09l1.15,2.09-3.62-.71.43,2.62-3.06-2.74-.56,5.29-1.52,9-3.4.99-.26,9.34c-.03,1,0,2.07-.35,2.74-.3.56-1.89,1.04-2.39.56-1.15-1.1-2.88-2.52-4.73-1.9l2.44,1.02c.41,1.24-.06,4-1.18,4.3l-4.83-1.43c-1.88-.56-4.02-.1-4.47,2.2l2.31-1.82,4.19.87c.38.08,1.4.84,1.19,1.15l-.83,1.26-3.05.05,2.35.65c.24.07,1.46,6.23.46,9.74l-1.28.27c-.21.05-.04,1.41-.19,1.58l-3.21,3.53c2.58-.36,4.02-2.64,4.48-4.67l6.7,4.16c4.62,2.87,8.25,6.36,10.47,11.39l3.21,7.25c1.39,3.14,2.2,6.08,2.3,9.55l5.24,6.61c1.2,1.52,1.53,3.77,2.02,5.59l2.11,2.35-13.36,5.94c-5.49,2.44-10.89,3.48-16.88,1.78l-6.29-1.79c-11.57-3.29-25.14-6.44-36.95-5.36-7.79.71-15.38,2.27-22.2,5.94-4.26,2.29-8.39,4.6-10.9,8.56,3.3-2.6,5.84-5.03,9.28-6.88,10.01-5.37,21.24-7.69,32.6-6.81,9.23.71,17.91,2.36,26.77,5.09,5.31,1.64,10.28,2.92,15.94,3.11l-20.13,8.78c-1.55.68-2.21-.19-3.65-.87-6.91-3.27-16.71.54-18.42,8.4,3.53-6.64,10.66-10.78,17.86-7.69,1.45.62,2.7,1.49,4.37.78l23.61-10.15,45.89-19.97c.34-1.85.61-3.3,1.3-4.94.4-.97,2.71-1.65,3.45-1.08.84.65,1.28,1.9,1.42,3.31l18.35-7.99c2.39-1.04,2.17-4.12,5.79-5.2l-1.81-1.04c-.41-.23.25-1.66.62-1.96.55-.45,2.27-.49,2.68.06.35.47.3,1.38.28,2.36l3.48-1.2-1.74-1.47c-.44-.37.64-1.95,1.21-2,.49-.05,1.46.28,1.82.63s.36,1.06.42,2.2l3.09-1.23c-1.03-.46-1.75-1.13-1.56-1.98.14-.65,1.6-1.54,2.17-1.2s.92,1.56,1.12,2.52l2.08-.89c-.77-.65-1.51-1.44-1.4-1.93.21-.97,2.08-1.71,2.77-1.11.47.41.65,1.15.8,2.35l2.55-1.1-1.47-1.16c-.29-.23.25-1.29.52-1.65.37-.48,2.15-.7,2.56-.17.37.48.42,1.33.5,2.25l6.28-2.76c1,2.83,2.4,3.81,5.03,3.87l3.18,4.51-.55,4.07c1.17,1.86,1.43,3.26.46,5.1-.71,1.33-2.41,1.89-4.25,2.21l-1.33.24c-.27.05-.06.97.2,1.08l1.07.43c.83.33,1,2.09.32,2.58-.79.57-2.33.54-2.95.02-.55-.47-.35-1.79-.24-2.98-.86-.77-3.43.24-3.78,1.1l2.02,1.6c.42.33-.11,1.97-.63,2.12-1.97.57-3.32-.6-3.07-1.22l.54-1.37c.14-.35-.55-1.23-.91-1.1l-1.47.52c-.31.11-1.26.75-1.04.99l.79.86c.83.9,1.24,2.08.41,2.83-.75.69-2.08.51-2.79-.35-.46-.55-.04-1.67.48-2.69-.74-.6-2.68-.08-3.34.74l2.01,2.3c.47.54-.46,1.91-1.08,1.93s-2.28-.26-2.2-.86l.36-2.64-2.9.3c-.37.04-.47,1.36-.16,1.56l1.23.78c.91.58.06,2.41-1.05,2.76-1.04.33-2.62-.4-2.74-1.32l.95-2.24-3.69.59c-3.34-1.5-6.94-1.64-10.19-.2l-7.54,3.36-.22-.1ZM257.64,115.21c1.28-4.7,2.64-8.79,2.96-13.2.28-3.81-.25-7.71-.76-11.44l-1.63-11.79-10.88,9.98,1.09,10.93c.34,3.42,2.82,5.82,5.04,8.18,2.01,2.15,3.1,4.93,4.17,7.34ZM432.26,97.88c-.61-.73-.25-2.99-.01-3.93l-3.09-1.15c.17,1.91-.92,4.33-2.41,4.16l-2.95-.34c-1.02-.12-2.22-1.36-2.54-2.25-.53-1.47-.34-2.69.59-3.99-1.02-.2-2.05-1.06-1.88-2.29.37-2.7,3.99-2,3.71-2.96l-.41-1.42c-1.2-3.34-3.89-5.38-7.55-4.14-3.07-1.27-6.7-1.24-9.32.64-2.13,2.93-4.6,4.59-7.59,6.33-1.63.95-3.25,2.8-4.93,4.32,2.75.9,5.52,1.74,7.85,3.42,2.07,1.49,4.41,1.28,6.61,2.01,5.8,1.9,11.23,3.44,17.45,2.94l4.81-.39c2.28-.18,5.23.17,7.42-.32l6.64-1.47,3.91-1.06c-5.95-.62-11.52,3.42-16.3,1.9ZM288.92,122.54c1.73-3.05,2.89-5.89,4.13-8.97.42.05,1.16.24,1.28-.02l.5-1.12c.64-1.42,1.44-3.85,1.14-5.22-.71-3.19,1.98-4.87,2.7-7.38l3.19-11.19-4.19,8.16-2.62,5.49-.6-2.82-2.69,7.54c.53.67.75,1.73.51,2.3l-2,4.64-1.35,8.6ZM394.07,92c-1.72-.83-3.82-1.87-5.71-1.6l-3.42.48,9.13,1.13ZM589.86,104.85c-1.3-.86-2.48-1.09-3.93-1.35-.84-.15-1.71-2.2-1.42-3.01.37-1.04.99-2.02,1.93-3.05l-5.47-2.22c-1.61-.65-3.81-.82-5.34-.74l2.92,3.46-2.93-1.61-6.71-4.14c-2.75-.29-5.71-.04-8.34-1.12-2.44-1-4.63-1.16-7.07-.31l-4.82,1.68-8.16,2.08c2.78,3.44,5.52,5.6,8.86,7.74,2.56,1.64,4.85,2.48,8.02,3l5.06,2.17,7.12,1.04c3.15,2.58,7.06,2.75,10.81,1.51,3.22,1.41,5.95.18,7.49-2.77.78-.5,1.59-1.4,1.99-2.36ZM232.37,129.91c.31-2.94.27-6.27,1.33-8.81,1.34-3.2,1.42-5.45,1.18-8.86-.27-3.78,1.05-7.61,1.02-11.79-4.23,4.62-8.2,9.23-12.15,14.04l1.87,6.63c.38,1.36,1.33,3.65,2.3,4.57l4.46,4.21ZM268.96,139.16l2.22-5.14,2.24-5.95.48,2.52c1.81-4.09,2.69-8.44,3.31-12.89l-2.03,2.62,3.42-17.71-3.41,7.37-1.6,1.24-1.84,5.92c-.18.59.34,1.88.58,2.51-.08,2.12-.75,5.1-1.36,7.25l-1.53,1.81-.46,10.45ZM249,157.54l1.11-4.99.68-5.38c.34-2.71-.11-5.32-.52-7.69l-1,4.69c-.44-3.1-.76-5.45-.78-8.4-.02-2.2,1.13-4.86.87-7.14-.43-3.77-1.31-7.62-2.89-10.96l-5.04-10.66c-.09,2.57-.86,5.91-.57,8.74.49,4.68.25,8.34-.51,12.89-.53,3.18-.05,7.23.36,10.63l2.44,8.34.11,1.15c.02.18.36.41.46.26l.71-1.07c1.19,3.08,1.53,6.49,1.22,10.01.89,2.82,1.34,5.43,1.56,8.22l1.8-8.64ZM224.56,182.8l1.55-7.13c1.01-4.66,2.72-9.38,1.8-14.25l-2.34-12.39c-.72-3.8-1.97-7.34-3.16-11.12l-4.14-5.15-3.2-6.82c-4.22,5.87-7.98,11.47-11.66,17.35l1.78,4.82c1.45,3.93,3.08,7.6,5.9,10.74,4.92,5.49,4.29,9.64,6.33,14.09,1.68,3.68,4.34,6.53,7.15,9.87ZM296.17,156.83l1.72-4.28,1.63-1.57,2.65-5.87v2.56c1.91-2.67,3.8-5.52,4.85-8.5-.71-1.07-.45-2,.28-3.22l5.54-9.23-8.15,8.48c-.75,2.96-1.82,5.36-3.89,7.47l-.09-2.65c-.93,1.53-2.31,3.63-2.8,5.26-.38,1.92-.27,3.8-1.63,5.21-1.64,1.7-1.49,3.48-2.09,5.66l-2.25,8.13,4.22-7.44ZM207.39,179.08l-1.64-5.55-1.56-2.59c1.17-2.34-.5-4.64-2.62-5.42l-1.19-2.59-2.76-4.43c.07,4.82,3.13,8,1.66,9.52l2.01,4.34c1.12.52,2.04,1.2,2.68,2.06l3.42,4.66ZM264.23,225.56l1.17-6.79.55-5.54,1.67.13.67-10.39-1.41,3.26c-.19-5.58,1.07-10.26,3.16-15.59v5.49c2.42-6.16,3.07-12.39,3.26-18.51l-2.09,3.39,1.14-12.22,1-7.95-3.59,10.62c-.08.22-.1,1.2-.32,1.18l-1.18-.12-1.83,9.87,1.9-3.55c-.21,3.7-.52,7.11-1.7,10.35-1.39,3.82-2.08,7.47-2.77,11.8l-1.06-3.2c-.79,3.9-1.13,7.64-.97,11.6l1.46-2.67c.41,2.89-.46,5.58-.16,8.37l1.13,10.48ZM239.26,192.99c.75-3.55-.69-6.81,1-10.03l.96,2.32v-11.19s-1.03,1.81-1.03,1.81l-.5-6.95-1.08-6.63-.59,11.48c-.15,2.98,1.44,6-.27,9.19l-.7-2.7-1.06,9.26c.52.2,1,.55,1.02.9l.58,10.37,1.66-7.81ZM199.26,304.34c.71-4.09,1.99-7.51,3.19-11.2.91-2.8.14-6.31.82-9.27,1.86-8.09,2.44-15.93,1.51-24.23-.64-5.77-.39-11.4.87-17.07s1.68-11.27.83-17.09l-1.98-13.53c-1.99-3.83-3.73-7.84-4.48-12.09-.51-2.89-1.34-5.06-3.15-7.39-2.35-3.04-4.79-6.36-5.96-10.03-1.07-3.33-1.91-6.38-3.79-9.58-18.91,39.17-29.72,86.33-28.63,129.39.63,24.99,4.54,49.38,12,73.37l3.17-2.7c2.31-1.97,4.05-4.05,7.11-4.85.81-.21,2.26-1.19,2.75-1.91l5.56-8.17c1.32-6.52,3.66-11.96,6.36-17.9,2.01-4.42,2.31-9.8,2.31-14.6,0-7.14.26-13.93,1.51-21.16ZM290.32,217l1.42-7.21.73-5.34,1.27,1.84,1.18-10.36-1.73,2.3,1.06-16.99-2.97,10.44c-1.03,3.62-1.77,7.09-1.93,10.68l1.63-5.06c.78,5.29-2.32,9.03-1.42,14.85l.76,4.86ZM248.55,261.11l1.09-6.31c.65-3.79,1.39-7.29,1.02-10.85l-1,1.66c-.11-4.22.29-7.62,1.16-11.3l.71,3.15c.85-5.29.76-10.42-.27-16.06l-1.3,4.7-.8-9.65-.06-9.11-1.67,6.31c-1.05,3.96-1.42,8.03-1.41,11.92l.97-2.13c.68,4.3.4,7.9-.57,12.21l-.76-3.1c-.84,4.84-1.15,9.69-.13,14.97l.84-3.79c1.15,3.64.76,7.24,1.3,11.16l.87,6.24ZM224.76,249.64l1.2-6.75c.58-3.27,2.06-6.26,1.24-9.61-.71-2.88-.51-5.64-.04-8.81l1.15,2.12c.19-3.16.06-6.49-.26-9.82l-.85-8.97c-.92,3.92-.63,7.87-1.26,11.99l-.77,5.02-1.36-5.16c-1.07,4.92-1.22,9.87-.87,14.83l1.16-2.02c-.03,6.18.05,11.61.65,17.19ZM279.38,254l2.1-11.04c-.64-4.03-1.11-7.97-.2-11.97l1.45,4.05c.26-3.29.68-6.78-.58-9.59-.45-1.01-.29-2.46-.32-3.9l-.46-8.02-1.61,7.65-1.21,8.3-1.15-2.7c-.9,4.33-1.05,8.69-.89,13.5l1.4-3.27.57,9.32.9,7.67ZM296.22,248.38c.59-6.24-1.31-8.69-.9-13.4l-.89-.97-.13,10.37c-.01.93-.67,2.94-.48,3.84l1.68,7.78.72-7.61ZM343.39,244.13c.65-1.16,2.05-1.84,3.28-1.53,1.07.27,2.15,1.57,2.23,2.7l.19,2.6c1.51-1.54.71-3.45-.14-4.6-.64-.86-2.56-2.1-3.67-1.61-6.47,2.87-3.36,13.82-1.33,15.67.56.51,2.21.6,2.81-.22-3.83.85-6.01-8.34-3.38-13.01ZM231.09,294.9l1.59-8.65.99-6.96,1.23,1.1c1.1-5.79,1.11-10.92.51-16.1l-.98,2.84c-.81-2.6-.51-4.78-.69-7.31l-.75-10.64-1.04,6.37c-1.4,4.78-1.89,9.52-1.52,14.19.5-1.18.64-1.63,1.22-2.16.27,4.35.13,7.83-.41,11.67l-.76-2.07c-.36,2.51-.63,5.32-.36,7.96l.99,9.74ZM374.81,252.94c-2.23-1.45-4.73-2.09-6.92-1.71l6.67,2.82c.29.12,1,.07,1.18-.06.13-.1.1-.37-.02-.45l-.91-.59ZM291.21,265.77l-1.01-4.97-.85-5.93c-.57,3.06-1.39,6.7-.51,9.88l1.23,4.42,1.38,4.47c.32-2.77.29-5.29-.24-7.87ZM268.64,293.43c.67-3.11.89-6.02.79-9.3l1.23.06-.06-10.45-1.37,2.27c-.85-3.53-.22-6.43-.58-9.73l-1.1-10-1.12,9.62-.21,1.05c-.03.14-.35.11-.86.14l.07,10.3,1.27-3.2,1,7.72c.28,2.16-.4,4.2-.02,6.29l.96,5.22ZM345.5,264.09l-.68-.41c-1.31,3.41,0,5.81,1.67,8.32.37-2.92-2.26-4.5-1-7.92ZM362.33,268.29l6.12-1.87.4-1.93-7.14,3.57c-.65.68.11.69.62.23ZM360.37,293.97l-2.34-.67-2.66,5.58c-1.63-3.3.14-8.36-3.04-11.84l1.15,5.95c1.12,5.8.25,11.46-.39,17.06l-2.69-1.1-3.71-9.14-4.18-10.54-3.97-4.49-7.66-8.5-8.55-9.39c2.9,5.24,6.85,8.95,10.51,13.14l7.54,8.62c1.07,1.23,1.56,2.49,2.15,4.11l2.09,5.79c-.3.3-.95.82-.72.98.18.11,1.02.62,1.1.82l2,4.26-2.31.1,3.36,2.79c1.49,2.4,2.18,5.28,2.93,8.14l-3.36-.56,3.76,1.62,1.56,3.88-2.94,1.45,2.94.05c.46.33,1.09,1.96,1.54,3.13l.12-3.25,2.39-.2.06-.67-2.61-.21.2-4.38,2.83-.94-1.21-1.7-.07,1.45c-.01.27-.71.57-.98.58s-.77-.9-.76-1.26l.18-6.65c.81-.19,1.85-.3,1.85-.7,0-.44,0-1.6,0-1.5l-1.63,1.46c-.98-4.16.83-7.27,2.41-10.74l.86-1.9c.2-.44,1.55-.32,1.86-.22l.39-.41ZM216.19,324.18l1.45-4.68c1.05-3.39,1.79-7.34,1.9-10.79,0-.32.36-1.17.5-.99l.7.89.52-10.01-.09-5.32-2.33,7.16-.15-10.74c-.04-2.73,1.35-5.84,1.04-8.61l-1.08-9.61-1.05,8.61c-.23,1.91-.68,3.04-1.33,4.79-.93,2.53-1.05,5.39-1.33,8.36.27-.21.4-.35.94-.89-.33-1.18.4-.77.75-.08l-.9,11.72c-.16,2.03-.92,3.25-.09,5.11.98,2.19.2,5.8.3,8.52l.25,6.56ZM251.23,312.65l1.54-7.18,1.21,3.23c.51-4.02.68-7.13.51-11.31l-1.51,3.75c-.94-5.65,1.01-10.55.48-17.61l-.55-7.31-3.24,18.91c-.67-1.9-.75-2.93-1.1-4.72-.82,4.27-1.48,8.33-1.11,13.1l1.44-3.33c.64,4.37.28,8.16-.47,12.16l1.12,7.19,1.68-6.88ZM334.02,290.15c-1.99,1.13-2.95,1.98-4.32,3.19-1.79-4.21-3.86-8.6-7.37-11.92,2.71,4.46,4.93,8.42,6.88,13.5l4.81-4.77ZM349.42,289.84c.51-4.64,4.5-6.51,3.34-8.44l-4.08,3.6c1.28,1.07-.68,2.74.74,4.84ZM590.75,308.82l2.54-.02c.89,0,2.42.78,3.31,1.37l2.08-.35c-.19-.44-.18-2.05.37-2.16l1.95-.38c.52-1.05,1.52-2.44,2.45-2.61,1.4-.25,2.81.37,3.85.97l2.66,1.17,25.43-11.25-29.94-8.73c-8.56-2.5-16.99-3.62-25.81-2.78-6.83.73-13.19,1.98-19.77,3.97l-26.54,8.01c5.22,2.24,10.83,4.32,16.74,5.28,5.01.82,9.47,2.2,14.2,3.92l7.49,2.72c2.07-2.75,4.12-1.46,7.52.04.47-1.35,1.49-2.19,2.83-2.01.75-1.29,1.8-2.29,3.3-2.29.95,0,2.19,1.21,3.12,1.86.42.29,1.86.68,1.93,1.18l.29,2.1ZM360.25,294.59l3.32,1.96c-.8-3.06-1.37-5.57-3.15-7.63l1.56,5.81-1.42-.42-.3.27ZM293.15,322.16c.21.69-.67,2.17-1.04,2.41,2.95,4.23,3.02,10.15-.98,13.66-3.65-9.36-10.31-13.28-19.62-13.34,5.92,1.68,11.74,3.39,15.06,8.61l3.13,4.91.89,3.48c.4-4.2,4.08-2.94,4.66-7.38,3.47-1.22,5.72-4.01,6.46-7.54,4.52-.65,7.48-9.11,7.83-13.63.43-5.57-.56-10.85-2.76-15.76l.7,4.8-1.76-1.48c1.17,3.9,3.1,7.83,2.23,11.88l-.82,3.81c-.4,3.92-2.57,7.22-5.58,9.65.43-4.83.34-9.22-1.44-13.51l.71,7.33c.18,1.9-.13,4.34-.46,6.36-.44,2.67-2.55,4.79-4.43,6.59l-.5-6.99-.91-4.27c-.99-2.32-2.05-4.24-3.38-6.2l2.01,6.6ZM639.94,332.2c.52-2.19,1.48-3.51,2.88-3.76,1.58-.28,2.81.36,3.78,1.47,3.47-1.98-2.27-1.92-1.51-6.66.18-1.1,1.49-2.94,2.76-3.13.64-.1,2.14.51,2.5.7-.1-1.33-.08-3.04.5-3.85,1.78-2.48,6.11-2.22,7.38-.6.6.76.85,2.41.96,3.58.79-.94,2.08-1.65,3.27-1.24,1.01.35,1.93,1.52,2.42,2.61.87,1.97.56,3.78-1.09,5.11,1.41,0,2.4.1,3.34.37-.05-.83.41-2.87,1.4-3.36.8-.4,2.16-.36,3.66-.28-2.04-2.75-2.02-6.31.76-8.42.62-.47,2.14-1.1,2.7-.71l2.42,1.71c.32-2.02,1.12-4.15,2.44-5.06,1.57-1.09,3.54-1.33,5.34-.86,2.87.74,4.35,3.62,3.06,6.34,1.21-.51,2.44-.97,3.43-.77.79.16,1.61,1.62,1.97,2.52,1.08,2.7.08,4.96-2.84,6.33,1.76.15,2.51.3,3.51,1.23.33-1.33,1.49-2.42,2.87-2.71,1.56-.32,3.26.53,3.7,1.95.08.27-.26,1.19-.01,1.2l1.15.04c.74.03,1.53,2.03,1.19,2.69l-1.39,2.65,3.34-.44c.69-.09,1.76.33,3.02,1l2.41-31.59c-15.58-4.26-40.46-3.28-55.82,1.33l-33.13,9.94-27.07,8.5-29.3,8.69,3.55.94,4.98.88,4.48-.49.5,1.39,5.98.42c3.01-1.04,5.59-2.21,8.45-.65l-3.04.79,3.08,1.32,4.85.74c.04-.64.45-2.34,1.06-2.38l2.23-.14c.75-1.3,1.76-2.37,3.66-2.22,1.12.09,2.18,1.08,2.67,2.42.66-.04,2.85.1,2.79.79l-.24,2.48,1.98-.02c.23-1.3,1.07-2.98,2.04-3.16,1.14-.22,2.74.12,3.97.43-1.16-1.29-2.04-2.75-1.93-4.46.08-1.29,1.35-3.08,2.84-3.68.62-.25,2.2.46,2.67.84-.02-1.44.25-3.32,1.49-4.29,1-.79,2.95-1.2,4.32-.92,2.3.47,3.52,2.21,3.16,4.51.86-.27,2.29-.71,2.9-.56,1.22.3,2.58,2.07,2.59,3.08.01,1.1-.47,2.58-.87,3.5.92-.05,2.58-.14,2.99.31.34.37.64,1.14.85,1.58ZM478.04,303.36c.54-.32-.8-1.61-1.37-1.47s-1.75.69-1.54,1.15c.26.59.8,1.57,1.12,1.38l1.8-1.06ZM473,305.45l-.54-1.88-3.23,1.53,1.36,1.4c.22.23,2.46-.86,2.4-1.06ZM466.15,308.02c.61-.13,1.52-.73,1.37-1.05s-.45-1.36-.78-1.25l-1.56.53c-.39.13-1.13,1.17-.78,1.4.29.18,1.38.44,1.75.37ZM379.84,339.18l.42.19-.98-7.92.98-9.41c.23-2.2.25-4-.04-6.18l-1.17-8.8-.47,6.01c.49,2.62.43,5.26-.31,7.88.78,3.4,1.37,6.72-.55,10.06l1.06,4.08,1.06,4.1ZM479.67,312.21c.31.47,1.45.69,2.04.41.42-.2.62-1.38.3-1.72-.93-.97-3.06.23-3.06.23l.72,1.08ZM475.62,311.91c-1.46.53-1.4,1.03-1.02,1.69.36.61,1.13,1.19,1.59.95.52-.27,1.19-.85,1.14-1.33-.09-.85-.95-1.59-1.72-1.31ZM455.07,320.73l.67.02c-1.37-2.98-2.96-5.87-4.74-8.63l-.52.47,4.59,8.14ZM233.32,371.61l1.31-5.49,1.56-11.72,1.31,4.55c1.23-5.39,1.06-10.09.57-15.34l-1,4.96c-.85-4.62-.72-9.72.86-14.38.85-2.51.78-4.56.62-7.13l-.47-7.42c.47-.76.28-1.22-.37-.61l-1.46,8.7-2.31,10.92-.56-7.37c-2.15,6-2.29,11.89-2.36,18.18l1.66-4.09-.08,8.28-1.48,12.06,1.55-1.7.67,7.61ZM445.84,325.76c-1.21-2.76-5.41-4.21-9.11-4.45-.81,1.04-.24,1.22.64.78,2.98.08,6.41,2,8.03,3.8l.43-.14ZM317.69,323.68c.54-.27,1.29-1.39,1.32-1.67l-11.35,5.84c.02.1,1.46.17,1.88-.04l8.15-4.12ZM441.37,328.5c-1.32-3.39-6.48-5.73-9.7-4.23,3.37.61,7.62.88,9.07,4.3.77,1.81.39,4.36,2.07,5.69l-1.45-5.76ZM437.77,334.75l.32-.82-1.09-3.86c-2.59-2.95-6.39-4.34-10.32-3.79,3.26.67,6.62,1.74,9.5,3.55l1.59,4.92ZM418.21,327.4l-.76.38,3.98,7.97.76-.38-3.98-7.97ZM434.09,337.53c0-3.59-2.06-7.64-5.96-8.11,1.45,1.15,3.65,2.45,4.3,4.04l1.66,4.07ZM279.23,335.23c-1.85-2.04-4.27-2.11-6.56-2.69s-4.65-.8-6.9-.62l2.79,1.02c-2.36.74-3.92.77-5.58,2.22,5.59-1.72,10.5-1.85,16.25.07ZM406.58,343.22l.11-1.11-3.83-7.96-.62.43,4.34,8.65ZM382.37,361.73l-6.54,11.31c-9.22,15.95-20.85,27.33-38.35,33.72-16.43,5.1-30.24,2.06-42.26-10.47,6.62,9.69,18.04,13.81,29.49,13.51,7.33-.19,13.79-2.19,20.33-5.43,14.69-7.27,23.15-17.57,31.81-31.24-5.75,17.01-17.98,30.35-34.19,37.85-21.49,9.94-45.76,2.53-55.82-19.25.11,4.01,5.27,10.58,9.12,14.04,9.1,8.2,21.24,11.76,33.54,10.03,21.13-2.98,38.96-18.94,46.88-38.52l3.15-7.8c1.64-4.07,3.63-8.08,6.58-11.4,1.76-1.98,4.05-4.22,6.43-5.36l15.08-7.24c2.08,3.51,5.06,1.85,5.14,3l.07,1.01c3.84-1.55,7.35-3.47,10.42-5.69-.6-3.93,2.68-4.77,3.55-7.93l-7.67,3.55-23.1,10.58-30.57,13.98c-1.36.62-3.31,1.46-3.92,2.49-.15,1.78-.31,3.3-1.2,4.83-3.46,5.93-11.09,8.44-17.43,5.33-1.31-.64-3.34-1.48-4.29-.21-.44.59-.57,2.03-1.12,2.14l-2.28.48c-.34.42-.65,1.72-1.18,1.86l-2.38.65c-1.56.43-2.62.68-4,.06l-5.32-2.38-6.14-2.51c-1.48-.6-3.12-1.92-4.58-2.9-1.33-.84-2.65-.6-3.88.16-2.09-.44-4-.77-5.94-.78l6.99,14.56c.31.64.15,2.1-.32,2.53-.4.37-1.91-.19-2.42-.01l-7.89,2.7c1.1,2.13,2.62,3.92,4.49,5.52,6.21,5.32,13.92,7.71,22.06,7.44,4.93-.16,9.45-.65,13.98-2.74,1-2.32,1.85-5.08,1.87-7.35-1.5-1.73-3.22-3.43-3.49-5.7-.51-4.47,2.59-8.42,7.02-9.58,8.12-2.12,14.18-2.65,18.42-11.82l.26-2.76,25.15-11.36-5.56,7.08ZM401.76,345.13l.68-.07-4.21-8.65-.57.44,4.09,8.27ZM198.58,383.51c4.59-4.69,6.96-10.71,7.77-17.45.27-2.2,1.77-4.56,2.93-6.47l.16,5.8c1.89-4.94,2.54-9.39,3.26-14.14l-1.46,1.65c-.04-1.93.01-3.52.46-5.02l1.38-4.61-.04-6.33c-.99,2.16-1.64,4.94-2.94,6.83-2,2.9-2.99,5.78-3.12,9.61l1.41-1.34c-.66,3.64-1.7,6.84-3.34,9.97l-.7-1.82c-1.76,3.21-3.13,6.58-3.94,10.14l2.05-2.09-1.13,5.11c-.75,3.39-1.3,6.41-2.75,10.16ZM284.49,340.49l-2.69.76c3.4-.45,5.05.68,7.33,2.57-4.54-8.28-15.62-8.45-22.08-2.81-1.44,1.26-2.87,2.44-3.56,4.16,3.99-3.79,8.09-7.3,13.62-7.05,2.85.13,5.62.77,7.39,2.37ZM334.07,357.53l1.12-2.7c.23-.57-1.15-1.53-1.48-2.07-3.27-5.38,3.25-8.91,2.25-12.05l-1.13-3.55-6.88.2c-9.77.28-23.58,4.57-29.88,12.58l5.69,3.17,2.41.33,6.72,2.65c1.23.49,2.07,1.69,3.8,1.41,6.52-1.03,8.7-3.45,17.39.02ZM397.69,347.05c-.97-3.06-2.32-5.87-4.12-8.71.72,3.2,2.11,5.94,4.12,8.71ZM298.64,368.91c-.3-5.74,1.34-10.21,4.25-14.21-5.39-2.43-10.22-5.37-14.82-8.99-1.58-1.24-3.22-1.74-5.21-1.19-7.5,1.99-13.56,10.99-12.15,18.57,4.23,1.64,8.4,3.03,12.86,3.66l15.08,2.15ZM407.65,349.01c-3.78.21-6.94,2.52-8.82,5.75,3.03-2.57,5.42-4.32,8.82-5.75ZM641.44,377.36c-1.09-1.84-1.24-3.52-.13-5.11,2.1-3.02,5.8-1.26,5.95-.85l.72,2c.4-.34,1.63-1,2.07-.77l1.53.81c-1.76-3.44-1.98-6.14,1.01-8.03.59-.38,2.3.52,2.64,1.03.56-1.63,1.59-3.49,2.83-3.73,1.72-.34,3.47.07,4.45,1.11,1.03,1.09.93,3.01.49,4.44.88-.53,2.48-1.14,3.26-.73.65.34,1.35,1.72,1.59,2.5.76,2.49.1,4.26-2.2,5.39,1.07.47,1.71.35,2.9-.1,1.1-.42,2.81.72,3.35,1.91s.16,2.59-.31,4.05l3.65-.89-1.03-1.86c-.52-.93,1.79-3.98,2.65-3.5l1.68.94c.26-2.27,2.21-3.64,4.01-3.33,2.14.37,3.22,2.06,2.57,4.5.89-.12,1.94-.26,2.58-.19s1.4,1.62,1.44,2.28c.11,1.7-.76,2.52-2.36,3.41l2.47.62c.55-.68,1.61-1.71,2.38-1.77.67-.05,2.11.54,2.67.93l2.34,1.65c3.52-10.18,6.26-20.26,8.48-31.17-25.6-5.29-52.03-3.46-77.21,4.14l-13.11,3.96,3.8.36-11.85,3.35,2.72.64-4.13,1.51c-1.29.47-2.59,1.13-3.59,1.75l1.59-.1c.16-.01.28.45.14.53l-.72.43c-1.15.68-2.02,1.42-2.74,2.76l5.44-1.68-1.81,3.74c2.97-1.47,4.78-2.51,7.06-2.64-1.32,1.68-2.04,2.73-2.45,4.21,2.15-.98,3.88-1.51,5.38-.19l-1.28.87c-.19.13.22.48.43.51l.9.14,4.59,1.09c-.38-1.28-.04-2.89.89-3.59,1.15-.86,2.41-.69,3.69.27-.08-1.92,1.63-3.17,3.59-3.04,1.78.12,2.68,1.92,2.95,3.36,1.21-.27,3.2.03,3.57,1.07.44,1.25-.11,2.37-.95,3.59,1.88-.89,3.66-.42,5.13.81-.21-1.07.12-3.2,1.07-3.46.77-.21,2.18-.02,3.18.11ZM352.68,352.9c.52.29,1.57-.03,2.29-.34-11.03-5.6-17.75,5.8-17.2,6.29l.97.85c2.15-6.24,8.72-9.66,13.94-6.8ZM271.52,366.89c-2.26-.55-3.24-.86-4.73-1.88l-3.46-.68c-2.07-2.68-2.7-5.67-3.44-8.83-.14,2.82.6,5.61,1.8,8,.93,1.85,2.49,1.69,4.08,2.2,2.1.67,3.88,1.57,5.75,1.19ZM306.91,371.1c.17-5.62,1.99-9.85,4.39-14.32-4.14,3.78-5.02,9.59-4.39,14.32ZM341.65,369.8c1.5-.51,1.64-2.05,1.36-2.82-.21-.58-1-1.74-1.56-2.03l-6.59-3.42c-2.64-1.37-5.18-2.55-8.33-2.57l4.16,1.61,10.12,4.9c.54.26,1.51,1.59,1.37,2.14l-.53,2.18ZM350.22,375.51c5.43-.81,9-4.25,10.47-9.21-.48-.37-1.33-1.5-1.01-1.87l.93-1.06-1.57-1.08c-.27-.19.3-.82.73-1.33l-1.17-.19c-1.14-.18,2.82,5.81-1.75,10.35-3.91,3.88-9.44,4.16-14.15.93.28,2.46,4.28,2.51,4.43,3.38l.2,1.19c.59-.55,1.01-1.06,1.36-1.07l1.53-.04ZM378,361.53l-6.29,12.54c2.99-3.87,5.08-7.99,6.29-12.54ZM393.48,372.02l-2.51-2.38c-1.85-1.01-2.14-1.37-2.55-3.56-.31-1.1-1.54-2.9-2.47-3.98.29,3.18,3.03,4.77,1.04,7.07.83.17,2.61.58,3.39.97.72.36,1.04,1.87.99,2.78l2.12-.9ZM188.44,420.91l3.65,6.78,4.5-3.09c.17-.12.44-1.23.53-1.42.06-.12-.4.06-.54.07l-.9.03c2.42-2.74,5.51-5.27,9.47-4.78l5.95-5.69,3.81-2.79c-.87,3.58-2.21,6.48-4.04,10.01,4.84-3.81,8.86-8.64,10.09-15.19l-2.15,1.62c2.02-5.39,4.15-9.83,7.06-15.06l-.57,7.01c3.37-6.99,4.51-14.52,3.45-22.59l-2.01,5.48.02-6.01.58-12.73-2.21,6.8-1.77,3.87c-1.4,3.06-1.9,6.44-2.51,9.91l1.54-2.09c-.33,4.32-2.18,7.74-4.52,10.92l-.16-2.33-6.3,10.59,3.01-1.96c-1.66,3.5-4.09,5.9-6.85,8.39l2.31-.07-7.02,4.94.32-1.61c.02-.12-.17.01-.29.06l-.91.37c-2.92,1.19-6.47,2.46-8.65,4.83l2.64-.09-3.35,3.16-4.16,2.65ZM445.53,378.46l1.44,2.78c.1-2.46.4-4.63.86-6.87l2.04-9.87-3.75,12.15c-2.41-3.24-1.77-6.82-1.99-10.77-1.52,4.24-.68,8.58,1.39,12.58ZM340.42,373.9c1.12-1.99-.22-3.51-1.89-4.17l-6.53-2.57,6.78,3.87c.83.47,1.27,1.5,1.64,2.87ZM283.72,382.14l1.79.86c-2.65-4.69-2.7-9.3-2.57-14.76-.83.67-1,1.74-.96,2.97.21,6.18.19,12.16,2.87,17.49l-1.14-6.56ZM363.36,501.23c.9-2.23-.42-4.91-1.19-7.08,1.74,1.22,3.81,3.06,5.61,3.48,1.18.28,1.82.32,2.59,1.11.93.96,1.37,1.12,2.64,1.5,1.4.42,3.64,2.6,3.96,4.18.3,1.5.34,3.36,1.21,4.51l4.61,6.06-.57-3.67.95.31c2.84,1.33,5.32,2.53,7.72,5.06-.4-3.58-3.18-5.11-5.78-7.02-2.36-1.74-3.44-5.35-5.1-7.61l-1.84-2.51,2.08.83c-3.2-6.4-11.07-8.78-10.94-8.38l.37,1.1c-1.34-.57-3.72-1.79-4.48-3.15-1.07-1.9-1.74-2.5-3.75-3.31-1.72-.69-3.02-5.34-2.49-5.47l1.12-.28c-2.02-4.28-4.76-7.54-8.05-10.98,4.07,1.28,7.48,2.1,11.65,2.51l-1.68-1.6c4.2.1,7.7,1.3,10.98,3.74l-1.01,1c2.87,1.85,5.5,3.25,8.71,4.19l-1.07-1.84,6.61,2.16c3.5,1.14,7.08,4.72,6.63,5.17l-.82.84,4.4,3.57c1.4,1.14,1.56,1.58,3.29,1.46l6.33,2.07c-1.21-2.16-3.19-3.3-5.38-4.31-1.74-.8-2.33-1.99-3.03-3.78-.66-1.69-2.5-3.2-3.86-4.53l7.58.97c.3.04.89.09.91.11.01.01-.18-.69-.3-1.08,3.05.22,5.94,1.31,8.76,2.94l2.75,1.6c2.69-1.13,4.75-.3,7.63.52-2.22-2.07-4.68-2.49-7.67-3.04l-4.28-2.26c-.18-.09-.59-.47-.45-.55l.98-.61c-2.48-1.36-5.1-1.66-8.21-1.72l-5.54-.11c-1.04-.02-3.11-1.09-3.94-1.39.41-.27.98-.62.81-.73-.11-.08-.77-.68-.91-.7l-6.5-1.27,1.5,1.65c-2.32-.45-4.44-.9-6.3-1.95l-7.23-4.08,2.62-.05c-3.33-2.42-7.24-4-11.49-4.39l-7.21-.66,2.18,1.57c-4.44-.41-7.66-2.29-11.47-3.86-.77-.32-1.96-.72-2.52-1.2l-3.1-2.6,2.8.21c-1.89-1.69-4.34-3.56-6.93-4.14l-6.63-1.49,1.31-1.29-12.47-1.73,2.38,1.73c-3.95-.3-7.28-1.33-10.61-2.94l2.2-.29-9.37-2.56,2.28,2.07c-4.48-.11-6.34-4.1-9.46-5.8l-8.64-4.72,2.89,3.73c-6.07-2.55-11.04-9.25-15.48-15.05l2.81,1.39c-2.22-4.17-4.69-7.82-7.7-10.88l.06,1.21c0,.13-.23.12-.78.17l-4.5-6.68c1.55-1.37-1.65-6.56-3.71-9.55l.06,3.18c-3.22-4.39-5.45-10.39-5.96-15.49l1.51,1.17-1.69-11.17-.94,2.4-.91-3.29-1.68-7.53-.36,7.06c.46,3.73,1.08,6.72.41,10.66.16.72-.01,1.01-.84,0l-.44,3.29-1.58-6.89c-1.35,6.73.08,12.96,2.49,18.83l.24-6.1c2.03,6.63,6.32,10.81,7.48,17.9l-2.39-2.59c1.12,4.18,2.5,7.75,5.74,10.56l-.87-3.55c4.44,4.42,7.59,9.54,8.86,15.51l-3.31-3.56,3.19,7.03c1.15,2.54,3.57,4.37,5.87,6.25l-1.91-6.28,5.06,5.68c.93,1.04,1.23,1.48,2.74,1.63,1.08,1.23,2.08,2.97,2.93,4.91l-3.15-1.38c.49,1.78.56,4.76,1.89,6.03l4.59,4.39-.14-2.57c2.39,1.7,4.11,3.76,5.51,6.22l-1.05,1.39,4.42,4.23.32-1.5,4.35,3c.38-.32.82-.79,1.08-.66s1,.67,1.2.89l3.13,3.34,3.11,6.95c.11.25.12,1.09-.09,1.12l-.85.12.66,6.03c.03.28.67.71.76.53.07-.13.42-.83.41-.8.7,1.49,1.41,3.04,2.28,3.95l2.69,2.81-1.67-3.75-1.28-3.86c.47-2.32.6-4.26.51-7.09,2.98,3.15,6.73,5.52,10.77,7.69l-.77-1.78c3.98,1.98,7.2,4.9,8.49,9.2l-.47,2.32,1.61,4.58c.7,1.98,1.53,3.68,2.92,5.1-.5-2.74-.64-4.88-.6-7.59,1.34,1.47,1.95,2.01,3.01,2.89l4.85,4.05c-.43-2.9-2.03-5.34-4.88-6.93l-2.34-4.07c-1.16-2.92-2.29-4.85-4.2-7.62l2.35,1.12c-2.59-4.41-6.73-7.2-11.56-8.42.8,2.22-4.82-1.7-6.73-4.26l-3.6-4.85,2.04.42c-2.05-3.47-5.31-5.21-8.98-6.69-.96-.39-1.5-.37-2.42-.28-1.57.16-2.99-2.21-3.33-3.7l-2.76-2.08c.22-2.4-.61-4-1.94-5.69l-2.74-3.49,4.66,2.09c7.05,3.96,14.51,6.17,22.21,6.39l-4.11-2.43,8.69,1.32,5.61,1.44-1.77.94c4.38,1.17,8.36,2.69,10.95,6.37l-3.79-1.31,7.9,7.93-.64-2.82c4.2,3.95,7.61,7.16,8.63,13.13l-1.99-2.16c.55,3.74,1.84,6.87,4.03,9.58l.11-2.26,3.07,5.07c1.43,2.36,2.09,4.83,1.87,7.78l-1.1-1.15.17,6.76,1.16-1.59,2.8,6.31.65-1.72,2.99,3.66c-.01-5.11-4.79-6.89-2.72-11.99ZM290.8,380.23l-1.6-9.71c-.18.41-.16,1.27-.12,2.1.07,2.76.16,5.69,1.72,7.62ZM452.51,384.01c1.96-3.82,2.79-7.52,3.02-11.46l-3.02,11.46ZM332.88,379.44c-1.26-1.38-2.84-2.18-3.81-2.31-.27-.04-1.33.86-1.09,1s1,.62,1.26.67l3.64.65ZM179.23,398.22c1.9-1.78,3.56-3.04,5.5-4.3l1.39,1.02c1.94-1.84,3.58-3.87,4.89-5.99l-.73-1.14c-.12-.18.31-.97.45-1.16l3.29-4.73c.69-.99,1.31-3.18,1.73-4.38l-4.46,3.98c-2.51,2.24-4.94,4.2-6.64,7.14l2.51-1.37c-2.24,5.31-6.6,4.26-9.17,8.07l1.24,2.86ZM177.68,381.88c1.48-.7,2.27-1.32,3.39-2.94-2.01-.71-2.12,1.71-5.19,2.48.12.23.39,1.12.59,1.03l1.2-.57ZM290.43,391.37l-3.25-6.97,6.02-3.41c.85-.48,1.55-1,2.1-1.95l-9.06,5.13,4.83,10.38,1.22-1.25c-.63-.3-1.46-1.07-1.86-1.93ZM340.8,390.31c-.47-2.7.33-4.19,1.88-5.38l2.42-1.87c-2.42.08-4.17,2.08-4.73,4.11s-.64,4.64,1.8,6.04l-1.25-2.43c1.25-.17,2.6-.82,2.9-1.87l-3.02,1.39ZM303.82,388.11c.18-.18-.33-1.78-.82-1.86l-1.68-.25c-1.17-1.5-4.89-.24-5.5,1.41,3.14-2.08,5.48-1.42,8,.7ZM348.94,387.21c-.25-.53-.55-1.16-.15-.32-.93.71-1.6,1.03-2.1.81-.39-.17-1.24-.99-.9-1.28l1.63-1.37c-1.51-.55-1.83,1.21-2.62,1.16l-1.7-.11,4.07,2.61c.21.91.82,1.67,1.66,1.46-.27-.45-.95-1.17-.74-1.52l.85-1.44ZM500.04,452.87c-5.28-1-10.3-1.53-15.14-3.6-2.23-1.98-4.82-3.02-7.83-3.01-1.17-1.8-2.94-2.67-5.09-1.38-.63.08-1.79-.41-2.05-1.05-.8-1.98-2.24-2.46-4.07-3.25l-3.51-1.52c-.44-.19-.94-1.42-1.06-1.87.18-3.78-2.64-6.03-6.11-6.2l-5.96-3.1c-2.57-1.34-4.92-2.56-7.72-.69-3.48-2.55-7.15-4.35-11.04-6.02-1.43-3.24-3.52-5.44-7.29-6.35.41-.43,1.93-1.63,2.68-1.54l8.92,1.02-1.15-2.72c2.23.7,3.34,1.46,5.51,2.9l-1.99-6.36,5.07,4.77c.47-2.91-.14-5.43-.76-8.73,2.34,2.65,3.66,5.81,3.95,9.39l5.45-6.95c-.84,3.21-1.58,5.57-1.81,8.54,2.36-2.07,3.94-3.49,6.26-3-1.66,1.42-2.41,2.71-2.29,4.44,2.27-1.18,3.54-1.99,5.69-1.29l-2.4,2.32,4.44.4,6.27,1.39c1.21,1.14,2.61,3.7,3.43,5.36l2.42,4.94c.58,1.19,3.38.93,4.5.56l4.09,5.82c.34,1.35.77,2.91,1.47,4.24,1.07,2.02.32,4.16.57,6.67l1.4-3.87,3.01.68c-1.73-1.02-2.67-1.45-3.99-3.07l3.14-.92c-1.3-.4-3.02-.88-4.19-1.78-.61-.47-.03-2.92.72-2.95l2.94-.08c-1.44-.61-2.76-.61-4.85-.19l-2.7-3.9c-.28-.4-.71-1.5-.49-1.89s.92-.95,1.43-1.25l8.67-5.1,6.1-3.43,6.32-3.63c-5.43.59-9.12,4.75-13.92,6.93-2.2,1-4.2,1.99-6.07,3.48l-2.98,2.39c-.94.75-3.38,2.52-4.33.78l-6.21-11.44c-.81-1.5-1.78-2.64.11-4.2-.83-.52-2.09-1.01-3.25-1.17-4.01-.57-6.63-3.25-7.09-7.2-.17-1.46-.91-3.19-1.64-4.48l-5-8.88-.55-3.5c-.99-1.02-1.61-2.27-1.93-3.4l-3.9,3.44c-4.49,6.24-8.43,12.83-13.84,18.35l-8.02,8.19c-1.84-.42-2.95-1.56-4.22-2.9-3.06-3.23-7.58-4.58-11.9-5.56l-15.08-3.4-4.54-1.43-7.74-1.93-1.55-.47c-.27-.08-.33.66-.44,1.05-5.67-.04-11.04,2.07-14.66,6.11,3.84-2.06,6.49-4.46,10.63-4.47l-1.59,1.56c4-1.32,7.92-2.14,12.03-.6l-1.75.98c3.37-.04,6.94.13,10.4,1.13l6.52,1.87-3.24.96c7.76-.48,15.13.15,21.03,5.25l4.12,3.56c3.98-.78,6.05,1.87,8.51,4.76l3.19,3.74,1.02-.72c.24-.17,2.61.82,3.94,2.78l2.29,3.37-.8-2.97c4.24,1.18,6.69,4.88,5.67,9.23.86,2.92-.11,5.52-.79,8.6,3.12-5.5,3.25-12.49-.71-17.51,4.35-1.65,6.15,4.45,6.58,3.34l.49-1.26c1.68.83,3.4,1.95,4.91,3.16,1.76-1.19,3.93.21,4.85,2.14,3.58,7.56.75,20.58-7.19,25.28-2.08,1.23-4.68-1.11-6.47-1.57l-4.61-1.19-5.74-1.26,3.11-3.65c-5.27,2.64-7.86,4.04-13.43,1.41,2.92,3.67,6.95.4,8.87,3l7.02,1.1,5.26,1.59c1.95.59,4.67,2.74,6.93.96,6.12-4.82,9.27-12.44,8.72-20.43l3.4,1.62,2.99.93c1,1.47,1.6,3.42,2.12,5.18l.27-2.14c.03-.26,3.3-1.44,4.89.39.57.66.31,2.08-.02,2.99l1.9-1.71c1.4-1.26,9.2,4.27,18.41,5.38,7.1.86,12.63,4.21,12.27,10.78-.19,3.61-2.86,6.22-6.16,7.91,4.36-.6,7.39-5.01,7.04-9.46-.39-4.81-4.14-8.56-9.09-9.5ZM374.56,395.53l3.54.64c3.49.63,7.97.38,10.94-1.88,2.44-1.86,3.37-5.44,3.94-8.34l-3.95,7c-.73,1.3-3.91,2.43-5.46,2.45l-9.01.14ZM634.96,392.4l1.84,1.04.11-.84-3.59-2.53c.12.89.27,1.37-.06,1.45l-1.81.42,3.52.47ZM287.28,406.57l-.64-2.14-.56-10.89-1.39.41-.62-2.42c-.6,1.06-.39,2.64-.06,3.96-1.46,2.01-.02,4.67-.8,7.72-.32,1.25-.7,2.3-.16,3.17.91,1.44,4.42.83,4.23.2ZM486.46,398.77c1.26-1.59,1.99-2.81,2.24-4.35l-1.96,2.55-4.1-.74.42-4.15-1.67,4.25-3.03,3.62.39.35,3.04-2.56c1.21-1.02,3.49-.18,4.67,1.03ZM468.07,413.02c7.27-5.08,13.62-9.82,21.34-13.18-2.1-.04-3.85.93-5.55,1.98-5.56,3.45-11.6,6.24-15.8,11.19ZM283.29,518.14c.14,2.4-.87,5.35,1.45,6.62l1.41-4.99c1.51,2.34,2.11,3.4,4.18,4.69.6.38,1.14,1.75,1.6,2.49l2.63,4.21c-.26-2.24-.44-3.44-.21-5.22.2-1.56-1.55-3.94-2.82-5.05l-.76.81s-.63-.62-.67-.75l-1.42-4.09c-1.21-3.5-.45-9.63,1.68-8.69,1.37-2.75,1.75-6.18,1.73-9.37.97,1.65,2.12,2.18,3.18,2.39.88,1.52,1.64,3.41,3.47,3.99,1.08.34,1.6,3.14,2.54,3.78l4.4,2.97-.9-2.29,4.82,2.94c2.81,1.71,4.1,4.31,5.17,7.26.43,1.19,1.29,2.68.92,3.73-.59,1.7-.21,3.53.6,4.81l.7-1.7,1.88,3.21,4.36,5.47c-.22-1.25-.54-3.87-1.35-4.93-3.34-4.34-.84-5.75-2.87-10.31l6.42,3.16,4.16,2.62-2.48-4.15c-1.64-2.75-3.76-4.42-6.84-4.89l-6.54-6.97,1.11-1.01c-2.28-2.24-4.76-3.95-7.66-5.18-.49.41-.77.75-1.06.71-2.61-.43-6.28-6.66-8.13-10.49-1.07-2.22-2.56-3.51-4.21-5.54l4.18,1.41c-4.4-6.02-9.97-8.34-16.9-11.03l1.48,2.38-7.7-4.07c-1.71-.9-3.12-3.15-4.11-4.53l1.49-.05c-2.47-3.25-5.09-5.43-8.63-6.92l.31,1.83c-2.56-1.7-4.71-3.61-6.82-5.81l.73-1.18-4.06-4.39.2,2.01c-2.81-1.9-3.68-4.67-4.37-7.98l-.94-4.47-1,3.15c-1.16-3.14-1.83-6.57-1.28-10.11l1.21-7.75,1.49,5.11c.25-1.34.92-3.45.7-4.9l-1.79-11.5c-.32-2.07-1.36-3.96-2.31-5.85l-.77,5.71c-2-2.99-1.89-5.73-2.54-8.7l-1.89-8.68-.9,6.11c-.32,2.16-1,4.46-.83,6.7l.71,9.66,1.21-3.08c.32,2.69.24,5.49-.75,7.81l-3.57,8.37c-.69,1.62-2.89,3.06-4.36,3.91l.97-2.64-5.42,5.06c-1.86,1.74-2.86,4.44-3.52,7.06l2.2-2.03c-1.43,4.94-3.55,9.09-7.81,12.06l-.22-1.24-3.74,3.09,4.59,5.82,2.95-2.83,4.24-3.66-.95,5.95,1.74-2.07c2.11-2.36,3.64-5.09,3.83-8.12l-1.09-.38c.82-2.94,2.1-5.71,3.97-7.93l1.43.08c.21.01.46-.85.64-1.09l3.67-4.78-.09,6.78,1.3-2.16.95,4.02c.07.31-.36,1.3-.56,1.62.08,3.17,1.95,6.2,3.82,8.68l-.1-3.97c2.44,3.32,5.05,9.76,3.97,9.86l-.75.08.46,4.56,1.06-1.12c.09,5.53-4.62,10.65-4.6,9.07v-.98c-2.86,1.83-4.54,5.1-4.6,8.64l2.22-2.87.09,5.28.38,2.5,4.95,4.2c.34-1.34.69-1.9,1.63-2.73l-1.32-3.93c.36-3.08,1.71-5.28,3.68-7.86l1.03,3.81c1.11-2.02,2.19-4.11,1.94-5.79-.31-2.12.34-2.62,1.39-4.29,1.14-1.82.18-4.92.19-7.56l5.46,4.51c0,.11.01-.39,0-.55l-.06-1.03c2.49,1.93,4.41,3.95,6.25,6.84l-2.23-.92c1.01,1.94,2.1,3.94,3.93,5.08l6.57,4.08-1.99-3.36c3.66,1.42,6.3,3.69,9.06,6.56,1.07.54,2.38,1.17,2.67,2.33.32,1.26.02,2.51-.58,3.57.89,2.8.95,5.68-.87,7.91l-.42-1.55c-1.79,3.21-3.41,5.86-3.06,9.68l1.66-2.78.49,8.06ZM669.78,416.32l5.32-.96c.32-.06,1.67.41,1.52.7l-.87,1.72c1.72-.13,2.16-2.53,5.76-3.88l-7.96.41c.33-.77,1.13-1.92,1.79-2.55l3.86-3.66-9.81,3.15,2.25-5.64-5.55,3.76,1.51-7.02c-2.34,2.07-3.89,4.64-5.1,7.69l-4.17-6.4.73,6.34-5.1-3.9,1.8,3.15c.87,1.51,1.56,3.05,2.76,3.8.08-1.58.13-2.72.68-2.74s1.48.43,1.73.9l1.72,3.27c1.11-2.25,2-3.93,3.97-5.01l-.36,5.42c2.17-1.45,3.19-2.28,5.93-3.09l-2.38,4.53ZM282.75,416.23l.51-8.2c-.61.54-.76,1.28-.81,2.1-.14,2.12-1.25,4,.3,6.1ZM337.6,425.68c-.32.86-.35,2.7.25,3.38.15.17,1.24-.39,1.33-.18l.42,1.06,2.24-.77c.85-.29.51-2.49.61-3.39l1.2-3.74c1.11-3.47,2.56-6.28,4.39-9.51-.6.34-1.68,1.28-1.96,1.85l-3.52,7.06-.38,2.02c-1.56-.67-2.38-1.13-3.15-1.87l-1.17,3.9.39.38.7-1.28c.26-.48,2.48.03,2.81,1.92.09.52-.7,1.58-1.23,1.61-1.15.05-2.75-1.06-2.46-1.9l-.46-.52ZM317.31,424.37c-2.28-.25-4.37-1.1-5.58-2.44-.08-1-.24-2.16-.52-2.84l-1.59-3.85,1.18,7.04,5.09,3.27,2.51,1.91-1.09-3.09ZM318.98,429.24l2,1.97c2.59-.39,4.75-1.81,6.5-3.56l3.13-3.14c-4.27,1.66-6.4,7.61-11.62,4.73ZM315.55,432.64l3.15,1.87,5.14.76c-1.41-1.02-3.58-.79-4.98-1.83l-3.19-2.36c-1.08-.8-2.67-1.25-4.01-1.68-.92-1.9-2.46-3.53-4.55-2.94l2.6,3.36c-1.93.97-3.6-2.74-7.83-2.02,2.05.87,3.56,1.74,5.11,2.88l4.81.48c.56.05,2.1-.37,2.46.04l1.27,1.45ZM529.41,435.76c-.07,1.05-.15,2.39-.14,2.3l5.86-1.41-1.81,2.34,8.39-2.6-6.74-.8c1.28-1.34,2.47-2.09,4.17-3.15-3.28.35-5.72,1.29-9.26,2.52.64-2.55,1.88-4.36,3.45-6.37-2.9.92-4.81,3.18-6.7,5.98l-3.48-4.42.79,4.77-4.67-1.52,1.95,2.03-2.18.57,3.19,1.29.97-2.37,2.49,2.67c.75-1.04,2.76-2.17,3.7-1.84ZM206.44,445.92l2.54-1.99c1.32-2.32,2.75-3.77,5.17-5.07l-.34,3.66,2.35-2.34,4.14-4.86-4.69,1.99c.68-3.3,1.93-5.85,3.65-8.2-3.47,1.53-5.28,4.62-7.07,7.76-1.08-1.2-2.27-2.27-3.62-2.99l1.03,4.32c-2.62-.13-4.37.58-5.97,2.15l5.5-.38-2.94,3.18c-.51.55-.42,2.4.24,2.77ZM334.33,438.58c1.28-.88,1.63-2.22,1.92-3.59l1.16-5.52c-.57.67-.99,1.6-1.23,2.49l-1.84,6.62ZM341.05,432.11c-.27,2.2-.21,4.8.1,7.19.54.31,2.02-.13,2.53-.57.54-.47.09-6.83-1.75-8.72l1.07,6.97c.06.38-.28,1-.52,1.24-.18.18-.9-.74-.93-1.03l-.51-5.08ZM340.27,440.37l-.52-4.58-.64-4.82-.25,7.67,1.41,1.73ZM337.9,438.78l-.04-6.3-1.23,6.01c-.07.34,1.26.56,1.27.29ZM664.63,450.13l4.11-5.73-3.92.99,3.85-5.6c-2.98,1.22-4.88,2.55-7.82,4.36l2.98-8.87c-1.9,2.09-4.79,4.2-5.26,6.86l-.89,5.03c1.79-1.35,3.54-2.39,5.9-3.02l-4.02,7.08,4.63-3.22.43,2.11ZM376.47,442.48c-2.86.14-5.7-.2-8.31-1.24-3.5.52-7.09-.38-10.28-1.94l-7.15-.95,11.53,3.45c7.43,1.65,14.94,1.78,22.25,1.4l-8.04-.72ZM414.68,438.07l4.99,8.61c.22-.38.67-1.54.57-2.06-.03-.15-3.41-5.16-5.56-6.55ZM656.13,444.32l-1.09-5.38-1.59,8.33,2.68-2.95ZM388.52,459.1l-.79,2.26c2.16-1.22,4.22-1.55,5.98-.2.51-.79,1.33-1.49,2.23-1.95l-5.71-.53c1.35-1.97,2.14-2.35,3.91-3.6-3.36.55-5.41,1.45-8.94,2.65l2.03-5.33c-1.78,1.13-3.36,2.62-4.72,4.38l-5.48-3.33,1.89,3.65-6.48-.69,6.34,3.06c.23.11,1.14.51,1.08.3l-.33-1.34c1.14-.79,2.74-.27,3.66.93l.7.93c.39.51,2.01-2.29,4.64-1.18ZM505.13,465.61c1.52-2.44,1.15-6.13-1.35-8.27-1.55-1.32-3.88-2.09-5.94-1.98,2.4.89,4.96,1.51,6.64,3.76,1.23,1.65.69,3.92.66,6.48ZM544.09,460.76l-17.34,3.77c5.3.14,12.94-.94,17.34-3.77ZM295.38,472.19c-.9-2.13-1.52-4.2-4.02-5.13l1.46,4.37c.1.3.63,1.01.92.97l1.64-.21ZM439.65,480.53l3.58-1.39c2.15-.83,3.67.75,7.75-.93l-6.97-.93,3.89-3.05-9.19,1.96,2.61-5.9c-2.55,1.13-4.75,2.79-6.4,5.42l-4.87-3.46c-1.73-1.23-3.8-2.07-5.63-2.31l2.36,2.72-7.25-1.24c-.97-.16-3.07.42-4.22.61,3.83.67,7.53,1.85,11.13,3.81l-2.76.51,7.44,3.05-2.49-4.33c2.99-.05,4.86,2.66,6.98,4.38,1.54-1.43,4.15-2.54,5.74-1.92l-1.69,2.98ZM629.09,491.94l7.65-7.6-6.92,1.8c1.88-3.74,4.34-6.7,6.92-9.47-4.42.78-6.91,4.12-10.17,6.21-1.22.17-2.2.5-3.99,1.49.72-3.32,2.08-6.62,4.23-9.68-4.14,2.07-5.91,6.16-8.41,9.47-1.28,1.71-2.19,3.77-1.91,5.75,3-2.28,5.66-3.84,8.94-4.82-1.68,2.53-3.1,4.56-3.8,7.1,3.45-2.37,6.11-4.63,10.18-5.29-1.4,1.96-2.62,3.09-2.72,5.04ZM613,481.3l2.12,3.39,2.57-1.37-3.6-3.67c1.4-.98,2.9-2.35,3.11-3.93-5.75,2.16-10.37,6.23-12.39,11.84l5.24-2.08c-.21-.48-.08-2.04.41-2.39l2.53-1.79ZM259.29,507.6c.22-1.24-.04-2.65-.72-4.21-1.42-3.21,2.72-5.81-3.43-9.25l.39,4.42c.19,2.17,0,4.84.87,6.87l2.89,2.18ZM599.8,519.47c-3.41-.38-5.65.19-8.73.9,3.23-4.55,7.26-7.63,12.15-10.33l-5.91.65c-3.94.99-7.08,3.35-10.39,5.89l-.23-1.22-5.27,3.28c1.32-5.09,3.87-9.45,6.89-13.57-5.38,2.73-8.96,7.1-11.58,11.93l.72,1.25c-1.1,2.52-1.96,5-2.62,7.92,3.99-3.29,7.82-6.04,12.67-7.24-2.13,2.75-3.73,5.01-4.85,7.98,3.35-2.21,6.19-4.17,10.19-5l-3.02,4.18,9.97-6.61ZM570.24,523.76l4.59-4.89-1.01-6.33-2.93,8-1.46-.16.81,3.38ZM533.87,547.23c2.43-2.34,4.7-4.17,7.91-5.5,1.65-4.85,4.28-9.02,7.86-12.92-3.24,1.56-7.07,3.29-8.67,6.44l-1.99,3.91c-.57,1.12-1.45,1.86-2.85,2.4l-2.26,5.68ZM365.81,556.72l3.84-4.79c2.28-2.85,4.66-5.32,7.78-7.76-5.52.76-10.03,3.69-14.92,7.3,1.77-7.62,5.06-13.94,9.71-20.1-6.51,3.1-10.92,8.94-14.51,15.29-.37-6.57-1.91-12.4-5.3-17.49.8,5.28.96,10.13.84,15.31,1.51,2.57,2.46,5.49,2.97,8.55,1.37-2.51,3.07-4.88,5.52-6.59l-.81,8.54c2.47-2.1,4.44-4.18,7.68-4.54-1.49,2.23-2.66,3.62-2.79,6.28ZM349.56,552.29c3-6.81-1.33-11.54-6.29-16.5l3.85,11.52c.55,1.66,1.34,3.23,2.44,4.98ZM548.18,544.39c2.6-2.9,4.99-5.2,8.07-7.04-7.56.69-10.94,2.74-14.08,9.5l6.02-2.46ZM373.29,559.1l.68-.48c2.41-1.68,4.64-3.36,8.02-4.41-5.03-.76-10.4.17-14.79,3.42l4.53-1.08,1.25.19c.2.03-.5,2.93.31,2.36Z" fill="#222618"/><path d="M353.43,312.86l-.39,3.52-2.08-5.22,1.72-.03c.39,0,.8,1.31.75,1.73Z" fill="#222618"/><path d="M285.68,402.56c0,.3-1.07.3-1.63.12l.04-5.84c0-.18.9-.66,1.03-.54.19.19.74.83.73,1.1l-.17,5.16Z" fill="#222618"/></svg>