<?xml version="1.0" encoding="UTF-8"?><svg id="logo_NI_V_Obraz" xmlns="http://www.w3.org/2000/svg" viewBox="0 0 1017.3 1017.3"><defs><style>.cls-1{fill:#222601;}</style></defs><path class="cls-1" d="M1017.3,508.65c0,280.92-227.73,508.65-508.65,508.65S0,789.57,0,508.65,227.73,0,508.65,0s508.65,227.73,508.65,508.65ZM994.3,508.78c0-268.08-217.32-485.4-485.4-485.4S23.49,240.7,23.49,508.78s217.32,485.4,485.4,485.4,485.4-217.32,485.4-485.4Z"/><path class="cls-1" d="M404.44,475.31c-34.08.53-64.05-22.01-84.38-48.48l-92.21-120.07.46,108.71,1.86,15.18c1.58,8,6.53,10.99,14.48,16.07l-48.98.04c8.16-5.46,13.59-9.39,14.1-17.99l1.38-23.3.28-117.74c-7.4-8.04-15.01-15.25-24.26-20.79-21.42-12.84-47.89-13.3-62.31,7.16-4.19,5.95-5.52,21.19-6.12,17.52l-.35-2.14c-1.75-10.83,2.97-21.58,10.75-29.26,8.28-8.17,18.91-12.83,30.55-14.53,34.36-5.03,67.39,13.77,88.02,40.78l82.91,108.58c.35-34.84.19-68.26-1.46-102.07-.54-11.05-5.85-17.27-16.39-23.14l51.76-.23c-7.41,5.17-13.85,7.86-14.63,16.45l-1.41,15.54-.37,68.96.36,47.05c22.4,29.93,50.28,58.62,90.96,45.79-9.47,9.03-22.31,11.72-35.02,11.92Z"/><path class="cls-1" d="M498.5,240.66c-.82.65-4.73-1.21-4.18-2.14,2.39-3.74,6.2-7.3,9.92-10.57-1.61-1.71-4.97-4.09-7.34-4.88-3.86,3.49-7.47,3.59-10.98.78l7.26-3.89-7.67-4.38c-4.67-2.67-10.24-1.63-14.26,1.83-2.91,1.85-5.89,2.23-8.76.45-4.81,1.95-10.14,2.35-14.53-.85-2.98-6.47,3.39-8.12,4.51-11.81.21-.69-2.63-1.77-3.32-1.55l-7.99,2.55c-4.82,1.54-11.51,1.36-13.47-3.95-.58-1.88,3.73-4.72,5.88-5.94-8.72-2.38-15.87-7.06-12.9-12.86.98-1.93,4.23-3.27,6.49-3.19l6.84.25c-1.72-7.38-10.84-4.51-12.69-17.2-.46-3.15-.76-6.95,1.94-9.33,4.46-3.94,11.46,2.19,11.65,2.08l2.98-1.76c6.86,2.47,5.75,11.57,12.38,15.48l.48-9.98c.08-1.69,2.27-4.44,3.73-4.94s5.33.01,6.24,1.27l5.46,7.56c7.85,3.88.27,12.14,4.66,19.02,2.01-2.92,4.17-6.48,6.36-7.36,5.19.4,7.01,6.34,5.4,10.27l3.07,2.45c2.07,1.65-5.46,14.22,2.25,20.08l8.16,6.19-1.14-7.4c-.43-2.81.03-5.5,1.67-9.51l6.06,11.18-2.29,7.24,5.5,5.09c.7-14.97,2.5-38.17-9.25-42.35-7.47-2.66-12.88-6.65-11.36-8.61l3.23-4.15c-10.66-2.89-18.9-14.6-13.99-19.64,1.18-1.21,4.66-1.76,6.34-1.3l8.13,2.24c-1.01-5.03-3.96-6.43-7.37-8.78l-9.4-6.49c-2.69-1.86-1.6-5.79-.48-7.72-1.91-3.68-4.55-8.58-3.41-13.46.83-3.54,4.11-5.73,7.59-4.65,9.28,2.9,11.27,9.67,17.13,10.33,1.14-9.26-8.62-11.84-9.45-24.24-.23-3.44-.3-8.76,2.64-10.5,6.07-3.6,9.24,4.51,12.08,6.91.62.53,1.74-2.29,1.39-3.34-3.04-9.01,3.71-20.03,9.32-20.83,4.12-.59,6.66,2.75,8.47,6.21,5.08,9.68.72,12.84,2.72,18.52l7.07-7.57c.76-.81,4.41-.62,5.34-.1,4.15,2.28,3.41,14.55,1.12,18.28l-7.63,12.46c-.49.81-.42,3.48.36,4.02,3.55,2.44,6.84-7.24,17.52-10.22,3.49-.97,6.81,1.06,7.72,4.65,1.24,4.89-1.21,9.71-4,13.36l1.86,3.12c.5.84-.74,3.47-1.44,4.16-8.7,8.58-18.29,9.42-17.77,16.5l9.43-3.06c1.35-.44,4.72.21,5.77,1.16,5.68,5.11-2.72,16.25-13.62,20.12l2.88,4.05c.58.81-1.08,3.74-2.01,4.2l-11.85,5.85c-6.6,3.26-7.48,11.7-7.19,18.43,2.81-3.21,4.81-8.53,10.89-8.46-3.51,6.75-7.29,11.65-11.8,17.11l-.39,14.12c5.84-2.34,9.43-6.87,10.23-13.19l1.68,4.02c.35.85,2.75-.47,3.58-1,14.85-9.43.47-19.83,8.86-25.03-.29-4.01.26-10.05,5.82-11.01,2.21,1.58,4.08,4.69,5.71,7.57,2.26-2.61,2.63-6.51,2.15-10.06-.94-4.09.41-7.6,4.4-8.67.92-5.43,4.63-9.65,10.74-8.55,5.44,4.35,1.58,10.39,4.39,13.45s6.55-17.51,12.05-15.05c.87.39,1.46,2.16,1.95,3.7,2.98-2.91,8.21-6.2,12.66-4.19,6.22,2.8,3.67,15.23-1.83,19.43l-9.67,7.38,10.32.95c1.6.15,4.31,1.92,4.94,3.35.74,1.66-.42,6.06-2.17,6.86l-11.95,5.51c1.82,1.03,5.2,3.8,5.15,5.62-1.48,4.74-7.27,5.53-11.95,3.99l-8.86-2.92c-.77-.25-3.14.97-3.54,1.66-.85,1.51,8.75,6.5,4.57,11.55-3.46,4.18-8.93,2.31-13.39,2.24-3.78-.07-7.17.33-10.04-2.09-4.13-3.48-9.32-3.98-13.9-1.34l-11.35,6.56-8.03,5.45,9.32,9.87c.37.39-.27,2.76-.83,2.89-.76.17-2.92.11-3.58-.42l-10.17-8.13-11.26,8.93ZM509,183.31l.98,13.2,1.16-21.44c.04-.7.95-2.39,1.14-2.9.15-.38-1.85-.38-1.84-.79l.37-13.55c.17-6.05,4.46-9.75,6.65-15.52l-6.87,8.5-.31-42.32-.73.58-.32,9.8c-1.66.66-1.91,1.13-1.58,1.62l1.78,2.61-.22,27.63c-4.42-6.07-7.36-11.67-12.89-14.95,4.52,7.04,11.16,11.79,12.23,19.77l-.18,16.47.61,11.27ZM483.07,209.44l-7.45-7.77c-2.26.24-5.62-2.57-7.9-4.33-4.6-2.81-5.74-6.84-6.84-11.87l.08,6.46-18.69-17.48c4.58,7.38,11.24,12.31,16.96,17.72l-10.87.89,12.57.96,13.67,10.2-3.22.78,11.69,4.44ZM545.48,204.24l13.53-10.22,12.51-.83c-4.77-1.64-10.24,1.33-13.52-4.28l-1.31,4.79-14.78,10.48c-1.8,1.28-3.79,3.52-5.49,5.51,3.23-1.56,6.17-3.27,9.05-5.44Z"/><path class="cls-1" d="M345.38,661.2c6.57-5.25,12.16-8.2,12.71-16.1l1.3-18.63.04-108.8-1.73-15.16c-.81-7.09-6.09-8.68-12.53-13.97l56.69-.54c15.51-.15,30.35,1.49,44.58,7.59,40.99,17.59,58.58,59.63,48.67,102.56-7.94,34.36-35.83,59.23-70.89,63.19l-30.79.88-48.05-1.02ZM458.96,619.87c22.84-42.11,8.45-104.44-38.5-116.14-11.39-2.84-22.17-2.14-34.12-1.21l-.75,31.15-.08,96.8,1.36,16.61c29.62,5.46,57.32.02,72.09-27.21Z"/><path class="cls-1" d="M294.74,659.59l-77.45-104.69-21.22-28.09.08,93.68,1.24,22c.51,8.98,5.94,13.14,14.31,18.77l-46.19.07c6.58-5.41,12.76-8.2,13.34-16.44l1.52-21.43.04-109.82c0-11.77-6.52-18.87-17.05-25.1l38.42-.32,93.62,126.82-.71-100.42-1.76-11.32c-1.22-7.89-6.93-9.74-14.45-14.76l46.91-.12c-7.84,5.12-13.27,8.75-13.64,17.45l-.97,22.81-.02,132.88c-4.36,1.14-12.47,2.8-16.01-1.98Z"/><path class="cls-1" d="M800.91,450.71c-26.24-1.85-48.06-15.72-60.4-38.37-15.9-29.18-16.27-65.01-.92-94.41,13.86-26.55,40.04-42.11,69.33-41.77,28.79.34,54.67,16.73,67.58,43.56,14.19,29.5,12.88,64.78-3.55,93.09-14.99,25.83-41.68,40.02-72.03,37.89ZM837.57,424.1c27.5-31.01,26.67-92.66-2.31-122.19-16.34-16.65-42.02-16.46-57.99.62-29.09,31.1-26.81,96.65,4.14,125.05,16.48,15.12,41.05,13.56,56.16-3.47Z"/><path class="cls-1" d="M646.08,615.75l1.29-1.86c.27-.39,1.23.3,2.37,1.05l-14.2,47.44-131.84-1.33,96.35-159.04-48.09.07c-12.69.02-23.36,6.22-31.07,15.94-2.87,3.62-3.82,8.17-9.32,10.29l8.56-40.68,19.32.28,94.99.3c.68,0,2.68.59,2.63,1.17l-.28,2.76-93.66,154.93,52.33.33c9.86.06,19.58-2.01,27.84-7.03,9.83-5.98,16.14-15.06,22.78-24.64Z"/><path class="cls-1" d="M780.25,647.03c22.78,2.12,52.29,5.48,65.99-12.74l9.4-12.51c.23-.3,1.21-1.42,1.41-1.15l1.38,1.83-9.71,40.17-86.2-.97-24.49-.54c8.87-5.39,13.42-10.32,13.57-19.71l1.07-67.88-10.97-6.64,10.73-7.07-.84-53.06c-.14-8.68-4.99-13.25-13.4-17.83l18.41-.99,88.31-.89,1.98,36.55c-1.74.08-3.71-1.02-4.21-2.25-4.41-10.89-13.64-18.35-25.52-19.49l-37.52-.05-.67,56.92,33.45-.23c8.46-.06,13.88-3.96,20.3-10.19l-.42,39.87c-6.12-8.97-10.77-14.95-20.37-15.07l-32.9-.41v63.07s1.2,11.26,1.2,11.26Z"/><path class="cls-1" d="M504.63,433.29c13.12,1.27,25.38,1.6,38.07.56,8.44-.69,15.71-4.66,21.83-10.23,5.27-4.79,7.23-11.01,13.94-16.35l-8.25,37.04c-.43,1.94-2.38,3.76-4.79,3.73l-101.7-1.17c8.53-5.39,12.97-10.34,13.06-19.3l.7-64.62-10.72-5.86,10.64-7.15-.46-48.76c-.05-5-2.27-11.12-5.63-14.15l-7.23-5.63,101.81-1.28,1.76,34.7c-.24.29-2.18,1.23-2.52.75l-1.52-2.14c-4.91-12.21-15.76-19.16-28.76-19.35l-31.61.27-.49,54.58,31.67-.08c8.51-.02,13.02-3.5,19.72-10.67l.36,36.49-1.51,1.43c-1.19,1.13-6.37-13-17.75-13.15l-32.31-.42.02,62.16c0,2.45.81,5.53,1.68,8.61Z"/><path class="cls-1" d="M649.1,294.34c-34.62,21.15-39.43,83.59-15.21,118.69,8.97,13,22.58,21.42,37.04,22.88,16.72,1.69,31.98-3.33,43.66-15.44,1.29.82,2.51,3.57,2.27,4.86l-2.72,14.89c-42.53,20.24-94.11,9.28-114.86-34.73-19.59-41.54-8.43-96.75,31.95-120.14,28.04-16.25,57.47-12.05,87.75-2.21l-7.61,39.34-3.23.85c-3.03.79-3.05-20.32-19.26-30.21-12.17-7.42-27.54-6.27-39.8,1.22Z"/><path class="cls-1" d="M836.72,741.86c-9.2-2.06-17.96-7.11-19.89-15.7,13.47,14.21,32.86,14.77,47.14,2.63,19.23-16.35,25.23-49.62,25.32-75.33l.46-128.78-1.37-21.83c-.49-7.76-6.13-9.82-13.19-15.17l54.96-.04c-6.6,5.61-11.93,7.78-12.46,15.26l-1.04,14.79-.41,128.79c-.1,31.79-8.25,64.58-33.71,84.13-12.93,9.93-29.44,14.92-45.82,11.25Z"/><path class="cls-1" d="M91.97,661.39c-1.59-3.21,9.6-4.63,10.74-13.64l1.93-15.29v-114.78s-1.49-14.62-1.49-14.62c-.76-7.48-6.14-10-12.62-15.06l54.46.19c-4.55,4.21-8.89,5.66-10.71,10.11-2.03,4.96-2.78,10.74-2.8,16.29l-.27,71.96.61,54.67c.11,9.38,4.9,14.39,13.66,19.93l-53.52.24Z"/><path class="cls-1" d="M713.42,659.62c-.45.64-1.27,1.54-1.73,1.91l-49.17-.12-1.8-.72c-2.14-.85,12.2-4.6,12.31-18.67l.64-81.42-.55-52.65c-.1-9.22-4.78-14.14-13.8-19.41l54.07-.4-1.36,2.84c-5.7,1.62-9.87,6.14-10.34,11.83l-1.46,17.85v107.8s1.25,16.96,1.25,16.96c.5,6.85,4.98,11.11,11.93,14.18Z"/><path class="cls-1" d="M442.39,446.93l-52.86.07c6.37-4.95,11.86-7.56,12.36-15.06l1.28-19.46-.04-101.87-1.44-15.1c-.68-7.09-5.8-9-12.37-14.13l53.33-.19c-6.44,5.09-12.03,7.42-12.61,15.04l-1.16,15.39-.04,103.88,1.43,17.11c.6,7.14,5.85,8.94,12.13,14.31Z"/><path class="cls-1" d="M464.31,856.81c4.86-3.77,9.71-6.6,14.99-9.2,11.37,52.19,63.54,80.04,115.33,71.67-3.5-25.24-15.19-48.75-34.25-65.35l2.17-19.02c14.46,10.43,25.7,23.44,33.73,38.92,9.93,18.18,15.32,37.68,16,58.66-38.77,9.66-76.88,5.3-109.31-18.44-18.68-14.44-31.81-33.6-38.65-57.24Z"/><path class="cls-1" d="M423,919.23c22.85,3.94,44.99.55,65.22-8.72l13.75,11.7c-28.93,16.48-63.51,18.77-96.79,10.15,1.63-33.15,14.37-65.6,38.6-88.18,24.04-22.41,56.57-30.81,87.94-23.09l.9,17.29c-17.47-5.76-34.94-4.83-51.83,1.56-32.52,12.84-52.46,44.07-57.8,79.3Z"/><path class="cls-1" d="M687.81,830.27c16.61-3.92,35.52.69,37.84,16.54-6.38-7.28-14.85-10.32-24.18-8.97l-27.03,6.6c-33.84,8.26-55.63-3.63-80.48-25.33l-22.09-19.29,18.51,5.86c28.97,9.18,58.9,8.28,86.99-3.23l43.97-18.01c23.71-9.71,55.13-14.2,75.95,1.2,8.26,6.11,13.48,14.97,13.81,25.08s-5.27,19.94-13.81,24.32c-9.37,4.81-21.05,4.78-28.42-3.48,10.4,3.95,20.52,2.5,26.95-5.21s6.82-19.06.2-27.47c-13.26-16.86-44.4-14.29-62.95-6.67l-39.71,16.32c-29.35,12.06-52.64,17.12-85.07,10.9,17.71,14.43,39.75,20.2,62.08,14.93l17.44-4.11Z"/><path class="cls-1" d="M291.38,846.41c1.24-13.48,20.14-19.66,32.14-17.09l24.02,5.14c22.2,4.75,43.71-.58,61.06-15.07-21.73,4.37-42.79,3.34-63.75-3.12l-34.56-13.44-34.02-12.96c-15.78-6.01-45.71-6.12-56.59,10.79-5.5,8.55-4.57,19.08,1.87,26.26s16.96,8.36,27.17,4.36c-8.17,8.91-20.92,8.53-30.35,2.96s-14.41-16.99-11.93-28.68c4.99-23.45,31.63-31.86,55.85-29.56,15.75,1.5,30.13,7,44.75,12.96l36.29,14.79c27.59,11.24,57.51,10.99,85.72,1.43l16.68-5.65-22.73,19.59c-26.77,23.08-46.96,33.53-82.79,24.73l-23.91-5.87c-9.56-2.35-18.88,1.55-24.93,8.42Z"/><path class="cls-1" d="M513.94,891.94c36.88-36.42,32.4-88.04-4.83-122.85-14.45,12.41-24.57,28.62-28.99,46.85l-17.8,7.1c4.24-30.92,21.95-56.68,47.02-73.7,35.92,26.52,54.7,67.34,42.82,110.83-4.96,15.97-12.98,29.58-24.39,41.74l-13.82-9.96Z"/><path class="cls-1" d="M369.68,194.42l-115-6.23-11.32-1.28,124.07-7.17c3.87-.22,7.33-3.97,10.17-6.44l15.14,14.08-14.86,13.46-8.19-6.42Z"/><polygon class="cls-1" points="773.5 187.18 649.8 193.02 640.88 200.62 626.3 187.21 640.92 173.49 648.92 179.64 744.15 185 773.5 187.18"/><path class="cls-1" d="M707.37,719.4l-33.03.43-117.77,4.21c-4.37.16-7.12.24-11.28,1.83l-6.75-6.66,6.96-5.96,5.13,2.15,97.77,1.4,52.06.95c1.43.03,4.17.82,6.92,1.64Z"/><path class="cls-1" d="M350.12,719.85l-38.75-.41c.85-1.15,2.52-1.87,4.01-1.9l53.16-.82,100.19-1.51c.98-.82,3.67-2.2,4.47-1.52l6.42,5.43-6.99,6.75c-3.52-1.39-5.63-1.79-9.25-1.92l-113.26-4.1Z"/><polygon class="cls-1" points="509.53 737.11 491.27 719.31 509.38 701.01 527.48 719.07 509.53 737.11"/><path class="cls-1" d="M808.14,412.49l-.66,2.56c-.16.6-2.27,1.06-2.55.5-1.39-2.82.14-12.24-8.25-12.1-2.15.04-6.34-2.24-7.09-4.09-.34-.84,1.06-3.12,1.58-3.63-3.18-1.81-7.06-4.36-9.43-7.48-.84-1.11-.18-4.97.8-5.94,3.47-3.44,7.47,1.31,10.1-.97-2.74-3.11-5.61-4.91-9.11-6.78-3.84-1.57-5.97-4.87-4.14-8.7-2.83-3.7-3.53-8.29-.4-11.98,7.55-2.62,9.89,5.06,15.98,6.66,1.5-8.44-11.24-13.81-6.76-25.27.43-1.09,3.56-2.51,4.62-1.97,1.24.63,3.13,2.37,4.03,3.61l1.16,1.6c.22.31,2.04.6,1.99.23l-.34-2.52c-.69-5.16-.28-10.09,3.45-14.02,2.3-2.43,6.16-2.17,8.44.4,4.11,4.63,3.16,10.43,3.54,16.99,2.5-3.02,6.7-8.53,10.03-5.43,4.95,4.61,1.31,13.7-2.74,18.15-1.97,2.17-2.91,4.45-3.49,7.8,4.7.94,9.78-8.93,15.84-5.86,4.63,2.35,2.72,9.1.05,11.76l1.15,3.63c.25.78-1.69,2.84-2.44,3.24l-10.1,5.34c-.65.34-1.64,2.19-1.73,2.86-.12.84,2.04.89,3.05.79l5.16-.56c1.31-.14,3.27,2.79,3.01,4.17-1.02,5.54-6.11,8-10.7,9.57l2.05,3.12c.38.57-.85,2.79-1.57,3.03l-8.95,2.96c-2.9.96-4.77,5.21-5.58,8.33ZM807.88,397.3c-.3-6.1-.9-12.48,2.89-16.36l10.65-10.91-.87-.91-9.38,9.28-3.59,4.18.29-20.19-.88-10.9-.94,11.62.21,19.46-4.12-3.02c4.5,6.01,4.15,11.57,3.01,18.63-.07,2.42,1.01,6.98,1.72,9.5.44-5.61,1.62-9.55,5.23-13.03l-4.21,2.65Z"/></svg>