<?xml version="1.0" encoding="UTF-8"?>
<svg id="logo_NI_V_Obraz" xmlns="http://www.w3.org/2000/svg" viewBox="0 0 1017.3 1017.3">
    <path
        d="M508.65,0C227.73,0,0,227.73,0,508.65s227.73,508.65,508.65,508.65,508.65-227.73,508.65-508.65S789.57,0,508.65,0ZM508.9,994.18c-268.08,0-485.4-217.32-485.4-485.4S240.82,23.37,508.9,23.37s485.4,217.32,485.4,485.4-217.32,485.4-485.4,485.4Z"
        fill="#222601" />
    <path
        d="M211.43,287.73l-.28,117.74-1.38,23.3c-.51,8.59-5.94,12.52-14.1,17.99l48.98-.04c-7.95-5.07-12.89-8.06-14.48-16.07l-1.86-15.18-.46-108.71,92.21,120.07c20.33,26.47,50.3,49.02,84.38,48.48,12.71-.2,25.54-2.89,35.02-11.92-40.67,12.83-68.55-15.85-90.96-45.79l-.36-47.05.37-68.96,1.41-15.54c.78-8.59,7.22-11.28,14.63-16.45l-51.76.23c10.54,5.87,15.86,12.09,16.39,23.14,1.65,33.82,1.8,67.23,1.46,102.07l-82.91-108.58c-20.63-27.01-53.66-45.82-88.02-40.78-11.63,1.7-22.26,6.36-30.55,14.53-7.78,7.68-12.5,18.43-10.75,29.26l.35,2.14c.59,3.67,1.92-11.58,6.12-17.52,14.42-20.45,40.89-19.99,62.31-7.16,9.25,5.54,16.85,12.75,24.26,20.79Z"
        fill="#222601" />
    <path
        d="M433.58,196.33c-2.15,1.22-6.46,4.05-5.88,5.94,1.96,5.31,8.65,5.49,13.47,3.95l7.99-2.55c.69-.22,3.53.86,3.32,1.55-1.12,3.69-7.49,5.34-4.51,11.81,4.39,3.19,9.72,2.8,14.53.85,2.86,1.78,5.85,1.39,8.76-.45,4.02-3.46,9.59-4.5,14.26-1.83l7.67,4.38-7.26,3.89c3.51,2.81,7.12,2.71,10.98-.78,2.38.79,5.73,3.17,7.34,4.88-3.72,3.27-7.53,6.83-9.92,10.57-.54.93,3.37,2.79,4.18,2.14l11.26-8.93,10.17,8.13c.66.53,2.82.59,3.58.42.56-.13,1.2-2.5.83-2.89l-9.32-9.87,8.03-5.45,11.35-6.56c4.58-2.64,9.77-2.14,13.9,1.34,2.88,2.42,6.26,2.02,10.04,2.09,4.46.08,9.93,1.95,13.39-2.24,4.18-5.05-5.42-10.04-4.57-11.55.39-.69,2.77-1.92,3.54-1.66l8.86,2.92c4.67,1.54,10.46.74,11.95-3.99.05-1.82-3.34-4.59-5.15-5.62l11.95-5.51c1.75-.81,2.91-5.2,2.17-6.86-.64-1.43-3.34-3.21-4.94-3.35l-10.32-.95,9.67-7.38c5.5-4.2,8.05-16.63,1.83-19.43-4.45-2.01-9.69,1.28-12.66,4.19-.49-1.54-1.08-3.31-1.95-3.7-5.5-2.47-9.34,18.01-12.05,15.05-2.81-3.06,1.06-9.1-4.39-13.45-6.11-1.1-9.82,3.12-10.74,8.55-3.99,1.07-5.34,4.58-4.4,8.67.48,3.54.11,7.45-2.15,10.06-1.63-2.87-3.5-5.99-5.71-7.57-5.55.96-6.11,7-5.82,11.01-8.39,5.2,5.98,15.6-8.86,25.03-.83.53-3.22,1.85-3.58,1l-1.68-4.02c-.8,6.32-4.39,10.85-10.23,13.19l.39-14.12c4.51-5.46,8.29-10.36,11.8-17.11-6.08-.07-8.08,5.24-10.89,8.46-.29-6.73.59-15.17,7.19-18.43l11.85-5.85c.93-.46,2.59-3.38,2.01-4.2l-2.88-4.05c10.9-3.87,19.3-15.02,13.62-20.12-1.05-.95-4.43-1.59-5.77-1.16l-9.43,3.06c-.52-7.08,9.08-7.92,17.77-16.5.7-.69,1.94-3.32,1.44-4.16l-1.86-3.12c2.79-3.65,5.23-8.47,4-13.36-.91-3.59-4.24-5.62-7.72-4.65-10.68,2.98-13.97,12.66-17.52,10.22-.77-.53-.85-3.21-.36-4.02l7.63-12.46c2.29-3.74,3.03-16-1.12-18.28-.93-.51-4.59-.71-5.34.1l-7.07,7.57c-1.99-5.69,2.36-8.84-2.72-18.52-1.82-3.46-4.35-6.8-8.47-6.21-5.61.8-12.36,11.82-9.32,20.83.35,1.05-.77,3.87-1.39,3.34-2.84-2.4-6.01-10.51-12.08-6.91-2.94,1.75-2.87,7.07-2.64,10.5.83,12.39,10.59,14.98,9.45,24.24-5.87-.66-7.85-7.43-17.13-10.33-3.48-1.09-6.76,1.11-7.59,4.65-1.14,4.88,1.5,9.78,3.41,13.46-1.13,1.93-2.22,5.86.48,7.72l9.4,6.49c3.41,2.35,6.36,3.75,7.37,8.78l-8.13-2.24c-1.68-.46-5.17.09-6.34,1.3-4.91,5.04,3.33,16.75,13.99,19.64l-3.23,4.15c-1.53,1.96,3.89,5.95,11.36,8.61,11.75,4.18,9.95,27.38,9.25,42.35l-5.5-5.09,2.29-7.24-6.06-11.18c-1.64,4.02-2.1,6.71-1.67,9.51l1.14,7.4-8.16-6.19c-7.72-5.86-.18-18.43-2.25-20.08l-3.07-2.45c1.61-3.93-.21-9.87-5.4-10.27-2.19.89-4.36,4.44-6.36,7.36-4.39-6.88,3.2-15.14-4.66-19.02l-5.46-7.56c-.91-1.26-4.78-1.78-6.24-1.27-1.46.5-3.65,3.25-3.73,4.94l-.48,9.98c-6.63-3.91-5.51-13.01-12.38-15.48l-2.98,1.76c-.19.11-7.19-6.02-11.65-2.08-2.7,2.39-2.4,6.18-1.94,9.33,1.85,12.69,10.96,9.82,12.69,17.2l-6.84-.25c-2.26-.08-5.51,1.27-6.49,3.19-2.96,5.81,4.18,10.49,12.9,12.86ZM541.91,204.17l14.78-10.48,1.31-4.79c3.27,5.61,8.75,2.64,13.52,4.28l-12.51.83-13.53,10.22c-2.88,2.18-5.82,3.89-9.05,5.44,1.7-1.99,3.69-4.23,5.49-5.51ZM496.33,135.79c5.52,3.28,8.47,8.88,12.89,14.95l.22-27.63-1.78-2.61c-.33-.49-.08-.95,1.58-1.62l.32-9.8.73-.58.31,42.32,6.87-8.5c-2.18,5.77-6.48,9.47-6.65,15.52l-.37,13.55c-.01.41,1.98.41,1.84.79-.2.5-1.11,2.19-1.14,2.9l-1.16,21.44-.98-13.2-.61-11.27.18-16.47c-1.07-7.98-7.7-12.73-12.23-19.77ZM460.97,191.93l-.08-6.46c1.09,5.03,2.24,9.06,6.84,11.87,2.28,1.75,5.64,4.57,7.9,4.33l7.45,7.77-11.69-4.44,3.22-.78-13.67-10.2-12.57-.96,10.87-.89c-5.72-5.41-12.38-10.33-16.96-17.72l18.69,17.48Z"
        fill="#222601" />
    <path
        d="M401.86,487.99l-56.69.54c6.44,5.29,11.72,6.88,12.53,13.97l1.73,15.16-.04,108.8-1.3,18.63c-.55,7.9-6.14,10.85-12.71,16.1l48.05,1.02,30.79-.88c35.06-3.97,62.95-28.83,70.89-63.19,9.91-42.92-7.68-84.97-48.67-102.56-14.23-6.1-29.06-7.74-44.58-7.59ZM458.96,619.87c-14.77,27.23-42.47,32.67-72.09,27.21l-1.36-16.61.08-96.8.75-31.15c11.96-.92,22.73-1.63,34.12,1.21,46.95,11.7,61.34,74.03,38.5,116.14Z"
        fill="#222601" />
    <path
        d="M197.39,642.5l-1.24-22-.08-93.68,21.22,28.09,77.45,104.69c3.53,4.78,11.65,3.12,16.01,1.98l.02-132.88.97-22.81c.37-8.7,5.81-12.33,13.64-17.45l-46.91.12c7.52,5.01,13.22,6.87,14.45,14.76l1.76,11.32.71,100.42-93.62-126.82-38.42.32c10.53,6.24,17.06,13.33,17.05,25.1l-.04,109.82-1.52,21.43c-.58,8.24-6.76,11.03-13.34,16.44l46.19-.07c-8.37-5.62-13.8-9.79-14.31-18.77Z"
        fill="#222601" />
    <path
        d="M739.59,317.94c-15.35,29.4-14.97,65.23.92,94.41,12.34,22.65,34.16,36.52,60.4,38.37,30.35,2.14,57.05-12.06,72.03-37.89,16.43-28.31,17.75-63.59,3.55-93.09-12.91-26.83-38.79-43.23-67.58-43.57-29.28-.34-55.47,15.21-69.33,41.77ZM777.27,302.52c15.97-17.08,41.65-17.27,57.99-.62,28.97,29.53,29.81,91.18,2.31,122.19-15.11,17.03-39.69,18.59-56.16,3.47-30.95-28.4-33.22-93.95-4.14-125.05Z"
        fill="#222601" />
    <path
        d="M637.07,489.4c.06-.58-1.95-1.17-2.63-1.17l-94.99-.3-19.32-.28-8.56,40.68c5.5-2.13,6.45-6.67,9.32-10.29,7.71-9.72,18.39-15.92,31.07-15.94l48.09-.07-96.35,159.04,131.84,1.33,14.2-47.44c-1.14-.76-2.1-1.44-2.37-1.05l-1.29,1.86c-6.64,9.58-12.95,18.66-22.78,24.64-8.25,5.02-17.98,7.09-27.84,7.03l-52.33-.33,93.66-154.93.28-2.76Z"
        fill="#222601" />
    <path
        d="M738.05,661.13l24.49.54,86.2.97,9.71-40.17-1.38-1.83c-.2-.27-1.19.85-1.41,1.15l-9.4,12.51c-13.7,18.22-43.21,14.86-65.99,12.74l-1.19-11.26v-63.07s32.9.41,32.9.41c9.6.12,14.25,6.11,20.37,15.07l.42-39.87c-6.42,6.23-11.84,10.13-20.3,10.19l-33.45.23.67-56.92,37.52.05c11.88,1.14,21.1,8.6,25.52,19.49.5,1.22,2.47,2.33,4.21,2.25l-1.98-36.55-88.31.89-18.41.99c8.41,4.58,13.26,9.15,13.4,17.83l.84,53.06-10.73,7.07,10.97,6.64-1.07,67.88c-.15,9.39-4.7,14.32-13.57,19.71Z"
        fill="#222601" />
    <path
        d="M463.73,446.86l101.7,1.17c2.41.03,4.35-1.79,4.79-3.73l8.25-37.04c-6.7,5.33-8.67,11.55-13.94,16.35-6.12,5.57-13.39,9.54-21.83,10.23-12.69,1.04-24.95.71-38.07-.56-.88-3.08-1.68-6.16-1.68-8.61l-.02-62.16,32.31.42c11.38.15,16.56,14.28,17.75,13.15l1.51-1.43-.36-36.49c-6.7,7.17-11.21,10.64-19.72,10.67l-31.67.08.49-54.58,31.61-.27c13,.19,23.85,7.14,28.76,19.35l1.52,2.14c.34.48,2.28-.46,2.52-.75l-1.76-34.7-101.81,1.28,7.23,5.63c3.37,3.03,5.59,9.15,5.63,14.15l.46,48.76-10.64,7.15,10.72,5.86-.7,64.62c-.1,8.96-4.53,13.91-13.06,19.3Z"
        fill="#222601" />
    <path
        d="M599.3,405.49c20.75,44.01,72.33,54.97,114.86,34.73l2.72-14.89c.23-1.29-.99-4.04-2.27-4.86-11.68,12.12-26.94,17.13-43.66,15.44-14.47-1.46-28.07-9.88-37.04-22.88-24.22-35.1-19.41-97.54,15.21-118.69,12.26-7.49,27.62-8.64,39.8-1.22,16.22,9.89,16.24,31.01,19.26,30.21l3.23-.85,7.61-39.34c-30.28-9.84-59.71-14.03-87.75,2.21-40.38,23.39-51.53,78.6-31.95,120.14Z"
        fill="#222601" />
    <path
        d="M875.19,487.68c7.06,5.35,12.7,7.41,13.19,15.17l1.37,21.83-.46,128.78c-.09,25.71-6.09,58.98-25.32,75.33-14.28,12.14-33.67,11.58-47.14-2.63,1.93,8.58,10.69,13.64,19.89,15.7,16.38,3.67,32.89-1.33,45.82-11.25,25.46-19.54,33.61-52.34,33.71-84.13l.41-128.79,1.04-14.79c.53-7.48,5.86-9.65,12.46-15.26l-54.96.04Z"
        fill="#222601" />
    <path
        d="M131.83,641.22l-.61-54.67.27-71.96c.02-5.55.77-11.34,2.8-16.29,1.82-4.45,6.16-5.91,10.71-10.11l-54.46-.19c6.48,5.06,11.86,7.57,12.62,15.06l1.48,14.62v114.78s-1.92,15.29-1.92,15.29c-1.14,9.01-12.33,10.42-10.74,13.64l53.52-.24c-8.77-5.53-13.56-10.55-13.66-19.93Z"
        fill="#222601" />
    <path
        d="M713.42,659.62c-6.95-3.07-11.43-7.33-11.93-14.18l-1.24-16.96v-107.8s1.45-17.85,1.45-17.85c.46-5.69,4.64-10.21,10.34-11.83l1.36-2.84-54.07.4c9.03,5.27,13.71,10.18,13.8,19.41l.55,52.65-.64,81.42c-.11,14.06-14.45,17.81-12.31,18.67l1.8.72,49.17.12c.47-.37,1.28-1.27,1.73-1.91Z"
        fill="#222601" />
    <path
        d="M389.53,447l52.86-.07c-6.28-5.38-11.53-7.17-12.13-14.31l-1.43-17.11.04-103.88,1.16-15.39c.58-7.63,6.17-9.95,12.61-15.04l-53.33.19c6.57,5.13,11.7,7.04,12.37,14.13l1.44,15.1.04,101.87-1.28,19.46c-.49,7.5-5.99,10.11-12.36,15.06Z"
        fill="#222601" />
    <path
        d="M562.55,834.91l-2.17,19.02c19.06,16.6,30.75,40.12,34.25,65.35-51.78,8.38-103.95-19.47-115.33-71.67-5.28,2.59-10.13,5.42-14.99,9.2,6.84,23.64,19.97,42.8,38.65,57.24,32.43,23.74,70.54,28.1,109.31,18.44-.67-20.98-6.07-40.49-16-58.66-8.03-15.48-19.27-28.49-33.73-38.92Z"
        fill="#222601" />
    <path
        d="M423,919.23c5.34-35.23,25.28-66.46,57.8-79.3,16.88-6.39,34.36-7.32,51.83-1.56l-.9-17.29c-31.38-7.71-63.9.68-87.94,23.09-24.23,22.59-36.97,55.03-38.6,88.18,33.28,8.63,67.85,6.33,96.79-10.15l-13.75-11.7c-20.23,9.27-42.37,12.66-65.22,8.72Z"
        fill="#222601" />
    <path
        d="M797.28,785.66c-20.82-15.39-52.24-10.91-75.95-1.2l-43.97,18.01c-28.09,11.5-58.02,12.41-86.99,3.23l-18.51-5.86,22.09,19.29c24.85,21.7,46.64,33.6,80.48,25.33l27.03-6.6c9.33-1.36,17.8,1.69,24.18,8.97-2.32-15.85-21.23-20.46-37.84-16.54l-17.44,4.11c-22.33,5.26-44.37-.5-62.08-14.93,32.43,6.23,55.72,1.17,85.07-10.9l39.71-16.32c18.55-7.62,49.69-10.19,62.95,6.67,6.61,8.41,6.28,19.7-.2,27.47-6.43,7.71-16.54,9.16-26.95,5.21,7.36,8.26,19.05,8.29,28.42,3.48,8.54-4.38,14.14-13.88,13.81-24.32-.32-10.11-5.55-18.97-13.81-25.08Z"
        fill="#222601" />
    <path
        d="M445.73,799.55l-16.68,5.65c-28.21,9.56-58.13,9.81-85.72-1.43l-36.29-14.79c-14.62-5.96-29-11.46-44.75-12.96-24.22-2.3-50.86,6.11-55.85,29.56-2.48,11.68,2.23,22.94,11.93,28.68,9.43,5.57,22.18,5.95,30.35-2.96-10.21,4-20.42,3.15-27.17-4.36-6.44-7.17-7.37-17.71-1.87-26.26,10.88-16.91,40.81-16.8,56.59-10.79l34.02,12.96,34.56,13.44c20.96,6.46,42.02,7.49,63.75,3.12-17.35,14.48-38.86,19.82-61.06,15.07l-24.02-5.14c-12-2.57-30.9,3.61-32.14,17.09,6.05-6.87,15.36-10.77,24.93-8.42l23.91,5.87c35.83,8.8,56.02-1.65,82.79-24.73l22.73-19.59Z"
        fill="#222601" />
    <path
        d="M509.11,769.09c37.22,34.81,41.71,86.43,4.83,122.85l13.82,9.96c11.41-12.16,19.43-25.77,24.39-41.74,11.89-43.49-6.9-84.31-42.82-110.83-25.07,17.02-42.77,42.79-47.02,73.7l17.8-7.1c4.42-18.22,14.54-34.44,28.99-46.85Z"
        fill="#222601" />
    <path
        d="M369.68,194.42l8.19,6.42,14.86-13.46-15.14-14.08c-2.84,2.47-6.3,6.22-10.17,6.44l-124.07,7.17,11.32,1.28,115,6.23Z"
        fill="#222601" />
    <polygon
        points="649.8 193.02 773.5 187.18 744.15 185 648.92 179.64 640.92 173.49 626.3 187.21 640.88 200.62 649.8 193.02"
        fill="#222601" />
    <path
        d="M674.34,719.83l33.03-.43c-2.74-.82-5.48-1.62-6.92-1.64l-52.06-.95-97.77-1.4-5.13-2.15-6.96,5.96,6.75,6.66c4.16-1.58,6.91-1.67,11.28-1.83l117.77-4.21Z"
        fill="#222601" />
    <path
        d="M311.37,719.44l38.75.41,113.26,4.1c3.62.13,5.73.54,9.25,1.92l6.99-6.75-6.42-5.43c-.8-.68-3.5.71-4.47,1.52l-100.19,1.51-53.16.82c-1.49.02-3.16.74-4.01,1.9Z"
        fill="#222601" />
    <polygon points="509.53 737.11 527.48 719.07 509.38 701.01 491.27 719.31 509.53 737.11"
        fill="#222601" />
    <path
        d="M783.53,374.57c3.5,1.87,6.37,3.67,9.11,6.78-2.63,2.28-6.63-2.47-10.1.97-.98.97-1.65,4.83-.8,5.94,2.36,3.12,6.24,5.67,9.43,7.48-.52.51-1.92,2.79-1.58,3.63.75,1.85,4.94,4.12,7.09,4.09,8.39-.14,6.86,9.28,8.25,12.1.28.56,2.39.11,2.55-.5l.66-2.56c.81-3.12,2.68-7.37,5.58-8.33l8.95-2.96c.72-.24,1.95-2.46,1.57-3.03l-2.05-3.12c4.59-1.58,9.68-4.03,10.7-9.57.25-1.38-1.71-4.31-3.01-4.17l-5.16.56c-1.01.11-3.16.06-3.05-.79.09-.68,1.08-2.52,1.73-2.86l10.1-5.34c.76-.4,2.69-2.46,2.44-3.24l-1.15-3.63c2.67-2.67,4.58-9.41-.05-11.76-6.06-3.08-11.14,6.8-15.84,5.86.57-3.35,1.51-5.63,3.49-7.8,4.05-4.45,7.69-13.54,2.74-18.15-3.33-3.1-7.53,2.41-10.03,5.43-.38-6.55.56-12.36-3.54-16.99-2.28-2.57-6.14-2.83-8.44-.4-3.73,3.94-4.14,8.87-3.45,14.02l.34,2.52c.05.37-1.77.08-1.99-.23l-1.16-1.6c-.89-1.23-2.79-2.98-4.03-3.61-1.06-.54-4.19.88-4.62,1.97-4.48,11.46,8.26,16.84,6.76,25.27-6.09-1.61-8.44-9.28-15.98-6.66-3.13,3.69-2.43,8.29.4,11.98-1.83,3.83.3,7.13,4.14,8.7ZM806.24,382.56l-.21-19.46.94-11.62.88,10.9-.29,20.19,3.59-4.18,9.38-9.28.87.91-10.65,10.91c-3.79,3.88-3.18,10.25-2.89,16.36l4.21-2.65c-3.61,3.48-4.79,7.42-5.23,13.03-.71-2.52-1.78-7.08-1.72-9.5,1.14-7.06,1.49-12.62-3.01-18.63l4.12,3.02Z"
        fill="#222601" />
</svg>