<?xml version="1.0" encoding="UTF-8"?><svg id="papier1_Obraz" xmlns="http://www.w3.org/2000/svg" viewBox="0 0 992.13 459.21"><path d="M349.24,0l1.34,3.28c7.27.18,14.27.28,21.39-.08,15.44-.8,30.45-.72,46.04-.92,5.33-.07,8.61.11,12.13,2.5l12.54,1.07,5.68-5.01,29.33-.1c.75,0,3.54-.5,2.85-.74h31.26s.32,4.75.32,4.75l37,.14,12.08.29c12.74.31,21.94,7.16,31.59,2.32,3.72-1.87,7.79-1.91,12.26-2.14,13.4-.7,26.56-.48,39.99-.49l51.86-.05,18.21.37c3.87.08,5.91.12,9.56,0l14.67-.5,31.32-.05,34.92-.12c8.98-.03,17.17,1.43,25.36,2.55,6.73.92,12.7,1.45,18.98,3.26l11.12,3.21c5.09,1.47,11.96-1.45,16.56-2.12l21.6-3.17c5.42-.8,14.31-3.47,19.4-2.47l16.37,3.2c3.29-1.31,6.04-.74,8.81.53,3.83,1.76,3.31,7.77,14.74,13.53l-1.28,3.78c3,2.99,3.29,6.8.19,9.64l4.32,5.91,4.89,4.77c3.13.2,6.49.65,7.49,1.57.86.79,1.81,3.01,1.75,3.99l-.55,8.44c-.18,2.68,1.16,6.48,0,9.07-1.66,3.72-.21,5.44,4.65,8l1.36,11.42c-3.13.75-5.66,2.45-5.16,4.18.31,1.07,3.17,1.99,5.77,2.78l.94,19.73.34,8.46,1.78,28.01,1.37,21.95,1.77,25.18c.15,2.07-2.16,4.2-4.46,5.52,1.77.67,5.2,3.23,5.08,4.77l-.59,8.04-.08,7.74,2.47,28.97.64,6.94.86,22.17c.28,7.31-4.21,10.68-5.77,9.62l-2.41-1.63c-.26-.8.06.18.32.99l2.23,19.94c.55,4.88-.55,8.88-4.54,13.29-2.84,3.15,2.76,6.83,2.91,14.4.03,1.38-5.31,2.85-7.67,3.27l-.07,9.11,11.77,4.5-.4,12.21c-2.2,1.77-2.44,3.6-.36,5.58l-5.76,19.9c-.57,1.97-3.32,4.93-4.61,6.58,3.91,6.09-3.02,14-8.2,20.57-2.76,3.51-3.41,8.12-9.55,10.5l-11,1.41-5.84,7.35-15.47,6.5-29.39,1.5-17.55.62-40.68.23c-2.64.02-6.76-.87-8.74-1.35-5.18,1.42-11.27,1.34-17.22,1.37l-38.32.17-38.87.12-73.53-.25-35.31.18-16.24.02-77.09,1.04-11.66-.22-38.32.41-54.25.26-16.2.08-71.36,1.24-96.23,2.73-56.28,1.52-11.58.24-38.46.94-39.26.18-2-5.14-27.47-.42-28.04-.07c-4.66-.01-12.02-1.79-15.12-3.75-4.38-9.45-.96-16.85-6.71-25.74-4.32-6.69-1.31-14.36-2.31-21.29-.45-3.11-.27-4.52,4.82-6.67l.51-17.97c.03-1.18-4.23-2.01-6.52-2.02l-2.01-19.43-2.86-36.7-3.03-27.07c-.98-8.72-.89-16.98-.3-25.88l11.94-.16c.9-5.4.77-10.81.49-16.39-.09-1.89,3.25-6.29-2.44-6.91l-11.81-1.29c-1.26-4.74-.65-8.88-1.5-13.4l-1.88-10.01-.19-22.26c-.04-4.83-1.12-9.72.17-14.58,4.55-1.62,4.32-4.08,2.75-6.77l1.19-10,.87-10.43c3.9.19,6.25.24,6.8-.64.48-.76.51-3.84-.82-3.82l-6.09.1C11.3,142.26-.11,144.03,0,139.51l.45-17.9c.02-.99.89-3.07,2.03-3.67s4.29-.97,6.35-1.2c-.93-3.97-1.89-8.71-1.55-12.99l1.27-15.83c.44-5.54,1.07-10.5,2.4-16.05,2.22-9.2-3.93-17.88,4.63-19.65l2.26-9.54c.39-1.65,4.22-4.76,3.5-6.31-1.43-3.07-1.75-4.73,3.12-6.7l.87-11.15c4.67-4.55,9.7-8.31,15.73-12.09,26.79-1.72,52.43-2.46,79.29-1.84,22.56-.6,43.64-.54,66.34-.06l5.91-3.13L201.69,0h147.56Z" fill="#d8c6a5"/></svg>